<?xml version="1.0" encoding="iso-8859-1"?>
<!-- Generator: Adobe Illustrator 19.0.0, SVG Export Plug-In . SVG Version: 6.00 Build 0)  -->
<svg version="1.1" id="Capa_1" xmlns="http://www.w3.org/2000/svg" xmlns:xlink="http://www.w3.org/1999/xlink" x="0px" y="0px"
	 viewBox="0 0 498.714 498.714" style="enable-background:new 0 0 498.714 498.714;" xml:space="preserve">
<g>
	<path style="fill:#D6D8D8;" d="M498.714,348.811v18.588c0,4.477-3.636,8.112-8.124,8.112h-3.24v8.567
		c0,4.488-3.636,8.125-8.111,8.125h-3.288v29.279c0,4.632-3.769,8.4-8.4,8.4c-4.644,0-8.399-3.769-8.399-8.4v-29.279h-31.285
		l-125.772,28.739v0.984c0,3.264-2.651,5.916-5.916,5.916c-3.264,0-5.903-2.652-5.903-5.916V294.271
		c0-1.632,0.659-3.108,1.728-4.177c1.067-1.067,2.544-1.727,4.176-1.727c3.265,0,5.916,2.639,5.916,5.903v0.983l125.772,28.752
		h51.372c4.476,0,8.111,3.625,8.111,8.112v8.568h3.24C495.079,340.687,498.714,344.323,498.714,348.811z"/>
	<path style="fill:#D6D8D8;" d="M411.636,378.303h-391.3c-3.609,0-6.535-2.926-6.535-6.535v-282.6c0-3.609,2.926-6.535,6.535-6.535
		h391.301c3.609,0,6.535,2.926,6.535,6.535v282.6C418.171,375.378,415.246,378.303,411.636,378.303z"/>
</g>
<path style="fill:#FFFFFF;" d="M355.054,70.632h44.582c3.609,0,6.535,2.926,6.535,6.535v282.601c0,3.609-2.926,6.535-6.535,6.535
	H8.336c-3.609,0-6.535-2.926-6.535-6.535v-282.6c0-3.609,2.926-6.535,6.535-6.535h325.919"/>
<path d="M399.637,368.104H8.336c-4.597,0-8.336-3.739-8.336-8.336v-282.6c0-4.596,3.739-8.335,8.336-8.335h325.919
	c0.994,0,1.8,0.806,1.8,1.8c0,0.995-0.806,1.801-1.8,1.801H8.336c-2.611,0-4.736,2.124-4.736,4.734v282.6
	c0,2.611,2.125,4.736,4.736,4.736h391.301c2.61,0,4.734-2.125,4.734-4.736v-282.6c0-2.61-2.124-4.734-4.734-4.734h-44.583
	c-0.994,0-1.8-0.806-1.8-1.801c0-0.994,0.806-1.8,1.8-1.8h44.583c4.596,0,8.334,3.739,8.334,8.335v282.6
	C407.971,364.365,404.233,368.104,399.637,368.104z"/>
<path style="fill:#EFEFEF;" d="M404.371,77.167v282.601c0,2.616-2.124,4.739-4.729,4.739H8.335c-2.616,0-4.74-2.123-4.74-4.739
	v-3.66h384.048c4.597,0,8.328-3.743,8.328-8.34V72.427h3.672C402.247,72.427,404.371,74.551,404.371,77.167z"/>
<path style="fill:#F8B238;" d="M170.994,113.7h-57.828c-2.994,0-5.42-2.427-5.42-5.42l0,0c0-2.994,2.426-5.421,5.42-5.421h57.828
	c2.994,0,5.421,2.427,5.421,5.421l0,0C176.415,111.273,173.988,113.7,170.994,113.7z"/>
<path d="M170.995,115.5h-57.829c-3.981,0-7.221-3.239-7.221-7.22s3.239-7.221,7.221-7.221h57.829c3.98,0,7.22,3.239,7.22,7.221
	C178.214,112.26,174.975,115.5,170.995,115.5z M113.166,104.66c-1.996,0-3.62,1.624-3.62,3.62s1.624,3.62,3.62,3.62h57.829
	c1.996,0,3.62-1.624,3.62-3.62s-1.624-3.62-3.62-3.62H113.166z"/>
<polyline style="fill:#EFEFEF;" points="47.863,237.456 47.863,194.309 360.109,194.309 360.109,328.976 47.863,328.976 
	47.863,251.855 "/>
<path d="M360.11,330.776H47.862c-0.993,0-1.8-0.805-1.8-1.8v-77.121c0-0.994,0.807-1.8,1.8-1.8c0.994,0,1.801,0.806,1.801,1.8
	v75.321h308.646V196.109H49.663v41.347c0,0.994-0.807,1.8-1.801,1.8c-0.993,0-1.8-0.806-1.8-1.8V194.31c0-0.994,0.807-1.8,1.8-1.8
	H360.11c0.993,0,1.8,0.806,1.8,1.8v134.667C361.91,329.971,361.103,330.776,360.11,330.776z"/>
<path style="fill:#D6D8D8;" d="M358.314,196.111v131.063H49.663v-8.399h298.452c0.996,0,1.8-0.804,1.8-1.8V196.111H358.314z"/>
<path style="fill:#F96132;" d="M108.374,264.229l28.068,28.068l-10.236,10.236H63.398l38.304-38.305
	C103.545,262.387,106.531,262.387,108.374,264.229z"/>
<path d="M126.206,304.334H63.398c-0.728,0-1.384-0.438-1.663-1.11c-0.278-0.674-0.124-1.447,0.391-1.963l38.304-38.304
	c1.23-1.231,2.867-1.909,4.607-1.909c1.741,0,3.379,0.678,4.609,1.909l28.068,28.067c0.338,0.338,0.527,0.796,0.527,1.273
	s-0.189,0.936-0.527,1.272l-10.236,10.236C127.141,304.143,126.682,304.334,126.206,304.334z M67.743,300.733h57.718l8.437-8.436
	l-26.797-26.796l0,0c-1.138-1.138-2.99-1.136-4.126,0L67.743,300.733z"/>
<path style="fill:#F96132;" d="M187.261,302.534h-61.056l27.192-27.192c1.842-1.843,4.829-1.843,6.672,0L187.261,302.534z"/>
<path d="M187.261,304.334h-61.056c-0.728,0-1.384-0.438-1.663-1.11c-0.278-0.674-0.124-1.447,0.391-1.963l27.192-27.191
	c1.23-1.231,2.867-1.91,4.607-1.91c1.741,0,3.379,0.679,4.609,1.91l27.191,27.191c0.515,0.516,0.67,1.289,0.391,1.963
	C188.645,303.895,187.99,304.334,187.261,304.334z M130.551,300.733h52.365l-24.12-24.119c-1.102-1.102-3.024-1.104-4.126,0
	L130.551,300.733z"/>
<circle style="fill:#3ABADD;" cx="133.357" cy="239.678" r="16.16"/>
<path d="M133.36,257.643c-9.903,0-17.96-8.057-17.96-17.96s8.057-17.96,17.96-17.96s17.96,8.057,17.96,17.96
	S143.263,257.643,133.36,257.643z M133.36,225.323c-7.918,0-14.36,6.442-14.36,14.36s6.442,14.36,14.36,14.36
	s14.36-6.442,14.36-14.36S141.278,225.323,133.36,225.323z"/>
<path style="fill:#1490AD;" d="M147.714,239.683c0,7.92-6.444,14.364-14.352,14.364c-2.94,0-5.772-0.912-8.124-2.532
	c0.708,0.084,1.416,0.132,2.124,0.132c9.899,0,17.951-8.064,17.951-17.964c0-0.72-0.048-1.429-0.132-2.136
	C146.802,233.899,147.714,236.731,147.714,239.683z"/>
<rect x="47.867" y="155.608" style="fill:#F8B238;" width="298.87" height="9.07"/>
<path d="M346.732,166.484H47.862c-0.993,0-1.8-0.806-1.8-1.8v-9.075c0-0.994,0.807-1.8,1.8-1.8h298.87c0.993,0,1.8,0.806,1.8,1.8
	v9.075C348.532,165.678,347.725,166.484,346.732,166.484z M49.663,162.884h295.269v-5.476H49.663V162.884z"/>
<rect x="47.867" y="173.608" style="fill:#F8B238;" width="247.27" height="9.07"/>
<path d="M295.131,184.484H47.862c-0.993,0-1.8-0.806-1.8-1.8v-9.075c0-0.994,0.807-1.8,1.8-1.8h247.27c0.994,0,1.8,0.806,1.8,1.8
	v9.075C296.931,183.678,296.126,184.484,295.131,184.484z M49.663,180.884h243.669v-5.476H49.663V180.884z"/>
<polyline style="fill:#3ABADD;" points="56.655,95.084 47.863,95.084 47.863,140.284 93.062,140.284 93.062,95.084 65.455,95.084 
	"/>
<path d="M93.063,142.084H47.862c-0.993,0-1.8-0.806-1.8-1.8v-45.2c0-0.994,0.807-1.8,1.8-1.8h8.793c0.994,0,1.8,0.806,1.8,1.8
	c0,0.995-0.806,1.801-1.8,1.801h-6.992v41.6h41.6v-41.6H65.455c-0.994,0-1.8-0.806-1.8-1.801c0-0.994,0.806-1.8,1.8-1.8h27.608
	c0.993,0,1.8,0.806,1.8,1.8v45.2C94.863,141.278,94.056,142.084,93.063,142.084z"/>
<path style="fill:#F8B238;" d="M455.545,417.878L455.545,417.878c-4.639,0-8.399-3.761-8.399-8.4v-34.8h16.8v34.8
	C463.946,414.117,460.185,417.878,455.545,417.878z"/>
<path d="M455.545,419.677c-5.623,0-10.2-4.575-10.2-10.2v-34.8c0-0.995,0.807-1.8,1.801-1.8h16.8c0.994,0,1.8,0.805,1.8,1.8v34.8
	C465.746,415.102,461.17,419.677,455.545,419.677z M448.946,376.477v33c0,3.639,2.961,6.6,6.6,6.6s6.601-2.961,6.601-6.6v-33
	H448.946z"/>
<path style="fill:#EA961C;" d="M462.151,376.483v33c0,3.636-2.964,6.6-6.601,6.6c-2.04,0-3.899-0.936-5.124-2.436
	c5.22-0.456,9.324-4.836,9.324-10.164v-27H462.151z"/>
<path style="fill:#FFFFFF;" d="M478.59,363.512h-4.192v-34.824h4.192c4.484,0,8.118,3.635,8.118,8.119v18.587
	C486.709,359.878,483.075,363.512,478.59,363.512z"/>
<path d="M478.59,365.313h-4.192c-0.994,0-1.801-0.807-1.801-1.801v-34.824c0-0.994,0.807-1.799,1.801-1.799h4.192
	c5.47,0,9.919,4.448,9.919,9.918v18.588C488.509,360.864,484.06,365.313,478.59,365.313z M476.198,361.712h2.393
	c3.484,0,6.319-2.834,6.319-6.317v-18.588c0-3.484-2.835-6.318-6.319-6.318h-2.393V361.712z"/>
<path style="fill:#FFFFFF;" d="M415.862,380.199h51.372c4.483,0,8.118-3.635,8.118-8.118v-51.96c0-4.483-3.635-8.118-8.118-8.118
	h-51.372V380.199z"/>
<path d="M467.234,381.999h-51.372c-0.994,0-1.801-0.805-1.801-1.8v-68.196c0-0.994,0.807-1.801,1.801-1.801h51.372
	c5.47,0,9.919,4.449,9.919,9.919v51.96C477.153,377.549,472.704,381.999,467.234,381.999z M417.662,378.398h49.572
	c3.484,0,6.319-2.834,6.319-6.318v-51.96c0-3.484-2.835-6.318-6.319-6.318h-49.572V378.398z"/>
<path style="fill:#EFEFEF;" d="M473.55,367.723v4.355c0,3.492-2.832,6.324-6.312,6.324h-49.571v-8.4h49.572
	C469.638,370.003,471.835,369.151,473.55,367.723z"/>
<polygon style="fill:#F8B238;" points="415.862,380.199 288.899,409.219 288.899,282.983 415.862,312.003 "/>
<path d="M288.899,411.018c-0.404,0-0.8-0.135-1.121-0.393c-0.429-0.341-0.679-0.859-0.679-1.406V282.982
	c0-0.548,0.25-1.065,0.679-1.407c0.428-0.342,0.99-0.471,1.522-0.348l126.962,29.021c0.819,0.188,1.399,0.915,1.399,1.755v68.196
	c0,0.84-0.58,1.567-1.399,1.755L289.3,410.974C289.168,411.004,289.033,411.018,288.899,411.018z M290.7,285.24v121.722
	l123.361-28.197v-65.327L290.7,285.24z M415.862,380.199h0.012H415.862z"/>
<polygon style="fill:#EA961C;" points="414.066,371.659 414.066,378.763 290.695,406.963 290.695,399.859 "/>
<path style="fill:#FFFFFF;" d="M284.183,415.838L284.183,415.838c3.265,0,5.91-2.646,5.91-5.909V282.272
	c0-3.264-2.646-5.91-5.91-5.91l0,0c-3.264,0-5.91,2.646-5.91,5.91v127.657C278.273,413.193,280.92,415.838,284.183,415.838z"/>
<path d="M284.184,417.639c-4.252,0-7.71-3.459-7.71-7.711V282.272c0-4.251,3.458-7.71,7.71-7.71c4.251,0,7.71,3.459,7.71,7.71
	v127.656C291.894,414.18,288.435,417.639,284.184,417.639z M284.184,278.163c-2.267,0-4.11,1.843-4.11,4.109v127.656
	c0,2.268,1.844,4.111,4.11,4.111s4.109-1.844,4.109-4.111V282.272C288.294,280.005,286.45,278.163,284.184,278.163z"/>
<path style="fill:#EFEFEF;" d="M288.295,282.271v127.656c0,2.268-1.848,4.116-4.116,4.116s-4.104-1.849-4.104-4.116v-4.524
	c3.336-0.852,5.819-3.9,5.819-7.476V278.54C287.31,279.187,288.295,280.615,288.295,282.271z"/>
<path style="fill:#F8B238;" d="M277.654,325.713c-7.735,0-14.006,9.128-14.006,20.387c0,11.26,6.271,20.387,14.006,20.387V325.713z"
	/>
<path d="M277.654,368.286c-8.715,0-15.806-9.952-15.806-22.187c0-12.233,7.091-22.187,15.806-22.187c0.994,0,1.8,0.806,1.8,1.8
	v40.773C279.454,367.48,278.648,368.286,277.654,368.286z M275.854,327.715c-5.88,1.329-10.406,9.067-10.406,18.385
	c0,9.318,4.526,17.057,10.406,18.385V327.715z"/>
<path d="M263.279,300.538c-0.461,0-0.921-0.176-1.272-0.527l-10.544-10.543c-0.703-0.702-0.703-1.842,0-2.545s1.843-0.703,2.546,0
	l10.543,10.543c0.703,0.702,0.703,1.842,0,2.545C264.2,300.362,263.739,300.538,263.279,300.538z"/>
<path d="M243.666,347.894h-14.92c-0.993,0-1.8-0.806-1.8-1.8s0.807-1.801,1.8-1.801h14.92c0.993,0,1.8,0.807,1.8,1.801
	S244.659,347.894,243.666,347.894z"/>
<path d="M252.736,405.806c-0.461,0-0.922-0.176-1.273-0.527c-0.703-0.702-0.703-1.843,0-2.546l10.557-10.556
	c0.703-0.703,1.842-0.703,2.545,0c0.703,0.702,0.703,1.843,0,2.546l-10.556,10.556C253.657,405.63,253.196,405.806,252.736,405.806z
	"/>
<path d="M248.624,322.579c-0.227,0-0.457-0.043-0.68-0.135l-13.792-5.636c-0.92-0.376-1.361-1.427-0.985-2.347
	s1.425-1.361,2.347-0.986l13.792,5.637c0.92,0.376,1.361,1.427,0.985,2.347C250.006,322.156,249.334,322.579,248.624,322.579z"/>
<path d="M235.138,379.616c-0.703,0-1.371-0.415-1.66-1.104c-0.386-0.916,0.046-1.972,0.962-2.356l13.739-5.768
	c0.922-0.387,1.971,0.045,2.356,0.963c0.386,0.916-0.046,1.971-0.962,2.355l-13.739,5.769
	C235.606,379.571,235.371,379.616,235.138,379.616z"/>
<g>
</g>
<g>
</g>
<g>
</g>
<g>
</g>
<g>
</g>
<g>
</g>
<g>
</g>
<g>
</g>
<g>
</g>
<g>
</g>
<g>
</g>
<g>
</g>
<g>
</g>
<g>
</g>
<g>
</g>
</svg>
