<svg xmlns="http://www.w3.org/2000/svg" viewBox="0 0 772.83 612.53"><defs><style>.cls-1,.cls-9{fill:#b1bee8;}.cls-1{opacity:0.7;}.cls-2{fill:#ededf2;}.cls-3{fill:#d7d7e2;}.cls-4{fill:#f7f7f7;}.cls-5{fill:#76a0ff;}.cls-6{fill:#ff5757;}.cls-7{fill:#99beff;}.cls-8{fill:#9faed3;}.cls-10{fill:#518de5;}.cls-11{fill:#e89c82;}.cls-12{fill:#002560;}.cls-13{fill:#664514;}.cls-14{fill:#f4ae92;}.cls-15{fill:#825c1a;}.cls-16{fill:#0944ad;}.cls-17{fill:none;stroke:#fff;stroke-miterlimit:10;stroke-width:2px;}.cls-18{fill:#03336d;}.cls-19{fill:#534939;}.cls-20{fill:#061230;}.cls-21{fill:#f2f2f2;}</style></defs><title>404Asset 11@</title><g id="Layer_2" data-name="Layer 2"><g id="_ÎÓÈ_1" data-name="—ÎÓÈ_1"><ellipse class="cls-1" cx="386.67" cy="503.83" rx="179.2" ry="53.05"/><path class="cls-2" d="M350.57,425.86s1.43,22.36-3.38,37.77c-7.9,25.33-30,28-30,41.44,0,.25,139,.31,139,0,0-12.84-21-16.92-28.25-40.52-5.45-17.69-2.3-38.69-2.3-38.69Z"/><rect class="cls-3" x="317.18" y="504.84" width="139" height="6.14"/><rect class="cls-4" x="142.01" y="103.34" width="489.98" height="335.25" rx="15"/><rect class="cls-5" x="162.86" y="125.62" width="447.61" height="261.57"/><circle class="cls-1" cx="386.67" cy="412.97" r="11.05"/><path class="cls-6" d="M599,387.45H175v-234A12.5,12.5,0,0,1,187.5,141H586.25A12.75,12.75,0,0,1,599,153.7Z"/><path class="cls-4" d="M187.5,140.95H586.25A12.75,12.75,0,0,1,599,153.7v8.75a0,0,0,0,1,0,0H175a0,0,0,0,1,0,0v-9A12.5,12.5,0,0,1,187.5,140.95Z"/><circle class="cls-7" cx="188.75" cy="151.2" r="3.25"/><circle class="cls-7" cx="198.75" cy="151.2" r="3.25"/><circle class="cls-7" cx="208.75" cy="151.2" r="3.25"/><ellipse class="cls-1" cx="51" cy="477.81" rx="51" ry="21.71"/><path class="cls-8" d="M97.07,384.05c0,7.74-21.13,14-47.2,14S1.2,392.52,1.2,384.78,23.81,370,49.87,370,97.07,376.31,97.07,384.05Z"/><path class="cls-9" d="M42.5,411.33c8.85-29.49-3.54-72.48-8.07-86.15-5.89-17.77-5-37-8.08-55.46C22.76,248.19,13.82,228,5,208c-6.32,33.19,1.54,67.23,8.73,100.24S18.9,373,29.22,408.38"/><path class="cls-9" d="M62.89,402.94c11.12-11.5,13.46-28.89,12.78-44.88S71.9,326,74.47,310.2c1.94-11.85,7-22.95,10.1-34.54,4.92-18.23,5-37.37,5.07-56.26a254.53,254.53,0,0,0-19.36,39.34c-5.39,13.87-9.56,28.18-13.71,42.46-2.76,9.49-5.54,19.07-6.24,28.92-1,13.4,1.94,26.73,2.93,40.13S53,398,45,408.77"/><path class="cls-9" d="M51.35,294.82c0-45.72-14.75-98.82-29.72-124.13-3.75,23.3,12,66.61,11.48,120.05C32.67,335,46.74,380.82,46.38,416.32,60.36,377.4,51.35,336.22,51.35,294.82Z"/><path class="cls-4" d="M89.69,221.08c-4.4,14.1-8.37,28.31-12.12,42.59L66.42,306.55c-1,3.57-2,7.09-2.7,10.69s-1.27,7.23-1.65,10.88a216.06,216.06,0,0,0-.88,22.05c0,7.38.17,14.77-.15,22.17s-1.21,14.84-3.8,21.79c2.27-7.05,3-14.46,3.08-21.81s-.14-14.75-.26-22.14A189,189,0,0,1,60.74,328c.36-3.7.88-7.38,1.6-11s1.7-7.25,2.66-10.8c3.9-14.23,7.49-28.56,11.48-42.79S84.71,235,89.69,221.08Z"/><path class="cls-4" d="M4.89,210c.92,7.71,2.17,15.37,3.61,23s2.95,15.23,4.53,22.83c3.17,15.19,6.38,30.38,9.09,45.69,1.35,7.65,2.37,15.37,3.47,23s2.37,15.33,3.57,23c2.36,15.33,5.25,30.61,6.7,46.08-1-7.7-2.36-15.33-3.74-23L28,347.74c-1.36-7.64-2.58-15.31-3.76-23s-2.24-15.35-3.58-23c-2.58-15.28-5.82-30.46-8.74-45.71S6.16,225.5,4.89,210Z"/><path class="cls-4" d="M22.22,172C26.58,190.33,31,208.58,35.09,227c1.9,9.23,3.24,18.55,4.41,27.89s2.06,18.71,2.68,28.11a237.91,237.91,0,0,1,.18,28.26,134,134,0,0,0,.25,14c.27,4.68.69,9.36,1.1,14,.86,9.36,1.95,18.7,2.9,28.05s1.8,18.74,1.79,28.15c-.23-9.41-1.37-18.74-2.5-28.07s-2.32-18.66-3.32-28c-.49-4.68-1-9.36-1.24-14.07A136.34,136.34,0,0,1,41,311.17a231.28,231.28,0,0,0-.31-28.11c-.56-9.36-1.43-18.71-2.54-28S35.7,236.41,34,227.19Z"/><path class="cls-9" d="M91.7,286.26c-5.33,26.81-15.4,45.29-22,68.3-3.52,12.34-6.68,28-3.09,40.36l7.33-2c.88-14.27,9.33-26.77,14.78-40A99.19,99.19,0,0,0,91.7,286.26Z"/><path class="cls-9" d="M19.71,351.45c-7-14.69-14.14-30.73-11-46.7C3,312.7,1.29,323,2.23,332.8S6.57,351.91,10.29,361c5,12.26,10.79,25.57,7.08,38.29l14-1.23C34.09,382,26.74,366.14,19.71,351.45Z"/><path class="cls-4" d="M91.72,287.08a49.41,49.41,0,0,1,1.33,14.81,79.18,79.18,0,0,1-2.51,14.73C88,326.26,84,335.42,80,344.49c-2,4.53-4,9.07-5.64,13.71a84.71,84.71,0,0,0-3.79,14.24,74,74,0,0,0-1,14.72,76.86,76.86,0,0,0,1.75,14.71,71.59,71.59,0,0,1-1.84-29.61c1.39-9.94,5.26-19.29,9.21-28.36s8-18.11,10.81-27.59S93.63,296.86,91.72,287.08Z"/><path class="cls-4" d="M8.21,305.14c-3.1,7.78-3.07,16.33-1.56,24.39a91.56,91.56,0,0,0,3,12c1.3,3.91,2.87,7.74,4.49,11.56,3.14,7.66,6.65,15.33,8.36,23.57a84.1,84.1,0,0,1,1.61,12.42,121,121,0,0,1-.1,12.49c-.12-8.31-.66-16.63-2.63-24.66s-5.34-15.6-8.6-23.25c-1.58-3.85-3.13-7.73-4.41-11.72a78.73,78.73,0,0,1-2.91-12.2A54.3,54.3,0,0,1,5,317.19,42.71,42.71,0,0,1,6.05,311,34.68,34.68,0,0,1,8.21,305.14Z"/><path class="cls-4" d="M85.27,477.7s-11.06,11.06-36.14,11.06S16,477.7,16,477.7L1.2,383.31s14.75,11.8,50.15,11.8c28,0,45.72-11.8,45.72-11.8Z"/><ellipse class="cls-1" cx="717.32" cy="482.36" rx="38.69" ry="14.05"/><path class="cls-4" d="M716.08,409.17c-1.34,0-2.67,0-4-.05l-1.29-.05-2.59-.11-1.5-.09-2.25-.16-1.57-.14c-.69-.06-1.36-.13-2-.21s-1.06-.11-1.58-.18-1.24-.16-1.85-.24l-1.58-.23c-.31,0-.59-.1-.9-.15-1.41-.23-2.76-.48-4.06-.76l-.87-.18c-.67-.15-1.32-.31-2-.47l-.72-.19c-.66-.17-1.3-.35-1.91-.54l-.5-.15c-.66-.21-1.3-.42-1.91-.64l-.11,0c-3.45-1.25-6-2.7-7.42-4.28,0,39.88,14.17,80.33,14.88,80.68,25.15,12.58,52,1.68,52,1.68s15.09-43,14.35-82.38C752.14,405.39,735.71,409.17,716.08,409.17Z"/><path class="cls-8" d="M757,398c0,6.48-17.77,11.22-40.92,11.22s-40.58-3.49-40.58-10,17.43-13.5,40.58-13.5S757,391.47,757,398Z"/><path class="cls-4" d="M746.72,463.59a31.75,31.75,0,0,1-8.42-1.15l1.67-5.93c2.8.78,12.44,2.83,19.32-3.86,7.15-7,8.44-20.46,6.62-30-1.14-6-3.11-8.58-3.89-8.9,0,0-3.82-1-15,16.81l-5.23-3.27c10-15.94,16.74-21.66,22.57-19.24,4.74,2,6.78,9.28,7.57,13.44,2.19,11.54.45,27-8.38,35.63A23.56,23.56,0,0,1,746.72,463.59Z"/><path class="cls-10" d="M269.67,393.62l-27,53.57H168.2l25.67-50.86-5.36-2.71L79.41,609.82l5.36,2.71,19.14-37.94h74.44l-17.78,35.23,5.36,2.71L275,396.33Zm-30.06,59.57-15.94,31.58H149.24l15.93-31.58Zm-19,37.58L203.87,524H129.43l16.78-33.25ZM106.94,568.59,126.4,530h74.44l-19.46,38.57Z"/><path class="cls-4" d="M317.56,318.6V295.17H275.81V283.81l37.63-57.51H334V282H346v13.21H334V318.6Zm0-36.64V256.83c0-5.26.14-10.65.57-16h-.57c-2.84,5.82-5.25,10.51-8.09,15.62l-16.9,25.28-.14.28Z"/><path class="cls-11" d="M278.69,52.7c-.49,4.29-2.91,19.27-1.1,23.87a26.15,26.15,0,0,0,5.63,8.2c1.55-.66,6-11.47,7.59-12.12q-.85-9.12-1.72-18.23C285.91,53.84,281.87,53.27,278.69,52.7Z"/><path class="cls-11" d="M334.67,52.84c.56,4.5,2.59,20,.32,24.34-1.52,2.92-5.44,6.94-8,9-1.47-.8-4.55-13.9-6-14.71l3.57-18C327.8,53.32,331.45,53.08,334.67,52.84Z"/><path class="cls-7" d="M322.75,85.62H289.34s-4.22-28,1.83-34.39c6.53-6.88,26.39-6.53,31.09-.73C327.79,57.33,322.75,85.62,322.75,85.62Z"/><path class="cls-12" d="M275,87.73a139.35,139.35,0,0,0,29.17,2.69c19.23-.28,29.38-4.47,30.48-1.12,1.25,3.79-9.63,15.44-22.32,18-5.42,1.08-12.41-1.41-26.4-6.39-4.05-1.45-9-3.43-10.55-8.44A11.86,11.86,0,0,1,275,87.73Z"/><path class="cls-7" d="M278.45,53.8A21.65,21.65,0,0,1,281.64,43c2.83-2,5.84-3.34,12.26-5.12a49.08,49.08,0,0,1,16.23-1.41c10.3.9,17.57,4.07,21.18,6.62A21.5,21.5,0,0,1,335,53.31C335.38,57.63,278.74,56.48,278.45,53.8Z"/><path class="cls-4" d="M280.5,88.36a3.26,3.26,0,0,0,3.2,3l45.54-.12a3.2,3.2,0,0,0,3.14-3L333.69,63a2.92,2.92,0,0,0-2.93-3l-49.14.13a2.86,2.86,0,0,0-2.87,3Z"/><rect class="cls-13" x="293.27" y="18.63" width="25.58" height="19.79"/><path class="cls-11" d="M313.13,30.6c-.47,3.35-1.67,7.24-.44,10.76-2.94.24-7.11-.5-10.05-.26A28.44,28.44,0,0,0,301.05,30C305.22,30.34,309,30.25,313.13,30.6Z"/><path class="cls-14" d="M317.87,21.32c0,7.61-4.85,13.78-10.82,13.78s-10.82-6.17-10.82-13.78,4.84-13.78,10.82-13.78S317.87,13.71,317.87,21.32Z"/><path class="cls-11" d="M310.13,36.51a50.05,50.05,0,0,0-14.55,1c.06,3.9,5.07,7,11.25,7,6,0,10.87-2.95,11.22-6.67A48.15,48.15,0,0,0,310.13,36.51Z"/><path class="cls-15" d="M310,8.3a8.75,8.75,0,0,1-2.56,4.93c-4,4.08-7.49,4.78-9.79,7.67-2,2.52-1.92,10,3.22,21-4.61,2.62-8.79-.15-9.83-.89-4.1-2.9-3-17.17,0-25.83C292.78,10,294.84,4,300.78,1.32c.62-.28,6.24-2.71,11.56-.18s7.3,8.37,9.53,16.61c1.36,5,2.78,17.83,1.2,21-1.82,3.7-6.09,4-9.14,3.18,4.73-4.57,4.35-18.59,3.78-22.72C317.33,16.46,315.82,10.88,310,8.3Z"/><path class="cls-9" d="M309.63,74.54a3.36,3.36,0,1,1-3.36-3.36A3.36,3.36,0,0,1,309.63,74.54Z"/><path class="cls-11" d="M307.24,115.39a4.75,4.75,0,0,0,1.22,2.55c1.39,1.68,3.77,1.86,4.35,2.29,1.88,1.42,5.83,4.07,15.24,7.53,1,.38,6.26,2,7.92-2,1.6-3.76-2.28-6.66-6.75-8.53-4.28-1.8-6.5-1.37-9.3-3.15-1.25-.8-2.13-2.2-2.92-2.3a1.88,1.88,0,0,0-2,.82"/><path class="cls-16" d="M294.19,96.84c-3.4-3-8.44-7.65-15.58-10.52a28.59,28.59,0,0,0-13.05-2.45,9,9,0,0,0-5.23,7.42c-.16,6.2,9.06,15.13,17.71,18.69,12.55,5.16,32.42,11.17,34.76,10.6,3-.73,5.05-6.85,5.05-6.85C307.25,107,299.45,101.46,294.19,96.84Z"/><path class="cls-11" d="M302.25,117.45a4.69,4.69,0,0,1-1.43,2.44c-1.52,1.55-3.91,1.53-4.52,1.91-2,1.26-6.15,3.57-15.82,6.23-1.07.29-6.41,1.41-7.73-2.62-1.27-3.88,2.83-6.45,7.44-7.94,4.42-1.43,6.6-.82,9.53-2.35,1.32-.69,2.32-2,3.11-2.05a1.9,1.9,0,0,1,2,1"/><path class="cls-16" d="M346.81,83.87a28.59,28.59,0,0,0-13.05,2.45c-7.14,2.87-12.18,7.53-15.58,10.52a135.93,135.93,0,0,1-23.25,17.3s.81,7.67,4.24,7.1c5.32-.89,22.61-6.1,35.16-11.26C343,106.42,352.2,97.49,352,91.29A9,9,0,0,0,346.81,83.87Z"/><path class="cls-12" d="M280.48,128l2.46-.71a7.18,7.18,0,0,1-2.17-10l-.58.17c-4.61,1.49-8.71,4.06-7.44,7.94C274.07,129.44,279.41,128.32,280.48,128Z"/><path class="cls-12" d="M332.08,118.74l-2.27-1.18a7.24,7.24,0,0,1-1.75,6.72,7.13,7.13,0,0,1-3.57,2l.54.27c4.37,2.09,9.12,3.05,10.86-.64S333.06,119.26,332.08,118.74Z"/><path class="cls-4" d="M420.37,271.88c0,29.68-11.64,48.28-33.65,48.28-21.3,0-32.66-19.31-32.81-47.43,0-28.68,12.22-48,33.8-48C410,224.74,420.37,244.62,420.37,271.88Zm-48.85.85c-.14,22.44,6.11,34.08,15.76,34.08,10.23,0,15.62-12.49,15.62-34.65,0-21.44-5.11-34.08-15.62-34.08C377.91,238.08,371.38,249.59,371.52,272.73Z"/><path class="cls-4" d="M469.79,318.6V295.17H428V283.81l37.63-57.51h20.59V282h11.93v13.21H486.26V318.6Zm0-36.64V256.83c0-5.26.14-10.65.56-16h-.56c-2.85,5.82-5.26,10.51-8.1,15.62l-16.9,25.28-.14.28Z"/><rect class="cls-7" x="175" y="162.45" width="43" height="51.5"/><rect class="cls-7" x="217" y="162.45" width="40" height="31.5"/><line class="cls-17" x1="242.63" y1="201.32" x2="277.63" y2="266.82"/><path class="cls-14" d="M242,266.06a18.38,18.38,0,0,0,7.53-6.36c1.9-2.53,7.53-6.7,11.95-10.57-.33-1-.45-2.62,1.55-5.37,1.16-1.6,3-3.12,4.12-3.25,1.43-.17,3.82,2.4,4.69,3.75,1.7,2.61-3.53,7.49-4.19,8.75-2.74,5.31-10.08,12.51-17.93,22.25-2.92,1.57-7.87,3.22-11.76,5.27a36.62,36.62,0,0,1-6.28,2.92q-.35-7.8-.68-15.59C234.56,267.75,238.41,268,242,266.06Z"/><path class="cls-14" d="M210.45,240.26c2.21.38,2.06,6.75,2,11-.08,4.86-1.71,10.74-5.24,12.59-1.9,1-3.72.56-5.55-1.08-8.6-7.74-3.29-15.42,0-18.72C203.14,242.6,208,239.85,210.45,240.26Z"/><path class="cls-18" d="M179,437c-.21,1.45,1.05,3.43.23,5.61-1.58,4.15-.65,5.66-.23,5.95,3.59,2.46,9-.14,13.49-1.63,5.42-1.81,14.25-4.49,14.25-4.49a3.88,3.88,0,0,0-.34-2.86c-.67-1.46-5.92-.64-9.45-.67-2.16,0-4-.07-5.72-1.24-1.27-.83-1-2.25-1.46-3Z"/><path class="cls-18" d="M216.2,438.59c.78,2.8-2.39,8.06.56,10.88,2.58,2.47,7.29.11,12.78-.9,7.2-1.32,9.45-1.13,11.33-3.25,1.68-1.9,3.07-3.91,2-5.27-.7-.89-3.11-1.8-7-1.58-4.18.24-5.5,1.4-7.17.75-1.85-.73-2.46-2.73-3.15-3.89C222.51,436.49,219.19,437.43,216.2,438.59Z"/><path class="cls-14" d="M168.53,299.83c-.37,3.81.45,8.75-.07,13.76-.46,4.33,1.26,8.34,2.31,11.37,3.26,9.35,4,10.84,6.43,15.55,1.85,3.52-.06,5.46,1.2,9.57,1,3.26,2.77,6.19,5.16,6.26,3.07-2,1.06-5.22,1.07-12.83a17.54,17.54,0,0,0-1.9-8.07c-.8-1.78-3.37-12.25-4-18.86a23.15,23.15,0,0,1,2.47-12.64C177.08,302.7,172.62,301.08,168.53,299.83Z"/><path class="cls-14" d="M202.48,269c.45-2.13-1.33-4.93,2.48-6.38-.72-1.15-.56-3.93-5.54-5.7a16.36,16.36,0,0,0-11.15.15,10,10,0,0,1,.75,4.79c-.27,2.94-2.87,5.65-3.48,6.36C190.85,268.27,197.17,268.91,202.48,269Z"/><path class="cls-19" d="M212.57,229.85c-3.81-5.16-11.48-5.25-15.4-4-7.55,2.43-9.92,9.79-9.92,9.79s-3.78,1.37-4.74,4.49c-1.37,4.49.09,8,3.26,12,1.69,2.12,1.39,8.15,3.48,9.44,1.62,1,5.63-.2,8.35-1.25a37.19,37.19,0,0,0,0-6.44c-.27-1.52,2.61-5.24,3.25-6,1.5-1.72,3.77-2.25,5.38-2.73a13.28,13.28,0,0,0,7.89-6.3C214.57,237.9,215.8,234.22,212.57,229.85Z"/><path class="cls-14" d="M200.77,248a1.86,1.86,0,0,0-1.82-1.5,2.69,2.69,0,0,0-2.17,1.19,5,5,0,0,0-.81,2.41,5.12,5.12,0,0,0,.26,2.46,2.86,2.86,0,0,0,1.71,1.69,2,2,0,0,0,2.21-.69"/><path class="cls-20" d="M178.27,447.45s.5,2.63,1.24,2.92c1.12.45,9.42-.78,15.14-2.47,3-.89,10.21-3.14,11.67-4.15.48-.33.5-2.3.5-2.3A118.87,118.87,0,0,1,194,445.77,48.4,48.4,0,0,1,178.27,447.45Z"/><path class="cls-20" d="M215.72,448s-.14,2.76.53,3.22c2.17,1.49,11.18-.06,14.58-1.12,3.18-1,10.84-3.14,11.82-4.79.51-.88.52-4,.52-4s-1.18,3.88-13.46,6.51C219.91,449.84,215.72,448,215.72,448Z"/><path class="cls-21" d="M177.27,300.6a56.05,56.05,0,0,1-1.49-10c-.16-3.47-.51-6.65.08-10.06.37-2.23,1-5.49,1.58-7.65-.65.41-2.23,1.39-2.93,1.94-2.65,2.1-4.56,5.8-6.13,12.12-.43,1.74-1.45,22-.47,29.23.5,3.66,7.08,21.91,9.33,25.66.76.55,8,.23,6.84-3.5-4-13-6.1-29.41-3.5-29C180.09,307.92,177.63,302.09,177.27,300.6Z"/><path class="cls-18" d="M200.89,363.3c-1.89-1.37-2.79-3.08-4.16-5a28.92,28.92,0,0,1-4-6.57,37,37,0,0,1-2.08-6.9c-.27-1.52-.61-6.11-.75-7.64-2.48,0-6.4-1.34-8.67-1.34-3.45,8.73-2.57,20.61-2.84,26-.49,9.84,2.16,25.56-1.13,39.06-3,12.31,1.83,40.75,2.16,41.08,1.51.73,7.72.5,12.81-4,0,0-2-24.78,1.33-36.09C197.45,388.76,200.37,367.26,200.89,363.3Z"/><path class="cls-16" d="M225.4,396.75c.34-13.3.87-20.26-1.9-31.52-2.92-13-2.74-20.82-3.51-27.62-9,0-20.57.07-30.5.25A62.68,62.68,0,0,0,191.41,352a18.87,18.87,0,0,0,9.43,11.89s5,11.24,7.66,28.72c1.48,9.88.47,13.56,2.4,28,.95,7.19,2.48,16.15,3.78,22.51,3.22,1.08,11.16-1.86,12.81-4.32C226.07,421.36,225.16,406.26,225.4,396.75Z"/><path class="cls-4" d="M259.31,250.07c-3.12,2.38-15.86,14.09-17.4,15.21-1.83,1.33-23.69,2.61-26,2.69-2.06.08-6.17.34-10.65.42-1.6,0-1.44-1.63-1.82-3.19a36.88,36.88,0,0,1-8.89.91,17.65,17.65,0,0,1-6.67-1.91c-.5,2.19-4.8,4.69-7.19,6.46-1.69,1.26-2.86,1.95-3.94,2.62-.48,2.28-.94,4.56-1.25,6.86a52.26,52.26,0,0,0-.42,10.23,65.71,65.71,0,0,0,1.34,10.17c.32,1.57.71,3.12,1.15,4.66h.05a63.54,63.54,0,0,1,3.74,12.87c1.84,10.27-2,20.62-1.23,21.12,1.91,1.61,10.33,3,19.5,2.5,7.93-.43,18.42-1.25,22-2.5-.25-3.25-2-13.52-2.75-23.75-.82-11.27-1.83-20.26-.65-27.81,16.9-3.53,28.36-9.73,31-11.53,3.17-2.16,16.82-18.41,17.57-21.35C265.62,253,261.81,250.91,259.31,250.07Z"/><path class="cls-21" d="M256.94,252a20.88,20.88,0,0,1,8.06,5.86c-.12.23-.37.56-.5.81a20.56,20.56,0,0,0-8.13-6.08Z"/><path class="cls-21" d="M201.24,268.75a16.19,16.19,0,0,0,2.63-.91,5.18,5.18,0,0,0,1,.55,21.06,21.06,0,0,1-3.49,1.09,21.77,21.77,0,0,1-4.74.43,21.55,21.55,0,0,1-7.67-1.12,7.32,7.32,0,0,1-2.75-2.18l.58-.49a6.49,6.49,0,0,0,2.48,2C191.73,269.2,198,269.54,201.24,268.75Z"/><path class="cls-4" d="M227.1,189.81h26a5.37,5.37,0,0,1,5.37,5.37v1.6a5.38,5.38,0,0,1-5.38,5.38h-26a5.38,5.38,0,0,1-5.38-5.38v-1.6A5.37,5.37,0,0,1,227.1,189.81Z" transform="translate(539.74 275.26) rotate(155.6)"/></g></g></svg>