<svg height="512pt" viewBox="0 -48 512 512" width="512pt" xmlns="http://www.w3.org/2000/svg"><path d="m504 0h-496c-4.417969 0-8 3.582031-8 8v400c0 4.417969 3.582031 8 8 8h496c4.417969 0 8-3.582031 8-8v-400c0-4.417969-3.582031-8-8-8zm0 0" fill="#f7f6f7"/><path d="m40 408v-400c0-4.417969 3.582031-8 8-8h-40c-4.417969 0-8 3.582031-8 8v400c0 4.417969 3.582031 8 8 8h40c-4.417969 0-8-3.582031-8-8zm0 0" fill="#e1dce0"/><path d="m504 0h-496c-4.417969 0-8 3.582031-8 8v64h512v-64c0-4.417969-3.582031-8-8-8zm0 0" fill="#8979e7"/><path d="m0 8v64h40v-72h-32c-4.417969 0-8 3.582031-8 8zm0 0" fill="#6c58e0"/><path d="m446.5 40c0 4.140625-3.359375 7.5-7.5 7.5s-7.5-3.359375-7.5-7.5 3.359375-7.5 7.5-7.5 7.5 3.359375 7.5 7.5zm0 0" fill="#e2def9"/><path d="m479 40c0 4.140625-3.359375 7.5-7.5 7.5s-7.5-3.359375-7.5-7.5 3.359375-7.5 7.5-7.5 7.5 3.359375 7.5 7.5zm0 0" fill="#e2def9"/><path d="m415 40.5c0 4.140625-3.359375 7.5-7.5 7.5s-7.5-3.359375-7.5-7.5 3.359375-7.5 7.5-7.5 7.5 3.359375 7.5 7.5zm0 0" fill="#e2def9"/><path d="m427.726562 103.019531-209.304687 209.300781c-3.121094 3.125-3.121094 8.191407 0 11.316407l33.941406 33.941406c3.125 3.121094 8.191407 3.121094 11.316407 0l209.300781-209.304687c9.359375-9.359376 9.359375-24.582032 0-33.941407l-11.3125-11.3125c-9.359375-9.359375-24.582031-9.359375-33.941407 0zm0 0" fill="#e1dce0"/><path d="m456.011719 131.304688-209.304688 209.300781c-3.121093 3.125-8.1875 3.125-11.3125 0l16.96875 16.972656c3.125 3.121094 8.191407 3.121094 11.316407 0l209.304687-209.304687c9.355469-9.359376 9.355469-24.582032 0-33.941407l-11.316406-11.3125c-.964844-.964843-1.992188-1.824219-3.066407-2.589843 6.664063 9.367187 5.804688 22.480468-2.589843 30.875zm0 0" fill="#c3b9c1"/><path d="m222.652344 310.105469c-2.582032.46875-4.769532 2.175781-5.855469 4.5625l-28.285156 62.226562c-1.363281 3-.703125 6.632813 1.628906 8.964844s5.964844 2.992187 8.964844 1.625l62.226562-28.28125c.882813-.402344 1.675781-.957031 2.34375-1.628906 1.136719-1.132813 1.921875-2.601563 2.214844-4.226563.46875-2.582031-.359375-5.230468-2.214844-7.085937l-33.941406-33.941407c-1.851563-1.855468-4.5-2.679687-7.082031-2.214843zm0 0" fill="#ffebd1"/><path d="m202.011719 358.199219-6.367188 3.007812-7.132812 15.6875c-1.363281 3-.703125 6.632813 1.628906 8.964844s5.964844 2.992187 8.964844 1.628906l62.226562-28.285156c.882813-.402344 1.675781-.957031 2.34375-1.625 1.136719-1.136719 1.921875-2.605469 2.214844-4.230469.46875-2.582031-.359375-5.230468-2.214844-7.085937l-7.984375-7.984375zm0 0" fill="#ffd8a3"/><path d="m188.511719 376.894531c-1.363281 3-.703125 6.632813 1.628906 8.964844s5.964844 2.992187 8.964844 1.628906l18.289062-8.3125-20.570312-20.570312zm0 0" fill="#958492"/><path d="m218.421875 312.320312 192.328125-192.328124 45.253906 45.253906-192.328125 192.332031zm0 0" fill="#ffe06f"/><path d="m246.703125 340.605469 192.332031-192.332031 16.96875 16.972656-192.328125 192.332031zm0 0" fill="#ffcb0f"/><g fill="#e1dce0"><path d="m352 128h-288c-4.417969 0-8-3.582031-8-8s3.582031-8 8-8h288c4.417969 0 8 3.582031 8 8s-3.582031 8-8 8zm0 0"/><path d="m144 176h-80c-4.417969 0-8-3.582031-8-8s3.582031-8 8-8h80c4.417969 0 8 3.582031 8 8s-3.582031 8-8 8zm0 0"/><path d="m304 176h-128c-4.417969 0-8-3.582031-8-8s3.582031-8 8-8h128c4.417969 0 8 3.582031 8 8s-3.582031 8-8 8zm0 0"/><path d="m256 224h-192c-4.417969 0-8-3.582031-8-8s3.582031-8 8-8h192c4.417969 0 8 3.582031 8 8s-3.582031 8-8 8zm0 0"/><path d="m104 272h-40c-4.417969 0-8-3.582031-8-8s3.582031-8 8-8h40c4.417969 0 8 3.582031 8 8s-3.582031 8-8 8zm0 0"/><path d="m208 272h-72c-4.417969 0-8-3.582031-8-8s3.582031-8 8-8h72c4.417969 0 8 3.582031 8 8s-3.582031 8-8 8zm0 0"/><path d="m176 320h-112c-4.417969 0-8-3.582031-8-8s3.582031-8 8-8h112c4.417969 0 8 3.582031 8 8s-3.582031 8-8 8zm0 0"/><path d="m144 368h-80c-4.417969 0-8-3.582031-8-8s3.582031-8 8-8h80c4.417969 0 8 3.582031 8 8s-3.582031 8-8 8zm0 0"/></g></svg>