<svg height="512pt" viewBox="0 0 511 512" width="512pt" xmlns="http://www.w3.org/2000/svg"><path d="m166.785156 471.773438h-155.882812c-5.746094 0-10.402344-4.65625-10.402344-10.402344v-452.839844c0-4.660156 3.777344-8.4414062 8.441406-8.4414062h243.347656l85.929688 90.6835942v381zm0 0" fill="#edeff2"/><path d="m338.21875 91.171875-75.148438-.011719c-5.5625 0-10.082031-4.484375-10.125-10.042968l-.65625-80.601563zm0 0" fill="#ccd1d8"/><path d="m491.132812 512h-303.589843c-11.75 0-21.273438-9.523438-21.273438-21.273438v-136.703124c0-11.75 9.523438-21.273438 21.273438-21.273438h303.589843c11.75 0 21.277344 9.523438 21.277344 21.273438v136.699218c0 11.753906-9.527344 21.277344-21.277344 21.277344zm0 0" fill="#b8f9ff"/><path d="m491.132812 332.75h-45.328124c11.75 0 21.277343 9.523438 21.277343 21.273438v136.699218c0 11.75-9.527343 21.277344-21.277343 21.277344h45.328124c11.75 0 21.277344-9.527344 21.277344-21.277344v-136.699218c0-11.75-9.527344-21.273438-21.277344-21.273438zm0 0" fill="#84eaf5"/><path d="m343.445312 415.675781 163.90625-75.40625c-3.902343-4.597656-9.714843-7.519531-16.21875-7.519531h-303.589843c-6.144531 0-11.660157 2.617188-15.546875 6.785156l155.90625 75.996094c4.9375 2.394531 10.566406 2.445312 15.542968.144531zm0 0" fill="#13adc1"/><path d="m208.265625 263.011719v-88.320313c0-4.78125 3.875-8.65625 8.65625-8.65625h158.300781c4.78125 0 8.65625 3.875 8.65625 8.65625v88.320313c0 4.78125-3.875 8.65625-8.65625 8.65625h-158.300781c-4.78125 0-8.65625-3.875-8.65625-8.65625zm0 0" fill="#feda5f"/><path d="m375.222656 166.035156h-45.328125c4.78125 0 8.65625 3.875 8.65625 8.65625v88.320313c0 4.78125-3.875 8.65625-8.65625 8.65625h45.328125c4.78125 0 8.65625-3.875 8.65625-8.65625v-88.320313c-.003906-4.78125-3.878906-8.65625-8.65625-8.65625zm0 0" fill="#f4c84e"/><path d="m476.628906 271.667969h-1.671875c-9.101562 0-16.480469-7.378907-16.480469-16.484375v-238.699219c0-9.105469 7.378907-16.484375 16.480469-16.484375h1.671875c9.101563 0 16.480469 7.378906 16.480469 16.484375v238.699219c0 9.105468-7.378906 16.484375-16.480469 16.484375zm0 0" fill="#84eaf5"/><path d="m493.109375 16.484375c0-9.105469-7.378906-16.484375-16.480469-16.484375h-1.671875c-9.101562 0-16.480469 7.378906-16.480469 16.484375v49.539063h34.632813zm0 0" fill="#13adc1"/><g fill="#feda5f"><path d="m431.417969 134.359375c-4.269531 0-7.726563-3.457031-7.726563-7.726563v-60.609374c0-4.269532 3.457032-7.726563 7.726563-7.726563h69.269531c4.265625 0 7.726562 3.457031 7.726562 7.726563 0 4.269531-3.460937 7.726562-7.726562 7.726562h-61.542969v52.882812c0 4.269532-3.460937 7.726563-7.726562 7.726563zm0 0"/><path d="m232.574219 470.902344 23.320312-40.394532h-46.640625zm0 0"/><path d="m73.925781 88.703125 23.320313-40.394531h-46.640625zm0 0"/></g><path d="m296.070312 237.347656 21.355469-36.988281h-42.710937zm0 0" fill="#13adc1"/><path d="m179.660156 60.265625h-50.476562c-4.269532 0-7.726563-3.457031-7.726563-7.726563 0-4.269531 3.457031-7.726562 7.726563-7.726562h50.476562c4.269532 0 7.726563 3.457031 7.726563 7.726562 0 4.269532-3.457031 7.726563-7.726563 7.726563zm0 0" fill="#13adc1"/><path d="m202.324219 92.203125h-73.140625c-4.269532 0-7.726563-3.460937-7.726563-7.726563 0-4.269531 3.457031-7.726562 7.726563-7.726562h73.140625c4.269531 0 7.726562 3.457031 7.726562 7.726562 0 4.265626-3.457031 7.726563-7.726562 7.726563zm0 0" fill="#84eaf5"/><path d="m449.566406 442.460938h-50.476562c-4.269532 0-7.726563-3.457032-7.726563-7.722657 0-4.269531 3.457031-7.726562 7.726563-7.726562h50.476562c4.269532 0 7.726563 3.457031 7.726563 7.726562 0 4.265625-3.457031 7.722657-7.726563 7.722657zm0 0" fill="#13adc1"/><path d="m472.230469 474.398438h-73.140625c-4.269532 0-7.726563-3.457032-7.726563-7.726563s3.457031-7.726563 7.726563-7.726563h73.140625c4.269531 0 7.726562 3.457032 7.726562 7.726563s-3.457031 7.726563-7.726562 7.726563zm0 0" fill="#13adc1"/></svg>