<svg height="512pt" viewBox="0 0 512 512" width="512pt" xmlns="http://www.w3.org/2000/svg"><path d="m0 75.203125h184.402344v436.796875h-184.402344zm0 0" fill="#edeff2"/><path d="m327.597656 0h184.402344v436.796875h-184.402344zm0 0" fill="#edeff2"/><path d="m466.671875 0h45.328125v436.796875h-45.328125zm0 0" fill="#e1e2e5"/><path d="m327.597656 0-143.195312 75.203125v436.796875l143.195312-75.203125zm0 0" fill="#dadde0"/><path d="m0 75.203125h184.402344v292.570313h-184.402344zm0 0" fill="#f0a8d0"/><path d="m0 75.203125h184.402344v292.570313h-184.402344zm0 0" fill="#f0a8d0"/><path d="m143.195312 429.070312h-101.988281c-4.269531 0-7.726562-3.457031-7.726562-7.726562s3.457031-7.726562 7.726562-7.726562h101.988281c4.269532 0 7.726563 3.457031 7.726563 7.726562s-3.457031 7.726562-7.726563 7.726562zm0 0" fill="#ccd1d8"/><path d="m143.195312 468.21875h-101.988281c-4.269531 0-7.726562-3.460938-7.726562-7.726562 0-4.269532 3.457031-7.726563 7.726562-7.726563h101.988281c4.269532 0 7.726563 3.457031 7.726563 7.726563 0 4.265624-3.457031 7.726562-7.726563 7.726562zm0 0" fill="#ccd1d8"/><path d="m470.792969 186.976562h-101.988281c-4.269532 0-7.726563-3.457031-7.726563-7.726562 0-4.265625 3.457031-7.726562 7.726563-7.726562h101.988281c4.269531 0 7.726562 3.460937 7.726562 7.726562 0 4.269531-3.457031 7.726562-7.726562 7.726562zm0 0" fill="#ccd1d8"/><path d="m470.792969 226.125h-101.988281c-4.269532 0-7.726563-3.457031-7.726563-7.726562 0-4.269532 3.457031-7.726563 7.726563-7.726563h101.988281c4.269531 0 7.726562 3.457031 7.726562 7.726563 0 4.269531-3.457031 7.726562-7.726562 7.726562zm0 0" fill="#ccd1d8"/><path d="m470.792969 264.242188h-101.988281c-4.269532 0-7.726563-3.460938-7.726563-7.726563 0-4.269531 3.457031-7.726563 7.726563-7.726563h101.988281c4.269531 0 7.726562 3.457032 7.726562 7.726563 0 4.265625-3.457031 7.726563-7.726562 7.726563zm0 0" fill="#ccd1d8"/><path d="m9.113281 75.203125 175.289063 280.265625v12.304688h-10.527344l-173.875-278v-14.570313zm0 0" fill="#ea89bf"/><g fill="#bcc4ce"><path d="m221.882812 446.996094c-2.8125 0-5.523437-1.542969-6.890624-4.21875-1.9375-3.800782-.429688-8.453125 3.371093-10.394532l74.429688-37.972656c3.800781-1.941406 8.457031-.433594 10.394531 3.371094 1.941406 3.796875.429688 8.453125-3.371094 10.390625l-74.429687 37.976563c-1.125.574218-2.324219.847656-3.503907.847656zm0 0"/><path d="m221.882812 405.296875c-2.8125 0-5.523437-1.539063-6.890624-4.21875-1.9375-3.800781-.429688-8.453125 3.371093-10.390625l74.429688-37.976562c3.800781-1.9375 8.457031-.429688 10.394531 3.371093 1.941406 3.800781.429688 8.453125-3.371094 10.394531l-74.429687 37.972657c-1.125.574219-2.324219.847656-3.503907.847656zm0 0"/><path d="m221.882812 363.597656c-2.8125 0-5.523437-1.539062-6.890624-4.214844-1.9375-3.800781-.429688-8.453124 3.371093-10.394531l74.429688-37.972656c3.800781-1.941406 8.457031-.433594 10.394531 3.367187 1.941406 3.800782.429688 8.457032-3.371094 10.394532l-74.429687 37.976562c-1.125.574219-2.324219.84375-3.503907.84375zm0 0"/><path d="m221.882812 321.902344c-2.8125 0-5.523437-1.539063-6.890624-4.21875-1.9375-3.796875-.429688-8.453125 3.371093-10.390625l74.429688-37.976563c3.800781-1.9375 8.457031-.429687 10.394531 3.371094 1.941406 3.800781.429688 8.453125-3.371094 10.394531l-74.429687 37.972657c-1.125.574218-2.324219.847656-3.503907.847656zm0 0"/><path d="m221.882812 280.203125c-2.8125 0-5.523437-1.539063-6.890624-4.214844-1.9375-3.800781-.429688-8.457031 3.371093-10.394531l74.429688-37.972656c3.800781-1.941406 8.457031-.433594 10.394531 3.371094 1.941406 3.796874.429688 8.453124-3.371094 10.390624l-74.429687 37.972657c-1.125.574219-2.324219.847656-3.503907.847656zm0 0"/><path d="m221.882812 238.507812c-2.8125 0-5.523437-1.539062-6.890624-4.21875-1.9375-3.800781-.429688-8.453124 3.371093-10.394531l74.429688-37.972656c3.800781-1.9375 8.457031-.429687 10.394531 3.371094 1.941406 3.800781.429688 8.453125-3.371094 10.394531l-74.429687 37.972656c-1.125.574219-2.324219.847656-3.503907.847656zm0 0"/><path d="m221.882812 196.808594c-2.8125 0-5.523437-1.539063-6.890624-4.214844-1.9375-3.800781-.429688-8.453125 3.371093-10.394531l74.429688-37.976563c3.800781-1.9375 8.457031-.429687 10.394531 3.371094 1.941406 3.800781.429688 8.453125-3.371094 10.394531l-74.429687 37.976563c-1.125.570312-2.324219.84375-3.503907.84375zm0 0"/><path d="m221.882812 155.109375c-2.8125 0-5.523437-1.539063-6.890624-4.214844-1.9375-3.800781-.429688-8.453125 3.371093-10.394531l74.429688-37.972656c3.800781-1.9375 8.457031-.429688 10.394531 3.371094 1.941406 3.800781.429688 8.453124-3.371094 10.390624l-74.429687 37.976563c-1.125.574219-2.324219.84375-3.503907.84375zm0 0"/><path d="m221.882812 113.414062c-2.8125 0-5.523437-1.539062-6.890624-4.21875-1.9375-3.796874-.429688-8.453124 3.371093-10.390624l74.429688-37.976563c3.800781-1.9375 8.457031-.429687 10.394531 3.371094 1.941406 3.800781.429688 8.453125-3.371094 10.394531l-74.429687 37.972656c-1.125.574219-2.324219.847656-3.503907.847656zm0 0"/></g><path d="m362.109375 37.085938h115.378906v107.140624h-115.378906zm0 0" fill="#feda5f"/><path d="m477.488281 133.679688-104.023437-96.59375h-11.355469v10.542968l104.023437 96.597656h11.355469zm0 0" fill="#f4c84e"/><path d="m362.625 292.570312h115.378906v107.140626h-115.378906zm0 0" fill="#84eaf5"/><path d="m478.003906 389.167969-104.027344-96.597657h-11.351562v10.546876l104.023438 96.59375h11.355468zm0 0" fill="#3ecfdc"/></svg>