<svg height="512pt" viewBox="0 -14 512 511" width="512pt" xmlns="http://www.w3.org/2000/svg"><path d="m481.972656 440.027344h-451.945312v-314.5c0-12.8125 10.386718-23.203125 23.199218-23.203125h405.542969c12.816407 0 23.203125 10.390625 23.203125 23.203125zm0 0" fill="#e7e7e7"/><path d="m481.976562 125.53125v314.496094h-27.941406v-314.496094c0-12.820312-10.386718-23.207031-23.207031-23.207031h27.941406c12.8125 0 23.207031 10.386719 23.207031 23.207031zm0 0" fill="#cecece"/><path d="m441.285156 440.027344h-370.570312v-292.523438c0-4.722656 3.824218-8.550781 8.546875-8.550781h353.476562c4.722657 0 8.546875 3.828125 8.546875 8.550781zm0 0" fill="#c9f0ff"/><path d="m441.285156 147.503906v292.523438h-27.109375v-292.523438c0-4.71875-3.824219-8.550781-8.550781-8.550781h27.113281c4.722657 0 8.546875 3.832031 8.546875 8.550781zm0 0" fill="#9ae7fd"/><path d="m486.714844 483.09375h-461.429688c-13.964844 0-25.285156-11.320312-25.285156-25.285156v-38.085938c0-4.582031 3.710938-8.292968 8.289062-8.292968h495.417969c4.578125 0 8.292969 3.710937 8.292969 8.292968v38.085938c0 13.964844-11.320312 25.285156-25.285156 25.285156zm0 0" fill="#838383"/><path d="m503.710938 411.429688c4.578124 0 8.289062 3.714843 8.289062 8.292968v38.085938c0 13.960937-11.316406 25.289062-25.289062 25.289062h-23.109376c13.957032 0 25.277344-11.328125 25.277344-25.289062v-46.378906zm0 0" fill="#5a5a5a"/><path d="m272.582031 411.429688h-102.605469l12.117188 27.726562c.824219 1.886719 2.6875 3.109375 4.746094 3.109375h138.316406c2.058594 0 3.921875-1.222656 4.746094-3.109375l12.117187-27.726562zm0 0" fill="#acacac"/><path d="m342.019531 411.429688-12.113281 27.726562c-.828125 1.882812-2.683594 3.109375-4.746094 3.109375h-16.71875c.167969-.261719.320313-.53125.445313-.820313l13.109375-30.015624zm0 0" fill="#9c9c9c"/><path d="m225.511719 96.554688h-113.769531v-88.800782c0-4.007812 3.246093-7.253906 7.253906-7.253906h99.261718c4.007813 0 7.253907 3.246094 7.253907 7.253906zm0 0" fill="#83e5eb"/><path d="m225.511719 96.554688h-20.164063v-96.054688h12.910156c4.007813 0 7.253907 3.246094 7.253907 7.253906zm0 0" fill="#5cdae2"/><path d="m111.742188 96.910156h113.769531v96.054688h-113.769531zm0 0" fill="#80e0dc"/><path d="m205.347656 96.910156h20.164063v96.054688h-20.164063zm0 0" fill="#00a8b0"/><path d="m171.0625 289.015625h-4.871094c-30.070312 0-54.449218-24.378906-54.449218-54.449219v-41.601562h113.769531v41.601562c0 30.074219-24.378907 54.449219-54.449219 54.449219zm0 0" fill="#e7e7e7"/><path d="m131.132812 273.070312-3.445312-3.445312c-21.261719-21.265625-21.261719-55.742188 0-77.003906l160.382812-160.382813c2.832032-2.832031 7.425782-2.832031 10.257813 0l70.191406 70.191407c2.832031 2.832031 2.832031 7.425781 0 10.257812l-160.382812 160.382812c-21.261719 21.261719-55.738281 21.261719-77.003907 0zm0 0" fill="#e7e7e7"/><path d="m305.726562 175.480469-80.449218-80.449219 62.792968-62.792969c2.832032-2.832031 7.425782-2.832031 10.257813 0l70.191406 70.191407c2.832031 2.832031 2.832031 7.425781 0 10.257812zm0 0" fill="#ffe1a8"/><path d="m305.726562 175.480469-14.257812-14.261719 67.917969-67.917969 9.132812 9.128907c2.832031 2.832031 2.832031 7.425781 0 10.261718zm0 0" fill="#ffd98f"/><path d="m225.027344 95.28125 80.445312 80.449219-67.917968 67.917969-80.449219-80.449219zm0 0" fill="#ffd86e"/><path d="m291.214844 161.46875 14.261718 14.261719-67.921874 67.917969-14.257813-14.261719zm0 0" fill="#ffb509"/><path d="m111.742188 234.566406v-4.871094c0-30.070312 24.378906-54.449218 54.449218-54.449218h226.8125c4.007813 0 7.253906 3.246094 7.253906 7.253906v99.261719c0 4.007812-3.246093 7.253906-7.253906 7.253906h-226.8125c-30.070312 0-54.449218-24.375-54.449218-54.449219zm0 0" fill="#e7e7e7"/><path d="m304.203125 289.015625v-113.769531h88.800781c4.007813 0 7.253906 3.246094 7.253906 7.253906v99.261719c0 4.007812-3.246093 7.253906-7.253906 7.253906zm0 0" fill="#ff9aa9"/><path d="m304.203125 289.015625v-20.164063h96.054687v12.910157c0 4.007812-3.246093 7.253906-7.253906 7.253906zm0 0" fill="#ff7a8e"/><path d="m207.792969 175.246094h96.054687v113.769531h-96.054687zm0 0" fill="#ff5770"/><path d="m207.792969 268.851562h96.054687v20.164063h-96.054687zm0 0" fill="#ff435f"/><path d="m177.496094 232.132812c0 10.402344-8.433594 18.835938-18.835938 18.835938s-18.835937-8.433594-18.835937-18.835938c0-10.40625 8.433593-18.835937 18.835937-18.835937s18.835938 8.429687 18.835938 18.835937zm0 0" fill="#838383"/></svg>