<svg height="496pt" viewBox="0 -52 496 496" width="496pt" xmlns="http://www.w3.org/2000/svg"><path d="m4 168h96v56h-96zm0 0" fill="#4db6ac"/><path d="m100 228h-96c-2.207031 0-4-1.792969-4-4v-56c0-2.207031 1.792969-4 4-4h96c2.207031 0 4 1.792969 4 4v56c0 2.207031-1.792969 4-4 4zm-92-8h88v-48h-88zm0 0" fill="#263238"/><path d="m196 392h-96c-2.207031 0-4-1.792969-4-4v-56c0-2.207031 1.792969-4 4-4h96c2.207031 0 4 1.792969 4 4v56c0 2.207031-1.792969 4-4 4zm-92-8h88v-48h-88zm0 0" fill="#263238"/><path d="m84 364h-32c-2.207031 0-4-1.792969-4-4v-120c0-2.207031 1.792969-4 4-4s4 1.792969 4 4v116h28c2.207031 0 4 1.792969 4 4s-1.792969 4-4 4zm0 0" fill="#263238"/><path d="m196 64h-96c-2.207031 0-4-1.792969-4-4v-56c0-2.207031 1.792969-4 4-4h96c2.207031 0 4 1.792969 4 4v56c0 2.207031-1.792969 4-4 4zm-92-8h88v-48h-88zm0 0" fill="#263238"/><path d="m396 392h-96c-2.207031 0-4-1.792969-4-4v-56c0-2.207031 1.792969-4 4-4h96c2.207031 0 4 1.792969 4 4v56c0 2.207031-1.792969 4-4 4zm-92-8h88v-48h-88zm0 0" fill="#263238"/><path d="m396 64h-96c-2.207031 0-4-1.792969-4-4v-56c0-2.207031 1.792969-4 4-4h96c2.207031 0 4 1.792969 4 4v56c0 2.207031-1.792969 4-4 4zm-92-8h88v-48h-88zm0 0" fill="#263238"/><path d="m204 168h96v56h-96zm0 0" fill="#ffd740"/><path d="m300 228h-96c-2.207031 0-4-1.792969-4-4v-56c0-2.207031 1.792969-4 4-4h96c2.207031 0 4 1.792969 4 4v56c0 2.207031-1.792969 4-4 4zm-92-8h88v-48h-88zm0 0" fill="#263238"/><path d="m52 172c-2.207031 0-4-1.792969-4-4v-136c0-2.207031 1.792969-4 4-4h32c2.207031 0 4 1.792969 4 4s-1.792969 4-4 4h-28v132c0 2.207031-1.792969 4-4 4zm0 0" fill="#263238"/><path d="m492 224h-96v-56h96zm0 0" fill="#ff5252"/><g fill="#263238"><path d="m492 228h-96c-2.207031 0-4-1.792969-4-4v-56c0-2.207031 1.792969-4 4-4h96c2.207031 0 4 1.792969 4 4v56c0 2.207031-1.792969 4-4 4zm-92-8h88v-48h-88zm0 0"/><path d="m444 172c-2.207031 0-4-1.792969-4-4v-132h-28c-2.207031 0-4-1.792969-4-4s1.792969-4 4-4h32c2.207031 0 4 1.792969 4 4v136c0 2.207031-1.792969 4-4 4zm0 0"/><path d="m444 364h-32c-2.207031 0-4-1.792969-4-4s1.792969-4 4-4h28v-116c0-2.207031 1.792969-4 4-4s4 1.792969 4 4v120c0 2.207031-1.792969 4-4 4zm0 0"/><path d="m188 200h-40c-2.207031 0-4-1.792969-4-4v-136c0-2.207031 1.792969-4 4-4s4 1.792969 4 4v132h36c2.207031 0 4 1.792969 4 4s-1.792969 4-4 4zm0 0"/><path d="m284 36h-72c-2.207031 0-4-1.792969-4-4s1.792969-4 4-4h72c2.207031 0 4 1.792969 4 4s-1.792969 4-4 4zm0 0"/><path d="m284 364h-72c-2.207031 0-4-1.792969-4-4s1.792969-4 4-4h72c2.207031 0 4 1.792969 4 4s-1.792969 4-4 4zm0 0"/><path d="m348 336c-2.207031 0-4-1.792969-4-4v-132h-28c-2.207031 0-4-1.792969-4-4s1.792969-4 4-4h32c2.207031 0 4 1.792969 4 4v136c0 2.207031-1.792969 4-4 4zm0 0"/><path d="m156 280h-16c-2.207031 0-4-1.792969-4-4s1.792969-4 4-4h16c2.207031 0 4 1.792969 4 4s-1.792969 4-4 4zm0 0"/><path d="m260 280h-88c-2.207031 0-4-1.792969-4-4s1.792969-4 4-4h88c2.207031 0 4 1.792969 4 4s-1.792969 4-4 4zm0 0"/><path d="m356 120h-16c-2.207031 0-4-1.792969-4-4s1.792969-4 4-4h16c2.207031 0 4 1.792969 4 4s-1.792969 4-4 4zm0 0"/><path d="m324 120h-88c-2.207031 0-4-1.792969-4-4s1.792969-4 4-4h88c2.207031 0 4 1.792969 4 4s-1.792969 4-4 4zm0 0"/></g></svg>