<svg height="504pt" viewBox="0 -24 504 504" width="504pt" xmlns="http://www.w3.org/2000/svg"><path d="m228 268c-2.207031 0-4-1.792969-4-4v-212c0-2.207031-1.792969-4-4-4h-16c-2.207031 0-4 1.792969-4 4v212c0 2.207031-1.792969 4-4 4s-4-1.792969-4-4v-212c0-6.617188 5.382812-12 12-12h16c6.617188 0 12 5.382812 12 12v212c0 2.207031-1.792969 4-4 4zm0 0" fill="#263238"/><path d="m444 92h-65.832031c-11.847657 0-23.425781-3.503906-33.28125-10.078125l-17.765625-11.84375c-9.855469-6.566406-21.441406-10.078125-33.28125-10.078125h-65.839844v160h65.832031c11.847657 0 23.425781 3.503906 33.28125 10.078125l17.765625 11.851563c9.855469 6.566406 21.441406 10.078124 33.28125 10.078124h65.839844zm0 0" fill="#4db6ac"/><path d="m448 256h-69.832031c-12.679688 0-24.953125-3.71875-35.503907-10.753906l-17.769531-11.839844c-9.230469-6.148438-19.972656-9.40625-31.0625-9.40625h-69.832031v-168h69.832031c12.679688 0 24.953125 3.71875 35.503907 10.753906l17.769531 11.839844c9.230469 6.148438 19.972656 9.40625 31.0625 9.40625h69.832031zm-216-40h61.832031c12.679688 0 24.953125 3.71875 35.503907 10.753906l17.769531 11.839844c9.230469 6.148438 19.972656 9.40625 31.0625 9.40625h61.832031v-152h-61.832031c-12.679688 0-24.953125-3.71875-35.503907-10.753906l-17.769531-11.839844c-9.230469-6.148438-19.972656-9.40625-31.0625-9.40625h-61.832031zm0 0" fill="#263238"/><path d="m420 160c-2.207031 0-4-1.792969-4-4v-36h-36c-2.207031 0-4-1.792969-4-4s1.792969-4 4-4h40c2.207031 0 4 1.792969 4 4v40c0 2.207031-1.792969 4-4 4zm0 0" fill="#263238"/><path d="m20 452h44c4.414062 0 8-3.585938 8-8v-144c0-4.414062-3.585938-8-8-8h-44c-4.414062 0-8 3.585938-8 8v144c0 4.414062 3.585938 8 8 8zm0 0" fill="#ff5252"/><g fill="#263238"><path d="m64 456h-44c-6.617188 0-12-5.382812-12-12v-144c0-6.617188 5.382812-12 12-12h44c6.617188 0 12 5.382812 12 12v144c0 6.617188-5.382812 12-12 12zm-44-160c-2.207031 0-4 1.792969-4 4v144c0 2.207031 1.792969 4 4 4h44c2.207031 0 4-1.792969 4-4v-144c0-2.207031-1.792969-4-4-4zm0 0"/><path d="m228 444h-28c-13.230469 0-24-10.769531-24-24s10.769531-24 24-24h26.855469c12.816406 0 23.808593 9.464844 25.015625 21.535156.679687 6.777344-1.527344 13.535156-6.070313 18.554688-4.542969 5.03125-11.03125 7.910156-17.800781 7.910156zm-28-40c-8.824219 0-16 7.175781-16 16s7.175781 16 16 16h28c4.511719 0 8.839844-1.921875 11.871094-5.273438 3.074218-3.390624 4.503906-7.789062 4.039062-12.390624-.796875-8.039063-8.292968-14.335938-17.054687-14.335938zm0 0"/><path d="m244 404h-44c-13.230469 0-24-10.769531-24-24s10.769531-24 24-24h42.855469c12.816406 0 23.808593 9.464844 25.015625 21.535156.679687 6.777344-1.527344 13.535156-6.070313 18.554688-4.542969 5.03125-11.03125 7.910156-17.800781 7.910156zm-44-40c-8.824219 0-16 7.175781-16 16s7.175781 16 16 16h44c4.511719 0 8.839844-1.921875 11.871094-5.273438 3.074218-3.390624 4.503906-7.789062 4.039062-12.390624-.796875-8.039063-8.292968-14.335938-17.054687-14.335938zm0 0"/><path d="m216 444h-128c-2.207031 0-4-1.792969-4-4s1.792969-4 4-4h128c2.207031 0 4 1.792969 4 4s-1.792969 4-4 4zm0 0"/><path d="m244 324h-44c-2.207031 0-4-1.792969-4-4s1.792969-4 4-4h44c4.511719 0 8.839844-1.921875 11.871094-5.273438 3.074218-3.390624 4.503906-7.796874 4.039062-12.398437-.796875-8.03125-8.292968-14.328125-17.054687-14.328125h-79.449219c-9.710938 0-19.207031 1.832031-28.222656 5.441406l-45.695313 18.277344c-2.03125.824219-4.375-.175781-5.199219-2.230469-.824218-2.046875.175782-4.375 2.230469-5.199219l45.695313-18.28125c9.960937-3.984374 20.457031-6.007812 31.191406-6.007812h79.449219c12.824219 0 23.808593 9.464844 25.015625 21.535156.679687 6.777344-1.527344 13.542969-6.070313 18.5625-4.542969 5.023438-11.03125 7.902344-17.800781 7.902344zm0 0"/><path d="m168.046875 364c-5.941406 0-11.71875-2.191406-16.144531-6.191406-5.023438-4.550782-7.902344-11.039063-7.902344-17.808594v-14c0-2.207031 1.792969-4 4-4s4 1.792969 4 4v14c0 4.511719 1.921875 8.839844 5.273438 11.871094 3.382812 3.066406 7.734374 4.503906 12.390624 4.039062 8.039063-.804687 14.335938-8.292968 14.335938-17.054687v-38.855469c0-8.824219-7.175781-16-16-16-2.207031 0-4-1.792969-4-4s1.792969-4 4-4c13.230469 0 24 10.769531 24 24v38.855469c0 12.816406-9.464844 23.808593-21.535156 25.015625-.808594.089844-1.617188.128906-2.417969.128906zm0 0"/><path d="m252 364h-52c-7.65625 0-14.921875-3.734375-19.441406-10-1.007813-1.390625-1.007813-3.28125 0-4.671875 2.21875-3.089844 3.441406-6.800781 3.441406-10.464844v-14.765625c0-1.257812.59375-2.441406 1.59375-3.195312 4.238281-3.207032 9.222656-4.902344 14.40625-4.902344h50.855469c12.816406 0 23.808593 9.464844 25.015625 21.535156.679687 6.777344-1.527344 13.535156-6.070313 18.554688-4.542969 5.03125-11.03125 7.910156-17.800781 7.910156zm-63.257812-12.679688c2.984374 3 6.96875 4.679688 11.257812 4.679688h52c4.511719 0 8.839844-1.921875 11.871094-5.273438 3.074218-3.390624 4.503906-7.789062 4.039062-12.390624-.796875-8.039063-8.292968-14.335938-17.054687-14.335938h-50.855469c-2.808594 0-5.542969.761719-8 2.214844v12.648437c0 4.289063-1.144531 8.617188-3.257812 12.457031zm0 0"/><path d="m482 400h-16c-2.207031 0-4-1.792969-4-4s1.792969-4 4-4h16c2.207031 0 4 1.792969 4 4s-1.792969 4-4 4zm0 0"/><path d="m450 400h-128c-2.207031 0-4-1.792969-4-4s1.792969-4 4-4h128c2.207031 0 4 1.792969 4 4s-1.792969 4-4 4zm0 0"/><path d="m20 140h-16c-2.207031 0-4-1.792969-4-4s1.792969-4 4-4h16c2.207031 0 4 1.792969 4 4s-1.792969 4-4 4zm0 0"/><path d="m164 140h-128c-2.207031 0-4-1.792969-4-4s1.792969-4 4-4h128c2.207031 0 4 1.792969 4 4s-1.792969 4-4 4zm0 0"/><path d="m460 24h-32c-2.207031 0-4-1.792969-4-4s1.792969-4 4-4h32c2.207031 0 4 1.792969 4 4s-1.792969 4-4 4zm0 0"/><path d="m444 40c-2.207031 0-4-1.792969-4-4v-32c0-2.207031 1.792969-4 4-4s4 1.792969 4 4v32c0 2.207031-1.792969 4-4 4zm0 0"/><path d="m500 64h-32c-2.207031 0-4-1.792969-4-4s1.792969-4 4-4h32c2.207031 0 4 1.792969 4 4s-1.792969 4-4 4zm0 0"/><path d="m484 80c-2.207031 0-4-1.792969-4-4v-32c0-2.207031 1.792969-4 4-4s4 1.792969 4 4v32c0 2.207031-1.792969 4-4 4zm0 0"/></g></svg>