<svg height="476pt" viewBox="0 -9 476 475" width="476pt" xmlns="http://www.w3.org/2000/svg"><g fill="#263238"><path d="m44 60.5h-40c-2.207031 0-4-1.792969-4-4v-40c0-2.207031 1.792969-4 4-4h40c2.207031 0 4 1.792969 4 4v40c0 2.207031-1.792969 4-4 4zm-36-8h32v-32h-32zm0 0"/><path d="m428 60.5h-40c-2.207031 0-4-1.792969-4-4v-40c0-2.207031 1.792969-4 4-4h40c2.207031 0 4 1.792969 4 4v40c0 2.207031-1.792969 4-4 4zm-36-8h32v-32h-32zm0 0"/><path d="m44 444.5h-40c-2.207031 0-4-1.792969-4-4v-40c0-2.207031 1.792969-4 4-4h40c2.207031 0 4 1.792969 4 4v40c0 2.207031-1.792969 4-4 4zm-36-8h32v-32h-32zm0 0"/><path d="m428 444.5h-40c-2.207031 0-4-1.792969-4-4v-40c0-2.207031 1.792969-4 4-4h40c2.207031 0 4 1.792969 4 4v40c0 2.207031-1.792969 4-4 4zm-36-8h32v-32h-32zm0 0"/><path d="m388 424.5h-344c-2.207031 0-4-1.792969-4-4v-16h-16c-2.207031 0-4-1.792969-4-4v-344c0-2.207031 1.792969-4 4-4h16v-16c0-2.207031 1.792969-4 4-4h344c2.207031 0 4 1.792969 4 4v16h16c2.207031 0 4 1.792969 4 4v204c0 2.207031-1.792969 4-4 4s-4-1.792969-4-4v-200h-16c-2.207031 0-4-1.792969-4-4v-16h-336v16c0 2.207031-1.792969 4-4 4h-16v336h16c2.207031 0 4 1.792969 4 4v16h336v-16c0-2.207031 1.792969-4 4-4h16v-40c0-2.207031 1.792969-4 4-4s4 1.792969 4 4v44c0 2.207031-1.792969 4-4 4h-16v16c0 2.207031-1.792969 4-4 4zm0 0"/><path d="m136 456.5h-16c-2.207031 0-4-1.792969-4-4s1.792969-4 4-4h16c2.207031 0 4 1.792969 4 4s-1.792969 4-4 4zm0 0"/><path d="m312 456.5h-160c-2.207031 0-4-1.792969-4-4s1.792969-4 4-4h160c2.207031 0 4 1.792969 4 4s-1.792969 4-4 4zm0 0"/><path d="m312 8.5h-16c-2.207031 0-4-1.792969-4-4s1.792969-4 4-4h16c2.207031 0 4 1.792969 4 4s-1.792969 4-4 4zm0 0"/><path d="m280 8.5h-160c-2.207031 0-4-1.792969-4-4s1.792969-4 4-4h160c2.207031 0 4 1.792969 4 4s-1.792969 4-4 4zm0 0"/></g><path d="m246 164.5c0 39.765625-32.234375 72-72 72s-72-32.234375-72-72 32.234375-72 72-72 72 32.234375 72 72zm0 0" fill="#ffd740"/><path d="m174 240.5c-41.902344 0-76-34.097656-76-76s34.097656-76 76-76 76 34.097656 76 76-34.097656 76-76 76zm0-144c-37.496094 0-68 30.503906-68 68s30.503906 68 68 68 68-30.503906 68-68-30.503906-68-68-68zm0 0" fill="#263238"/><path d="m318 240.5c-.617188 0-1.222656-.144531-1.792969-.425781l-144-72c-1.351562-.679688-2.207031-2.0625-2.207031-3.574219s.855469-2.894531 2.207031-3.574219l144-72c1.234375-.617187 2.714844-.546875 3.890625.167969 1.183594.734375 1.902344 2.023438 1.902344 3.40625v144c0 1.382812-.71875 2.671875-1.894531 3.40625-.640625.394531-1.378907.59375-2.105469.59375zm-135.054688-76 131.054688 65.527344v-131.054688zm0 0" fill="#263238"/><path d="m184 344.5c-.503906 0-1.007812-.097656-1.488281-.289062l-80-32c-1.519531-.597657-2.511719-2.078126-2.511719-3.710938s1-3.113281 2.511719-3.710938l80-32c1.214843-.503906 2.617187-.34375 3.726562.398438 1.097657.746094 1.761719 1.984375 1.761719 3.3125v64c0 1.328125-.664062 2.566406-1.761719 3.3125-.671875.457031-1.445312.6875-2.238281.6875zm-69.230469-36 65.230469 26.097656v-52.1875zm0 0" fill="#263238"/><path d="m140.089844 326.941406c-2.210938 0-4-1.792968-4-4v-22.96875l-30.601563 12.238282c-2.039062.824218-4.375-.167969-5.199219-2.222657-.824218-2.046875.175782-4.375 2.230469-5.191406l36.082031-14.441406c1.214844-.496094 2.621094-.351563 3.726563.402343 1.097656.742188 1.761719 1.980469 1.761719 3.308594v28.875c0 2.207032-1.792969 4-4 4zm0 0" fill="#263238"/><path d="m452 340.5c11.046875 0 20-8.953125 20-20v-24c0-11.046875-8.953125-20-20-20h-268v64zm0 0" fill="#40c4ff"/><path d="m452 344.5h-268c-2.207031 0-4-1.792969-4-4v-64c0-2.207031 1.792969-4 4-4h268c13.230469 0 24 10.769531 24 24v24c0 13.230469-10.769531 24-24 24zm-264-8h264c8.824219 0 16-7.175781 16-16v-24c0-8.824219-7.175781-16-16-16h-264zm0 0" fill="#263238"/><path d="m432 340.496094h-48v-64h48zm0 0" fill="#ff5252"/><path d="m432 344.5h-48c-2.207031 0-4-1.792969-4-4v-64c0-2.207031 1.792969-4 4-4h48c2.207031 0 4 1.792969 4 4v64c0 2.207031-1.792969 4-4 4zm-44-8h40v-56h-40zm0 0" fill="#263238"/><path d="m384 312.5h-200c-2.207031 0-4-1.792969-4-4s1.792969-4 4-4h200c2.207031 0 4 1.792969 4 4s-1.792969 4-4 4zm0 0" fill="#263238"/></svg>