<?xml version="1.0" encoding="iso-8859-1"?>
<!-- Generator: Adobe Illustrator 19.0.0, SVG Export Plug-In . SVG Version: 6.00 Build 0)  -->
<svg version="1.1" id="Capa_1" xmlns="http://www.w3.org/2000/svg" xmlns:xlink="http://www.w3.org/1999/xlink" x="0px" y="0px"
	 viewBox="0 0 460.781 460.781" style="enable-background:new 0 0 460.781 460.781;" xml:space="preserve">
<g>
	<path style="fill:#D6D8D8;" d="M456.64,74.267H247.72c-2.292,0-4.14,1.859-4.14,4.14v29.232v82.656l-48.672,21.3
		c-1.74,0.756-1.74,3.228,0,3.996l48.672,21.3v161.184c0,2.28,1.848,4.141,4.14,4.141h208.92c2.292,0,4.141-1.86,4.141-4.141
		V107.639V78.407C460.781,76.126,458.932,74.267,456.64,74.267z"/>
	<path style="fill:#D6D8D8;" d="M270.752,411.975c2.3,1.857,3.771,4.74,3.771,7.986c0,2.803-1.121,5.359-2.918,7.203
		c-1.775,1.811-4.203,2.955-6.889,2.978h-60.431c-10.321,0-20.537-1.927-30.146-5.686h-15.901l0.159-61.862l15.9-0.074
		l17.615-18.475c11.533-12.088,17.962-28.158,17.962-44.871c0,0,6.161-4.313,12.053-4.313c4.009,0,7.888,1.986,9.641,8.651
		c4.339,16.487-0.868,37.313-0.868,37.313h48.265c6.432,0,11.998,4.862,12.447,11.278c0.258,3.691-1.144,7.067-3.527,9.46
		c-2.082,2.074-4.902,3.402-8.035,3.541c4.504,1.779,7.688,6.17,7.688,11.299c0,3.349-1.361,6.387-3.557,8.59
		c-1.996,1.987-4.687,3.298-7.663,3.523c4.538,1.753,7.749,6.161,7.749,11.315c0,3.35-1.362,6.387-3.558,8.591
		c-2.169,2.16-5.138,3.514-8.417,3.549h-12.756"/>
	<rect x="128.74" y="356.875" style="fill:#D6D8D8;" width="38.18" height="76.36"/>
</g>
<path style="fill:#F96132;" d="M448.781,66.407v29.232h-217.2V66.407c0-2.28,1.848-4.14,4.14-4.14h208.92
	C446.932,62.267,448.781,64.126,448.781,66.407z"/>
<path d="M448.781,97.439h-217.2c-0.994,0-1.8-0.806-1.8-1.8V66.407c0-3.275,2.664-5.939,5.939-5.939h208.92
	c3.275,0,5.94,2.664,5.94,5.939v29.232C450.58,96.633,449.775,97.439,448.781,97.439z M233.38,93.839h213.6V66.407
	c0-1.29-1.049-2.34-2.34-2.34H235.72c-1.29,0-2.34,1.05-2.34,2.34V93.839z"/>
<path style="fill:#E23F13;" d="M446.98,66.407V93.84h-213.6v-8.4h203.4c0.996,0,1.8-0.804,1.8-1.8V64.067h6.06
	C445.937,64.067,446.98,65.111,446.98,66.407z"/>
<path style="fill:#FFFFFF;" d="M231.58,312.095v-87.204l-48.672-21.3c-1.74-0.769-1.74-3.24,0-3.996l48.672-21.3V95.639h217.2
	v290.436c0,2.28-1.849,4.141-4.141,4.141H282.892"/>
<path d="M444.64,392.015H282.892c-0.994,0-1.8-0.806-1.8-1.8s0.806-1.801,1.8-1.801H444.64c1.291,0,2.34-1.049,2.34-2.34V97.439
	h-213.6v80.856c0,0.714-0.423,1.362-1.078,1.648l-48.672,21.3c-0.06,0.025-0.226,0.099-0.228,0.344c0,0.168,0.078,0.289,0.233,0.357
	l48.667,21.298c0.655,0.286,1.078,0.934,1.078,1.648v87.205c0,0.994-0.806,1.8-1.8,1.8s-1.8-0.806-1.8-1.8v-86.027l-47.594-20.828
	c-1.477-0.651-2.388-2.055-2.383-3.663c0.004-1.604,0.919-2.995,2.388-3.633l47.589-20.826V95.639c0-0.994,0.806-1.8,1.8-1.8h217.2
	c0.994,0,1.8,0.806,1.8,1.8v290.436C450.58,389.35,447.915,392.015,444.64,392.015z"/>
<path style="fill:#EFEFEF;" d="M233.38,380.015v6.06c0,1.291,1.05,2.34,2.34,2.34h208.92c1.291,0,2.34-1.049,2.34-2.34V97.439
	h-8.399v276.636c0,3.275-2.665,5.94-5.94,5.94H233.38z"/>
<path d="M258.43,207.809h12.615c0.994,0,1.8-0.806,1.8-1.8s-0.806-1.8-1.8-1.8H258.43c-0.995,0-1.8,0.806-1.8,1.8
	S257.435,207.809,258.43,207.809z"/>
<path d="M286.645,207.809h68.263c0.994,0,1.8-0.806,1.8-1.8s-0.806-1.8-1.8-1.8h-68.263c-0.994,0-1.8,0.806-1.8,1.8
	S285.651,207.809,286.645,207.809z"/>
<path d="M307.292,236.556H258.43c-0.995,0-1.8-0.806-1.8-1.801c0-0.994,0.805-1.8,1.8-1.8h48.862c0.994,0,1.8,0.806,1.8,1.8
	C309.092,235.75,308.286,236.556,307.292,236.556z"/>
<path d="M354.908,222.957H258.43c-0.995,0-1.8-0.806-1.8-1.801c0-0.994,0.805-1.8,1.8-1.8h96.478c0.994,0,1.8,0.806,1.8,1.8
	C356.707,222.151,355.902,222.957,354.908,222.957z"/>
<path style="fill:#EFEFEF;" d="M416.279,372.272h-27.38c-4.032,0-7.302-3.269-7.302-7.301v-151.49c0-4.032,3.27-7.301,7.302-7.301
	h27.38c4.032,0,7.301,3.269,7.301,7.301v151.49C423.579,369.003,420.311,372.272,416.279,372.272z"/>
<path d="M416.279,374.073h-27.38c-5.019,0-9.102-4.084-9.102-9.102v-151.49c0-5.019,4.083-9.102,9.102-9.102h27.38
	c5.019,0,9.102,4.083,9.102,9.102v151.49C425.38,369.989,421.297,374.073,416.279,374.073z M388.899,207.98
	c-3.033,0-5.501,2.468-5.501,5.501v151.49c0,3.033,2.468,5.502,5.501,5.502h27.38c3.033,0,5.501-2.469,5.501-5.502v-151.49
	c0-3.033-2.468-5.501-5.501-5.501H388.899z"/>
<path style="fill:#EFEFEF;" d="M413.958,169.448H266.4c-5.314,0-9.622-4.308-9.622-9.621v-30.266c0-5.313,4.308-9.621,9.622-9.621
	h147.559c5.314,0,9.621,4.308,9.621,9.621v30.266C423.579,165.14,419.273,169.448,413.958,169.448z"/>
<path d="M413.958,171.248H266.4c-6.299,0-11.422-5.124-11.422-11.421v-30.266c0-6.297,5.123-11.422,11.422-11.422h147.559
	c6.297,0,11.422,5.125,11.422,11.422v30.266C425.38,166.124,420.255,171.248,413.958,171.248z M266.4,121.74
	c-4.313,0-7.822,3.509-7.822,7.821v30.266c0,4.313,3.51,7.821,7.822,7.821h147.559c4.313,0,7.821-3.509,7.821-7.821v-30.266
	c0-4.313-3.509-7.821-7.821-7.821H266.4z"/>
<path style="fill:#D6D8D8;" d="M421.781,129.563v30.264c0,4.32-3.517,7.824-7.824,7.824H266.404c-4.308,0-7.823-3.504-7.823-7.824
	v-0.576h143.376c6.3,0,11.424-5.124,11.424-11.424v-26.088h0.576C418.264,121.739,421.781,125.243,421.781,129.563z"/>
<circle style="fill:#FFFFFF;" cx="251.92" cy="78.595" r="7.098"/>
<path d="M251.923,87.496c-4.906,0-8.898-3.992-8.898-8.898s3.992-8.898,8.898-8.898c4.906,0,8.898,3.992,8.898,8.898
	S256.829,87.496,251.923,87.496z M251.923,73.299c-2.922,0-5.299,2.376-5.299,5.298c0,2.921,2.377,5.299,5.299,5.299
	s5.299-2.378,5.299-5.299C257.222,75.675,254.845,73.299,251.923,73.299z"/>
<circle style="fill:#FFFFFF;" cx="277.48" cy="78.595" r="7.099"/>
<path d="M277.477,87.496c-4.907,0-8.897-3.992-8.897-8.898s3.99-8.898,8.897-8.898s8.898,3.992,8.898,8.898
	S282.384,87.496,277.477,87.496z M277.477,73.299c-2.921,0-5.298,2.376-5.298,5.298c0,2.921,2.377,5.299,5.298,5.299
	s5.299-2.378,5.299-5.299C282.776,75.675,280.398,73.299,277.477,73.299z"/>
<circle style="fill:#FFFFFF;" cx="303.03" cy="78.595" r="7.098"/>
<path d="M303.031,87.496c-4.906,0-8.898-3.992-8.898-8.898s3.992-8.898,8.898-8.898s8.898,3.992,8.898,8.898
	S307.937,87.496,303.031,87.496z M303.031,73.299c-2.922,0-5.298,2.376-5.298,5.298c0,2.921,2.376,5.299,5.298,5.299
	s5.299-2.378,5.299-5.299C308.329,75.675,305.953,73.299,303.031,73.299z"/>
<polygon style="fill:#F8B238;" points="290.298,292.954 290.298,306.995 278.597,306.995 278.597,318.695 264.556,318.695 
	264.556,306.995 252.856,306.995 252.856,292.954 264.556,292.954 264.556,281.252 278.597,281.252 278.597,292.954 "/>
<path d="M278.597,320.495h-14.041c-0.994,0-1.799-0.806-1.799-1.801v-9.9h-9.901c-0.994,0-1.8-0.805-1.8-1.799v-14.041
	c0-0.994,0.806-1.801,1.8-1.801h9.901v-9.9c0-0.994,0.805-1.8,1.799-1.8h14.041c0.994,0,1.801,0.806,1.801,1.8v9.9h9.9
	c0.994,0,1.8,0.807,1.8,1.801v14.041c0,0.994-0.806,1.799-1.8,1.799h-9.9v9.9C280.398,319.689,279.591,320.495,278.597,320.495z
	 M266.357,316.895h10.44v-9.9c0-0.995,0.806-1.801,1.8-1.801h9.9v-10.441h-9.9c-0.994,0-1.8-0.805-1.8-1.799v-9.9h-10.44v9.9
	c0,0.994-0.807,1.799-1.801,1.799h-9.9v10.441h9.9c0.994,0,1.801,0.806,1.801,1.801V316.895z"/>
<path d="M87.07,53.115c-0.995,0-1.8-0.806-1.8-1.8V29.348c0-0.994,0.806-1.801,1.8-1.801s1.8,0.807,1.8,1.801v21.967
	C88.87,52.309,88.064,53.115,87.07,53.115z"/>
<path d="M156.797,81.994c-0.46,0-0.921-0.176-1.272-0.527c-0.703-0.702-0.703-1.843,0-2.545l15.523-15.523
	c0.703-0.703,1.842-0.703,2.545,0c0.703,0.702,0.703,1.843,0,2.545L158.07,81.467C157.719,81.818,157.258,81.994,156.797,81.994z"/>
<path d="M17.343,82.013c-0.461,0-0.921-0.176-1.273-0.527L0.527,65.943c-0.703-0.702-0.703-1.842,0-2.545s1.842-0.703,2.545,0
	l15.543,15.543c0.703,0.702,0.703,1.842,0,2.545C18.264,81.837,17.804,82.013,17.343,82.013z"/>
<path d="M49.776,60.418c-0.709,0-1.382-0.423-1.667-1.12l-8.298-20.327c-0.375-0.921,0.065-1.971,0.986-2.347
	c0.92-0.374,1.971,0.065,2.347,0.986l8.298,20.327c0.375,0.92-0.066,1.971-0.986,2.347C50.233,60.375,50.002,60.418,49.776,60.418z"
	/>
<path d="M125.262,60.79c-0.232,0-0.469-0.046-0.696-0.142c-0.917-0.384-1.347-1.439-0.962-2.355l8.494-20.229
	c0.384-0.916,1.441-1.35,2.356-0.963c0.917,0.385,1.348,1.439,0.963,2.356l-8.494,20.229
	C126.633,60.374,125.965,60.79,125.262,60.79z"/>
<path style="fill:#FFFFFF;" d="M173.132,339.635l-9.016-32.682c-9.263-33.578-39.806-56.836-74.637-56.836l0,0
	c-34.831,0-65.375,23.258-74.637,56.836l-9.016,32.682h72.667"/>
<path d="M173.131,341.436c-0.789,0-1.514-0.523-1.734-1.322l-9.016-32.682c-9.017-32.687-38.995-55.515-72.902-55.515
	s-63.885,22.828-72.902,55.515L8.19,337.835h70.303c0.994,0,1.8,0.806,1.8,1.8s-0.806,1.801-1.8,1.801H5.826
	c-0.562,0-1.091-0.264-1.432-0.71c-0.341-0.447-0.453-1.027-0.303-1.569l9.016-32.683c9.446-34.241,40.852-58.156,76.372-58.156
	s66.926,23.915,76.372,58.156l9.017,32.683c0.265,0.959-0.298,1.949-1.256,2.214C173.451,341.415,173.29,341.436,173.131,341.436z"
	/>
<path style="fill:#EFEFEF;" d="M170.764,337.834h-8.268l-8.64-31.367c-6.708-24.288-24.504-43.524-47.148-52.549
	c26.46,6.229,48.216,26.496,55.668,53.509L170.764,337.834z"/>
<path style="fill:#FFFFFF;" d="M151.877,189.295h2.521c5.441,0,9.852-4.411,9.852-9.853v-9.41c0-5.44-4.411-9.852-9.852-9.852
	h-2.521c-5.441,0-9.852,4.411-9.852,9.852v9.41C142.026,184.884,146.436,189.295,151.877,189.295z"/>
<path d="M154.398,191.095h-2.521c-6.425,0-11.651-5.228-11.651-11.652v-9.41c0-6.425,5.227-11.651,11.651-11.651h2.521
	c6.425,0,11.652,5.227,11.652,11.651v9.41C166.05,185.868,160.823,191.095,154.398,191.095z M151.877,161.981
	c-4.44,0-8.052,3.612-8.052,8.052v9.41c0,4.44,3.612,8.052,8.052,8.052h2.521c4.439,0,8.052-3.611,8.052-8.052v-9.41
	c0-4.439-3.612-8.052-8.052-8.052H151.877z"/>
<path style="fill:#FFFFFF;" d="M24.559,189.295h2.521c5.44,0,9.851-4.411,9.851-9.853v-9.41c0-5.44-4.411-9.852-9.851-9.852h-2.521
	c-5.441,0-9.852,4.411-9.852,9.852v9.41C14.708,184.884,19.119,189.295,24.559,189.295z"/>
<path d="M27.08,191.095h-2.521c-6.425,0-11.652-5.228-11.652-11.652v-9.41c0-6.425,5.227-11.651,11.652-11.651h2.521
	c6.425,0,11.651,5.227,11.651,11.651v9.41C38.731,185.868,33.505,191.095,27.08,191.095z M24.559,161.981
	c-4.44,0-8.052,3.612-8.052,8.052v9.41c0,4.44,3.612,8.052,8.052,8.052h2.521c4.44,0,8.052-3.611,8.052-8.052v-9.41
	c0-4.439-3.612-8.052-8.052-8.052H24.559z"/>
<path style="fill:#FFFFFF;" d="M89.479,261.23L89.479,261.23c-34.096,0-61.737-27.641-61.737-61.736V126.43h123.473v73.064
	C151.215,233.589,123.575,261.23,89.479,261.23z"/>
<path d="M89.479,263.03c-35.034,0-63.537-28.503-63.537-63.536V126.43c0-0.994,0.806-1.8,1.8-1.8h123.473c0.994,0,1.8,0.806,1.8,1.8
	v73.064C153.015,234.527,124.513,263.03,89.479,263.03z M29.542,128.23v71.264c0,33.049,26.887,59.937,59.937,59.937
	c33.049,0,59.936-26.888,59.936-59.937V128.23L29.542,128.23L29.542,128.23z"/>
<path style="fill:#F8B238;" d="M160.855,151.273v9.04c-21.125-8.721-97.038-25.639-97.038-25.639
	c-4.876,13.384-30.689,19.389-45.713,26.533v-9.935c0-37,31.953-66.993,71.37-66.993C128.902,84.28,160.855,114.273,160.855,151.273
	z"/>
<path d="M18.105,163.007c-0.335,0-0.669-0.094-0.961-0.278c-0.522-0.33-0.839-0.904-0.839-1.521v-9.935
	c0-37.933,32.824-68.793,73.17-68.793c40.352,0,73.181,30.86,73.181,68.793v9.04c0,0.601-0.3,1.162-0.799,1.496
	c-0.5,0.334-1.134,0.396-1.688,0.168c-19.133-7.898-84.639-22.818-95.282-25.218c-4.756,9.832-19.745,15.609-33.043,20.734
	c-4.727,1.823-9.191,3.544-12.967,5.339C18.633,162.95,18.369,163.007,18.105,163.007z M89.475,86.08
	c-38.361,0-69.57,29.246-69.57,65.193v7.137c3.266-1.43,6.873-2.82,10.645-4.274c13.23-5.101,28.226-10.881,31.578-20.077
	c0.309-0.849,1.203-1.337,2.083-1.141c2.993,0.667,71.09,15.886,94.846,24.758v-6.402C159.056,115.326,127.842,86.08,89.475,86.08z"
	/>
<path style="fill:#EA961C;" d="M159.052,151.271v6.408c-23.748-8.868-91.848-24.097-94.836-24.756
	c-0.888-0.204-1.776,0.287-2.088,1.14c-3.36,9.192-18.36,14.976-31.596,20.076c-3.768,1.452-7.368,2.844-10.632,4.271v-7.14
	c0-1.956,0.096-3.948,0.288-5.916c13.212-5.088,27.984-10.848,32.7-20.592c10.644,2.399,76.152,17.315,95.28,25.224
	c0.552,0.229,1.188,0.168,1.68-0.168c0.504-0.336,0.804-0.9,0.804-1.5v-9.048c0-9.876-2.196-19.428-6.42-28.236
	C153.772,122.411,159.052,136.511,159.052,151.271z"/>
<path d="M60.977,130.796c-0.807,0-1.541-0.547-1.745-1.364c-4.104-16.412-10.178-23.299-10.239-23.367
	c-0.665-0.738-0.605-1.876,0.134-2.542c0.739-0.666,1.877-0.604,2.542,0.134c0.273,0.304,6.738,7.63,11.056,24.902
	c0.241,0.964-0.345,1.941-1.31,2.183C61.268,130.779,61.121,130.796,60.977,130.796z"/>
<path d="M62.892,178.695c-0.994,0-1.8-0.806-1.8-1.8c0-2.536-2.063-4.6-4.6-4.6c-2.537,0-4.601,2.063-4.601,4.6
	c0,0.994-0.806,1.8-1.8,1.8s-1.8-0.806-1.8-1.8c0-4.521,3.678-8.2,8.2-8.2c4.521,0,8.199,3.679,8.199,8.2
	C64.692,177.889,63.886,178.695,62.892,178.695z"/>
<path d="M120.892,178.695c-0.994,0-1.8-0.806-1.8-1.8c0-2.536-2.063-4.6-4.6-4.6s-4.6,2.063-4.6,4.6c0,0.994-0.806,1.8-1.8,1.8
	s-1.8-0.806-1.8-1.8c0-4.521,3.679-8.2,8.2-8.2s8.2,3.679,8.2,8.2C122.692,177.889,121.887,178.695,120.892,178.695z"/>
<path style="fill:#FFFFFF;" d="M106.892,215.295c0,10.383-8.417,18.8-18.8,18.8s-18.8-8.417-18.8-18.8L106.892,215.295
	L106.892,215.295z"/>
<path d="M88.092,235.895c-11.359,0-20.6-9.241-20.6-20.6c0-0.995,0.806-1.8,1.8-1.8h37.6c0.994,0,1.8,0.805,1.8,1.8
	C108.692,226.654,99.451,235.895,88.092,235.895z M71.186,217.095c0.902,8.531,8.139,15.2,16.906,15.2
	c8.766,0,16.004-6.669,16.906-15.2H71.186z"/>
<path d="M110.312,341.436h-19.02c-0.994,0-1.8-0.807-1.8-1.801s0.806-1.8,1.8-1.8h19.02c0.995,0,1.8,0.806,1.8,1.8
	S111.307,341.436,110.312,341.436z"/>
<path style="fill:#FFFFFF;" d="M258.752,399.975c2.3,1.857,3.771,4.74,3.771,7.986c0,2.803-1.121,5.359-2.918,7.203
	c-1.775,1.811-4.203,2.955-6.889,2.978h-60.431c-10.321,0-20.537-1.927-30.146-5.686h-15.901l0.159-61.862l15.9-0.074l17.615-18.475
	c11.533-12.088,17.962-28.158,17.962-44.871c0,0,6.161-4.313,12.053-4.313c4.009,0,7.888,1.986,9.641,8.651
	c4.339,16.487-0.868,37.313-0.868,37.313h48.265c6.432,0,11.998,4.862,12.447,11.278c0.258,3.691-1.144,7.067-3.527,9.46
	c-2.082,2.074-4.902,3.402-8.035,3.541c4.504,1.779,7.688,6.17,7.688,11.299c0,3.349-1.361,6.387-3.557,8.59
	c-1.996,1.987-4.687,3.298-7.663,3.523c4.538,1.753,7.749,6.161,7.749,11.315c0,3.35-1.362,6.387-3.558,8.591
	c-2.169,2.16-5.138,3.514-8.417,3.549h-12.756"/>
<path d="M192.285,419.942c-10.471,0-20.725-1.912-30.482-5.686h-15.564c-0.478,0-0.937-0.19-1.274-0.529
	c-0.337-0.338-0.527-0.797-0.526-1.275l0.16-61.862c0.002-0.989,0.803-1.79,1.792-1.796l15.133-0.07l17.087-17.92
	c11.262-11.805,17.465-27.299,17.465-43.629c0-0.588,0.287-1.139,0.768-1.475c0.271-0.189,6.7-4.639,13.085-4.639
	c3.993,0,9.209,1.734,11.381,9.994c3.615,13.736,0.863,30.071-0.361,35.971h46.018c7.479,0,13.734,5.689,14.242,12.953
	c0.283,4.033-1.191,7.99-4.047,10.857c-1.334,1.327-2.896,2.357-4.594,3.051c2.988,2.594,4.771,6.383,4.771,10.518
	c0,3.715-1.45,7.218-4.082,9.861c-1.26,1.252-2.729,2.244-4.326,2.938c3.06,2.606,4.938,6.488,4.938,10.63
	c0,3.716-1.449,7.218-4.082,9.861c-2.025,2.015-4.549,3.338-7.279,3.845c1.176,1.891,1.816,4.104,1.816,6.422
	c0,3.187-1.219,6.19-3.43,8.46c-2.201,2.245-5.1,3.493-8.162,3.521L192.285,419.942L192.285,419.942z M148.043,410.657h14.097
	c0.224,0,0.447,0.041,0.655,0.123c9.434,3.691,19.355,5.563,29.49,5.563h60.431c2.084-0.019,4.08-0.885,5.604-2.438
	c1.549-1.59,2.404-3.701,2.404-5.943c0-2.387-0.957-4.609-2.646-6.188h-10.741c-0.995,0-1.801-0.807-1.801-1.801
	s0.806-1.8,1.801-1.8h12.756c2.672-0.028,5.217-1.103,7.146-3.024c1.951-1.959,3.028-4.559,3.028-7.315
	c0-4.239-2.651-8.112-6.598-9.636c-0.784-0.305-1.255-1.11-1.132-1.942c0.123-0.833,0.806-1.47,1.645-1.532
	c2.451-0.186,4.77-1.253,6.528-3.004c1.95-1.958,3.027-4.559,3.027-7.314c0-4.275-2.57-8.053-6.55-9.625
	c-0.789-0.312-1.254-1.133-1.113-1.971s0.848-1.464,1.695-1.501c2.574-0.114,5.006-1.187,6.846-3.019
	c2.115-2.123,3.211-5.063,3.001-8.059c-0.377-5.386-5.056-9.605-10.651-9.605H218.7c-0.554,0-1.078-0.255-1.418-0.691
	c-0.341-0.437-0.462-1.007-0.328-1.544c0.05-0.204,5.041-20.583,0.873-36.419c-1.293-4.919-3.877-7.31-7.9-7.31
	c-4.13,0-8.53,2.431-10.26,3.496c-0.244,16.897-6.776,32.891-18.453,45.131l-17.616,18.474c-0.337,0.354-0.805,0.556-1.294,0.559
	l-14.112,0.064L148.043,410.657z"/>
<path d="M268.963,354.924h-29.504c-0.994,0-1.8-0.807-1.8-1.801s0.806-1.8,1.8-1.8h29.504c0.994,0,1.8,0.806,1.8,1.8
	S269.957,354.924,268.963,354.924z"/>
<path d="M265.492,378.353H239.46c-0.994,0-1.8-0.806-1.8-1.8s0.806-1.801,1.8-1.801h26.032c0.995,0,1.801,0.807,1.801,1.801
	S266.487,378.353,265.492,378.353z"/>
<path style="fill:#EFEFEF;" d="M260.728,407.963c0,2.232-0.863,4.344-2.412,5.939c-1.523,1.549-3.516,2.412-5.604,2.437H192.28
	c-10.152,0-20.064-1.872-29.484-5.568c-0.216-0.071-0.432-0.12-0.66-0.12h-14.1l0.036-8.4H161.8
	c9.744,3.781,19.992,5.688,30.48,5.688h60.444c2.772-0.024,5.412-1.044,7.5-2.892C260.56,405.971,260.728,406.956,260.728,407.963z"
	/>
<rect x="116.74" y="344.875" style="fill:#3ABADD;" width="38.18" height="76.36"/>
<path d="M154.921,423.041H116.74c-0.994,0-1.8-0.805-1.8-1.8v-76.362c0-0.994,0.806-1.8,1.8-1.8h38.181c0.994,0,1.8,0.806,1.8,1.8
	v76.362C156.721,422.237,155.915,423.041,154.921,423.041z M118.54,419.442h34.581V346.68H118.54V419.442z"/>
<path style="fill:#1490AD;" d="M153.124,346.679v72.769H118.54v-8.4h24.384c0.996,0,1.8-0.805,1.8-1.801V346.68L153.124,346.679
	L153.124,346.679z"/>
<g>
</g>
<g>
</g>
<g>
</g>
<g>
</g>
<g>
</g>
<g>
</g>
<g>
</g>
<g>
</g>
<g>
</g>
<g>
</g>
<g>
</g>
<g>
</g>
<g>
</g>
<g>
</g>
<g>
</g>
</svg>
