<svg height="512pt" viewBox="0 0 512 512" width="512pt" xmlns="http://www.w3.org/2000/svg"><path d="m490.238281 176.652344v312.496094h-468.476562v-312.496094c0-11.289063 7.746093-20.769532 18.207031-23.414063 1.902344-.484375 3.894531-.742187 5.949219-.742187h420.164062c2.054688 0 4.046875.257812 5.949219.742187 10.460938 2.644531 18.207031 12.125 18.207031 23.414063zm0 0" fill="#83a7c5"/><path d="m300.40625 466.109375c0 9.304687-7.542969 16.847656-16.847656 16.847656h-55.117188c-9.304687 0-16.847656-7.542969-16.847656-16.847656h-211.59375v23.414063c0 12.34375 10.007812 22.351562 22.347656 22.351562h467.304688c12.339844 0 22.347656-10.007812 22.347656-22.351562v-23.414063zm0 0" fill="#41739f"/><path d="m472.03125 153.238281v312.871094h-432.0625v-312.871094c1.902344-.484375 3.894531-.742187 5.949219-.742187h420.164062c2.054688 0 4.046875.257812 5.949219.742187zm0 0" fill="#628db2"/><path d="m456.765625 23.503906v442.605469h-401.53125v-442.605469c0-12.980468 10.523437-23.503906 23.503906-23.503906h354.523438c12.980469 0 23.503906 10.523438 23.503906 23.503906zm0 0" fill="#e5f4ff"/><path d="m456.765625 23.503906v38.925782h-401.53125v-38.925782c0-12.980468 10.523437-23.503906 23.503906-23.503906h354.523438c12.980469 0 23.503906 10.523438 23.503906 23.503906zm0 0" fill="#c4daec"/><path d="m78.738281 0h74.132813c-9.046875 0-16.371094 7.332031-16.371094 16.367188 0 4.523437-1.828125 8.625-4.789062 11.578124-2.964844 2.976563-7.054688 4.800782-11.578126 4.800782h-64.898437v-9.242188c0-12.980468 10.523437-23.503906 23.503906-23.503906zm0 0" fill="#83a7c5"/><path d="m456.765625 23.503906v9.242188h-210.535156c-9.039063 0-16.371094-7.332032-16.371094-16.378906 0-4.511719-1.828125-8.609376-4.789063-11.574219-2.964843-2.953125-7.054687-4.792969-11.566406-4.792969h219.757813c12.980469 0 23.503906 10.523438 23.503906 23.503906zm0 0" fill="#83a7c5"/><path d="m123.027344 111.027344c0-9.699219-7.859375-17.5625-17.558594-17.5625-9.695312 0-17.558594 7.863281-17.558594 17.5625 0 9.699218 7.863282 17.5625 17.558594 17.5625 9.699219 0 17.558594-7.863282 17.558594-17.5625zm0 0" fill="#ffab1e"/><path d="m203.140625 119.472656h-49.042969c-4.664062 0-8.445312-3.78125-8.445312-8.445312 0-4.664063 3.78125-8.445313 8.445312-8.445313h49.042969c4.664063 0 8.445313 3.78125 8.445313 8.445313 0 4.664062-3.78125 8.445312-8.445313 8.445312zm0 0" fill="#a3c0d9"/><path d="m175.476562 441.949219h-74.753906c-4.664062 0-8.445312-3.78125-8.445312-8.445313 0-4.664062 3.78125-8.445312 8.445312-8.445312h74.753906c4.660157 0 8.445313 3.78125 8.445313 8.445312 0 4.664063-3.78125 8.445313-8.445313 8.445313zm0 0" fill="#a3c0d9"/><path d="m293.378906 441.949219h-74.753906c-4.664062 0-8.445312-3.78125-8.445312-8.445313 0-4.664062 3.78125-8.445312 8.445312-8.445312h74.753906c4.660156 0 8.441406 3.78125 8.441406 8.445312 0 4.664063-3.78125 8.445313-8.441406 8.445313zm0 0" fill="#a3c0d9"/><path d="m162.347656 377.488281c0-13.394531-10.855468-24.253906-24.25-24.253906-13.390625 0-24.246094 10.859375-24.246094 24.253906s10.855469 24.253907 24.246094 24.253907c13.394532 0 24.25-10.859376 24.25-24.253907zm0 0" fill="#ff758e"/><path d="m280.246094 377.488281c0-13.394531-10.855469-24.253906-24.246094-24.253906s-24.246094 10.859375-24.246094 24.253906 10.855469 24.253907 24.246094 24.253907 24.246094-10.859376 24.246094-24.253907zm0 0" fill="#ff758e"/><path d="m398.148438 377.488281c0-13.394531-10.855469-24.253906-24.246094-24.253906-13.394532 0-24.25 10.859375-24.25 24.253906s10.855468 24.253907 24.25 24.253907c13.390625 0 24.246094-10.859376 24.246094-24.253907zm0 0" fill="#ff758e"/><g fill="#a3c0d9"><path d="m411.277344 441.949219h-74.753906c-4.664063 0-8.445313-3.78125-8.445313-8.445313 0-4.664062 3.78125-8.445312 8.445313-8.445312h74.753906c4.664062 0 8.445312 3.78125 8.445312 8.445312 0 4.664063-3.78125 8.445313-8.445312 8.445313zm0 0"/><path d="m420.546875 119.472656h-11.875c-4.664063 0-8.445313-3.78125-8.445313-8.445312 0-4.664063 3.78125-8.445313 8.445313-8.445313h11.875c4.664063 0 8.445313 3.78125 8.445313 8.445313 0 4.664062-3.78125 8.445312-8.445313 8.445312zm0 0"/><path d="m375.996094 119.472656h-11.875c-4.664063 0-8.445313-3.78125-8.445313-8.445312 0-4.664063 3.78125-8.445313 8.445313-8.445313h11.875c4.664062 0 8.445312 3.78125 8.445312 8.445313 0 4.664062-3.78125 8.445312-8.445312 8.445312zm0 0"/><path d="m330.425781 119.472656h-11.878906c-4.664063 0-8.445313-3.78125-8.445313-8.445312 0-4.664063 3.78125-8.445313 8.445313-8.445313h11.878906c4.664063 0 8.441407 3.78125 8.441407 8.445313 0 4.664062-3.78125 8.445312-8.441407 8.445312zm0 0"/></g><path d="m414.359375 284.289062h-316.71875c-5.726563 0-10.371094-4.644531-10.371094-10.375v-104.234374c0-5.730469 4.644531-10.375 10.371094-10.375h316.714844c5.730469 0 10.375 4.644531 10.375 10.375v104.234374c0 5.730469-4.644531 10.375-10.371094 10.375zm0 0" fill="#87d654"/><path d="m279.945312 201.609375-33.402343 33.402344-15.929688-15.929688-22.902343 22.902344h112.609374zm0 0" fill="#fff"/><path d="m235.429688 318.460938c0 4.277343-3.46875 7.746093-7.746094 7.746093-4.28125 0-7.746094-3.46875-7.746094-7.746093 0-4.277344 3.464844-7.746094 7.746094-7.746094 4.277344 0 7.746094 3.46875 7.746094 7.746094zm0 0" fill="#a3c0d9"/><path d="m263.746094 318.460938c0 4.277343-3.46875 7.746093-7.746094 7.746093s-7.746094-3.46875-7.746094-7.746093c0-4.277344 3.46875-7.746094 7.746094-7.746094s7.746094 3.46875 7.746094 7.746094zm0 0" fill="#5899fe"/><path d="m292.0625 318.460938c0 4.277343-3.464844 7.746093-7.746094 7.746093-4.277344 0-7.746094-3.46875-7.746094-7.746093 0-4.277344 3.46875-7.746094 7.746094-7.746094 4.28125 0 7.746094 3.46875 7.746094 7.746094zm0 0" fill="#a3c0d9"/></svg>