<?xml version="1.0" encoding="iso-8859-1"?>
<!-- Generator: Adobe Illustrator 19.0.0, SVG Export Plug-In . SVG Version: 6.00 Build 0)  -->
<svg version="1.1" id="Capa_1" xmlns="http://www.w3.org/2000/svg" xmlns:xlink="http://www.w3.org/1999/xlink" x="0px" y="0px"
	 viewBox="0 0 409.907 409.907" style="enable-background:new 0 0 409.907 409.907;" xml:space="preserve">
<g>
	<g>
		<path d="M51.584,0c-28.36,0-51.43,23.081-51.43,51.451s23.071,51.451,51.43,51.451s51.436-23.081,51.436-51.451S79.944,0,51.584,0
			z M51.584,92.662c-22.712,0-41.19-18.483-41.19-41.211S28.872,10.24,51.584,10.24c22.717,0,41.196,18.483,41.196,41.211
			S74.296,92.662,51.584,92.662z"/>
	</g>
</g>
<g>
	<g>
		<path d="M93.573,129.618H9.6c-2.831,0-5.12,2.289-5.12,5.12v270.049c0,2.831,2.289,5.12,5.12,5.12h83.973
			c2.831,0.005,5.12-2.289,5.12-5.115V134.738C98.693,131.907,96.404,129.618,93.573,129.618z M88.453,399.672H14.72V139.858h73.733
			V399.672z"/>
	</g>
</g>
<g>
	<g>
		<path d="M303.99,122.875c-35.436,0-60.989,16.23-75.464,33.725v-21.862c0-2.831-2.289-5.12-5.12-5.12h-80.533
			c-2.831,0-5.12,2.289-5.12,5.12v270.049c0,2.831,2.289,5.12,5.12,5.12h83.922c2.831,0,5.12-2.289,5.12-5.12V271.196
			c0-45.629,13.107-64.241,45.23-64.241c35.61,0,38.508,30.116,38.508,66.499v131.333c0,2.831,2.289,5.12,5.12,5.12h83.86
			c2.831,0,5.12-2.289,5.12-5.12V256.65C409.754,190.5,397.189,122.875,303.99,122.875z M399.514,399.672h-73.626V273.454
			c0-28.698,0-76.739-48.747-76.739c-49.167,0-55.47,39.803-55.47,74.481v128.476h-73.677V139.858h70.292v31.759
			c0,2.831,2.289,5.12,5.12,5.12h1.147c1.899,0,3.645-1.055,4.531-2.734c9.933-18.862,35.517-40.888,74.911-40.888
			c79.273,0,95.519,49.388,95.519,123.535V399.672z"/>
	</g>
</g>
<g>
</g>
<g>
</g>
<g>
</g>
<g>
</g>
<g>
</g>
<g>
</g>
<g>
</g>
<g>
</g>
<g>
</g>
<g>
</g>
<g>
</g>
<g>
</g>
<g>
</g>
<g>
</g>
<g>
</g>
</svg>
