<svg id="Layer_1" enable-background="new 0 0 512 512" height="512" viewBox="0 0 512 512" width="512" xmlns="http://www.w3.org/2000/svg"><path id="XMLID_832_" d="m348.306 491.631h-173.193l11.819-57.177 6.88-33.271h135.784l6.88 33.271z" fill="#90bac4"/><path id="XMLID_833_" d="m336.476 434.454h-149.544l6.88-33.271h135.784z" fill="#7da2b0"/><path id="XMLID_834_" d="m348.309 491.627h-28.368l-18.704-90.442h28.358z" fill="#7da2b0"/><path id="XMLID_835_" d="m511.998 355.241v-293.707c0-11.343-9.195-20.538-20.537-20.538h-470.922c-11.343 0-20.538 9.195-20.538 20.538v293.707z" fill="#27d1b3"/><path id="XMLID_836_" d="m484.849 61.534v293.707h27.151v-293.707c0-11.347-9.201-20.537-20.537-20.537h-27.151c11.347-.001 20.537 9.19 20.537 20.537z" fill="#20b69f"/><path id="XMLID_837_" d="m512 349.11v43.827c0 11.347-9.201 20.538-20.538 20.538h-470.924c-11.337 0-20.538-9.19-20.538-20.537v-43.828z" fill="#eff5f6"/><path id="XMLID_838_" d="m512 349.11v43.827c0 11.347-9.201 20.538-20.538 20.538h-27.151c11.347 0 20.538-9.191 20.538-20.538v-43.827z" fill="#cbe5e7"/><path id="XMLID_1186_" d="m464.312 349.11h-252.475v-156.969c0-5.671 4.597-10.269 10.269-10.269h231.937c5.671 0 10.269 4.597 10.269 10.269z" fill="#fddaa9"/><path id="XMLID_839_" d="m464.312 216.417v-24.276c0-5.671-4.598-10.269-10.269-10.269h-231.937c-5.671 0-10.269 4.598-10.269 10.269v24.276z" fill="#fca62f"/><path id="XMLID_1184_" d="m376.702 508.831h-229.988c-8.144 0-14.746-6.602-14.746-14.746 0-8.144 6.602-14.746 14.746-14.746h229.988c8.144 0 14.746 6.602 14.746 14.746-.001 8.144-6.603 14.746-14.746 14.746z" fill="#557983"/><path id="XMLID_840_" d="m391.448 494.089c0 4.069-1.648 7.757-4.316 10.425s-6.356 4.316-10.425 4.316h-22.952c4.069 0 7.757-1.648 10.425-4.316s4.316-6.356 4.316-10.425c0-8.138-6.593-14.742-14.742-14.742h22.952c8.139 0 14.742 6.603 14.742 14.742z" fill="#3f5959"/><path id="XMLID_841_" d="m337.219 97.128v44.429c0 5.671 4.597 10.269 10.269 10.269h106.555c5.671 0 10.269-4.598 10.269-10.269v-44.429z" fill="#20b69f"/><path id="XMLID_1180_" d="m454.043 130.262h-106.555c-5.671 0-10.269-4.597-10.269-10.269v-106.555c0-5.671 4.597-10.269 10.269-10.269h106.555c5.671 0 10.269 4.597 10.269 10.269v106.555c0 5.672-4.598 10.269-10.269 10.269z" fill="#eff5f6"/><path id="XMLID_842_" d="m464.312 13.438v106.559c0 5.668-4.6 10.269-10.269 10.269h-21.564c5.668 0 10.269-4.6 10.269-10.269v-106.559c0-5.668-4.6-10.269-10.269-10.269h21.564c5.669 0 10.269 4.601 10.269 10.269z" fill="#cbe5e7"/><circle id="XMLID_1178_" cx="402.306" cy="52.538" fill="#64e0c4" r="22.274"/><path id="XMLID_845_" d="m424.579 52.533c0 12.302-9.971 22.283-22.273 22.283-3.337 0-6.5-.739-9.345-2.064 7.63-3.522 12.928-11.255 12.928-20.219 0-8.954-5.299-16.687-12.928-20.209 2.844-1.325 6.007-2.064 9.345-2.064 12.302 0 22.273 9.982 22.273 22.273z" fill="#27d1b3"/><path id="XMLID_846_" d="m424.578 107.816h-44.547c-4.268 0-7.726-3.459-7.726-7.726s3.459-7.726 7.726-7.726h44.547c4.268 0 7.726 3.459 7.726 7.726.001 4.267-3.458 7.726-7.726 7.726z" fill="#a9d3d8"/><path id="XMLID_1173_" d="m107.365 256.076c-8.501-4.876-19.346-1.938-24.222 6.563l-2.489 4.338-4.338-2.489c-8.501-4.876-19.346-1.938-24.222 6.563-4.876 8.501-1.938 19.346 6.563 24.222l30.67 17.593c2.46 1.411 5.597.561 7.008-1.899l17.593-30.67c4.876-8.5 1.938-19.344-6.563-24.221z" fill="#ec6264"/><path id="XMLID_1171_" d="m181.026 73.927c-6.93-6.93-18.166-6.93-25.095 0l-3.537 3.537-3.537-3.537c-6.93-6.93-18.166-6.93-25.095 0-6.93 6.93-6.93 18.166 0 25.095l25.002 25.002c2.005 2.005 5.256 2.005 7.261 0l25.001-25.002c6.93-6.93 6.93-18.165 0-25.095z" fill="#5169cd"/><path id="XMLID_850_" d="m38.694 40.997c.553 3.603 2.197 7.071 4.972 9.846l25.002 25.002c2.005 2.005 5.256 2.005 7.261 0l25.001-25.002c2.775-2.775 4.419-6.243 4.972-9.846z" fill="#f17d7e"/><path id="XMLID_1167_" d="m109.252 128.983c-9.879-4.973-21.919-.997-26.893 8.882l-2.538 5.041-5.042-2.538c-9.879-4.973-21.919-.997-26.892 8.882-4.973 9.879-.997 21.919 8.882 26.893l35.641 17.943c2.858 1.439 6.342.288 7.781-2.57l17.943-35.641c4.974-9.879.997-21.919-8.882-26.892z" fill="#fcb44d"/><path id="XMLID_1165_" d="m151.494 191.149c-3.074-9.306-13.109-14.358-22.415-11.285l-4.749 1.569-1.569-4.749c-3.074-9.306-13.109-14.358-22.415-11.285-9.306 3.074-14.358 13.109-11.285 22.415l11.089 33.574c.889 2.693 3.793 4.154 6.486 3.265l33.574-11.089c9.305-3.073 14.357-13.109 11.284-22.415z" fill="#f17d7e"/><g fill="#fca62f"><path id="XMLID_854_" d="m256 256.572h-13.863c-4.268 0-7.726-3.459-7.726-7.726s3.459-7.726 7.726-7.726h13.863c4.268 0 7.726 3.459 7.726 7.726s-3.458 7.726-7.726 7.726z"/><path id="XMLID_855_" d="m256 288.924h-13.863c-4.268 0-7.726-3.459-7.726-7.726s3.459-7.726 7.726-7.726h13.863c4.268 0 7.726 3.459 7.726 7.726s-3.458 7.726-7.726 7.726z"/><path id="XMLID_856_" d="m256 321.275h-13.863c-4.268 0-7.726-3.459-7.726-7.726s3.459-7.726 7.726-7.726h13.863c4.268 0 7.726 3.459 7.726 7.726 0 4.266-3.458 7.726-7.726 7.726z"/><path id="XMLID_858_" d="m428.515 256.572h-134.209c-4.268 0-7.726-3.459-7.726-7.726s3.459-7.726 7.726-7.726h134.209c4.268 0 7.726 3.459 7.726 7.726s-3.458 7.726-7.726 7.726z"/><path id="XMLID_859_" d="m428.515 288.924h-36.991c-4.268 0-7.726-3.459-7.726-7.726s3.459-7.726 7.726-7.726h36.991c4.268 0 7.726 3.459 7.726 7.726s-3.458 7.726-7.726 7.726z"/><path id="XMLID_860_" d="m359.074 288.924h-64.769c-4.268 0-7.726-3.459-7.726-7.726s3.459-7.726 7.726-7.726h64.769c4.268 0 7.726 3.459 7.726 7.726s-3.458 7.726-7.726 7.726z"/><path id="XMLID_861_" d="m428.515 321.275h-134.209c-4.268 0-7.726-3.459-7.726-7.726s3.459-7.726 7.726-7.726h134.209c4.268 0 7.726 3.459 7.726 7.726 0 4.266-3.458 7.726-7.726 7.726z"/></g></svg>