<svg id="Layer_1" enable-background="new 0 0 512 512" height="512" viewBox="0 0 512 512" width="512" xmlns="http://www.w3.org/2000/svg"><path id="XMLID_514_" d="m282.733 169.179c-10.9-10.9-28.572-10.9-39.472 0l-5.563 5.563-5.563-5.563c-10.9-10.9-28.572-10.9-39.472 0-10.9 10.9-10.9 28.572 0 39.472l38.073 38.073c3.845 3.845 10.078 3.845 13.923 0l38.073-38.073c10.901-10.9 10.901-28.572.001-39.472z" fill="#f17d7e"/><path id="XMLID_515_" d="m282.733 208.646-38.071 38.083c-3.85 3.838-10.079 3.838-13.929 0l-6.842-6.841c.196-.16.392-.331.576-.515l38.071-38.083c10.9-10.9 10.9-28.568 0-39.468-.27-.27-.539-.527-.821-.785 7.553-.356 15.24 2.366 21.015 8.141 10.901 10.9 10.901 28.568.001 39.468z" fill="#ec6264"/><path id="XMLID_517_" d="m491.678 8.175c-10.9-10.9-28.572-10.9-39.472 0l-5.563 5.562-5.563-5.563c-10.9-10.9-28.572-10.9-39.472 0-10.9 10.9-10.9 28.572 0 39.472l38.073 38.073c3.845 3.845 10.078 3.845 13.923 0l38.073-38.073c10.901-10.899 10.901-28.571.001-39.471z" fill="#f17d7e"/><path id="XMLID_518_" d="m491.678 47.641-38.071 38.083c-3.85 3.838-10.079 3.838-13.929 0l-6.842-6.841c.196-.16.392-.331.576-.515l38.071-38.083c10.9-10.9 10.9-28.568 0-39.468-.27-.27-.539-.527-.821-.785 7.553-.356 15.24 2.366 21.015 8.141 10.901 10.9 10.901 28.568.001 39.468z" fill="#ec6264"/><path id="XMLID_521_" d="m506.05 84.851v102.551c0 6.768-5.493 12.261-12.261 12.261h-30.04v18.097c0 10.925-13.205 16.393-20.93 8.669l-26.766-26.766h-129.475c-6.768 0-12.261-5.493-12.261-12.261v-102.551c0-6.768 5.493-12.261 12.261-12.261h207.212c6.767 0 12.26 5.493 12.26 12.261z" fill="#27d1b3"/><path id="XMLID_522_" d="m506.05 84.851v102.551c0 6.768-5.493 12.261-12.261 12.261h-30.04v18.097c0 10.925-13.205 16.393-20.93 8.669l-26.766-26.766h-129.475c-6.768 0-12.261-5.493-12.261-12.261v-7.908c159.847 1.422 191.738-66.185 196.483-106.904h22.989c6.768 0 12.261 5.493 12.261 12.261z" fill="#20b69f"/><g fill="#eff5f6"><path id="XMLID_524_" d="m359.94 140.755c-4.268 0-7.726-3.459-7.726-7.726v-.108c0-4.268 3.459-7.726 7.726-7.726s7.726 3.459 7.726 7.726v.108c0 4.267-3.459 7.726-7.726 7.726z"/><path id="XMLID_525_" d="m390.183 140.755c-4.268 0-7.726-3.459-7.726-7.726v-.108c0-4.268 3.459-7.726 7.726-7.726s7.726 3.459 7.726 7.726v.108c0 4.267-3.458 7.726-7.726 7.726z"/><path id="XMLID_526_" d="m420.428 140.755c-4.268 0-7.726-3.459-7.726-7.726v-.108c0-4.268 3.459-7.726 7.726-7.726 4.268 0 7.726 3.459 7.726 7.726v.108c0 4.267-3.459 7.726-7.726 7.726z"/></g><path id="XMLID_528_" d="m319.351 43.51c-10.9-10.9-28.572-10.9-39.472 0l-5.563 5.562-5.563-5.563c-10.9-10.9-28.572-10.9-39.472 0-10.9 10.9-10.9 28.572 0 39.472l38.073 38.073c3.845 3.845 10.078 3.845 13.923 0l38.073-38.073c10.901-10.899 10.901-28.571.001-39.471z" fill="#f17d7e"/><path id="XMLID_529_" d="m319.35 82.977-38.07 38.083c-3.85 3.838-10.079 3.838-13.929 0l-6.842-6.841c.196-.16.392-.331.576-.515l38.071-38.083c10.9-10.9 10.9-28.568 0-39.468-.27-.27-.539-.527-.821-.785 7.553-.356 15.24 2.366 21.015 8.141 10.9 10.9 10.9 28.568 0 39.468z" fill="#ec6264"/><path id="XMLID_531_" d="m425.769 179.211c-10.9-10.9-28.572-10.9-39.472 0l-5.563 5.563-5.563-5.563c-10.9-10.9-28.572-10.9-39.472 0-10.9 10.9-10.9 28.572 0 39.472l38.073 38.073c3.845 3.845 10.078 3.845 13.923 0l38.073-38.073c10.901-10.9 10.901-28.572.001-39.472z" fill="#f17d7e"/><path id="XMLID_532_" d="m425.768 218.677-38.071 38.083c-3.85 3.838-10.079 3.838-13.929 0l-6.842-6.841c.196-.16.392-.331.576-.515l38.071-38.083c10.9-10.9 10.9-28.568 0-39.468-.27-.27-.539-.527-.821-.785 7.553-.356 15.24 2.366 21.015 8.141 10.902 10.9 10.902 28.568.001 39.468z" fill="#ec6264"/><path id="XMLID_1166_" d="m85.428 458.458c-18.182 18.182-47.66 18.182-65.842 0s-18.182-47.66 0-65.842z" fill="#ec6264"/><path id="XMLID_1165_" d="m19.585 392.607 65.847 65.847c-7.735 7.735-17.509 12.181-27.601 13.34l-51.586-51.586c1.159-10.092 5.605-19.866 13.34-27.601z" fill="#e64649"/><path id="XMLID_1164_" d="m106.048 456.801 53.148 53.148c2.735 2.735 7.169 2.735 9.903 0l23.832-23.832c2.379-2.379 2.73-6.115.835-8.895l-43.827-64.312z" fill="#8897dc"/><path id="XMLID_1163_" d="m149.933 412.909 14.063 20.639-40.604 40.604-17.351-17.351z" fill="#6d81d5"/><path id="XMLID_1162_" d="m193.034 374.8-91.336 91.336c-5.469 5.469-14.337 5.469-19.807 0l-69.984-69.984c-5.469-5.469-5.469-14.337 0-19.807l91.336-91.336z" fill="#eff5f6"/><path id="XMLID_1161_" d="m73.184 325.157h126.983v32.425h-126.983z" fill="#cbe5e7" transform="matrix(-.707 -.707 .707 -.707 -8.065 679.397)"/><path id="XMLID_1160_" d="m136.174 152.554-39.368 138.893 89.791 89.791 138.893-39.368z" fill="#8897dc"/><path id="XMLID_1159_" d="m121.891 202.943 153.21 153.21 50.389-14.283-189.316-189.316z" fill="#6d81d5"/><path id="XMLID_1158_" d="m326.257 348.864c-8.196 8.196-21.485 8.196-29.681 0l-167.396-167.395c-8.196-8.196-8.196-21.485 0-29.681 8.196-8.196 21.485-8.196 29.681 0l167.395 167.395c8.197 8.196 8.197 21.485.001 29.681z" fill="#bec7ec"/><path id="XMLID_534_" d="m56.765 386.387c-1.977 0-3.955-.755-5.464-2.263l-22.118-22.118c-3.017-3.018-3.017-7.909 0-10.928 3.018-3.016 7.909-3.016 10.928 0l22.118 22.118c3.017 3.018 3.017 7.909 0 10.928-1.509 1.508-3.487 2.263-5.464 2.263z" fill="#a9d3d8"/><path id="XMLID_535_" d="m80.299 362.853c-1.977 0-3.955-.755-5.464-2.263l-22.118-22.118c-3.017-3.018-3.017-7.909 0-10.928 3.018-3.016 7.909-3.016 10.928 0l22.118 22.118c3.017 3.018 3.017 7.909 0 10.928-1.509 1.509-3.487 2.263-5.464 2.263z" fill="#a9d3d8"/></svg>