<svg xmlns="http://www.w3.org/2000/svg" viewBox="0 0 223.02 350.56"><defs><style>.cls-1{fill:#e4efff;}.cls-2{fill:#b5d1de;}.cls-3{fill:#d1dbea;}.cls-4{fill:#f9d05e;}.cls-5{fill:#f4c249;}.cls-6{fill:#2f3844;}.cls-7{fill:#ff3d0d;}.cls-8{fill:#fff;}.cls-9{fill:#0095ef;}.cls-10{fill:#eaeef1;}.cls-11{fill:#f16c81;}</style></defs><title>octa_socialdecorAsset 21@</title><g id="Layer_2" data-name="Layer 2"><g id="Layer_3" data-name="Layer 3"><rect class="cls-1" x="8.43" y="67.32" width="129.76" height="37.07" rx="10.73"/><rect class="cls-2" x="19.11" y="76.12" width="72.25" height="5.84"/><rect class="cls-3" x="98.19" y="76.12" width="22.44" height="5.84"/><rect class="cls-3" x="19.11" y="88.8" width="50.79" height="5.84"/><rect class="cls-1" x="72.77" y="221.97" width="150.25" height="22.44" rx="10.73"/><rect class="cls-2" x="83.45" y="230.27" width="42.98" height="5.84"/><rect class="cls-3" x="131.26" y="230.27" width="85.91" height="5.84"/><path class="cls-4" d="M145.18,25.41A24.86,24.86,0,1,1,120.33.55,24.86,24.86,0,0,1,145.18,25.41Z"/><path class="cls-5" d="M143.11,15.47a25.79,25.79,0,0,1,.49,5,25.44,25.44,0,0,1-46,15,24.86,24.86,0,0,0,45.51-20Z"/><path class="cls-6" d="M120.26,40.05a20.09,20.09,0,0,1-10.58-3l.94-1.51a18.61,18.61,0,0,0,25.84-6.68l1.55.86A20.25,20.25,0,0,1,125.4,39.4,20.93,20.93,0,0,1,120.26,40.05Z"/><path class="cls-6" d="M115.39,20.85a3.75,3.75,0,1,1-3.74-3.75A3.74,3.74,0,0,1,115.39,20.85Z"/><path class="cls-6" d="M134.69,24a1,1,0,0,1-.29,0l-6.91-2.33a.89.89,0,0,1,0-1.69l6.78-2.19a.87.87,0,0,1,1.11.57.88.88,0,0,1-.57,1.12l-4.22,1.36L135,22.24a.89.89,0,0,1-.28,1.73Z"/><circle class="cls-7" cx="19.67" cy="308.06" r="12.43" transform="translate(-288.62 323.56) rotate(-89.23)"/><path class="cls-8" d="M15,304.69a2.87,2.87,0,0,1,4,0l.67.68.67-.68a2.86,2.86,0,0,1,4,4l-.67.67h0l-4,4-4-4h0l-.67-.67A2.85,2.85,0,0,1,15,304.69Z"/><path class="cls-7" d="M63.88,282.87A24.86,24.86,0,1,0,88.74,258,24.86,24.86,0,0,0,63.88,282.87Z"/><path class="cls-8" d="M79.31,276.15a5.7,5.7,0,0,1,8.08,0l1.34,1.34,1.35-1.34a5.71,5.71,0,1,1,8.08,8.07l-1.35,1.35h0l-8.08,8.07-8.07-8.07h0l-1.35-1.35A5.7,5.7,0,0,1,79.31,276.15Z"/><path class="cls-9" d="M54.68,227.66A24.86,24.86,0,1,1,29.82,202.8,24.86,24.86,0,0,1,54.68,227.66Z"/><path class="cls-8" d="M40.91,222H32.15a18.17,18.17,0,0,0,1.05-2.83,12.13,12.13,0,0,0,0-2.14,2.05,2.05,0,0,0-2.05-2h-1v3.17s-3.6,4.19-3.6,5.9v10a2.06,2.06,0,0,0,2.06,2.06h7.19a3.25,3.25,0,0,0,2.8-2.06l3.64-10A1.39,1.39,0,0,0,40.91,222Z"/><rect class="cls-8" x="25.07" y="223.66" width="2.74" height="11.21"/><rect class="cls-8" x="17.04" y="222.04" width="4.88" height="14.13"/><path class="cls-4" d="M18.28,158.94A15.54,15.54,0,1,0,33.81,143.4,15.53,15.53,0,0,0,18.28,158.94Z"/><path class="cls-5" d="M19.57,152.72a16.23,16.23,0,0,0-.31,3.14A15.9,15.9,0,0,0,48,165.22a15.54,15.54,0,0,1-28.45-12.5Z"/><path class="cls-6" d="M33.81,167.38a12.64,12.64,0,0,1-9.14-3.87l.8-.76a11.64,11.64,0,0,0,16.68,0l.81.76A12.67,12.67,0,0,1,33.81,167.38Z"/><path class="cls-6" d="M36.9,156.09a2.34,2.34,0,1,0,2.34-2.35A2.34,2.34,0,0,0,36.9,156.09Z"/><path class="cls-6" d="M26.05,156.09a2.34,2.34,0,1,0,2.34-2.35A2.34,2.34,0,0,0,26.05,156.09Z"/><path class="cls-4" d="M25.57,53.69A18.64,18.64,0,1,0,44.21,35.05,18.63,18.63,0,0,0,25.57,53.69Z"/><path class="cls-5" d="M27.12,46.24A19.31,19.31,0,0,0,26.75,50,19.09,19.09,0,0,0,61.26,61.24a18.65,18.65,0,0,1-34.14-15Z"/><path class="cls-6" d="M44.21,63.83a15.24,15.24,0,0,1-11-4.65l1-.92a14,14,0,0,0,20,0l1,.92A15.2,15.2,0,0,1,44.21,63.83Z"/><path class="cls-6" d="M41.62,50.27H40.29a2.15,2.15,0,1,0-4.29,0H34.67a3.48,3.48,0,1,1,6.95,0Z"/><path class="cls-6" d="M53.75,50.27H52.42a2.15,2.15,0,1,0-4.29,0H46.8a3.48,3.48,0,1,1,7,0Z"/><path class="cls-4" d="M176.44,76.93a18.65,18.65,0,1,0,18.65-18.64A18.65,18.65,0,0,0,176.44,76.93Z"/><path class="cls-5" d="M178,69.48a19.31,19.31,0,0,0-.37,3.75,19.08,19.08,0,0,0,34.5,11.25,18.64,18.64,0,0,1-34.13-15Z"/><path class="cls-6" d="M195.09,87.07a15.17,15.17,0,0,1-11-4.65l1-.92a13.94,13.94,0,0,0,20,0l1,.92A15.16,15.16,0,0,1,195.09,87.07Z"/><path class="cls-6" d="M192.5,73.51h-1.34a2.15,2.15,0,1,0-4.29,0h-1.33a3.48,3.48,0,1,1,7,0Z"/><path class="cls-6" d="M204.63,73.51h-1.34a2.14,2.14,0,1,0-4.28,0h-1.33a3.48,3.48,0,1,1,6.95,0Z"/><path class="cls-7" d="M0,258.3A17.31,17.31,0,1,0,17.31,241,17.31,17.31,0,0,0,0,258.3Z"/><path class="cls-8" d="M10.75,253.62a4,4,0,0,1,5.62,0l.94.93.94-.93a4,4,0,0,1,5.63,5.62l-.95.94h0l-5.62,5.62-5.62-5.62h0l-.94-.94A4,4,0,0,1,10.75,253.62Z"/><path class="cls-9" d="M99.75,170.31A17.31,17.31,0,1,1,82.44,153,17.32,17.32,0,0,1,99.75,170.31Z"/><path class="cls-8" d="M90.16,166.4H84.07a14,14,0,0,0,.73-2,8.83,8.83,0,0,0,0-1.49,1.43,1.43,0,0,0-1.44-1.43h-.71v2.21s-2.5,2.92-2.5,4.11v7a1.44,1.44,0,0,0,1.43,1.43h5a2.27,2.27,0,0,0,2-1.43l2.54-7A1,1,0,0,0,90.16,166.4Z"/><rect class="cls-8" x="79.14" y="167.53" width="1.91" height="7.81"/><rect class="cls-8" x="73.54" y="166.4" width="3.4" height="9.84"/><path class="cls-7" d="M96.27,112.48a12.87,12.87,0,1,0,12.87-12.87A12.88,12.88,0,0,0,96.27,112.48Z"/><path class="cls-8" d="M104.26,109a3,3,0,0,1,4.18,0l.7.7.69-.7a3,3,0,0,1,4.19,4.18l-.7.7h0l-4.18,4.18L105,113.88h0l-.69-.7A3,3,0,0,1,104.26,109Z"/><path class="cls-7" d="M47.09,12.87A12.87,12.87,0,1,0,60,0,12.87,12.87,0,0,0,47.09,12.87Z"/><path class="cls-8" d="M55.08,9.39a3,3,0,0,1,4.18,0l.7.7.7-.7a3,3,0,0,1,4.18,4.18l-.7.7h0L60,18.45l-4.18-4.18h0l-.7-.7A3,3,0,0,1,55.08,9.39Z"/><path class="cls-9" d="M162.69,36.13a12.87,12.87,0,1,1-12.87-12.87A12.88,12.88,0,0,1,162.69,36.13Z"/><path class="cls-8" d="M155.56,33.22H151a9.13,9.13,0,0,0,.54-1.46,6.54,6.54,0,0,0,0-1.11,1.07,1.07,0,0,0-1.07-1.06H150v1.64s-1.86,2.17-1.86,3.06v5.18a1.07,1.07,0,0,0,1.07,1.07h3.72a1.7,1.7,0,0,0,1.45-1.07l1.89-5.18A.73.73,0,0,0,155.56,33.22Z"/><rect class="cls-8" x="147.36" y="34.07" width="1.42" height="5.81"/><rect class="cls-8" x="143.2" y="33.22" width="2.53" height="7.31"/><path class="cls-9" d="M99.81,338.13A12.43,12.43,0,1,1,87.38,325.7,12.42,12.42,0,0,1,99.81,338.13Z"/><path class="cls-8" d="M92.93,335.32H88.55a9.49,9.49,0,0,0,.52-1.41,6.07,6.07,0,0,0,0-1.07,1,1,0,0,0-1-1h-.52v1.59s-1.8,2.09-1.8,3v5a1,1,0,0,0,1,1h3.6a1.64,1.64,0,0,0,1.4-1l1.82-5A.7.7,0,0,0,92.93,335.32Z"/><rect class="cls-8" x="85.01" y="336.13" width="1.37" height="5.61"/><rect class="cls-8" x="80.99" y="335.32" width="2.44" height="7.06"/><path class="cls-4" d="M77.66,123.36A11.54,11.54,0,1,0,89.2,111.82,11.54,11.54,0,0,0,77.66,123.36Z"/><path class="cls-5" d="M78.62,118.74A11.82,11.82,0,0,0,99.75,128a11.54,11.54,0,0,1-21.13-9.29Z"/><path class="cls-6" d="M89.2,129.63a9.39,9.39,0,0,1-6.79-2.88l.59-.56a8.63,8.63,0,0,0,12.39,0l.6.56A9.4,9.4,0,0,1,89.2,129.63Z"/><path class="cls-6" d="M91.49,121.24a1.74,1.74,0,1,0,1.74-1.74A1.74,1.74,0,0,0,91.49,121.24Z"/><path class="cls-6" d="M83.43,121.24a1.74,1.74,0,1,0,1.74-1.74A1.74,1.74,0,0,0,83.43,121.24Z"/><circle class="cls-4" cx="123.92" cy="188.35" r="15.09"/><path class="cls-5" d="M110.08,182.32a16,16,0,0,0-.3,3,15.45,15.45,0,0,0,27.94,9.1,15.09,15.09,0,0,1-27.64-12.14Z"/><path class="cls-6" d="M121.82,185.58h-1.08c0-1.05-.86-2.45-1.73-2.45s-1.74,1.4-1.74,2.45h-1.08c0-1.6,1.26-3.53,2.82-3.53S121.82,184.17,121.82,185.58Z"/><path class="cls-6" d="M131.64,185.58h-1.08c0-1.05-.86-2.45-1.73-2.45s-1.74,1.4-1.74,2.45H126c0-1.41,1.13-3.53,2.82-3.53S131.64,184.17,131.64,185.58Z"/><path class="cls-6" d="M123.92,191.7A42,42,0,0,0,134,190.53a10.3,10.3,0,0,1-20.13,0A42,42,0,0,0,123.92,191.7Z"/><path class="cls-10" d="M134,190.53a9.74,9.74,0,0,1-.81,2.33,35.16,35.16,0,0,1-18.51,0,10.2,10.2,0,0,1-.81-2.33,43.88,43.88,0,0,0,20.13,0Z"/><path class="cls-11" d="M118.16,196.89a10.29,10.29,0,0,1,11.51,0,10.29,10.29,0,0,1-11.51,0Z"/><path class="cls-6" d="M123.92,199.19a10.9,10.9,0,0,1-10.6-8.54.54.54,0,0,1,.15-.5A.57.57,0,0,1,114,190a41.16,41.16,0,0,0,9.94,1.16,41.65,41.65,0,0,0,9.93-1.16.57.57,0,0,1,.51.14.54.54,0,0,1,.15.5A10.89,10.89,0,0,1,123.92,199.19Zm-9.32-7.93a9.76,9.76,0,0,0,18.63,0,44.76,44.76,0,0,1-18.63,0Z"/><path class="cls-4" d="M44.53,320.9a11.54,11.54,0,1,0,11.54-11.54A11.54,11.54,0,0,0,44.53,320.9Z"/><path class="cls-5" d="M45.49,316.28a11.82,11.82,0,0,0,21.13,9.29,11.54,11.54,0,0,1-21.13-9.29Z"/><path class="cls-6" d="M56.1,327.69a9.72,9.72,0,0,1-2.39-.3,9.41,9.41,0,0,1-5.85-4.48l.72-.41a8.64,8.64,0,0,0,12,3.11l.43.7A9.34,9.34,0,0,1,56.1,327.69Z"/><path class="cls-6" d="M58.36,318.78A1.74,1.74,0,1,0,60.1,317,1.74,1.74,0,0,0,58.36,318.78Z"/><path class="cls-6" d="M49.4,320.23a.42.42,0,0,1-.13-.81l2-.68-2-.64a.41.41,0,1,1,.25-.78l3.15,1a.42.42,0,0,1,.28.39.4.4,0,0,1-.28.39l-3.21,1.08A.31.31,0,0,1,49.4,320.23Z"/></g></g></svg>