<svg xmlns="http://www.w3.org/2000/svg" xmlns:xlink="http://www.w3.org/1999/xlink" viewBox="0 0 317.06 189.69"><defs><style>.cls-1{fill:url(#linear-gradient);}.cls-2{fill:#e0e3fd;}.cls-3{fill:#d1d4fc;}.cls-4{fill:#b2b8fa;}.cls-5{fill:#f3f4fe;}.cls-54,.cls-6{fill:#c1c6fb;}.cls-7{fill:#ffcebd;}.cls-8{fill:#ff5722;}.cls-106,.cls-9{fill:#191c3c;}.cls-10{fill:#536dfe;}.cls-11,.cls-21{fill:#fff;}.cls-12{fill:#564735;}.cls-13,.cls-17{fill:#231f20;}.cls-13{opacity:0.15;}.cls-14{fill:#474963;}.cls-15{fill:#75778a;}.cls-16{fill:#4d5068;}.cls-106,.cls-17{opacity:0.3;}.cls-18{fill:#915c07;}.cls-19{fill:url(#linear-gradient-2);}.cls-20,.cls-29{fill:#f0f1fe;}.cls-21{opacity:0;}.cls-22,.cls-67{fill:#fdfdff;}.cls-22{opacity:0.02;}.cls-23,.cls-68{fill:#fbfcff;}.cls-23{opacity:0.05;}.cls-24,.cls-69{fill:#f9faff;}.cls-24{opacity:0.07;}.cls-25,.cls-70{fill:#f7f8ff;}.cls-25{opacity:0.1;}.cls-26,.cls-71{fill:#f6f6fe;}.cls-26{opacity:0.12;}.cls-27,.cls-72{fill:#f4f5fe;}.cls-27{opacity:0.15;}.cls-28,.cls-73{fill:#f2f3fe;}.cls-28{opacity:0.17;}.cls-29{opacity:0.2;}.cls-30,.cls-74{fill:#eeeffe;}.cls-30{opacity:0.22;}.cls-31,.cls-75{fill:#eceefe;}.cls-31{opacity:0.24;}.cls-32,.cls-76{fill:#eaecfe;}.cls-32{opacity:0.27;}.cls-33,.cls-77{fill:#e8eafe;}.cls-33{opacity:0.29;}.cls-34,.cls-78{fill:#e7e8fd;}.cls-34{opacity:0.32;}.cls-35,.cls-79{fill:#e5e7fd;}.cls-35{opacity:0.34;}.cls-36,.cls-80{fill:#e3e5fd;}.cls-36{opacity:0.37;}.cls-37,.cls-81{fill:#e1e3fd;}.cls-37{opacity:0.39;}.cls-38,.cls-82{fill:#dfe2fd;}.cls-38{opacity:0.41;}.cls-39,.cls-83{fill:#dde0fd;}.cls-39{opacity:0.44;}.cls-40,.cls-84{fill:#dbdefd;}.cls-40{opacity:0.46;}.cls-41,.cls-85{fill:#d9dcfd;}.cls-41{opacity:0.49;}.cls-42,.cls-86{fill:#d8dbfc;}.cls-42{opacity:0.51;}.cls-43,.cls-87{fill:#d6d9fc;}.cls-43{opacity:0.54;}.cls-44,.cls-88{fill:#d4d7fc;}.cls-44{opacity:0.56;}.cls-45,.cls-89{fill:#d2d5fc;}.cls-45{opacity:0.59;}.cls-46,.cls-90{fill:#d0d4fc;}.cls-46{opacity:0.61;}.cls-47,.cls-91{fill:#ced2fc;}.cls-47{opacity:0.63;}.cls-48,.cls-92{fill:#ccd0fc;}.cls-48{opacity:0.66;}.cls-49,.cls-93{fill:#cacffc;}.cls-49{opacity:0.68;}.cls-50,.cls-94{fill:#c9cdfb;}.cls-50{opacity:0.71;}.cls-51,.cls-95{fill:#c7cbfb;}.cls-51{opacity:0.73;}.cls-52,.cls-96{fill:#c5c9fb;}.cls-52{opacity:0.76;}.cls-53,.cls-97{fill:#c3c8fb;}.cls-53{opacity:0.78;}.cls-54{opacity:0.8;}.cls-55,.cls-98{fill:#bfc4fb;}.cls-55{opacity:0.83;}.cls-56,.cls-99{fill:#bdc2fb;}.cls-56{opacity:0.85;}.cls-100,.cls-57{fill:#bbc1fb;}.cls-57{opacity:0.88;}.cls-101,.cls-58{fill:#babffa;}.cls-58{opacity:0.9;}.cls-102,.cls-59{fill:#b8bdfa;}.cls-59{opacity:0.93;}.cls-103,.cls-60{fill:#b6bbfa;}.cls-60{opacity:0.95;}.cls-104,.cls-61{fill:#b4bafa;}.cls-61{opacity:0.98;}.cls-62{fill:url(#linear-gradient-3);}.cls-63{fill:#ffdfd6;}.cls-64{fill:url(#linear-gradient-4);}.cls-65{fill:#717386;}.cls-66{fill:#3a3c4e;}.cls-105{fill:url(#linear-gradient-5);}.cls-107{fill:#fe5e31;}.cls-108{fill:url(#linear-gradient-6);}.cls-109{fill:url(#linear-gradient-7);}.cls-110{fill:#ff5f00;}.cls-111{fill:#ff7f33;}</style><linearGradient id="linear-gradient" x1="35.2" y1="214.99" x2="282.2" y2="54.99" gradientUnits="userSpaceOnUse"><stop offset="0" stop-color="#dfe1fd"/><stop offset="0.45" stop-color="#ebecfe"/><stop offset="1" stop-color="#f4f5fe"/></linearGradient><linearGradient id="linear-gradient-2" x1="125.89" y1="40.92" x2="202.5" y2="40.92" gradientUnits="userSpaceOnUse"><stop offset="0" stop-color="#e92327"/><stop offset="0.09" stop-color="#eb2928"/><stop offset="0.69" stop-color="#f94f2f"/><stop offset="1" stop-color="#fe5e31"/></linearGradient><linearGradient id="linear-gradient-3" x1="186.9" y1="27.2" x2="242.2" y2="27.2" xlink:href="#linear-gradient-2"/><linearGradient id="linear-gradient-4" x1="268.53" y1="11.21" x2="286.65" y2="11.21" xlink:href="#linear-gradient-2"/><linearGradient id="linear-gradient-5" x1="79.68" y1="111.27" x2="121.6" y2="111.27" xlink:href="#linear-gradient-2"/><linearGradient id="linear-gradient-6" x1="95.07" y1="7.14" x2="181.43" y2="7.14" xlink:href="#linear-gradient-2"/><linearGradient id="linear-gradient-7" x1="228.64" y1="96.85" x2="241.5" y2="81.96" gradientUnits="userSpaceOnUse"><stop offset="0" stop-color="#fec55e"/><stop offset="1" stop-color="#ff5722"/></linearGradient></defs><title>octa_heroAsset 11@</title><g id="Layer_2" data-name="Layer 2"><g id="Graphics"><g id="Layer_8" data-name="Layer 8"><path class="cls-1" d="M311.36,131.75c5.5,8.78,8.21,19.73,2.63,28.06-4.81,7.17-14.33,10.05-19.14,17.22-2.43,3.62-3.71,8.35-7.5,10.5-2.33,1.32-5.15,1.36-7.83,1.36l-242.15,0c-2.7,0-5.52,0-8-1.19-2.92-1.41-4.88-4.26-6.32-7.17a40.24,40.24,0,0,1,5-42.71C34,130.77,42.45,125.76,47,117.74c4-7,4.52-15.31,5.83-23.24,1.67-10,5.79-20.3,15.47-24.62,11.6-5.18,23.24-9.56,32.25-19,9.73-10.17,15.22-24.63,27.32-31.82,11.59-6.89,26.34-5.23,39.26-1.35S192.59,27.49,206,28.5c16.49,1.23,33.54-5,49.32,0a37,37,0,0,1,23.52,22.79c5.28,15.17.23,32.69,6.43,47.51,4.65,11.09,14.78,18.74,22.46,28A46.78,46.78,0,0,1,311.36,131.75Z"/></g><g id="Layer_6" data-name="Layer 6"><rect class="cls-2" x="193.48" y="114.76" width="63.83" height="74.81" rx="3.34"/><rect class="cls-3" x="198.56" y="120.57" width="53.67" height="17.33" rx="1.81"/><rect class="cls-3" x="198.56" y="143.4" width="53.67" height="17.33" rx="1.81"/><rect class="cls-3" x="198.56" y="166.23" width="53.67" height="17.33" rx="1.81"/><path class="cls-2" d="M227.22,129.23a1.83,1.83,0,1,1-1.83-1.83A1.83,1.83,0,0,1,227.22,129.23Z"/><path class="cls-2" d="M227.22,152.16a1.83,1.83,0,1,1-1.83-1.83A1.84,1.84,0,0,1,227.22,152.16Z"/><path class="cls-2" d="M227.22,175.09a1.83,1.83,0,1,1-1.83-1.83A1.83,1.83,0,0,1,227.22,175.09Z"/><path class="cls-3" d="M77.63,80.66c-14.36,8.89-9.89,29.68-9.7,44.05q.33,23.76.64,47.52a.74.74,0,0,1-1.48,0q-.37-28.39-.76-56.8c-.18-13.36-2.47-28,10.55-36.05.82-.5,1.56.78.75,1.28Z"/><path class="cls-3" d="M69.66,87.89A18.19,18.19,0,0,1,72,84a19.4,19.4,0,0,1,5.61-4.11l.3.16a17.87,17.87,0,0,1,1.17,9.62,10.68,10.68,0,0,1-5.52,7.68c-2.16,1-4.72,1.18-6.74,2.48C66.22,95.69,67.88,91.63,69.66,87.89Z"/><path class="cls-3" d="M54.62,62.68C68.88,68.33,65.81,90,66.38,102.15c1,20.67,1.51,41.34,1.37,62a.74.74,0,0,1-1.48,0q.17-25.81-.89-51.61c-.33-7.77-.72-15.53-1.09-23.3-.42-9,0-21.19-10.06-25.17-.88-.35-.5-1.79.39-1.43Z"/><path class="cls-3" d="M64.38,87.55c0-.07,0-.14.07-.21A6.66,6.66,0,0,1,65,88.43Z"/><path class="cls-3" d="M53.81,63.94a.92.92,0,0,1,.37-.51,1,1,0,0,1,.72,0,15.6,15.6,0,0,1,9.88,9.88,21.41,21.41,0,0,1-.33,14c-1.77-2.8-5.37-4.2-7.89-6.52C52.08,76.7,51.39,69.52,53.81,63.94Z"/><path class="cls-4" d="M60.28,164.21H73.21A5.82,5.82,0,0,1,79,170v19a0,0,0,0,1,0,0H54.46a0,0,0,0,1,0,0V170A5.82,5.82,0,0,1,60.28,164.21Z" transform="translate(133.49 353.2) rotate(180)"/><path class="cls-3" d="M66.1,134.77c.22-5.72.48-12.51-3.77-17-3.32-3.5-11.84-5.92-16.61-6-.95,0-1-1.51,0-1.48,3.64.09,7.44,1.53,10.87,2.7,2.52.86,4.91,1.8,6.79,3.77,4.57,4.79,4.44,11.91,4.2,18.05,0,.95-1.52,1-1.48,0Z"/><path class="cls-3" d="M44.12,109.65a.44.44,0,0,1,.36-.1l5.38,0a19.3,19.3,0,0,1,4.62.42c3,.79,5.49,3,7.4,5.51l.56.08c-2.8.89-5.54,2.06-8.46,2.37s-6.16-.44-8-2.73A11.24,11.24,0,0,1,44.07,110,.45.45,0,0,1,44.12,109.65Z"/><path class="cls-2" d="M232,104.1H222v3A8.65,8.65,0,0,0,224.3,113h0v1.52h5.45V113h0a8.61,8.61,0,0,0,2.28-5.84Z"/><path class="cls-5" d="M230,104.1v3a8.61,8.61,0,0,1-2.28,5.84h0v1.52h1.18V113h0a8.65,8.65,0,0,0,2.28-5.84v-3Z"/><path class="cls-2" d="M223.11,110.43h-1.65a2.72,2.72,0,0,1,0-5.43h1.06v1.15h-1.06a1.57,1.57,0,0,0,0,3.13h1.65Z"/><path class="cls-3" d="M223.55,104.12v2.6a.75.75,0,0,0,.75.76h0a.75.75,0,0,0,.75-.76v-.09a.65.65,0,0,1,.64-.65h0a.64.64,0,0,1,.64.65v4.24a.74.74,0,0,0,.74.74h0a.74.74,0,0,0,.74-.74v-1.76a.72.72,0,0,1,.72-.72h0a.76.76,0,0,0,.75-.75v-3.52Z"/><path class="cls-2" d="M292.39,141.31a11.21,11.21,0,0,0-.89-4.38,23.92,23.92,0,0,0-4.61,20.93l1.4,1.29a14.46,14.46,0,0,0,4-8.38A43.36,43.36,0,0,0,292.39,141.31Z"/><path class="cls-2" d="M305.09,149.43a.68.68,0,0,0-.41-.19,10.63,10.63,0,0,0-12.94,10.37l.94,1.14c2,.54,4.05-.47,5.7-1.7a20.28,20.28,0,0,0,6.71-8.86C305.19,149.94,305.27,149.63,305.09,149.43Z"/><path class="cls-2" d="M274.34,149.26c-2.1-1.71-4.56-3.39-7.26-3.22-.29,0-.62.08-.75.34-.3.56.65,1,.83,1.59a2.15,2.15,0,0,1-.14,1.08,3.59,3.59,0,0,0,.33,2,15.51,15.51,0,0,0,16.11,9.32l.83-1.29A72.56,72.56,0,0,0,274.34,149.26Z"/><path class="cls-2" d="M282.11,159.45c4.72,4.49,5.33,11.15,4.51,17.29-.18,1.34,1.93,1.32,2.1,0,.89-6.69,0-13.93-5.13-18.78-1-.93-2.47.56-1.48,1.49Z"/><path class="cls-2" d="M286.72,157.32c1,5.91-.27,11.87.36,17.81.14,1.33,2.24,1.34,2.1,0-.65-6.13.6-12.26-.43-18.37-.23-1.33-2.25-.77-2,.56Z"/><path class="cls-2" d="M292.88,156.9a29.85,29.85,0,0,0-4.3,8.5c-.87,3.31-.62,7-.78,10.43-.06,1.35,2.05,1.35,2.11,0,.14-3.2-.09-6.76.7-9.88a27.61,27.61,0,0,1,4.09-8c.75-1.13-1.07-2.18-1.82-1.06Z"/><path class="cls-4" d="M295.25,189.07H283.51a1,1,0,0,1-1-.79l-4-15.08a1.06,1.06,0,0,1,1-1.33h19.73a1.06,1.06,0,0,1,1,1.33l-4,15.08A1.07,1.07,0,0,1,295.25,189.07Z"/><path class="cls-6" d="M291,139.2c-1.56,5.9-1.58,12-3,18-.05.19.25.27.29.08,1.43-5.92,1.44-12.07,3-18,.05-.19-.24-.27-.29-.09Z"/><path class="cls-6" d="M292.9,158.93a20.12,20.12,0,0,1,10.42-8.25c.18-.06.1-.35-.08-.29a20.42,20.42,0,0,0-10.6,8.38c-.11.17.16.32.26.16Z"/><path class="cls-6" d="M267.78,147.92a12.09,12.09,0,0,0,4.69,5.49c3,2.1,6.85,3.14,9.6,5.49.17.15.43-.1.25-.25-1.91-1.64-4.35-2.31-6.51-3.55-3.11-1.77-6.31-3.82-7.69-7.27-.08-.22-.43-.12-.34.09Z"/><rect class="cls-7" x="246.49" y="175.42" width="4.66" height="7.09" transform="translate(497.64 357.94) rotate(180)"/><path class="cls-8" d="M251.78,180.69a28.47,28.47,0,0,0,1.07,5.47c.1.33.36.58.36.92v2.61h-11V188.3a3,3,0,0,1,.58-1.77c.94-1.27,3.73-3.89,3.29-5.84Z"/><path class="cls-9" d="M251.75,180.69h0l0,.07S251.75,180.71,251.75,180.69Z"/><path class="cls-9" d="M253.21,187.8v1.89h-11V188.3a2.81,2.81,0,0,1,0-.5Z"/><rect class="cls-9" x="246.86" y="182.17" width="3.04" height="0.68" rx="0.27" transform="translate(496.75 365.03) rotate(-180)"/><rect class="cls-9" x="246.49" y="183.69" width="3.04" height="0.68" rx="0.27" transform="translate(496.01 368.06) rotate(180)"/><rect class="cls-7" x="276.79" y="175.42" width="4.66" height="7.09" transform="translate(558.23 357.94) rotate(180)"/><path class="cls-10" d="M268.73,115.13c-1.3,3.2-9.18,31.06-9.18,31.06l-7.11,33.37H245.5l3.58-37.87,2.62-40.21,15,1.79,2.72,7.45Z"/><polygon class="cls-10" points="284.49 109.06 284.06 142.66 282.41 179.56 275.8 179.56 273.13 150.14 266.74 115.49 266.74 103.27 283.23 104.78 284.49 109.06"/><path class="cls-7" d="M267.67,60.9h9.92V47.84H266.74C269.26,51.11,267.67,60.9,267.67,60.9Z"/><path class="cls-11" d="M283.23,107.54c-.32,7.73-25.34-4.73-30.79-1.84l6.61-45.49s6.06-2.41,8.62-.52c3.54,2.59,9.92,0,9.92,0L282,61.45S283.51,100.93,283.23,107.54Z"/><path class="cls-8" d="M268.12,52.72s1.8,30-13.05,49c0,0-4.54,11.22-8.21,11.77,0,0-3.84-9.73.84-17.42,2.88-4.72,8.43-15.07,8.76-20.59l1-15.83Z"/><path class="cls-8" d="M277.59,52.72s-4.34,19.67-4.46,29.72c-.09,8.18,12.6,35.42,12.6,35.42s7.84-8.17,3.7-17.62C286.71,94,283.67,89.09,284.06,85L284,56.88Z"/><path class="cls-7" d="M263.31,45.37a17,17,0,0,1,.72-3.89c0-.08-.58-.17-1.14-.25a.51.51,0,0,1-.32-.85C263.78,39,266,36.84,266.35,36a7.18,7.18,0,0,1,.72-1.34,11,11,0,0,0,.57-1,1.74,1.74,0,0,1,1.21-1,4.16,4.16,0,0,1,1.48.16,28.14,28.14,0,0,1,5.95,1.86,11.51,11.51,0,0,1,2.07,1.2,6.28,6.28,0,0,1,2,2.82,11.2,11.2,0,0,1,0,6,5,5,0,0,1-.43,1.41,4.48,4.48,0,0,1-1.72,1.62c-1.18.73-2.41,1.37-3.64,2a12.84,12.84,0,0,1-2.29,1,13.31,13.31,0,0,1-4,.32,6.36,6.36,0,0,1-3-.6,4,4,0,0,1-1.72-2.25A7.72,7.72,0,0,1,263.31,45.37Z"/><path class="cls-12" d="M266.38,27.07a13,13,0,0,0,6.89,2.5,36,36,0,0,1,7.33,1.18c1.46.49,3.72,1.4,4.42,2.9,1,2.09.82,5.19.29,7.37a11.07,11.07,0,0,1-2.29,4.5,12.49,12.49,0,0,1-4.35,2.92,3.17,3.17,0,0,0-.41.21,2.67,2.67,0,0,1-.43.25c-.28.05-.34-.42-.34-.64a2.42,2.42,0,0,1,.38-1.19,6.49,6.49,0,0,1,.71-.86,4.9,4.9,0,0,0,.72-2.91,3.68,3.68,0,0,0-.09-1.48,1.4,1.4,0,0,0-1-1,1.84,1.84,0,0,0-1.41.59,7.7,7.7,0,0,0-1.87,2.47c0-.87-.05-1.75-.08-2.62a6.63,6.63,0,0,0-.22-1.78c-.25-.75-.78-1.49-.59-2.26a7.74,7.74,0,0,0,.36-1,1.36,1.36,0,0,0-.79-1.25,5.18,5.18,0,0,0-1.51-.4,24.14,24.14,0,0,1-2.36-.63,4.94,4.94,0,0,1-2.05-1,3.93,3.93,0,0,1-1.13-2.06,10.59,10.59,0,0,1-.2-2.38A11.72,11.72,0,0,1,266.38,27.07Z"/><path class="cls-7" d="M296.13,74.12l5.33,13.74a4.83,4.83,0,0,1-.38,4.28L284.15,113.7l-3-4.51L292,92a5.17,5.17,0,0,0-.12-4.69l-5.26-9.25S293,80.44,296.13,74.12Z"/><path class="cls-7" d="M281.15,109.19l-1.94.35-1.34,1.23a1.2,1.2,0,0,0-.09,1.68l.39.46-.6,1a1.11,1.11,0,0,0,.08,1.29l1.88,2.3a1.11,1.11,0,0,0,1.44.24l2-1.26a1.89,1.89,0,0,0,.86-1.25l.29-1.49Z"/><path class="cls-8" d="M282.07,180.69a6.58,6.58,0,0,0,1.62,5.47,1.39,1.39,0,0,1,.37.92v2.61H273.59V188.3a3,3,0,0,1,.59-1.77c.94-1.27,2.62-3.89,2.19-5.84Z"/><path class="cls-9" d="M282.05,180.69h0v.07A.17.17,0,0,1,282.05,180.69Z"/><path class="cls-9" d="M284.06,187.8v1.89H273.59V188.3a2.83,2.83,0,0,1,.05-.5Z"/><rect class="cls-9" x="277.15" y="182.17" width="3.04" height="0.68" rx="0.27" transform="translate(557.34 365.03) rotate(-180)"/><rect class="cls-9" x="276.79" y="183.69" width="3.04" height="0.68" rx="0.27" transform="translate(556.61 368.06) rotate(180)"/><path class="cls-8" d="M277.59,52.72l6.9,4.51,3.08,1.46a8.63,8.63,0,0,1,4.34,4.67L297.46,76c-6,1.16-6.24,6.58-10.51,5.57L280.82,67l-3.23-7.27Z"/><path class="cls-8" d="M268.12,52.72l-6.92,3-3.86,1A8.19,8.19,0,0,0,252,61.25L245.5,74.06c4.13,0,8.43,5.54,9.09,4.47l7.92-13.89Z"/><path class="cls-13" d="M265.93,49.73a1.94,1.94,0,0,1,1-1.93h0a1,1,0,0,0,.46-.55l.62-1.69a2.93,2.93,0,0,0,.13-1.38l-.19-1.31a1.09,1.09,0,0,0-1.53-.83l-2.23,1-1.37,1.34v0a9.06,9.06,0,0,0,.29,3.52A4.51,4.51,0,0,0,265,50.45a4.07,4.07,0,0,0,1.1.41Z"/><path class="cls-7" d="M246.26,74.58l15.05-24.17v-4a1.88,1.88,0,0,1,.56-1.34l1.7-1.66,2-.91a1,1,0,0,1,1.37.75l.18,1.18a2.46,2.46,0,0,1-.13,1.23l-.55,1.52a.94.94,0,0,1-.41.49h0a1.74,1.74,0,0,0-.86,1.73l.15,1.14L268,51l-3.32,2.56-10.84,25a4.27,4.27,0,0,1-5.73,2.17h0A4.28,4.28,0,0,1,246.26,74.58Z"/><path class="cls-9" d="M166.72,186.32h0a.49.49,0,0,0,.66-.19l15.44-27.48a.49.49,0,0,0-.19-.67h0a.48.48,0,0,0-.66.18l-15.43,27.49A.48.48,0,0,0,166.72,186.32Z"/><rect class="cls-14" x="128.56" y="186.1" width="41.57" height="3.28" rx="1.04" transform="translate(298.6 375.56) rotate(-179.97)"/><path class="cls-9" d="M128.57,187.62a1.44,1.44,0,0,1,.37-1,1.52,1.52,0,0,0,1.52,1.52l38.52,0a1.5,1.5,0,0,0,1.16-.56h0v.22a1.53,1.53,0,0,1-1.53,1.53l-38.52,0a1.53,1.53,0,0,1-1.53-1.53Z"/><rect class="cls-15" x="139.33" y="186.97" width="3.02" height="1.16"/><rect class="cls-15" x="135.75" y="186.97" width="3.02" height="1.16"/><rect class="cls-15" x="161.17" y="186.98" width="3.02" height="1.16"/><rect class="cls-7" x="19.68" y="154.12" width="6.24" height="9.09" transform="translate(-87.48 42.33) rotate(-35.29)"/><path class="cls-10" d="M19.07,158.78,6.53,160.11l-2.74,1.54a1.83,1.83,0,0,1-2.39-.54L.32,159.58,18,147.07a2.19,2.19,0,0,1,3.05.52L22,149A11.12,11.12,0,0,1,24,153.81l.21,1.37h0a2.49,2.49,0,0,0-3.46-.59l-1,.73a2.47,2.47,0,0,0-.59,3.46Z"/><path class="cls-16" d="M19,148.55,1.66,160.82a.76.76,0,0,1-1.07-.18L0,159.81l18-12.72a2.21,2.21,0,0,1,3.08.5L22,149s0,0,0,.05A2.22,2.22,0,0,0,19,148.55Z"/><polygon class="cls-16" points="50.01 185.33 48.23 181.08 25.91 156.76 20.16 161.06 41.41 189.46 45.44 187.55 50.01 185.33"/><rect class="cls-7" x="46.36" y="151.73" width="6.24" height="9.09" transform="translate(35.29 -7.03) rotate(12.6)"/><path class="cls-10" d="M46.89,153.58l-9.39-8.41-3-1A1.82,1.82,0,0,1,33.31,142l.41-1.83,21.13,4.72a2.19,2.19,0,0,1,1.66,2.61l-.37,1.65a11.31,11.31,0,0,1-2.29,4.69L53,154.94h0a2.48,2.48,0,0,0-1.88-3l-1.24-.28a2.48,2.48,0,0,0-3,1.88Z"/><path class="cls-16" d="M54.46,146.68,33.63,142a.78.78,0,0,1-.58-.93l.22-1,21.58,4.87a2.19,2.19,0,0,1,1.66,2.61l-.37,1.65,0,.06A2.18,2.18,0,0,0,54.46,146.68Z"/><path class="cls-17" d="M45.51,178.12l-7.74-8.44-4,9.65,7.58,10.12h0l4-1.9L50,185.33l-1.78-4.25-1.31-1.42a1.12,1.12,0,0,1-1.46-1.35Z"/><path class="cls-16" d="M79.44,169.07l-2.55.22a48,48,0,0,0-17.57,5.07l-10.27,5.25a1.12,1.12,0,0,1-1.59-1.3L54,154.78h-8.1l-10.15,24.8a7.16,7.16,0,0,0,6.78,9.88l39.17-.31Z"/><path class="cls-10" d="M120.37,174l-3.89,6.32a6.1,6.1,0,0,1-8,2.22l-2-1-11.65,5.16a18.06,18.06,0,0,1-6.47,1.52l-9.61,1.28s-5.24-12.8-1.08-20.91h0a32.18,32.18,0,0,0,27.79-5.75l8.15-6.32Z"/><polygon class="cls-7" points="130.05 162.44 121.6 168.62 120.37 163.11 126.45 157.38 130.05 162.44"/><path class="cls-7" d="M124.41,159.36c-.07-2.37,1.68-3.56,3.42-4.4a23.49,23.49,0,0,1,12.29-2.27l1,.25a8.61,8.61,0,0,1-.76,3.61,9.19,9.19,0,0,0,.08,4.64.21.21,0,0,1-.18.28,14.45,14.45,0,0,0-2.35.16c-.22.37-.38.77-.57,1.16a5.71,5.71,0,0,1-.85,1.37c-1.11,1.2-3,1.19-4.61,1-2.29-.32-4.65-1-6.22-2.73A4.9,4.9,0,0,1,124.41,159.36Z"/><path class="cls-7" d="M123,165.82l2.67,15.37a1.91,1.91,0,0,0,1.64,1.58l22.92,2.49,4.86.77,4.44,1.17,3.51.11h0c0,.93-.66,2-1.59,2h-2.59l-6.17-.3-28,.69a4.68,4.68,0,0,1-4.5-3l-7.6-20.18Z"/><path class="cls-18" d="M102.56,164.85a12.18,12.18,0,0,1,2.52-3.54,17,17,0,0,1,3.29-2.82c1.78-1.1,3.57-1.41,5.16-2.83a17.07,17.07,0,0,0,3.68-4.64c.49-.91.9-1.87,1.44-2.75a12.5,12.5,0,0,1,8-5.4,26.13,26.13,0,0,1,5.68-.88,20.26,20.26,0,0,1,6.44,1.14,10.5,10.5,0,0,1,4.13,2.16,5.06,5.06,0,0,1,1.19,5.22,5.62,5.62,0,0,1-.9,2c-1.64,2.17-5.16,2.3-7.63,2.85-1.53.33-3.14-.15-4.61.46a9.69,9.69,0,0,0-3.2,2.78,25.77,25.77,0,0,0-3.65,4.75c-.52.95-.92,2-1.36,2.95a17.66,17.66,0,0,1-5.92,7.7,10.33,10.33,0,0,1-10.74.61C102.84,172.71,101.09,168.34,102.56,164.85Z"/><rect class="cls-11" x="125.89" y="36.05" width="76.61" height="92.26" rx="2.86"/><path class="cls-19" d="M202.5,45.79V38.7a2.66,2.66,0,0,0-2.66-2.65H128.55a2.66,2.66,0,0,0-2.66,2.65v7.09Z"/><path class="cls-11" d="M132.53,40.92a.84.84,0,1,1-.83-.83A.83.83,0,0,1,132.53,40.92Z"/><path class="cls-11" d="M136.28,40.92a.84.84,0,1,1-.83-.83A.83.83,0,0,1,136.28,40.92Z"/><path class="cls-11" d="M140,40.92a.84.84,0,1,1-.83-.83A.83.83,0,0,1,140,40.92Z"/><path class="cls-2" d="M148,90.54a6.84,6.84,0,1,1-6.83-6.83A6.83,6.83,0,0,1,148,90.54Z"/><circle class="cls-2" cx="141.14" cy="109.19" r="6.83"/><rect class="cls-20" x="155.95" y="86.13" width="38.01" height="1.42"/><rect class="cls-20" x="155.95" y="91.71" width="21" height="1.42"/><rect class="cls-20" x="155.95" y="104.96" width="38.01" height="1.42"/><rect class="cls-20" x="155.95" y="110.54" width="21" height="1.42"/><path class="cls-21" d="M200,36H181.77V69.4a4.94,4.94,0,0,0,4.94,4.93H202.5V38.52A2.55,2.55,0,0,0,200,36Z"/><path class="cls-22" d="M200,36H181.91V69.31a4.91,4.91,0,0,0,4.91,4.91H202.5V38.5A2.53,2.53,0,0,0,200,36Z"/><path class="cls-23" d="M200,36H182.06V69.23a4.87,4.87,0,0,0,4.87,4.87H202.5V38.49A2.52,2.52,0,0,0,200,36Z"/><path class="cls-24" d="M200,36H182.2V69.14A4.84,4.84,0,0,0,187,74H202.5V38.47A2.5,2.5,0,0,0,200,36Z"/><path class="cls-25" d="M200,36H182.34V69.06a4.8,4.8,0,0,0,4.8,4.8H202.5V38.45A2.48,2.48,0,0,0,200,36Z"/><path class="cls-26" d="M200,36H182.48V69a4.76,4.76,0,0,0,4.77,4.77H202.5V38.43A2.46,2.46,0,0,0,200,36Z"/><path class="cls-27" d="M200.05,36H182.62V68.89a4.73,4.73,0,0,0,4.73,4.73H202.5V38.42A2.45,2.45,0,0,0,200.05,36Z"/><path class="cls-28" d="M200.07,36H182.76V68.8a4.7,4.7,0,0,0,4.7,4.71h15V38.4A2.43,2.43,0,0,0,200.07,36Z"/><path class="cls-29" d="M200.09,36H182.9V68.72a4.67,4.67,0,0,0,4.67,4.67H202.5v-35A2.41,2.41,0,0,0,200.09,36Z"/><path class="cls-30" d="M200.11,36H183V68.63a4.63,4.63,0,0,0,4.63,4.64H202.5V38.37A2.39,2.39,0,0,0,200.11,36Z"/><path class="cls-31" d="M200.12,36H183.18V68.55a4.6,4.6,0,0,0,4.6,4.6H202.5V38.35A2.39,2.39,0,0,0,200.12,36Z"/><path class="cls-32" d="M200.14,36H183.32V68.46A4.56,4.56,0,0,0,187.89,73H202.5V38.33A2.36,2.36,0,0,0,200.14,36Z"/><path class="cls-33" d="M200.16,36h-16.7V68.38A4.54,4.54,0,0,0,188,72.92h14.5V38.31A2.34,2.34,0,0,0,200.16,36Z"/><path class="cls-34" d="M200.18,36H183.6V68.29a4.51,4.51,0,0,0,4.5,4.51h14.4V38.3A2.32,2.32,0,0,0,200.18,36Z"/><path class="cls-35" d="M200.19,36H183.74V68.21a4.47,4.47,0,0,0,4.47,4.47H202.5V38.28A2.31,2.31,0,0,0,200.19,36Z"/><path class="cls-36" d="M200.21,36H183.88V68.12a4.44,4.44,0,0,0,4.44,4.44H202.5V38.26A2.3,2.3,0,0,0,200.21,36Z"/><path class="cls-37" d="M200.23,36H184V68a4.4,4.4,0,0,0,4.4,4.4H202.5V38.24A2.27,2.27,0,0,0,200.23,36Z"/><path class="cls-38" d="M200.24,36H184.16V68a4.37,4.37,0,0,0,4.37,4.36h14V38.23A2.26,2.26,0,0,0,200.24,36Z"/><path class="cls-39" d="M200.26,36h-16v31.9a4.34,4.34,0,0,0,4.34,4.34H202.5v-34A2.24,2.24,0,0,0,200.26,36Z"/><path class="cls-40" d="M200.28,36H184.44V67.79a4.31,4.31,0,0,0,4.3,4.3H202.5V38.19A2.23,2.23,0,0,0,200.28,36Z"/><path class="cls-41" d="M200.3,36H184.58V67.7A4.27,4.27,0,0,0,188.85,72H202.5V38.18A2.21,2.21,0,0,0,200.3,36Z"/><path class="cls-42" d="M200.31,36H184.72V67.62A4.23,4.23,0,0,0,189,71.85H202.5V38.16A2.19,2.19,0,0,0,200.31,36Z"/><path class="cls-43" d="M200.33,36H184.86V67.53a4.2,4.2,0,0,0,4.2,4.2H202.5V38.14A2.17,2.17,0,0,0,200.33,36Z"/><path class="cls-44" d="M200.35,36H185V67.45a4.17,4.17,0,0,0,4.17,4.17H202.5V38.12A2.15,2.15,0,0,0,200.35,36Z"/><path class="cls-45" d="M200.37,36H185.14V67.36a4.14,4.14,0,0,0,4.14,4.14H202.5V38.11A2.14,2.14,0,0,0,200.37,36Z"/><path class="cls-46" d="M200.38,36h-15.1V67.28a4.11,4.11,0,0,0,4.11,4.1H202.5V38.09A2.12,2.12,0,0,0,200.38,36Z"/><path class="cls-47" d="M200.4,36h-15V67.19a4.07,4.07,0,0,0,4.07,4.07h13V38.07A2.1,2.1,0,0,0,200.4,36Z"/><path class="cls-48" d="M200.42,36H185.56V67.11a4,4,0,0,0,4,4h12.9V38.05A2.08,2.08,0,0,0,200.42,36Z"/><path class="cls-49" d="M200.43,36H185.71V67a4,4,0,0,0,4,4H202.5V38A2.07,2.07,0,0,0,200.43,36Z"/><path class="cls-50" d="M200.45,36h-14.6v31a4,4,0,0,0,4,4H202.5V38A2.05,2.05,0,0,0,200.45,36Z"/><path class="cls-51" d="M200.47,36H186V66.85a3.93,3.93,0,0,0,3.93,3.94H202.5V38A2,2,0,0,0,200.47,36Z"/><path class="cls-52" d="M200.49,36H186.13v30.8a3.9,3.9,0,0,0,3.9,3.9H202.5V38A2,2,0,0,0,200.49,36Z"/><path class="cls-53" d="M200.5,36H186.27V66.68a3.86,3.86,0,0,0,3.86,3.87H202.5V38A2,2,0,0,0,200.5,36Z"/><path class="cls-54" d="M200.52,36H186.41V66.6a3.82,3.82,0,0,0,3.83,3.83H202.5V38A2,2,0,0,0,200.52,36Z"/><path class="cls-55" d="M200.54,36h-14V66.51a3.81,3.81,0,0,0,3.8,3.81H202.5V37.93A2,2,0,0,0,200.54,36Z"/><path class="cls-56" d="M200.56,36H186.69V66.43a3.77,3.77,0,0,0,3.77,3.77h12V37.92A1.94,1.94,0,0,0,200.56,36Z"/><path class="cls-57" d="M200.57,36H186.83V66.35a3.73,3.73,0,0,0,3.73,3.73H202.5V37.9A1.93,1.93,0,0,0,200.57,36Z"/><path class="cls-58" d="M200.59,36H187V66.26a3.7,3.7,0,0,0,3.7,3.7H202.5V37.88A1.92,1.92,0,0,0,200.59,36Z"/><path class="cls-59" d="M200.61,36h-13.5V66.18a3.66,3.66,0,0,0,3.67,3.66H202.5v-32A1.9,1.9,0,0,0,200.61,36Z"/><path class="cls-60" d="M200.62,36H187.25V66.09a3.63,3.63,0,0,0,3.63,3.63H202.5V37.85A1.88,1.88,0,0,0,200.62,36Z"/><path class="cls-61" d="M200.64,36H187.39V66a3.6,3.6,0,0,0,3.6,3.6H202.5V37.83A1.86,1.86,0,0,0,200.64,36Z"/><path class="cls-4" d="M200.66,36H187.53v30a3.57,3.57,0,0,0,3.57,3.57h11.4V37.81A1.85,1.85,0,0,0,200.66,36Z"/><rect class="cls-11" x="186.9" y="22.28" width="55.3" height="48.26" rx="5.15"/><path class="cls-62" d="M237.59,22.27H191.5a4.61,4.61,0,0,0-4.6,4.61v5.24h55.3V26.88A4.62,4.62,0,0,0,237.59,22.27Z"/><path class="cls-11" d="M194,27.2a.85.85,0,0,1-1.69,0,.85.85,0,0,1,1.69,0Z"/><path class="cls-11" d="M197.62,27.2a.84.84,0,1,1-.84-.84A.84.84,0,0,1,197.62,27.2Z"/><path class="cls-11" d="M197.62,27.2a.84.84,0,1,1-.84-.84A.84.84,0,0,1,197.62,27.2Z"/><path class="cls-11" d="M201.29,27.2a.85.85,0,0,1-1.69,0,.85.85,0,0,1,1.69,0Z"/><circle class="cls-3" cx="197.62" cy="45.03" r="6.6"/><rect class="cls-20" x="207.77" y="41.48" width="30.2" height="1.78"/><rect class="cls-20" x="207.77" y="46.65" width="30.2" height="1.78"/><rect class="cls-63" x="207.77" y="51.82" width="11.33" height="1.78"/><path class="cls-64" d="M286.65,9.06a9.06,9.06,0,1,0-14,7.58v5.78h9.9V16.64A9.06,9.06,0,0,0,286.65,9.06Z"/><polygon class="cls-16" points="283.18 22.82 279.89 25.57 274.99 25.57 271.99 22.82 271.99 18.49 283.18 18.49 283.18 22.82"/><rect class="cls-65" x="271.51" y="18.89" width="12.14" height="0.83" rx="0.36"/><rect class="cls-65" x="271.51" y="20.28" width="12.14" height="0.83" rx="0.36"/><rect class="cls-65" x="271.51" y="21.66" width="12.14" height="0.83" rx="0.36"/><path class="cls-66" d="M274.85,25.45h5.08a0,0,0,0,1,0,0v.2a1.43,1.43,0,0,1-1.43,1.43h-2.22a1.43,1.43,0,0,1-1.43-1.43v-.2A0,0,0,0,1,274.85,25.45Z"/><polygon class="cls-11" points="277.02 11.42 274.7 9.1 275.41 8.4 277.02 10.01 280.55 6.48 281.26 7.19 277.02 11.42"/><path class="cls-21" d="M152.4,54.26H125.89V84.77H152.4A3.55,3.55,0,0,0,156,81.22V57.81A3.55,3.55,0,0,0,152.4,54.26Z"/><path class="cls-22" d="M152.26,54.26H125.89V84.61h26.37a3.53,3.53,0,0,0,3.53-3.53V57.79A3.53,3.53,0,0,0,152.26,54.26Z"/><path class="cls-23" d="M152.12,54.26H125.89V84.45h26.23a3.51,3.51,0,0,0,3.51-3.51V57.77A3.51,3.51,0,0,0,152.12,54.26Z"/><path class="cls-24" d="M152,54.26H125.89v30H152a3.49,3.49,0,0,0,3.49-3.49v-23A3.49,3.49,0,0,0,152,54.26Z"/><path class="cls-25" d="M151.84,54.26H125.89V84.13h26a3.48,3.48,0,0,0,3.48-3.48V57.73A3.47,3.47,0,0,0,151.84,54.26Z"/><path class="cls-26" d="M151.7,54.26H125.89V84H151.7a3.46,3.46,0,0,0,3.46-3.46V57.71A3.45,3.45,0,0,0,151.7,54.26Z"/><path class="cls-27" d="M151.57,54.26H125.89V83.81h25.68A3.44,3.44,0,0,0,155,80.37V57.69A3.44,3.44,0,0,0,151.57,54.26Z"/><path class="cls-28" d="M151.43,54.26H125.89V83.65h25.54a3.42,3.42,0,0,0,3.42-3.42V57.68A3.42,3.42,0,0,0,151.43,54.26Z"/><path class="cls-29" d="M151.29,54.26h-25.4V83.49h25.4a3.4,3.4,0,0,0,3.4-3.4V57.66A3.4,3.4,0,0,0,151.29,54.26Z"/><path class="cls-30" d="M151.15,54.26H125.89V83.33h25.26A3.38,3.38,0,0,0,154.53,80V57.64A3.38,3.38,0,0,0,151.15,54.26Z"/><path class="cls-31" d="M151,54.26H125.89V83.17H151a3.36,3.36,0,0,0,3.37-3.36V57.62A3.36,3.36,0,0,0,151,54.26Z"/><path class="cls-32" d="M150.87,54.26h-25V83h25a3.34,3.34,0,0,0,3.35-3.34V57.6A3.34,3.34,0,0,0,150.87,54.26Z"/><path class="cls-33" d="M150.73,54.26H125.89v28.6h24.84a3.33,3.33,0,0,0,3.33-3.33v-22A3.33,3.33,0,0,0,150.73,54.26Z"/><path class="cls-34" d="M150.6,54.26H125.89V82.7H150.6a3.31,3.31,0,0,0,3.3-3.31V57.56A3.3,3.3,0,0,0,150.6,54.26Z"/><path class="cls-35" d="M150.46,54.26H125.89V82.54h24.57a3.3,3.3,0,0,0,3.29-3.29V57.55A3.29,3.29,0,0,0,150.46,54.26Z"/><path class="cls-36" d="M150.32,54.26H125.89V82.38h24.43a3.27,3.27,0,0,0,3.27-3.27V57.53A3.26,3.26,0,0,0,150.32,54.26Z"/><path class="cls-37" d="M150.18,54.26H125.89v28h24.29A3.25,3.25,0,0,0,153.43,79V57.51A3.24,3.24,0,0,0,150.18,54.26Z"/><path class="cls-38" d="M150,54.26H125.89v27.8H150a3.24,3.24,0,0,0,3.24-3.24V57.49A3.23,3.23,0,0,0,150,54.26Z"/><path class="cls-39" d="M149.9,54.26h-24V81.9h24a3.22,3.22,0,0,0,3.22-3.22V57.47A3.22,3.22,0,0,0,149.9,54.26Z"/><path class="cls-40" d="M149.77,54.26H125.89V81.74h23.88a3.19,3.19,0,0,0,3.19-3.2V57.45A3.19,3.19,0,0,0,149.77,54.26Z"/><path class="cls-41" d="M149.63,54.26H125.89V81.58h23.74a3.18,3.18,0,0,0,3.18-3.18v-21A3.18,3.18,0,0,0,149.63,54.26Z"/><path class="cls-42" d="M149.49,54.26h-23.6V81.42h23.6a3.16,3.16,0,0,0,3.16-3.16V57.42A3.16,3.16,0,0,0,149.49,54.26Z"/><path class="cls-43" d="M149.35,54.26H125.89v27h23.46a3.14,3.14,0,0,0,3.14-3.14V57.4A3.13,3.13,0,0,0,149.35,54.26Z"/><path class="cls-44" d="M149.21,54.26H125.89V81.1h23.32A3.12,3.12,0,0,0,152.33,78V57.38A3.11,3.11,0,0,0,149.21,54.26Z"/><path class="cls-45" d="M149.07,54.26H125.89V80.94h23.18a3.1,3.1,0,0,0,3.11-3.1V57.36A3.1,3.1,0,0,0,149.07,54.26Z"/><path class="cls-46" d="M148.93,54.26h-23V80.78h23A3.08,3.08,0,0,0,152,77.7V57.34A3.08,3.08,0,0,0,148.93,54.26Z"/><path class="cls-47" d="M148.8,54.26H125.89V80.62H148.8a3.06,3.06,0,0,0,3.06-3.06V57.32A3.06,3.06,0,0,0,148.8,54.26Z"/><path class="cls-48" d="M148.66,54.26H125.89v26.2h22.77a3,3,0,0,0,3.05-3V57.31A3,3,0,0,0,148.66,54.26Z"/><path class="cls-49" d="M148.52,54.26H125.89V80.31h22.63a3,3,0,0,0,3-3v-20A3,3,0,0,0,148.52,54.26Z"/><path class="cls-50" d="M148.38,54.26H125.89V80.15h22.49a3,3,0,0,0,3-3V57.27A3,3,0,0,0,148.38,54.26Z"/><path class="cls-51" d="M148.24,54.26H125.89V80h22.35a3,3,0,0,0,3-3V57.25A3,3,0,0,0,148.24,54.26Z"/><path class="cls-52" d="M148.1,54.26H125.89V79.83H148.1a3,3,0,0,0,3-3V57.23A3,3,0,0,0,148.1,54.26Z"/><path class="cls-53" d="M148,54.26H125.89V79.67H148a3,3,0,0,0,2.95-3V57.21A3,3,0,0,0,148,54.26Z"/><path class="cls-54" d="M147.83,54.26H125.89V79.51h21.94a2.94,2.94,0,0,0,2.93-2.94V57.19A2.93,2.93,0,0,0,147.83,54.26Z"/><path class="cls-55" d="M147.69,54.26h-21.8V79.35h21.8a2.92,2.92,0,0,0,2.92-2.92V57.18A2.92,2.92,0,0,0,147.69,54.26Z"/><path class="cls-56" d="M147.55,54.26H125.89V79.19h21.66a2.9,2.9,0,0,0,2.9-2.9V57.16A2.9,2.9,0,0,0,147.55,54.26Z"/><path class="cls-57" d="M147.41,54.26H125.89V79h21.52a2.88,2.88,0,0,0,2.88-2.88v-19A2.88,2.88,0,0,0,147.41,54.26Z"/><path class="cls-58" d="M147.27,54.26H125.89V78.87h21.38A2.87,2.87,0,0,0,150.14,76V57.12A2.87,2.87,0,0,0,147.27,54.26Z"/><path class="cls-59" d="M147.13,54.26H125.89V78.71h21.24A2.84,2.84,0,0,0,150,75.87V57.1A2.84,2.84,0,0,0,147.13,54.26Z"/><path class="cls-60" d="M147,54.26H125.89V78.55H147a2.82,2.82,0,0,0,2.82-2.82V57.08A2.82,2.82,0,0,0,147,54.26Z"/><path class="cls-61" d="M146.86,54.26h-21V78.39h21a2.81,2.81,0,0,0,2.81-2.81V57.06A2.8,2.8,0,0,0,146.86,54.26Z"/><path class="cls-4" d="M146.72,54.26H125.89v24h20.83a2.79,2.79,0,0,0,2.79-2.79V57.05A2.78,2.78,0,0,0,146.72,54.26Z"/><rect class="cls-11" x="100.57" y="49.76" width="50.63" height="29.76" rx="3.46"/><path class="cls-8" d="M121.87,64.65a8.2,8.2,0,1,1-8.2-8.2A8.2,8.2,0,0,1,121.87,64.65Z"/><path class="cls-11" d="M116.7,65.11l-5.28,3a.53.53,0,0,1-.8-.46V61.6a.53.53,0,0,1,.8-.46l5.28,3A.54.54,0,0,1,116.7,65.11Z"/><rect class="cls-20" x="124.87" y="58.07" width="22.46" height="2"/><rect class="cls-20" x="124.87" y="63.65" width="22.46" height="2"/><rect class="cls-10" x="124.87" y="69.22" width="11.23" height="2"/><path class="cls-11" d="M202.5,83.62H184.64a2.19,2.19,0,0,0-2.19,2.19v21a2.19,2.19,0,0,0,2.19,2.19H202.5Z"/><path class="cls-67" d="M202.5,83.62H184.76a2.18,2.18,0,0,0-2.18,2.18v20.82a2.18,2.18,0,0,0,2.18,2.18H202.5Z"/><path class="cls-68" d="M202.5,83.62H184.87a2.16,2.16,0,0,0-2.15,2.16v20.69a2.16,2.16,0,0,0,2.15,2.16H202.5Z"/><path class="cls-69" d="M202.5,83.62H185a2.14,2.14,0,0,0-2.14,2.15v20.55a2.14,2.14,0,0,0,2.14,2.14H202.5Z"/><path class="cls-70" d="M202.5,83.62H185.11A2.14,2.14,0,0,0,183,85.75v20.41a2.13,2.13,0,0,0,2.13,2.13H202.5Z"/><path class="cls-71" d="M202.5,83.62H185.23a2.11,2.11,0,0,0-2.11,2.12V106a2.11,2.11,0,0,0,2.11,2.11H202.5Z"/><path class="cls-72" d="M202.5,83.62H185.35a2.11,2.11,0,0,0-2.1,2.11v20.12a2.1,2.1,0,0,0,2.1,2.1H202.5Z"/><path class="cls-73" d="M202.5,83.62h-17a2.1,2.1,0,0,0-2.09,2.09v20a2.09,2.09,0,0,0,2.09,2.08h17Z"/><path class="cls-20" d="M202.5,83.62H185.59a2.08,2.08,0,0,0-2.07,2.08v19.84a2.07,2.07,0,0,0,2.07,2.07H202.5Z"/><path class="cls-74" d="M202.5,83.62H185.71a2.06,2.06,0,0,0-2.06,2.06v19.71a2.05,2.05,0,0,0,2.06,2H202.5Z"/><path class="cls-75" d="M202.5,83.62H185.83a2,2,0,0,0-2,2v19.56a2,2,0,0,0,2,2H202.5Z"/><path class="cls-76" d="M202.5,83.62H186a2,2,0,0,0-2,2v19.43a2,2,0,0,0,2,2H202.5Z"/><path class="cls-77" d="M202.5,83.62H186.07a2,2,0,0,0-2,2v19.29a2,2,0,0,0,2,2H202.5Z"/><path class="cls-78" d="M202.5,83.62H186.19a2,2,0,0,0-2,2v19.15a2,2,0,0,0,2,2H202.5Z"/><path class="cls-79" d="M202.5,83.62H186.3a2,2,0,0,0-2,2v19a2,2,0,0,0,2,2h16.2Z"/><path class="cls-80" d="M202.5,83.62H186.42a2,2,0,0,0-2,2v18.87a2,2,0,0,0,2,2H202.5Z"/><path class="cls-81" d="M202.5,83.62h-16a2,2,0,0,0-1.95,2v18.73a2,2,0,0,0,1.95,2h16Z"/><path class="cls-82" d="M202.5,83.62H186.66a1.94,1.94,0,0,0-1.94,1.94v18.59a1.94,1.94,0,0,0,1.94,1.94H202.5Z"/><path class="cls-83" d="M202.5,83.62H186.78a1.93,1.93,0,0,0-1.92,1.93V104a1.92,1.92,0,0,0,1.92,1.92H202.5Z"/><path class="cls-84" d="M202.5,83.62H186.9A1.91,1.91,0,0,0,185,85.54v18.3a1.9,1.9,0,0,0,1.91,1.91h15.6Z"/><path class="cls-85" d="M202.5,83.62H187a1.9,1.9,0,0,0-1.9,1.9v18.17a1.9,1.9,0,0,0,1.9,1.9H202.5Z"/><path class="cls-86" d="M202.5,83.62H187.14a1.89,1.89,0,0,0-1.88,1.89v18a1.89,1.89,0,0,0,1.88,1.89H202.5Z"/><path class="cls-87" d="M202.5,83.62H187.26a1.87,1.87,0,0,0-1.87,1.87v17.89a1.87,1.87,0,0,0,1.87,1.87H202.5Z"/><path class="cls-88" d="M202.5,83.62H187.38a1.86,1.86,0,0,0-1.86,1.86v17.75a1.85,1.85,0,0,0,1.86,1.85H202.5Z"/><path class="cls-89" d="M202.5,83.62h-15a1.84,1.84,0,0,0-1.84,1.84v17.61a1.84,1.84,0,0,0,1.84,1.84h15Z"/><path class="cls-90" d="M202.5,83.62H187.62a1.83,1.83,0,0,0-1.83,1.83v17.47a1.83,1.83,0,0,0,1.83,1.82H202.5Z"/><path class="cls-91" d="M202.5,83.62H187.73a1.81,1.81,0,0,0-1.8,1.81v17.33a1.81,1.81,0,0,0,1.8,1.81H202.5Z"/><path class="cls-92" d="M202.5,83.62H187.85a1.8,1.8,0,0,0-1.79,1.8v17.19a1.79,1.79,0,0,0,1.79,1.79H202.5Z"/><path class="cls-93" d="M202.5,83.62H188a1.78,1.78,0,0,0-1.78,1.78v17a1.78,1.78,0,0,0,1.78,1.78H202.5Z"/><path class="cls-94" d="M202.5,83.62H188.09a1.76,1.76,0,0,0-1.76,1.77V102.3a1.76,1.76,0,0,0,1.76,1.76H202.5Z"/><path class="cls-95" d="M202.5,83.62H188.21a1.75,1.75,0,0,0-1.75,1.76v16.76a1.75,1.75,0,0,0,1.75,1.75H202.5Z"/><path class="cls-96" d="M202.5,83.62H188.33a1.74,1.74,0,0,0-1.74,1.74V102a1.74,1.74,0,0,0,1.74,1.74H202.5Z"/><path class="cls-97" d="M202.5,83.62H188.45a1.73,1.73,0,0,0-1.72,1.73v16.49a1.72,1.72,0,0,0,1.72,1.72H202.5Z"/><path class="cls-6" d="M202.5,83.62H188.57a1.72,1.72,0,0,0-1.71,1.71v16.35a1.72,1.72,0,0,0,1.71,1.71H202.5Z"/><path class="cls-98" d="M202.5,83.62H188.69a1.69,1.69,0,0,0-1.69,1.7v16.21a1.69,1.69,0,0,0,1.69,1.69H202.5Z"/><path class="cls-99" d="M202.5,83.62H188.81a1.68,1.68,0,0,0-1.68,1.68v16.07a1.68,1.68,0,0,0,1.68,1.68H202.5Z"/><path class="cls-100" d="M202.5,83.62H188.93a1.67,1.67,0,0,0-1.67,1.67v15.93a1.66,1.66,0,0,0,1.67,1.66H202.5Z"/><path class="cls-101" d="M202.5,83.62H189.05a1.65,1.65,0,0,0-1.65,1.65v15.79a1.65,1.65,0,0,0,1.65,1.65H202.5Z"/><path class="cls-102" d="M202.5,83.62H189.16a1.64,1.64,0,0,0-1.63,1.64v15.65a1.63,1.63,0,0,0,1.63,1.63H202.5Z"/><path class="cls-103" d="M202.5,83.62H189.28a1.63,1.63,0,0,0-1.62,1.62v15.51a1.62,1.62,0,0,0,1.62,1.62H202.5Z"/><path class="cls-104" d="M202.5,83.62H189.4a1.61,1.61,0,0,0-1.6,1.61V100.6a1.6,1.6,0,0,0,1.6,1.6h13.1Z"/><path class="cls-4" d="M202.5,83.62h-13a1.59,1.59,0,0,0-1.59,1.59v15.24a1.59,1.59,0,0,0,1.59,1.58h13Z"/><rect class="cls-11" x="186.9" y="80.06" width="33.51" height="23.29" rx="2.01"/><rect class="cls-2" x="189.39" y="82.3" width="28.51" height="17.78"/><polygon class="cls-4" points="193.8 88.84 189.42 95.17 189.4 100.08 200.69 100.08 193.8 88.84"/><polygon class="cls-11" points="194.5 92.14 194.89 92.79 195.59 91.79 193.8 88.84 191.78 91.76 192.41 92.79 192.88 92.1 193.65 93.36 194.5 92.14"/><polygon class="cls-4" points="199.16 97.64 202.49 92.66 207.08 100.08 200.67 100.08 199.16 97.64"/><path class="cls-3" d="M212.62,88.35a3.13,3.13,0,1,1-3.13-3.13A3.14,3.14,0,0,1,212.62,88.35Z"/><polygon class="cls-11" points="203.22 95.96 203.62 96.61 204.31 95.61 202.49 92.66 200.51 95.58 201.13 96.61 201.61 95.92 202.38 97.19 203.22 95.96"/><rect class="cls-11" x="79.68" y="107.53" width="41.92" height="36.58" rx="3.68"/><path class="cls-105" d="M118.11,107.53H83.17a3.5,3.5,0,0,0-3.49,3.5v4H121.6v-4A3.5,3.5,0,0,0,118.11,107.53Z"/><circle class="cls-11" cx="84.39" cy="111.27" r="0.64"/><circle class="cls-11" cx="87.17" cy="111.27" r="0.64"/><circle class="cls-11" cx="87.17" cy="111.27" r="0.64"/><path class="cls-11" d="M90.59,111.27a.64.64,0,0,1-1.28,0,.64.64,0,0,1,1.28,0Z"/><polygon class="cls-10" points="98.11 128.19 93.28 130.87 94.35 142.74 106.03 142.74 107.81 131.18 102.41 128.19 98.11 128.19"/><polygon class="cls-7" points="102.41 128.32 100.26 132.25 98.11 128.32 98.11 125.53 102.41 125.53 102.41 128.32"/><path class="cls-16" d="M104.27,119.73a2.62,2.62,0,0,0-.22-.52l-.53-1c-.31-.61-.63-.53-1.21-.71a5.7,5.7,0,0,0-1.53-.54,1.9,1.9,0,0,0-1,.26,1.59,1.59,0,0,1-.4.18,3.46,3.46,0,0,1-.72,0,1.38,1.38,0,0,0-1.25,1,.86.86,0,0,1-.09.27.73.73,0,0,1-.17.18c-.73.71-.3,1.89-.18,2.76.07.48,0,1,.41,1.35l-.2,0a3.46,3.46,0,0,0,1.82.88,10.65,10.65,0,0,0,2,.12l2.46,0a.79.79,0,0,0,.45-.1.75.75,0,0,0,.2-.48c.13-.94,0-1.87.12-2.82A2.55,2.55,0,0,0,104.27,119.73Z"/><path class="cls-106" d="M98.11,127.13l.6,1.05a2.24,2.24,0,0,0,1.92,1.11,2.21,2.21,0,0,0,1.78-.9v-2.86h-4.3Z"/><path class="cls-7" d="M97.76,121.22v3.27a4.16,4.16,0,0,0,.57,2.1l.63,1.1a2.22,2.22,0,0,0,1.92,1.11h0a2.22,2.22,0,0,0,1.89-1.07l.13-.21a4.2,4.2,0,0,0,.61-2.18v-6H97.85Z"/><path class="cls-7" d="M97.81,125l-.66-.35s-.69-1-.37-1.71c0,0,.24-.58.69-.32l.64.64Z"/><path class="cls-7" d="M103.35,125l.66-.35s.7-1,.38-1.71c0,0-.24-.58-.7-.32l-.64.64Z"/><path class="cls-16" d="M97.58,121.75a11.29,11.29,0,0,1,.13,1.54c0,.2-.09.79.34.64a.37.37,0,0,0,.19-.34c0-.49-.38-.92-.15-1.38s.58-.54.65-.93a2.63,2.63,0,0,0-.12-.82.79.79,0,0,1,.15-.61.56.56,0,0,1,.58-.18c.2.07.32.26.47.4a1.28,1.28,0,0,0,1.34.27,4.49,4.49,0,0,0,.75-.47,1.11,1.11,0,0,1,.84-.19,1.21,1.21,0,0,1,.67,1,4.74,4.74,0,0,1,.15,1.4,10.76,10.76,0,0,1-.33,1.06.75.75,0,0,0,0,.26,1,1,0,0,0,.18.44.12.12,0,0,0,.05.05.1.1,0,0,0,.09,0,1.46,1.46,0,0,0,.37-.88,2.34,2.34,0,0,0,.12-1.14c-.17-.87,0-1.78-.1-2.65a.55.55,0,0,0-.1-.25.44.44,0,0,0-.26-.16,10.64,10.64,0,0,0-3.9-.33,2.76,2.76,0,0,0-1.34.28,1.9,1.9,0,0,0-.8,1.37A6.94,6.94,0,0,0,97.58,121.75Z"/><path class="cls-7" d="M86.26,137.9l-.19-.54-5.79-3.71h0a1,1,0,0,1,1.25-.15l1.15.72.42-.09a1.32,1.32,0,0,1,1,.17l.57.37,1.91.58a1.69,1.69,0,0,1,1.12,1l.41,1.07Z"/><path class="cls-7" d="M114.26,137.9l.2-.54,5.79-3.71h0a1,1,0,0,0-1.26-.15l-1.15.72-.41-.09a1.34,1.34,0,0,0-1,.17l-.57.37-1.91.58a1.69,1.69,0,0,0-1.12,1l-.41,1.07Z"/><path class="cls-10" d="M98.11,128.19l-5.7,3.17a3.42,3.42,0,0,0-1.76,2.74l-.47,6.19-1.83-3L85.9,138l2.18,4.83,4.77-.1,1.33-6.6,3.93-5.84Z"/><path class="cls-10" d="M102.41,128.19l5.7,3.17a3.42,3.42,0,0,1,1.76,2.74l.47,6.19,1.83-3,2.45.73-2.18,4.83-4.76-.08-1.33-6.62-3.94-5.84Z"/><polygon class="cls-11" points="98.11 128.19 96.84 128.89 98.34 134.2 100.26 132.25 98.11 128.19"/><polygon class="cls-11" points="102.41 128.19 103.68 128.89 102.19 134.2 100.26 132.25 102.41 128.19"/><path class="cls-16" d="M99.37,125.82c-.08.15-.11.33-.19.49a.4.4,0,0,1-.43.24c-.19-.06-.25-.3-.28-.5a7.78,7.78,0,0,0-.12-1.66,2.13,2.13,0,0,1-.13-.43c0-.13,0-.27,0-.41s-.13-.27-.27-.26a.29.29,0,0,0-.25.23.88.88,0,0,0,0,.36,6,6,0,0,1,.13,1.79,4.29,4.29,0,0,0,.37,1.72,2.9,2.9,0,0,0,.25.57,2.17,2.17,0,0,0,1.28.86,6.71,6.71,0,0,0,1.56.14,2.48,2.48,0,0,0,1-.14c.92-.39,1.21-2.13,1.31-3a4.86,4.86,0,0,0-.06-1.08,7,7,0,0,1,.16-1.36.18.18,0,0,0,0-.16c-.05,0-.16,0-.16-.11a1,1,0,0,0-.35.51,1.27,1.27,0,0,0,0,.28,3.62,3.62,0,0,1-.07,1.09,9.23,9.23,0,0,0-.3,1.26c0,.2-.09.44-.29.49a.35.35,0,0,1-.37-.24,1.44,1.44,0,0,1-.06-.47.74.74,0,0,0-.12-.46.79.79,0,0,0-.6-.21C100.67,125.33,99.76,125,99.37,125.82Z"/><path class="cls-7" d="M99.47,126.26h.44a.71.71,0,0,0,.46-.17l.27-.24.3.25a.68.68,0,0,0,.44.16h.43a1.21,1.21,0,0,1-1.29,1.23C99.64,127.47,99.76,127,99.47,126.26Z"/><polygon class="cls-11" points="85.9 138.01 88.35 137.28 88.96 138.29 86.37 139.04 85.9 138.01"/><polygon class="cls-11" points="114.67 138.01 112.22 137.28 111.61 138.29 114.2 139.04 114.67 138.01"/><circle class="cls-107" cx="85.56" cy="120.59" r="2.31"/><polygon class="cls-11" points="86.19 120.59 84.93 121.32 84.93 119.87 86.19 120.59"/><path class="cls-4" d="M149.12,161.42H166a2.09,2.09,0,0,1,2.09,2.09v9.91a1.17,1.17,0,0,1-1.17,1.17H148a1.16,1.16,0,0,1-1.16-1.16v-9.7A2.31,2.31,0,0,1,149.12,161.42Z" transform="translate(314.9 336.01) rotate(180)"/><path class="cls-4" d="M147.06,161.9l8.9-7.26a2.63,2.63,0,0,1,3.09,0l8.42,7Z"/><path class="cls-11" d="M153,151.35l-3.12,3V171h14.76V152.6a1.25,1.25,0,0,0-1.25-1.25Z"/><polygon class="cls-4" points="152.83 154.06 149.9 157.41 149.9 154.38 152.83 154.06"/><path class="cls-4" d="M153,151.35l-3.12,3h2.29a.83.83,0,0,0,.83-.83Z"/><path class="cls-2" d="M147.43,174.64s8.22-5.73,8.22-6.25l-8.59-6.49a4.92,4.92,0,0,0-.24,1.7v10.46C146.82,174.54,147.17,174.57,147.43,174.64Z"/><path class="cls-2" d="M167.63,174.64s-8-5.85-8-6.37l8.34-6.13a2.34,2.34,0,0,1,.31,1.46v10.46C168.24,174.54,167.89,174.57,167.63,174.64Z"/><path class="cls-4" d="M147.35,174.65l8.64-7.1a2.58,2.58,0,0,1,3.06,0l8.64,7.1Z"/><path class="cls-2" d="M159.27,162.07a4,4,0,0,1-2,.44,3.31,3.31,0,0,1-3.37-3.46,4.07,4.07,0,0,1,4.06-4.27,3.09,3.09,0,0,1,3.23,3.21c0,1.67-.94,2.65-2,2.65a.83.83,0,0,1-.82-1h0a1.72,1.72,0,0,1-1.56,1,1.26,1.26,0,0,1-1.2-1.4,2.62,2.62,0,0,1,2.63-2.63,3,3,0,0,1,1.19.23l-.38,2c-.16.84,0,1.23.34,1.24.56,0,1.19-.74,1.19-2a2.54,2.54,0,0,0-2.68-2.76,3.4,3.4,0,0,0-3.33,3.68,2.77,2.77,0,0,0,2.85,3,3.45,3.45,0,0,0,1.68-.39Zm-.61-4.8a2,2,0,0,0-.55-.08,1.92,1.92,0,0,0-1.77,2c0,.49.25.85.74.85s1.23-.82,1.35-1.51Z"/><path class="cls-10" d="M107.84,96h1.07a.39.39,0,0,0,.39-.4V94.22a.39.39,0,0,0-.39-.39h-.84a.33.33,0,0,1-.31-.22,1.6,1.6,0,0,0-.1-.23.35.35,0,0,1,.07-.38l.59-.59a.4.4,0,0,0,0-.56l-1-1a.4.4,0,0,0-.56,0l-.6.6a.31.31,0,0,1-.35.07l-.26-.1a.32.32,0,0,1-.21-.3V90.3a.39.39,0,0,0-.39-.4h-1.37a.4.4,0,0,0-.4.4v.84a.31.31,0,0,1-.22.3l-.24.11a.35.35,0,0,1-.37-.06l-.6-.6a.4.4,0,0,0-.56,0l-1,1a.38.38,0,0,0,0,.55l.6.6a.34.34,0,0,1,.07.36c0,.08-.07.18-.11.26a.31.31,0,0,1-.3.2h-.85a.39.39,0,0,0-.39.39v1.37a.39.39,0,0,0,.4.39h.84a.33.33,0,0,1,.31.22l.09.23a.33.33,0,0,1-.06.38l-.59.59a.4.4,0,0,0,0,.56l1,1a.4.4,0,0,0,.56,0l.6-.6a.3.3,0,0,1,.36-.07l.25.1a.32.32,0,0,1,.21.3v.85a.4.4,0,0,0,.4.4H105a.39.39,0,0,0,.39-.39v-.84a.33.33,0,0,1,.22-.31l.23-.1a.33.33,0,0,1,.37.06l.6.6a.4.4,0,0,0,.56,0l1-1a.39.39,0,0,0,0-.56l-.6-.6a.32.32,0,0,1-.06-.36C107.74,96.25,107.83,96,107.84,96Zm-5.46-1.43a1.94,1.94,0,1,1,1.21,2.16A1.95,1.95,0,0,1,102.38,94.56Z"/><rect class="cls-11" x="95.07" y="3.81" width="86.36" height="28.16" rx="4.06"/><path class="cls-108" d="M177.37,3.81H99.13a4.06,4.06,0,0,0-4.06,4.06v2.6h86.36V7.87A4.06,4.06,0,0,0,177.37,3.81Z"/><circle class="cls-3" cx="107.84" cy="21.57" r="6.6"/><rect class="cls-20" x="117.99" y="15.51" width="56.17" height="1.78"/><rect class="cls-20" x="117.99" y="20.69" width="56.17" height="1.78"/><rect class="cls-63" x="117.99" y="25.86" width="21.07" height="1.78"/><path class="cls-11" d="M102.93,7.14a.84.84,0,1,1-.84-.84A.84.84,0,0,1,102.93,7.14Z"/><path class="cls-11" d="M106.6,7.14a.85.85,0,1,1-.85-.84A.85.85,0,0,1,106.6,7.14Z"/><path class="cls-11" d="M110.26,7.14a.85.85,0,1,1-.84-.84A.85.85,0,0,1,110.26,7.14Z"/><rect class="cls-10" x="195.1" y="5.4" width="12.38" height="12.38" rx="2.61"/><path class="cls-11" d="M198,12h0l1.68.55v.94L197,12.36v-.8l2.68-1.1v.93Z"/><path class="cls-11" d="M201,14h-1l1.51-4.8h1Z"/><path class="cls-11" d="M204.53,12v0l-1.66-.55v-.93l2.67,1.09v.81l-2.67,1.09v-.93Z"/><path class="cls-10" d="M234.8,100.06l-1.26-.83a.51.51,0,0,0-.58,0l-1.25.83a.24.24,0,0,1-.34-.22V94.33h3.76v5.51A.24.24,0,0,1,234.8,100.06Z"/><path class="cls-109" d="M237.16,96.89,233.39,95a.24.24,0,0,0-.23,0l-3.72,2a.25.25,0,0,1-.37-.26l.66-4.18a.25.25,0,0,0-.08-.22l-3.06-2.92a.25.25,0,0,1,.13-.43l4.18-.66a.27.27,0,0,0,.19-.14l1.82-3.82a.25.25,0,0,1,.45,0l1.92,3.77a.25.25,0,0,0,.19.14l4.2.55a.25.25,0,0,1,.14.43l-3,3a.27.27,0,0,0-.07.23l.77,4.16A.25.25,0,0,1,237.16,96.89Z"/><circle class="cls-10" cx="80.28" cy="54.21" r="6.48"/><polygon class="cls-11" points="79.42 56.83 77.17 54.58 78.46 53.3 79.42 54.26 82.1 51.58 83.39 52.87 79.42 56.83"/><polygon class="cls-110" points="175.87 139.65 174.16 137.38 177.59 137.38 175.87 139.65"/><polygon class="cls-110" points="172.46 139.65 170.75 137.38 174.17 137.38 172.46 139.65"/><polygon class="cls-110" points="174.16 145.45 169.05 139.63 179.28 139.63 174.16 145.45"/><polygon class="cls-111" points="174.16 145.45 172.46 139.63 175.89 139.63 174.16 145.45"/><polygon class="cls-111" points="170.75 137.38 169.05 139.63 172.44 139.63 170.75 137.38"/><polygon class="cls-111" points="174.16 137.38 172.46 139.63 175.85 139.63 174.16 137.38"/><polygon class="cls-111" points="177.59 137.38 175.89 139.63 179.28 139.63 177.59 137.38"/></g></g></g></svg>