<svg xmlns="http://www.w3.org/2000/svg" xmlns:xlink="http://www.w3.org/1999/xlink" viewBox="0 0 301.72 149.72"><defs><style>.cls-1{fill:#b2b8fa;}.cls-2{fill:#e0e3fd;}.cls-3{fill:#d1d4fc;}.cls-4{fill:#f0f1fe;}.cls-5{fill:#c1c6fb;}.cls-6{fill:#ffcebd;}.cls-7{fill:#536dfe;}.cls-8{fill:#fff;}.cls-10,.cls-9{fill:#191c3c;}.cls-10{opacity:0.3;}.cls-11{fill:#f7f7f7;}.cls-12{opacity:0.14;}.cls-13{fill:#bfbfbf;}.cls-14{fill:#ff5722;}.cls-15{fill:#4d5068;}.cls-16,.cls-25,.cls-26{fill:#231f20;}.cls-17{fill:#3e52bf;}.cls-18{fill:#717386;}.cls-19{fill:#e85860;}.cls-20{fill:#272834;}.cls-21{fill:#3a3c4e;}.cls-22{fill:#474963;}.cls-23{fill:#75778a;}.cls-24{fill:#915c07;}.cls-25{opacity:0.1;}.cls-26{opacity:0.21;}.cls-27{fill:url(#linear-gradient);}.cls-28{fill:#5361f0;}.cls-29{fill:#4c5159;}.cls-30{fill:#393d43;}.cls-31{fill:#dcdefd;}.cls-32{fill:#564735;}</style><linearGradient id="linear-gradient" x1="188.63" y1="93.73" x2="210.13" y2="93.73" gradientUnits="userSpaceOnUse"><stop offset="0" stop-color="#e92327"/><stop offset="0.09" stop-color="#eb2928"/><stop offset="0.69" stop-color="#f94f2f"/><stop offset="1" stop-color="#fe5e31"/></linearGradient></defs><title>octa_workAsset 11@</title><g id="Layer_2" data-name="Layer 2"><g id="Graphics"><g id="Layer_6" data-name="Layer 6"><rect class="cls-1" x="50.08" y="5.39" width="18.89" height="23.16"/><rect class="cls-2" x="53.88" y="10.04" width="11.29" height="13.84"/><rect class="cls-3" x="55.9" y="12.53" width="7.24" height="8.88"/><rect class="cls-1" x="95.8" y="5.39" width="18.89" height="23.16"/><rect class="cls-2" x="99.6" y="10.04" width="11.29" height="13.84"/><rect class="cls-3" x="101.63" y="12.53" width="7.24" height="8.88"/><rect class="cls-3" x="72.94" y="5.39" width="18.89" height="23.16"/><rect class="cls-1" x="76.74" y="10.04" width="11.29" height="13.84"/><rect class="cls-4" x="78.76" y="12.53" width="7.24" height="8.88"/><rect class="cls-5" x="244.57" y="33.86" width="3.63" height="2.32"/><rect class="cls-1" x="246.47" y="29.39" width="1.02" height="1.5"/><rect class="cls-1" x="266.41" y="29.39" width="1.02" height="1.5"/><rect class="cls-1" x="244.7" y="18.71" width="24.31" height="11.06"/><rect class="cls-2" x="246.04" y="20.06" width="9.18" height="8.42"/><rect class="cls-4" x="249.03" y="22.81" width="3.18" height="2.92"/><rect class="cls-1" x="250.44" y="20.49" width="0.19" height="0.88"/><rect class="cls-1" x="252.12" y="20.89" width="0.19" height="0.88" transform="translate(44.47 -123.27) rotate(30)"/><rect class="cls-1" x="253.38" y="22.09" width="0.19" height="0.88" transform="translate(146.5 -208.37) rotate(60.06)"/><rect class="cls-1" x="253.87" y="23.75" width="0.19" height="0.88" transform="translate(278.7 -229.73) rotate(90.12)"/><rect class="cls-1" x="253.47" y="25.43" width="0.19" height="0.88" transform="translate(403.27 -180.41) rotate(120.14)"/><rect class="cls-1" x="252.27" y="26.69" width="0.19" height="0.88" transform="translate(484.85 -74.75) rotate(150.2)"/><rect class="cls-1" x="250.61" y="27.18" width="0.19" height="0.88" transform="matrix(-1, 0, 0, -1, 501.29, 56.31)"/><rect class="cls-1" x="248.93" y="26.77" width="0.19" height="0.88" transform="matrix(-0.86, -0.5, 0.5, -0.86, 450.38, 176.22)"/><rect class="cls-1" x="247.67" y="25.57" width="0.19" height="0.88" transform="translate(347.99 254.09) rotate(-119.71)"/><rect class="cls-1" x="247.19" y="23.91" width="0.19" height="0.88" transform="translate(221.33 271.47) rotate(-89.63)"/><rect class="cls-1" x="247.6" y="22.22" width="0.19" height="0.88" transform="translate(102.84 224.86) rotate(-59.61)"/><rect class="cls-1" x="248.8" y="20.97" width="0.19" height="0.88" transform="translate(21.89 125.7) rotate(-29.59)"/><rect class="cls-1" x="250.62" y="24.03" width="2.32" height="0.41"/><rect class="cls-1" x="249.55" y="23.16" width="2.32" height="0.2" transform="translate(227.44 273.97) rotate(-90)"/><rect class="cls-5" x="256.64" y="20.25" width="10.97" height="0.43"/><rect class="cls-5" x="256.64" y="21.33" width="10.97" height="0.43"/><rect class="cls-5" x="256.64" y="22.42" width="10.97" height="0.43"/><rect class="cls-5" x="256.64" y="23.5" width="10.97" height="0.43"/><rect class="cls-5" x="256.64" y="24.59" width="10.97" height="0.43"/><rect class="cls-5" x="256.64" y="25.67" width="10.97" height="0.43"/><rect class="cls-5" x="256.64" y="26.75" width="10.97" height="0.43"/><rect class="cls-5" x="256.64" y="27.84" width="10.97" height="0.43"/><rect class="cls-3" x="120.72" y="4.77" width="104.73" height="56.44"/><rect class="cls-5" x="118.17" y="58.02" width="109.82" height="4.76"/><polygon class="cls-1" points="138.38 47.99 137.9 47.36 151.54 37.02 161.98 43.25 181.69 23.34 190.44 34.05 208.54 20.85 209 21.49 190.3 35.12 181.63 24.52 162.11 44.25 151.59 37.97 138.38 47.99"/><rect class="cls-1" x="137.34" y="11.96" width="0.79" height="40.65"/><rect class="cls-1" x="130.62" y="47.65" width="89.26" height="0.79"/><path class="cls-1" d="M211.09,20.78A1.82,1.82,0,1,1,209.27,19,1.83,1.83,0,0,1,211.09,20.78Z"/><path class="cls-1" d="M153.34,37.71a1.82,1.82,0,1,1-1.82-1.82A1.82,1.82,0,0,1,153.34,37.71Z"/><path class="cls-1" d="M163.84,43.4A1.82,1.82,0,1,1,162,41.58,1.83,1.83,0,0,1,163.84,43.4Z"/><path class="cls-1" d="M192,34.27a1.82,1.82,0,1,1-1.82-1.82A1.81,1.81,0,0,1,192,34.27Z"/><polygon class="cls-6" points="252.05 34.13 266.86 30.41 263.87 23.78 263.94 17.8 259.19 7.64 254.88 15.97 253.33 25.45 252.05 34.13"/><path class="cls-6" d="M236,38.83h-.39L224.87,24.6l-1.17-3.14a2.08,2.08,0,0,0-1.94-1.35H220l-.78.46-8.11-.46h0a1.6,1.6,0,0,0,1.54,1.61l4.13.15.12,3a2.78,2.78,0,0,0,1.74,2.48l2.77,1.13,1.1,1,10.36,17a1.25,1.25,0,0,0,1.47.53l3.88-1.35-1.67-6.82Z"/><rect class="cls-6" x="235.82" y="135.95" width="6.66" height="5.2" transform="translate(478.3 277.11) rotate(180)"/><path class="cls-7" d="M245.07,65.77l-9.25,41v30.7h6.66s5.52-21.3,2.71-30.15l11-25.54Z"/><polygon class="cls-8" points="244.22 137.42 244.22 145.2 222.43 145.2 222.43 142.49 228.67 141.24 233.32 135.9 234.29 135.9 235.82 138.4 242.48 138.6 243.45 137.42 244.22 137.42"/><rect class="cls-9" x="232.61" y="136.71" width="0.83" height="1.83" transform="translate(-27.4 211.24) rotate(-46.35)"/><rect class="cls-9" x="231.51" y="138.1" width="0.83" height="1.36" transform="translate(-34.99 181.26) rotate(-39.94)"/><polygon class="cls-9" points="230.97 140.43 231.55 139.83 230.68 139 230.1 139.6 230.97 140.43"/><rect class="cls-6" x="257.94" y="137.42" width="4.94" height="5.2" transform="translate(520.83 280.05) rotate(180)"/><polygon class="cls-10" points="244.33 69.04 247.5 69.24 256.22 81.73 251.59 92.45 249.04 80.37 243.52 72.62 244.33 69.04"/><path class="cls-7" d="M265.8,70.28l-.42,35.29c3.75,7.7-2.49,31.85-2.49,31.85h-5.42l-.73-28.48-6-28.57-8.23-11.55Z"/><polygon class="cls-8" points="250.32 145.08 258.96 145.08 263.93 142.77 263.58 138.6 262.89 139.64 261.64 139.71 260.11 137.42 255.95 137.42 250.32 145.08"/><polygon class="cls-9" points="263.93 142.77 263.93 144.36 259.35 146.93 250.32 146.93 250.32 145.08 258.96 145.08 263.93 142.77"/><rect class="cls-9" x="255.13" y="138.88" width="2.81" height="0.83"/><rect class="cls-9" x="254.53" y="140.34" width="2.81" height="0.83"/><rect class="cls-9" x="253.59" y="141.8" width="2.81" height="0.83"/><rect class="cls-9" x="222.43" y="145.08" width="21.79" height="1.85" transform="translate(466.64 292.01) rotate(180)"/><path class="cls-11" d="M253.33,25.45l-9.74,5.64a3.61,3.61,0,0,0-.51.36L235.82,38l1.46,9.35,18.37-10.92Z"/><polygon class="cls-11" points="270.68 35.57 266.86 71.31 240.61 71.31 247.58 29.58 253.33 25.45 256.55 31.06 263.87 23.78 270.68 35.57"/><g class="cls-12"><path class="cls-9" d="M244.44,117.13a2.24,2.24,0,0,0,.57-1.26c0-.25-.8-1.61-.72-1.71a.78.78,0,0,1,.59-.29c-.07-.31-.4-.47-.65-.66s-.44-.58-.2-.79.7-.15,1.05-.21a25.1,25.1,0,0,0-.46-2.54,5.18,5.18,0,0,0-.82-2.15c-.42-.56-1.16-.64-1.44-1.28a.28.28,0,0,1,0-.18c0-.15.22-.19.37-.2a14.55,14.55,0,0,0,1.87-.11c.35-.06,1.22-.57,1.37-.27s-.61,1.5-.74,1.79a25.74,25.74,0,0,1,.74,8.92c-.08,1.78-.24,3.55-.46,5.32a23.86,23.86,0,0,1-.74,4.94,4.41,4.41,0,0,0-.37-2.09,9.45,9.45,0,0,0-1.23-1.85,1.24,1.24,0,0,1-.21-.33,1.33,1.33,0,0,1,0-.34,5.09,5.09,0,0,1,.06-.87,20.62,20.62,0,0,0,2.13,1,5.66,5.66,0,0,0-.88-3c-.17-.2-.39-.41-.38-.68a.85.85,0,0,1,.09-.31A5.54,5.54,0,0,1,244.44,117.13Zm7-24.31c.24-.55-1.11-.06-1.18,0a2.69,2.69,0,0,0-.94,1.31,23,23,0,0,0-.55,2.49A6.72,6.72,0,0,1,247,99.75c.38,0,.61.48.51.86a2.65,2.65,0,0,1-.62,1c-.44.53-.62,1.51-1.09,1.94-.22.21-.57.21-.83.31.1.16,1.22,1.17,1.18,1.26S251.43,92.83,251.43,92.82Z"/></g><path class="cls-13" d="M267.56,64.76l-.14,1.32a.44.44,0,0,1-.09-.45A7,7,0,0,0,267.56,64.76Z"/><path class="cls-13" d="M267.68,49.37c.79-.2-.77-.85-1.34-1.51-.09-.21,1.72-.25,1.9-.37-.11-.79,0-1.51-.11-2.3-.41-.22-1.95-.39-1.55-.52,2-.66.36-9.26-.22-10.54a36.9,36.9,0,0,1,2.29,3.73,24.29,24.29,0,0,1,1.28,4.72l-.23,2.2-.29.06.26.23-.55,5.16c-.16,0,0,.48-.2.5.16.22,0,0,.12.22L267.75,63c-.89,5.1-1-3.29-.89-4.73.25-3,1.79-6.39-.28-6.87C266.11,51.33,267.24,49.42,267.68,49.37Z"/><polygon class="cls-6" points="277.56 47.36 278.08 53.31 272.77 78.3 273.4 81.52 272.77 85.79 271.24 87.14 269.13 87.77 266.86 88.6 265.9 88.6 263.87 87.77 265.18 86.1 265.7 83.45 264.86 84.86 263.28 85.27 265.28 80.37 268.55 76.98 270.68 55.34 269.86 47.36 277.56 47.36"/><polygon class="cls-10" points="277.71 49.03 270.03 49.03 269.86 47.36 277.56 47.36 277.71 49.03"/><path class="cls-11" d="M263.87,23.78l11.9,6.78A4.42,4.42,0,0,1,278,34.19l.61,13.17h-9.47l-.58-9Z"/><path class="cls-14" d="M30.39,73.46c10.1,6.26,7,20.89,6.82,31l-.45,33.45a.52.52,0,0,0,1,0l.54-40c.13-9.41,1.74-19.7-7.43-25.38-.57-.36-1.09.55-.52.9Z"/><path class="cls-14" d="M36,78.55a12.84,12.84,0,0,0-1.63-2.77,13.52,13.52,0,0,0-3.95-2.89l-.21.12a12.48,12.48,0,0,0-.82,6.77,7.52,7.52,0,0,0,3.88,5.4c1.52.73,3.32.83,4.74,1.74C38.42,84,37.25,81.18,36,78.55Z"/><path class="cls-14" d="M46.58,60.8c-10,4-7.87,19.21-8.28,27.79-.68,14.55-1,29.1-1,43.67a.52.52,0,0,0,1,0q-.1-18.16.63-36.33c.23-5.47.51-10.94.76-16.4.3-6.35,0-14.91,7.09-17.72.62-.25.35-1.26-.28-1Z"/><path class="cls-14" d="M39.71,78.31a.88.88,0,0,0-.05-.15,4.66,4.66,0,0,0-.4.77Z"/><path class="cls-14" d="M47.16,61.69a.71.71,0,0,0-.27-.36.67.67,0,0,0-.5,0,11,11,0,0,0-7,7,15.16,15.16,0,0,0,.23,9.86c1.25-2,3.79-3,5.56-4.59C48.37,70.67,48.85,65.62,47.16,61.69Z"/><path class="cls-15" d="M29.4,132.27H46.7a0,0,0,0,1,0,0V143.9a5.82,5.82,0,0,1-5.82,5.82H35.22a5.82,5.82,0,0,1-5.82-5.82V132.27A0,0,0,0,1,29.4,132.27Z"/><path class="cls-14" d="M38.5,111.55c-.15-4-.34-8.8,2.66-12,2.34-2.46,8.33-4.16,11.69-4.25a.52.52,0,0,0,0-1c-2.56.06-5.24,1.08-7.65,1.9a11.08,11.08,0,0,0-4.78,2.66c-3.22,3.37-3.13,8.37-3,12.7,0,.67,1.07.68,1,0Z"/><path class="cls-14" d="M54,93.87a.34.34,0,0,0-.26-.08l-3.78,0a13.65,13.65,0,0,0-3.26.29A10.17,10.17,0,0,0,41.47,98l-.39.06a30.52,30.52,0,0,0,6,1.66,6.31,6.31,0,0,0,5.62-1.92A7.74,7.74,0,0,0,54,94.14.31.31,0,0,0,54,93.87Z"/><path class="cls-16" d="M34.89,132.25H29.4v11.83a5.53,5.53,0,0,0,2.5,4.64s0,0,0-.05l4-15.08A1.07,1.07,0,0,0,34.89,132.25Z"/><path class="cls-16" d="M37.14,109.43l-.09,7.2a20.82,20.82,0,0,0,1.42-1.83c0-1.8.07-3.59.11-5.39A11.53,11.53,0,0,0,37.14,109.43Z"/><path class="cls-7" d="M26.12,102a11.21,11.21,0,0,0-.89-4.38,23.9,23.9,0,0,0-4.61,20.92l1.4,1.3a14.52,14.52,0,0,0,4-8.39A43.26,43.26,0,0,0,26.12,102Z"/><path class="cls-7" d="M38.82,110.08a.68.68,0,0,0-.4-.19,10.62,10.62,0,0,0-13,10.37l.94,1.13c2,.54,4.05-.47,5.7-1.7a20.19,20.19,0,0,0,6.71-8.85C38.92,110.59,39,110.28,38.82,110.08Z"/><path class="cls-7" d="M8.07,109.9c-2.1-1.71-4.55-3.38-7.26-3.21a.84.84,0,0,0-.75.33c-.3.57.65,1,.83,1.6a2.15,2.15,0,0,1-.14,1.08,3.59,3.59,0,0,0,.33,2A15.51,15.51,0,0,0,17.19,121l.83-1.29A72.64,72.64,0,0,0,8.07,109.9Z"/><path class="cls-7" d="M15.84,120.1c4.72,4.49,5.33,11.14,4.51,17.29-.17,1.33,1.93,1.32,2.11,0,.88-6.7,0-13.93-5.14-18.78-1-.93-2.47.55-1.48,1.49Z"/><path class="cls-7" d="M20.45,118c1,5.9-.27,11.87.36,17.8.14,1.33,2.24,1.35,2.1,0-.65-6.13.6-12.25-.43-18.36-.23-1.33-2.25-.77-2,.56Z"/><path class="cls-7" d="M26.61,117.55A29.64,29.64,0,0,0,22.32,126c-.88,3.31-.63,7-.79,10.44-.06,1.35,2,1.35,2.11,0,.14-3.21-.09-6.76.7-9.88a27.61,27.61,0,0,1,4.09-8c.75-1.13-1.07-2.18-1.82-1.06Z"/><path class="cls-15" d="M29,149.72H17.25a1.05,1.05,0,0,1-1-.79l-4-15.08a1.06,1.06,0,0,1,1-1.34H33a1.06,1.06,0,0,1,1,1.34l-4,15.08A1.06,1.06,0,0,1,29,149.72Z"/><path class="cls-17" d="M24.7,99.85c-1.56,5.89-1.58,12-3,18-.05.19.25.27.29.08,1.43-5.91,1.44-12.06,3-17.95a.15.15,0,0,0-.29-.08Z"/><path class="cls-17" d="M26.63,119.57a20.1,20.1,0,0,1,10.42-8.24c.18-.06.1-.36-.08-.29a20.37,20.37,0,0,0-10.6,8.38c-.11.17.16.32.26.15Z"/><path class="cls-17" d="M1.51,108.57a12.2,12.2,0,0,0,4.69,5.49c3,2.1,6.85,3.13,9.6,5.49.17.15.43-.1.25-.25-1.91-1.64-4.34-2.32-6.51-3.55-3.11-1.78-6.31-3.82-7.69-7.28-.08-.21-.43-.12-.34.1Z"/><polygon class="cls-15" points="108.44 93.54 98.51 149.72 100.23 149.72 114.32 93.14 108.44 93.54"/><polygon class="cls-15" points="264.4 93.54 274.33 149.72 272.6 149.72 258.52 93.14 264.4 93.54"/><rect class="cls-11" x="87.84" y="96.71" width="197.24" height="2.67"/><polygon class="cls-8" points="87.84 96.71 98.78 90.91 289.03 90.91 285.13 96.71 87.84 96.71"/><polygon class="cls-11" points="285.08 99.38 289.03 93.81 289.03 90.91 285.13 96.71 285.08 99.38"/><rect class="cls-15" x="119.34" y="91.56" width="14.27" height="1.87"/><path class="cls-15" d="M158,93.43H128.62l6.92-17.92a1.13,1.13,0,0,1,1-.72h27a1.12,1.12,0,0,1,1,1.52Z"/><path class="cls-18" d="M148.73,84.11a1.83,1.83,0,1,1-1.83-1.83A1.83,1.83,0,0,1,148.73,84.11Z"/><path class="cls-14" d="M109.38,90H108.1a2.12,2.12,0,0,1,0-4.24h.82v.9h-.82a1.22,1.22,0,1,0,0,2.44h1.28Z"/><path class="cls-14" d="M116.35,85h-7.82v2.38A6.77,6.77,0,0,0,110.31,92h0v1.18h4.26V92h0a6.77,6.77,0,0,0,1.78-4.56Z"/><path class="cls-19" d="M114.74,85v2.38A6.72,6.72,0,0,1,113,92h0v1.18h.92V92h0a6.72,6.72,0,0,0,1.78-4.56V85Z"/><polygon class="cls-20" points="235.38 94.89 237.19 94.89 235.38 87.18 228.71 94.89 235.38 94.89"/><polygon class="cls-21" points="233.35 94.89 222.97 94.89 227.4 80.53 237.78 80.53 233.35 94.89"/><polygon class="cls-15" points="232.24 94.89 221.86 94.89 226.29 80.53 236.67 80.53 232.24 94.89"/><polygon class="cls-14" points="231.46 93.01 223.8 93.01 227.07 82.42 234.73 82.42 231.46 93.01"/><polygon class="cls-8" points="224.35 92.73 227.54 82.42 227.07 82.42 223.8 93.01 231.46 93.01 231.55 92.73 224.35 92.73"/><path class="cls-9" d="M256.77,93.25h0a.33.33,0,0,1-.47-.13L245.36,73.66a.35.35,0,0,1,.14-.47h0a.33.33,0,0,1,.47.13L256.9,92.78A.35.35,0,0,1,256.77,93.25Z"/><rect class="cls-22" x="254.35" y="93.09" width="29.44" height="2.33" rx="0.89"/><path class="cls-9" d="M283.79,94.17a1.06,1.06,0,0,0-.27-.69,1.08,1.08,0,0,1-1.08,1.08H255.17a1.08,1.08,0,0,1-.82-.39h0v.16a1.07,1.07,0,0,0,1.08,1.08H282.7a1.08,1.08,0,0,0,1.09-1.08Z"/><rect class="cls-23" x="274.02" y="93.71" width="2.14" height="0.82"/><rect class="cls-23" x="276.56" y="93.71" width="2.14" height="0.82"/><rect class="cls-23" x="258.56" y="93.72" width="2.14" height="0.82"/><rect class="cls-6" x="54.72" y="134.87" width="6.65" height="6.87" transform="translate(53.65 288.23) rotate(-155.55)"/><polygon class="cls-15" points="83.18 99.58 76.9 115.02 61.99 138.9 54.72 135.62 69.69 107.47 71.11 73.15 83.18 99.58"/><polygon class="cls-9" points="61.93 138.69 62.43 138.92 64.81 144.68 66.12 146.7 70.25 147.83 70.24 149.52 65.38 149.61 50.39 143.3 50.08 141.27 52.14 136.6 53.45 136.37 54.47 136.81 55.79 140.23 60.5 142.24 61.93 138.69"/><polygon class="cls-14" points="50.08 141.26 52.14 136.6 53.45 136.37 54.47 136.81 55.79 140.23 60.5 142.24 61.93 138.69 62.43 138.92 64.81 144.68 66.12 146.7 70.25 147.83 70.25 148.26 66.67 148.26 50.08 141.26"/><rect class="cls-6" x="77.52" y="139.17" width="6.21" height="6.41" transform="translate(161.24 284.76) rotate(180)"/><polygon class="cls-9" points="84.58 141.45 85.1 141.45 89.3 145.47 95.96 148 95.96 149.72 76.48 149.72 75.45 148.11 75.45 143.34 76.48 142.65 77.52 142.65 79.93 145.07 84.7 145.01 84.58 141.45"/><polygon class="cls-14" points="77.52 142.65 79.93 145.07 84.7 145.01 84.58 141.45 85.1 141.45 89.3 145.47 95.85 147.95 75.45 147.95 75.45 143.34 76.48 142.65 77.52 142.65"/><path class="cls-24" d="M115.87,49.38c-.86-1.55-1.88-3-2.59-4.65C111.69,41.08,111.81,37,112,33l-.54-1.5a11.06,11.06,0,0,0-5.18,0,5.27,5.27,0,0,0-1.93.57,5.24,5.24,0,0,0-1.59,1.81,16.26,16.26,0,0,0-1.54,2.8c-1,2.53,0,5-.35,7.54a76.57,76.57,0,0,1-1.89,8.13,22.6,22.6,0,0,0-.66,3.73,11.56,11.56,0,0,0,2.29,7.51,29.07,29.07,0,0,0,2.52,2.57,1.39,1.39,0,0,0,2.29-.58c.75-2.29,2.15-4.58,3.81-5-.24-1.63.88-2.86,1.66-4.17A10.15,10.15,0,0,0,112,51.15c1.72,0,4.2,2.19,5.46,3.27A10.52,10.52,0,0,0,115.87,49.38Z"/><path class="cls-25" d="M70.51,87.58c.07.2.15.39.21.59l5.18,20.67v7.78l1-1.6,6.28-15.45L71.11,73.15Z"/><path class="cls-15" d="M69.16,67.4l-2.07,5.26c0,6.12,3.06,9.7,5,15.51l5.18,20.67v33.07h7.29l2.76-33.51-.45-33.5Z"/><path class="cls-6" d="M111.15,78.2a2.57,2.57,0,0,1,1.63,1.17l1.92,4.78-1.24-.44-1.78-.42-.07.6,1.37.77a1.31,1.31,0,0,1,.6,1.56l-.08.25-3-1.43c-1.47-.18-2.24-1.78-3.22-2.61L105.34,81l-.4-.49-4-8.88a8.88,8.88,0,0,1-.93-2.8l-2.15-9.45,6.59-6.62.71,15.54a6,6,0,0,0,.11.72l2.61,8.43"/><path class="cls-14" d="M101.68,38.49,93.89,48,98.1,59.13c2.63.69,6.7-6.54,6.7-6.54Z"/><path class="cls-6" d="M108.17,38.82s-4.84,2.36-5.51,4.39l-2.14-7.65,6.75-4.62Z"/><path class="cls-14" d="M96.75,33.81l0,0A58.63,58.63,0,0,0,78.37,50.75L66.71,67.4C65.19,79,78.24,84.24,88,80.9l3.92-13.11a7.93,7.93,0,0,1,3.44-4.49L97.5,62a10.08,10.08,0,0,0,3.87-4.31A21.49,21.49,0,0,0,103,45.32l-.34-2.11-2.14-11Z"/><path class="cls-25" d="M94,44.68c-2.32.1-3.42,1.85-3.42,4.17l-.72,18.67a3.68,3.68,0,0,0,0,.58l.75,3.81,1.23-4.12a7.93,7.93,0,0,1,3.44-4.49l.43-.27,2.73-13.36A4.33,4.33,0,0,0,94,44.68Z"/><path class="cls-6" d="M90.62,46.89V66.3a3.08,3.08,0,0,0,.06.61l6.5,18a3.91,3.91,0,0,1-.25,2.34l-1.87,4.27-.42,1.19a.86.86,0,0,0,.89,1.14l5-.4a1.21,1.21,0,0,0,1.11-1l.93-4.87L95.88,66.09l3.8-18.52A4.56,4.56,0,0,0,95,42.33h0A4.56,4.56,0,0,0,90.62,46.89Z"/><path class="cls-14" d="M95,41.88c-2.44.11-4.39,1.12-4.39,3.56L89.42,59.32s7.83,3.69,9.26.84l1.84-13.62C101,43.7,97.84,41.75,95,41.88Z"/><polygon class="cls-6" points="101.93 85.99 104.96 93.13 102.91 93.15 100.81 89.18 101.93 85.99"/><path class="cls-6" d="M106.58,28.89c1.94-1.57,6.9-2.48,8.74-.14,1,1.34.69,3.24-.09,5.06a5.41,5.41,0,0,0-.34,3.16c0,.21-1.5.09-1.61.26-.36.56-.35.5-.63.89a5.17,5.17,0,0,1-2.36,2,3.71,3.71,0,0,1-3.73-1.26,9,9,0,0,1-1.75-3.73,8,8,0,0,1-.34-1.67A5.58,5.58,0,0,1,106.58,28.89Z"/><path class="cls-24" d="M109,31.75c-1.25.84-1.52,2.58-2.56,3.66a5.82,5.82,0,0,1-4.25,1.33,6.63,6.63,0,0,1-4-1,4.81,4.81,0,0,1-1.8-3.35,8.72,8.72,0,0,1,.55-3.84A14.58,14.58,0,0,1,100,23.37a6.4,6.4,0,0,1,2.45-1.77,8.09,8.09,0,0,1,3.73-.14,20,20,0,0,1,6.38,1.45,9.2,9.2,0,0,1,2.75,1.88l1.19,1.41a8.11,8.11,0,0,1,.51.65,3.15,3.15,0,0,1,.59,1.67,2.16,2.16,0,0,1-.62,1.62,2.89,2.89,0,0,1-1.21.61,16.86,16.86,0,0,1-3.25.46C111.35,31.29,110.08,31,109,31.75Z"/><polygon class="cls-26" points="135.44 25.34 122.78 24.92 123.19 11.87 135.03 11.46 135.44 25.34"/><rect class="cls-8" x="122.78" y="11.46" width="12.25" height="13.47"/><path class="cls-1" d="M129.18,12.35a3.17,3.17,0,1,0,3.16,3.16h-3.16Z"/><rect class="cls-1" x="124.85" y="19.37" width="8.65" height="0.83"/><rect class="cls-1" x="124.85" y="21.04" width="8.65" height="0.83"/><rect class="cls-1" x="124.85" y="22.71" width="5.52" height="0.83"/><polygon class="cls-26" points="135.24 41.65 122.57 41.23 122.98 28.18 134.82 27.76 135.24 41.65"/><rect class="cls-8" x="122.57" y="27.76" width="12.25" height="13.47"/><rect class="cls-1" x="123.32" y="39.01" width="11.15" height="0.83"/><rect class="cls-1" x="123.77" y="35.67" width="1.48" height="2.8"/><rect class="cls-1" x="125.95" y="33.33" width="1.48" height="5.14"/><rect class="cls-1" x="128.13" y="30.1" width="1.48" height="8.37"/><rect class="cls-1" x="130.31" y="32.18" width="1.48" height="6.29"/><rect class="cls-1" x="132.48" y="30.1" width="1.48" height="8.37"/><path class="cls-15" d="M186.77,96.34c-1.13,0-1.24-.44-.24-1l5.89-3.13a9.91,9.91,0,0,1,3.89-1h15.43c1.13,0,1.24.43.24,1L206,95.38a9.86,9.86,0,0,1-3.88,1Z"/><path class="cls-27" d="M189.36,95.81c-.9,0-1-.34-.19-.76l4.91-2.64a7.86,7.86,0,0,1,3.08-.77h12.23c.9,0,1,.35.19.77l-5,2.64a7.85,7.85,0,0,1-3.08.76Z"/><path class="cls-21" d="M190.44,93.94a.15.15,0,0,1-.12-.07.15.15,0,0,1,.06-.18l1.54-.81a.13.13,0,1,1,.12.22l-1.54.82Z"/><path class="cls-28" d="M282.58,104l.5.11.57.2.72.35.82.52c.27.21.54.46.84.72a11,11,0,0,1,1.65,1.93,18.35,18.35,0,0,1,1.47,2.52,28.1,28.1,0,0,1,1.13,2.94,27.63,27.63,0,0,1,.85,3.22c.21,1.11.49,2.24.59,3.37s.32,2.26.38,3.38.12,2.22.18,3.28,0,2.09,0,3.07,0,1.9,0,2.75L292,138l-2.92-.22.75-5.56c.08-.84.15-1.75.24-2.71s.2-2,.22-3,.06-2.13.08-3.23-.06-2.21-.09-3.33-.19-2.23-.31-3.33a27.42,27.42,0,0,0-1.45-6.12,16,16,0,0,0-1.23-2.52,10.26,10.26,0,0,0-1.45-2c-.27-.26-.51-.52-.77-.74l-.75-.55-.68-.38-.55-.23Z"/><path class="cls-28" d="M289.31,134.73s-.29-1.36-.82-3.42-1.3-4.77-2.24-7.45c-.47-1.35-1-2.68-1.52-3.91-.29-.61-.55-1.21-.84-1.77s-.55-1.08-.86-1.54-.55-.9-.86-1.25-.54-.67-.79-.91l-.84-.69.94.63c.28.22.56.52.91.85a14.74,14.74,0,0,1,1,1.2c.38.44.69,1,1.08,1.49s.7,1.12,1.08,1.71c.7,1.21,1.41,2.51,2.06,3.83a111.49,111.49,0,0,1,4.53,10.72Z"/><path class="cls-28" d="M290.32,135.61s.13-1,.44-2.43a33.15,33.15,0,0,1,1.52-5.21,18.4,18.4,0,0,1,1.29-2.68,12.58,12.58,0,0,1,.79-1.17,6.82,6.82,0,0,1,.87-1,4.19,4.19,0,0,1,.9-.71,3.17,3.17,0,0,1,.8-.43l.78-.26-.69.36a2.9,2.9,0,0,0-.65.52,3,3,0,0,0-.66.78,5.14,5.14,0,0,0-.58,1,9.06,9.06,0,0,0-.46,1.18,16.21,16.21,0,0,0-.58,2.67,32,32,0,0,0-.23,5.08c.05,1.41.16,2.29.16,2.29Z"/><path class="cls-29" d="M282.24,133.61l2.29,14a2.56,2.56,0,0,0,2.52,2.14h7.71a2.56,2.56,0,0,0,2.52-2.14l2.29-14Z"/><polygon class="cls-30" points="282.24 133.61 299.57 133.61 297.74 144.76 282.73 136.57 282.24 133.61"/><rect class="cls-29" x="280.09" y="129.89" width="21.64" height="3.99" rx="0.31"/><rect class="cls-31" x="201.27" y="106.15" width="17.63" height="7.06"/><rect class="cls-31" x="191.61" y="114.41" width="17.63" height="7.06"/><rect class="cls-31" x="181.82" y="106.15" width="17.63" height="7.06"/><path class="cls-6" d="M248.93,10.32a14.35,14.35,0,0,1,1.5-4.87l.29.14a6.93,6.93,0,0,1,6.54-1.51,9.3,9.3,0,0,1,5.36,4.26,11.14,11.14,0,0,1,.83,9.6,10.86,10.86,0,0,1-7.13,6.47,4.36,4.36,0,0,1-3.82-.4,5.31,5.31,0,0,1-1-1.23,10.31,10.31,0,0,1-1.8-3.69,22.25,22.25,0,0,1-.13-3.27C249.45,14,248.83,12.17,248.93,10.32Z"/><path class="cls-32" d="M252.2,3.2A22.6,22.6,0,0,1,255,1.14a10.84,10.84,0,0,1,2.57-.88c2.24-.51,3.74-.37,5.45,1.3a7.13,7.13,0,0,1,2.2,4.8,5,5,0,0,0,.12,1.22,4.7,4.7,0,0,0,.76,1.22,8.16,8.16,0,0,1,.95,7.54A5.49,5.49,0,0,1,265,19.27c-.84.48-3,.84-3.4,1.84a10.34,10.34,0,0,0,.71-4.83,2.58,2.58,0,0,0-.35-1.22,1.06,1.06,0,0,0-1.09-.49,2.2,2.2,0,0,0-.76.49,2.58,2.58,0,0,1-1.53.53,1.12,1.12,0,0,1-.62-.15,1.23,1.23,0,0,1-.4-.75,8.83,8.83,0,0,1,.65-4.3c.38-1.11.46-2.56-1-2.47-1.33.09-2.68.9-4.1,1A11.9,11.9,0,0,1,245,6.36,16.87,16.87,0,0,0,252.2,3.2Z"/></g></g></g></svg>