<svg xmlns="http://www.w3.org/2000/svg" xmlns:xlink="http://www.w3.org/1999/xlink" viewBox="0 0 283.24 195.03"><defs><style>.cls-1{fill:#fec55e;}.cls-2{fill:#ff5722;}.cls-3{fill:#536dfe;}.cls-4{fill:#4d5068;}.cls-5{fill:#3e52bf;}.cls-6{fill:#ffcebd;}.cls-7{fill:#5c74fe;}.cls-8{fill:#ededed;}.cls-9{fill:#564735;}.cls-10{fill:#5361f0;}.cls-11{fill:#5f6177;}.cls-12{fill:#717386;}.cls-13{fill:#272834;}.cls-14{fill:#3a3c4e;}.cls-15{fill:url(#linear-gradient);}.cls-16{fill:#f5f7f9;}.cls-17{fill:#e6e7e8;}.cls-18{fill:#ffbca7;}.cls-19{fill:#f0f1fe;}.cls-20{fill:url(#linear-gradient-2);}.cls-21{fill:#f2f3f7;}.cls-22{fill:url(#linear-gradient-3);}</style><linearGradient id="linear-gradient" x1="172.94" y1="117.32" x2="184.84" y2="117.32" gradientUnits="userSpaceOnUse"><stop offset="0" stop-color="#e92327"/><stop offset="0.09" stop-color="#eb2928"/><stop offset="0.69" stop-color="#f94f2f"/><stop offset="1" stop-color="#fe5e31"/></linearGradient><linearGradient id="linear-gradient-2" x1="143.4" y1="25.04" x2="207.49" y2="25.04" xlink:href="#linear-gradient"/><linearGradient id="linear-gradient-3" x1="203.27" y1="30.91" x2="265.84" y2="30.91" xlink:href="#linear-gradient"/></defs><title>octa_webAsset 11@</title><g id="Layer_2" data-name="Layer 2"><g id="Graphics"><g id="Layer_6" data-name="Layer 6"><path class="cls-1" d="M38.9,103.68c12.11,7.5,8.34,25,8.18,37.14l-.54,40.08a.63.63,0,0,0,1.25,0q.33-24,.65-47.9c.15-11.27,2.08-23.6-8.91-30.4-.68-.42-1.31.66-.63,1.08Z"/><path class="cls-1" d="M45.63,109.78a15.19,15.19,0,0,0-2-3.32A16.22,16.22,0,0,0,39,103l-.26.14a15.06,15.06,0,0,0-1,8.11,9,9,0,0,0,4.66,6.47c1.82.88,4,1,5.68,2.09C48.52,116.35,47.12,112.93,45.63,109.78Z"/><path class="cls-1" d="M58.31,88.52c-12,4.77-9.44,23-9.92,33.28-.83,17.43-1.27,34.86-1.16,52.31a.63.63,0,0,0,1.25,0q-.13-21.77.76-43.51c.27-6.55.6-13.1.91-19.65.36-7.61,0-17.86,8.49-21.23.74-.29.42-1.5-.33-1.2Z"/><path class="cls-1" d="M50.08,109.49a1.27,1.27,0,0,1-.06-.18,5.06,5.06,0,0,0-.49.92Z"/><path class="cls-1" d="M59,89.58a.82.82,0,0,0-.32-.43.83.83,0,0,0-.6,0,13.13,13.13,0,0,0-8.33,8.34A18.06,18.06,0,0,0,50,109.31c1.49-2.36,4.53-3.54,6.65-5.49C60.45,100.34,61,94.29,59,89.58Z"/><path class="cls-2" d="M37.72,174.13H58.44a0,0,0,0,1,0,0v15.08A5.82,5.82,0,0,1,52.62,195H43.54a5.82,5.82,0,0,1-5.82-5.82V174.13A0,0,0,0,1,37.72,174.13Z"/><path class="cls-1" d="M48.63,149.31c-.19-4.83-.41-10.55,3.18-14.33,2.8-3,10-5,14-5.1a.63.63,0,0,0,0-1.25c-3.07.08-6.27,1.3-9.16,2.28a13.41,13.41,0,0,0-5.73,3.18c-3.85,4-3.75,10-3.54,15.22,0,.8,1.28.81,1.25,0Z"/><path class="cls-1" d="M67.16,128.13a.36.36,0,0,0-.3-.09l-4.54,0a15.92,15.92,0,0,0-3.9.35,12.21,12.21,0,0,0-6.24,4.64l-.47.07a36,36,0,0,0,7.14,2c2.46.26,5.19-.37,6.73-2.3a9.43,9.43,0,0,0,1.62-4.39A.36.36,0,0,0,67.16,128.13Z"/><path class="cls-3" d="M33.81,133.21a14.51,14.51,0,0,0-1.15-5.67,30.87,30.87,0,0,0-6,27.09l1.8,1.67a18.74,18.74,0,0,0,5.21-10.85A55.64,55.64,0,0,0,33.81,133.21Z"/><path class="cls-3" d="M50.25,143.72a.91.91,0,0,0-.53-.25A13.75,13.75,0,0,0,33,156.9l1.22,1.47c2.56.7,5.24-.61,7.37-2.2a26.16,26.16,0,0,0,8.69-11.47C50.37,144.38,50.48,144,50.25,143.72Z"/><path class="cls-3" d="M10.45,143.5c-2.73-2.22-5.9-4.38-9.41-4.17a1.11,1.11,0,0,0-1,.44c-.38.72.85,1.27,1.09,2.06a3,3,0,0,1-.19,1.4,4.59,4.59,0,0,0,.43,2.56,20.08,20.08,0,0,0,20.86,12.07l1.06-1.68A94.62,94.62,0,0,0,10.45,143.5Z"/><path class="cls-3" d="M20.58,156.61c6.13,5.83,6.93,14.48,5.87,22.46-.21,1.59,2.3,1.57,2.5,0,1.15-8.64,0-18-6.61-24.23-1.16-1.1-2.93.66-1.76,1.77Z"/><path class="cls-3" d="M26.58,153.9c1.29,7.66-.36,15.39.46,23.08.17,1.58,2.67,1.6,2.5,0-.84-7.92.78-15.85-.55-23.74-.27-1.59-2.68-.91-2.41.66Z"/><path class="cls-3" d="M34.54,153.45c-2.24,3.36-4.5,7-5.55,11-1.13,4.28-.81,9.09-1,13.48-.08,1.61,2.42,1.61,2.5,0,.18-4.16-.12-8.77.91-12.81.94-3.69,3.2-7.22,5.3-10.37.9-1.35-1.27-2.6-2.16-1.26Z"/><path class="cls-4" d="M37.51,195H22.32A1.38,1.38,0,0,1,21,194l-5.17-19.52a1.38,1.38,0,0,1,1.33-1.73H42.68A1.37,1.37,0,0,1,44,174.49L38.84,194A1.37,1.37,0,0,1,37.51,195Z"/><path class="cls-5" d="M32,130.48c-2,7.63-2,15.58-3.88,23.24a.2.2,0,0,0,.38.1c1.84-7.66,1.86-15.61,3.88-23.23a.2.2,0,0,0-.38-.11Z"/><path class="cls-5" d="M34.47,156A26.06,26.06,0,0,1,48,145.34c.23-.08.13-.46-.11-.38a26.46,26.46,0,0,0-13.72,10.85c-.13.22.21.41.34.2Z"/><path class="cls-5" d="M2,141.76A15.77,15.77,0,0,0,8,148.87c3.88,2.72,8.87,4.06,12.43,7.11.22.19.55-.13.33-.33-2.48-2.12-5.63-3-8.43-4.59-4-2.3-8.17-4.95-9.95-9.42-.11-.27-.56-.15-.45.12Z"/><rect class="cls-6" x="168.78" y="174.77" width="6.07" height="10.18" transform="translate(-76.9 176.89) rotate(-45.63)"/><rect class="cls-6" x="134.33" y="175.64" width="6.07" height="10.18" transform="translate(59.07 -32.35) rotate(17.06)"/><polygon class="cls-4" points="102.56 151.9 97 191.65 98.96 191.7 109.34 150.66 102.68 150.66 102.56 151.9"/><polygon class="cls-4" points="143.73 151.9 149.3 191.65 147.34 191.7 136.96 150.66 143.62 150.66 143.73 151.9"/><path class="cls-1" d="M102.74,146H143.5a4.79,4.79,0,0,1,4.79,4.79v1.07a0,0,0,0,1,0,0H97.95a0,0,0,0,1,0,0v-1.07A4.79,4.79,0,0,1,102.74,146Z"/><polygon class="cls-3" points="100.03 136.63 137.73 153.99 170.07 183.1 176.12 177.09 148.29 146.04 120.27 126.12 100.03 136.63"/><path class="cls-7" d="M97.77,128.13v7.1a11.13,11.13,0,0,0,11.13,11.13H144c-6.31,7.62-9.92,32.21-9.92,32.21l7.91,2.16L156,145a10.09,10.09,0,0,0-9.43-13.68H121.43l.18-3.16Z"/><path class="cls-8" d="M112.83,94.07l6.56,1.24a13,13,0,0,1,9.26,7L134,113.25l-5.37,12.08-.55,5.43s-26,11.54-32.43,6.31l-.29-27.76,9.83-14.38Z"/><path class="cls-6" d="M103.72,86s2.08,9.34,1.64,14.78H113s-.79-9.28.79-10.8Z"/><path class="cls-6" d="M117.11,78.32a14.35,14.35,0,0,0-1.5-4.87l-.29.14a6.93,6.93,0,0,0-6.54-1.51,9.27,9.27,0,0,0-5.36,4.26,11.11,11.11,0,0,0-.83,9.6,10.86,10.86,0,0,0,7.13,6.47,4.34,4.34,0,0,0,3.81-.4,5.61,5.61,0,0,0,1-1.23,10.31,10.31,0,0,0,1.8-3.69,25.4,25.4,0,0,0,.13-3.27C116.59,82,117.21,80.17,117.11,78.32Z"/><path class="cls-9" d="M113.84,71.2A22.6,22.6,0,0,0,111,69.14a11,11,0,0,0-2.57-.88c-2.24-.51-3.75-.37-5.46,1.3a7.17,7.17,0,0,0-2.2,4.8,2.85,2.85,0,0,1-.88,2.44A8.19,8.19,0,0,0,99,84.34,5.49,5.49,0,0,0,101,87.27c.83.48,3,.84,3.4,1.84a10.21,10.21,0,0,1-.71-4.83,2.58,2.58,0,0,1,.35-1.22,1.06,1.06,0,0,1,1.09-.49,2.3,2.3,0,0,1,.76.49,2.55,2.55,0,0,0,1.53.53,1.07,1.07,0,0,0,.61-.15,1.12,1.12,0,0,0,.4-.75,8.71,8.71,0,0,0-.64-4.3c-.39-1.11-.46-2.56,1-2.47,1.32.09,2.68.9,4.1,1A11.91,11.91,0,0,0,121,74.36,16.87,16.87,0,0,1,113.84,71.2Z"/><polygon class="cls-10" points="110.61 100.81 112.83 93.54 114.14 93.79 115.52 105.45 110.61 100.81"/><path class="cls-6" d="M105.09,94.07l-7,1.32a10.34,10.34,0,0,0-7.62,6.16l-7.79,18.53a4,4,0,0,0,3.67,5.53l27.86-1.4,1.28-3.94-3.06,1L95,119.83a1.84,1.84,0,0,1-1.34-2.91l11.68-16.11S107.45,95.05,105.09,94.07Z"/><path class="cls-8" d="M105.09,94.07l-7,1.32a10.34,10.34,0,0,0-7.62,6.16L85.11,113c4.21-.44,8.57,3.93,11.57,1.57l8.68-13.75S107.45,95.05,105.09,94.07Z"/><polygon class="cls-10" points="105.03 93.62 110.61 100.81 106.67 105.98 103.09 94.07 105.03 93.62"/><path class="cls-4" d="M131.87,182.9l-1.94,4.92v3.88h23.81v-1.07a2.09,2.09,0,0,0-1.6-2l-3.84-.91-8-4.79h-1.42l-.65,1.43h-4.14l-.38-1.43Z"/><path class="cls-8" d="M129.93,189.63v2.07h23.81v-1.07a2.13,2.13,0,0,0-.26-1Z"/><path class="cls-4" d="M171.33,184.83l2.78,4.5,3.11,2.32,14.23-19.08-.86-.64A2.07,2.07,0,0,0,188,172l-3,2.53-8.63,3.56-.85,1.14.75,1.37-2.47,3.32-1.38-.54Z"/><path class="cls-8" d="M175.56,190.41l1.66,1.24,14.23-19.08-.86-.64a2,2,0,0,0-1-.4Z"/><polygon class="cls-4" points="79.88 127.93 68.02 195.03 70.08 195.03 86.91 128.68 79.88 127.93"/><polygon class="cls-4" points="191.25 127.93 203.11 195.03 201.05 195.03 184.22 128.68 191.25 127.93"/><rect class="cls-11" x="59.54" y="124.94" width="148.41" height="4.77" rx="1.29"/><rect class="cls-4" x="94.75" y="123.1" width="17.04" height="2.24"/><path class="cls-4" d="M140.92,125.33H105.83l8.27-21.41a1.35,1.35,0,0,1,1.25-.85h32.22a1.34,1.34,0,0,1,1.25,1.82Z"/><path class="cls-12" d="M129.86,114.2a2.19,2.19,0,1,1-2.19-2.19A2.19,2.19,0,0,1,129.86,114.2Z"/><path class="cls-2" d="M152,120.11h-1.85a3,3,0,1,1,0-6.09h1.19v1.29h-1.19a1.76,1.76,0,0,0,0,3.51H152Z"/><path class="cls-2" d="M162,113H150.8v3.42a9.72,9.72,0,0,0,2.56,6.56h0v1.7h6.12V123h0a9.67,9.67,0,0,0,2.56-6.56Z"/><path class="cls-8" d="M159.73,113v3.42a9.67,9.67,0,0,1-2.56,6.56h0v1.7h1.32V123h0a9.67,9.67,0,0,0,2.56-6.56V113Z"/><polygon class="cls-13" points="185.55 125.14 187.52 125.14 185.55 116.73 178.29 125.14 185.55 125.14"/><polygon class="cls-14" points="183.34 125.14 172.03 125.14 176.86 109.5 188.16 109.5 183.34 125.14"/><polygon class="cls-4" points="182.13 125.14 170.83 125.14 175.65 109.5 186.96 109.5 182.13 125.14"/><polygon class="cls-15" points="181.28 123.08 172.94 123.08 176.5 111.55 184.84 111.55 181.28 123.08"/><polygon class="cls-8" points="173.54 122.78 177.01 111.55 176.5 111.55 172.94 123.08 181.28 123.08 181.37 122.78 173.54 122.78"/><rect class="cls-8" x="123.62" y="46.07" width="71.64" height="34.57" rx="2.66"/><rect class="cls-16" x="129.9" y="53.36" width="2.29" height="23.27"/><rect class="cls-16" x="133.98" y="53.36" width="2.29" height="23.27"/><rect class="cls-17" x="138.07" y="53.36" width="2.29" height="23.27"/><rect class="cls-16" x="142.16" y="53.36" width="2.29" height="23.27"/><rect class="cls-16" x="146.24" y="53.36" width="2.29" height="23.27"/><rect class="cls-16" x="150.33" y="53.36" width="2.29" height="23.27"/><rect class="cls-16" x="154.42" y="53.36" width="2.29" height="23.27"/><rect class="cls-16" x="158.5" y="53.36" width="2.29" height="23.27"/><rect class="cls-16" x="162.59" y="53.36" width="2.29" height="23.27"/><rect class="cls-16" x="166.68" y="53.36" width="2.29" height="23.27"/><rect class="cls-16" x="170.76" y="53.36" width="2.29" height="23.27"/><rect class="cls-3" x="129.9" y="70.81" width="2.29" height="5.82"/><rect class="cls-3" x="133.98" y="64.99" width="2.29" height="11.63"/><rect class="cls-3" x="138.07" y="64.99" width="2.29" height="11.63"/><rect class="cls-3" x="142.16" y="57.6" width="2.29" height="19.02"/><rect class="cls-3" x="146.24" y="61.5" width="2.29" height="15.13"/><rect class="cls-3" x="150.33" y="71.35" width="2.29" height="5.27"/><rect class="cls-3" x="154.42" y="61.5" width="2.29" height="15.13"/><rect class="cls-3" x="158.5" y="69.63" width="2.29" height="6.99"/><rect class="cls-3" x="162.59" y="64.99" width="2.29" height="11.63"/><rect class="cls-3" x="166.68" y="60.58" width="2.29" height="16.05"/><rect class="cls-3" x="170.76" y="58.4" width="2.29" height="18.22"/><rect class="cls-18" x="175.78" y="54.62" width="14.9" height="2.29"/><rect class="cls-19" x="175.78" y="61.04" width="14.9" height="1.15"/><rect class="cls-19" x="175.78" y="63.85" width="14.9" height="1.15"/><rect class="cls-19" x="175.78" y="66.65" width="14.9" height="1.15"/><rect class="cls-19" x="175.78" y="69.46" width="7.45" height="1.15"/><rect class="cls-8" x="138.35" width="73.05" height="39.45"/><rect class="cls-4" x="138.35" width="73.05" height="8.79"/><path class="cls-20" d="M143.5,33h63.95c-.1,0,.15-14.39,0-15.83-2.21,1.15-3.88,3.37-6.22,4.53A10.68,10.68,0,0,1,195,22.8c-2-.33-3.57-1.82-5.6-2-2.63-.17-4.4,2-6.28,3.44-2.64,2.06-6,4.56-9.37,5.08a5.63,5.63,0,0,1-5.32-2.29c-1.76-2.14-2.66-4.08-5.65-4.49a9.38,9.38,0,0,0-6.81,1.71c-2.29,1.79-3.66,4.72-6.29,6a6.09,6.09,0,0,1-3,.53c-.67-.06-2.39-1-3-.45C143.2,30.71,143.5,32.37,143.5,33Z"/><path class="cls-8" d="M145.56,4.34a1,1,0,1,1-1-1A1,1,0,0,1,145.56,4.34Z"/><path class="cls-8" d="M150,4.34a1,1,0,1,1-1.93,0,1,1,0,0,1,1.93,0Z"/><path class="cls-8" d="M154.51,4.34a1,1,0,1,1-1-1A1,1,0,0,1,154.51,4.34Z"/><polygon class="cls-8" points="265.14 83.13 265.14 123.12 235.09 123.12 235.09 123.12 235.09 83.13 265.14 83.13"/><rect class="cls-21" x="237.39" y="93.82" width="4.97" height="4.97"/><polygon class="cls-21" points="263.35 95.06 244.5 95.06 244.5 95.06 244.5 93.82 244.5 93.82 263.35 93.82 263.35 95.06"/><polygon class="cls-21" points="252.06 98.15 244.5 98.15 244.5 98.15 244.5 96.91 252.06 96.91 252.06 98.15"/><polygon class="cls-21" points="263.35 104.85 244.5 104.85 244.5 104.85 244.5 103.6 263.35 103.6 263.35 104.85"/><polygon class="cls-21" points="252.06 107.94 244.5 107.94 244.5 107.94 244.5 106.69 252.06 106.69 252.06 107.94"/><polygon class="cls-21" points="263.35 114.63 244.5 114.63 244.5 114.63 244.5 113.39 263.35 113.39 263.35 114.63"/><polygon class="cls-21" points="252.06 117.72 244.5 117.72 244.5 117.72 244.5 116.48 244.5 116.48 252.06 116.48 252.06 116.48 252.06 117.72 252.06 117.72"/><rect class="cls-21" x="237.39" y="103.28" width="4.97" height="4.97"/><rect class="cls-21" x="237.39" y="112.75" width="4.97" height="4.97"/><polygon class="cls-2" points="240.01 98.25 237.45 95.69 238.33 94.81 240.01 96.48 244.43 92.06 245.31 92.94 240.01 98.25"/><polygon class="cls-2" points="240.01 107.44 237.45 104.88 238.33 104 240.01 105.67 244.43 101.25 245.31 102.14 240.01 107.44"/><polygon class="cls-2" points="240.01 116.63 237.45 114.07 238.33 113.19 240.01 114.87 244.43 110.44 245.31 111.33 240.01 116.63"/><rect class="cls-8" x="203.27" y="28.49" width="62.57" height="45.05"/><rect class="cls-22" x="203.27" y="28.49" width="62.57" height="4.84"/><rect class="cls-8" x="206.4" y="29.81" width="2.62" height="2.21"/><rect class="cls-21" x="207.76" y="36.04" width="12.09" height="12.07" transform="translate(427.62 84.15) rotate(180)"/><rect class="cls-21" x="224.28" y="36.04" width="12.09" height="12.07" transform="translate(460.65 84.15) rotate(180)"/><rect class="cls-21" x="240.79" y="36.04" width="20.44" height="12.07" transform="translate(502.02 84.15) rotate(180)"/><rect class="cls-21" x="207.68" y="51.44" width="24.36" height="2.18"/><rect class="cls-21" x="207.42" y="57.29" width="53.81" height="1.09"/><rect class="cls-21" x="207.42" y="61.27" width="53.81" height="1.09"/><rect class="cls-21" x="207.65" y="65.25" width="53.81" height="1.09"/><rect class="cls-21" x="207.88" y="69.23" width="26.92" height="1.09"/><rect class="cls-10" x="260.74" y="62.62" width="22.5" height="28.01" rx="0.6"/><rect class="cls-8" x="262.57" y="77.29" width="18.83" height="1.58"/><rect class="cls-8" x="262.57" y="81" width="18.83" height="1.58"/><rect class="cls-8" x="262.57" y="84.71" width="18.83" height="1.58"/><path class="cls-8" d="M275.72,71l-2.59-.88v-.76l.15-.09a.94.94,0,0,0,.49-.75l.08-1a.57.57,0,0,0,.36-.38l0-.08a.35.35,0,0,0-.31-.43l0-.42a2,2,0,1,0-3.92,0l0,.42h0a.35.35,0,0,0-.34.43l0,.08a.51.51,0,0,0,.43.39l.08,1a.92.92,0,0,0,.49.75l.12.08v.77l-2.58.88a.46.46,0,0,0-.32.44v3H276v-3A.46.46,0,0,0,275.72,71Z"/><rect class="cls-8" x="189.34" y="77.7" width="27.85" height="27.85" rx="3.25"/><path class="cls-2" d="M213.11,77.7H193.43a4.09,4.09,0,0,0-4.09,4.09v4.27h27.85V81.79A4.09,4.09,0,0,0,213.11,77.7Z"/><path class="cls-4" d="M200.11,94a1.62,1.62,0,0,0,.33-.92,1,1,0,0,0-.29-.74,1,1,0,0,0-.75-.3c-.55,0-1.08.4-1.58,1.19l-1.59-.93a4.85,4.85,0,0,1,1.37-1.46,3.32,3.32,0,0,1,1.89-.5,3.07,3.07,0,0,1,2,.73,2.47,2.47,0,0,1,.87,2,2.71,2.71,0,0,1-.35,1.31,8.25,8.25,0,0,1-1.29,1.6l-1.59,1.66h3.5v1.78h-6.25V97.94L199,95.28A12,12,0,0,0,200.11,94Z"/><path class="cls-4" d="M209.74,90.55v1.71h-3.5v1.48a3.46,3.46,0,0,1,.9-.11,3.33,3.33,0,0,1,2.2.77,2.58,2.58,0,0,1,.93,2.09,2.8,2.8,0,0,1-1,2.17,3.41,3.41,0,0,1-2.36.85,3.9,3.9,0,0,1-3-1.33l1-1.45.31.28a4,4,0,0,0,.69.44,2.16,2.16,0,0,0,1,.27,1.44,1.44,0,0,0,.9-.3,1.06,1.06,0,0,0,.39-.9,1.1,1.1,0,0,0-.42-.92,1.75,1.75,0,0,0-1.1-.32,3.37,3.37,0,0,0-1.56.48l-.83,0V90.55Z"/></g></g></g></svg>