<svg xmlns="http://www.w3.org/2000/svg" viewBox="0 0 154.93 17.78"><title>octa-logoAsset 11@</title><g id="Layer_2" data-name="Layer 2"><g id="Layer_1-2" data-name="Layer 1"><path d="M15.62,13.41a8.21,8.21,0,0,1-3,3.2,8,8,0,0,1-4.29,1.17,8,8,0,0,1-4.3-1.17,8.21,8.21,0,0,1-3-3.2A9.57,9.57,0,0,1,0,8.89,9.57,9.57,0,0,1,1.07,4.37a8.27,8.27,0,0,1,3-3.2A8,8,0,0,1,8.35,0a8,8,0,0,1,4.29,1.17,8.27,8.27,0,0,1,3,3.2,9.57,9.57,0,0,1,1.07,4.52A9.57,9.57,0,0,1,15.62,13.41ZM13.41,5.54A5.79,5.79,0,0,0,11.35,3.2a5.39,5.39,0,0,0-3-.85,5.47,5.47,0,0,0-3,.84A5.72,5.72,0,0,0,3.28,5.52a7.55,7.55,0,0,0-.74,3.37,7.52,7.52,0,0,0,.74,3.35,5.88,5.88,0,0,0,2.07,2.34,5.39,5.39,0,0,0,3,.85,5.39,5.39,0,0,0,3-.85,5.79,5.79,0,0,0,2.06-2.34,7.52,7.52,0,0,0,.74-3.35A7.52,7.52,0,0,0,13.41,5.54Z"/><path d="M28.58,4.91c.87.42,1.3.94,1.3,1.58a1.18,1.18,0,0,1-.27.76.85.85,0,0,1-.69.33,1,1,0,0,1-.51-.1,5.1,5.1,0,0,1-.51-.32,2.12,2.12,0,0,0-.47-.34,2.84,2.84,0,0,0-.83-.25,5.35,5.35,0,0,0-1-.1,4.34,4.34,0,0,0-2.27.59A4.13,4.13,0,0,0,21.8,8.7,5,5,0,0,0,21.26,11a5.1,5.1,0,0,0,.53,2.34A3.94,3.94,0,0,0,23.29,15a4,4,0,0,0,2.19.6,4.59,4.59,0,0,0,2.08-.4,4.42,4.42,0,0,0,.47-.32,3.45,3.45,0,0,1,.43-.3,1,1,0,0,1,.46-.09,1,1,0,0,1,.77.3,1.16,1.16,0,0,1,.29.81,1.38,1.38,0,0,1-.66,1,5.09,5.09,0,0,1-1.75.83,8.52,8.52,0,0,1-2.36.32,6.18,6.18,0,0,1-3.31-.88,5.88,5.88,0,0,1-2.21-2.42A7.5,7.5,0,0,1,18.92,11a7.32,7.32,0,0,1,.81-3.45A6.09,6.09,0,0,1,22,5.17a6.37,6.37,0,0,1,3.34-.87A7.52,7.52,0,0,1,28.58,4.91Z"/><path d="M35.9,6.89v7.36c0,.82.37,1.23,1.12,1.23a2,2,0,0,0,.46-.08,1.78,1.78,0,0,1,.47-.09.69.69,0,0,1,.55.27,1,1,0,0,1,.22.69,1.05,1.05,0,0,1-.59.89,2.46,2.46,0,0,1-1.34.37,5.81,5.81,0,0,1-1.49-.17,2.19,2.19,0,0,1-1.21-.88,3.55,3.55,0,0,1-.53-2.13V6.89H32.13A1.06,1.06,0,0,1,31,5.8,1,1,0,0,1,31.35,5a1.06,1.06,0,0,1,.78-.3h1.43V2.67a1.17,1.17,0,0,1,.33-.84,1.14,1.14,0,0,1,.85-.35,1.11,1.11,0,0,1,.83.35,1.17,1.17,0,0,1,.33.84V4.74H38a1,1,0,0,1,.78.31,1.06,1.06,0,0,1,.31.78,1,1,0,0,1-.31.76,1.06,1.06,0,0,1-.78.3Z"/><path d="M53.13,4.75a1.22,1.22,0,0,1,.33.88V16.35a1.17,1.17,0,0,1-.33.84,1.13,1.13,0,0,1-.85.34,1.11,1.11,0,0,1-.84-.33,1.15,1.15,0,0,1-.32-.85v-.64a5.35,5.35,0,0,1-1.76,1.46,4.86,4.86,0,0,1-2.39.61,5.64,5.64,0,0,1-3-.86,5.92,5.92,0,0,1-2.15-2.41A7.6,7.6,0,0,1,41,11a7.57,7.57,0,0,1,.78-3.47,6,6,0,0,1,2.14-2.41,5.4,5.4,0,0,1,3-.86,5.55,5.55,0,0,1,2.44.54,5.13,5.13,0,0,1,1.79,1.38V5.63a1.18,1.18,0,0,1,.32-.86,1.09,1.09,0,0,1,.84-.35A1.16,1.16,0,0,1,53.13,4.75ZM49.3,15a4,4,0,0,0,1.41-1.63,5.22,5.22,0,0,0,.5-2.34,5.16,5.16,0,0,0-.5-2.32A4.21,4.21,0,0,0,49.3,7.07a3.64,3.64,0,0,0-2.06-.6,3.68,3.68,0,0,0-2.06.59,4.08,4.08,0,0,0-1.41,1.63A5.27,5.27,0,0,0,43.26,11a5.22,5.22,0,0,0,.51,2.34A4,4,0,0,0,45.18,15a3.84,3.84,0,0,0,4.12,0Z"/><path d="M77.24,2.15a1,1,0,0,1-.17.49.71.71,0,0,1-.57.27.74.74,0,0,1-.39-.12,7.71,7.71,0,0,0-4.33-1.31,7,7,0,0,0-3.61.94,6.72,6.72,0,0,0-2.55,2.63,8,8,0,0,0-.92,3.84,7.86,7.86,0,0,0,.94,3.89,6.63,6.63,0,0,0,2.55,2.62,7.19,7.19,0,0,0,3.59.92A7.61,7.61,0,0,0,76.08,15a.79.79,0,0,1,.42-.12.68.68,0,0,1,.57.29.71.71,0,0,1,.17.47.63.63,0,0,1-.34.59,9.92,9.92,0,0,1-5.12,1.51,8.65,8.65,0,0,1-4.33-1.12,8.38,8.38,0,0,1-3.16-3.15,9.07,9.07,0,0,1-1.17-4.62,8.93,8.93,0,0,1,1.16-4.53,8.49,8.49,0,0,1,3.13-3.19A8.62,8.62,0,0,1,71.78,0a9.51,9.51,0,0,1,2.71.4,8.52,8.52,0,0,1,2.38,1.11A.69.69,0,0,1,77.24,2.15Z"/><path d="M86.8,4.82a.62.62,0,0,1,.39.59A.77.77,0,0,1,87,6a.64.64,0,0,1-.47.21,1.77,1.77,0,0,1-.48-.12,2.17,2.17,0,0,0-.68-.12,2.94,2.94,0,0,0-1.82.7,5.46,5.46,0,0,0-1.48,1.82,4.76,4.76,0,0,0-.58,2.24v6.1a.71.71,0,0,1-.21.53.72.72,0,0,1-.53.21.72.72,0,0,1-.74-.74V5.73a.72.72,0,0,1,.21-.53A.71.71,0,0,1,80.75,5a.72.72,0,0,1,.74.74V7.9a5.64,5.64,0,0,1,1.72-2.33,4.21,4.21,0,0,1,2.7-1A1.85,1.85,0,0,1,86.8,4.82Z"/><path d="M99.42,11a.73.73,0,0,1-.52.21H89.56a5.79,5.79,0,0,0,.61,2.66,4.54,4.54,0,0,0,1.73,1.85,5,5,0,0,0,2.65.68,4.52,4.52,0,0,0,2.13-.5,4.43,4.43,0,0,0,1.5-1.26.89.89,0,0,1,.52-.22.64.64,0,0,1,.45.2.61.61,0,0,1,.19.44.74.74,0,0,1-.24.52,6.25,6.25,0,0,1-2,1.58,5.47,5.47,0,0,1-2.53.62A6.69,6.69,0,0,1,91.22,17,5.72,5.72,0,0,1,89,14.68a6.81,6.81,0,0,1-.82-3.39,7.56,7.56,0,0,1,.8-3.55,5.87,5.87,0,0,1,2.14-2.32,5.47,5.47,0,0,1,2.84-.8,5.84,5.84,0,0,1,2.78.69,5.45,5.45,0,0,1,2.11,2,6.2,6.2,0,0,1,.84,3.17A.66.66,0,0,1,99.42,11ZM91.26,7a4.54,4.54,0,0,0-1.57,2.84h8.42v-.2a3.89,3.89,0,0,0-.74-1.94,4,4,0,0,0-1.55-1.26,4.4,4.4,0,0,0-1.91-.43A4.12,4.12,0,0,0,91.26,7Z"/><path d="M113.58,5.14a.75.75,0,0,1,.21.54V16.79a.71.71,0,0,1-.21.53.72.72,0,0,1-.53.21.72.72,0,0,1-.74-.74V15.14A5.17,5.17,0,0,1,110.46,17a5,5,0,0,1-2.7.77,5.35,5.35,0,0,1-3-.86,6,6,0,0,1-2.08-2.38,7.46,7.46,0,0,1-.75-3.38,7.3,7.3,0,0,1,.77-3.37,5.82,5.82,0,0,1,2.08-2.33,5.35,5.35,0,0,1,2.93-.84,5.41,5.41,0,0,1,2.72.71,4.77,4.77,0,0,1,1.85,1.88V5.68a.75.75,0,0,1,.21-.54.69.69,0,0,1,.53-.23A.7.7,0,0,1,113.58,5.14Zm-3.36,10.58a4.64,4.64,0,0,0,1.61-1.88,6.16,6.16,0,0,0,.58-2.68,6,6,0,0,0-.58-2.62,4.65,4.65,0,0,0-1.61-1.86,4.29,4.29,0,0,0-4.62,0A4.49,4.49,0,0,0,104,8.51a5.83,5.83,0,0,0-.58,2.65,6.16,6.16,0,0,0,.57,2.68,4.45,4.45,0,0,0,1.59,1.88,4.14,4.14,0,0,0,2.33.68A4.1,4.1,0,0,0,110.22,15.72Z"/><path d="M120.14,6.35v8.27a1.77,1.77,0,0,0,.34,1.27,1.28,1.28,0,0,0,.92.33,1.55,1.55,0,0,0,.37-.06,1.35,1.35,0,0,1,.34-.06.46.46,0,0,1,.38.19.6.6,0,0,1,.16.43.68.68,0,0,1-.39.58,1.87,1.87,0,0,1-.94.23,5.23,5.23,0,0,1-1.18-.12,1.86,1.86,0,0,1-1-.74,3.16,3.16,0,0,1-.49-2V6.35h-1.8a.69.69,0,0,1-.5-.2.69.69,0,0,1,0-1,.69.69,0,0,1,.5-.2h1.8V2.22a.75.75,0,1,1,1.49,0V5h2.46a.65.65,0,0,1,.49.23.68.68,0,0,1,.21.49.63.63,0,0,1-.2.48.72.72,0,0,1-.5.19Z"/><path d="M126,2.8a.84.84,0,0,1-.27-.68V1.88A.82.82,0,0,1,126,1.2a1.13,1.13,0,0,1,.77-.24c.66,0,1,.31,1,.92v.24a.87.87,0,0,1-.26.68,1.06,1.06,0,0,1-.75.24A1.13,1.13,0,0,1,126,2.8Zm1.3,14.52a.72.72,0,0,1-.53.21.72.72,0,0,1-.74-.74V5.43a.72.72,0,0,1,.21-.53.71.71,0,0,1,.53-.21.72.72,0,0,1,.74.74V16.79A.71.71,0,0,1,127.26,17.32Z"/><path d="M141.32,4.84a.53.53,0,0,1,.22.44,1,1,0,0,1-.09.42l-4.84,11.36a.87.87,0,0,1-.29.34.62.62,0,0,1-.38.13.64.64,0,0,1-.45-.1.69.69,0,0,1-.29-.37L130.33,5.7a.5.5,0,0,0,0-.14.51.51,0,0,1,0-.2.7.7,0,0,1,.76-.72.68.68,0,0,1,.41.14.86.86,0,0,1,.29.36l4.19,10,4.23-10a.84.84,0,0,1,.28-.36.59.59,0,0,1,.43-.11A.78.78,0,0,1,141.32,4.84Z"/><path d="M154.71,11a.73.73,0,0,1-.52.21h-9.34a5.79,5.79,0,0,0,.61,2.66,4.54,4.54,0,0,0,1.73,1.85,5,5,0,0,0,2.65.68,4.52,4.52,0,0,0,2.13-.5,4.43,4.43,0,0,0,1.5-1.26.89.89,0,0,1,.52-.22.64.64,0,0,1,.45.2.61.61,0,0,1,.19.44.74.74,0,0,1-.24.52,6.25,6.25,0,0,1-2,1.58,5.47,5.47,0,0,1-2.53.62,6.69,6.69,0,0,1-3.36-.82,5.72,5.72,0,0,1-2.27-2.28,6.81,6.81,0,0,1-.82-3.39,7.56,7.56,0,0,1,.8-3.55,5.87,5.87,0,0,1,2.14-2.32,5.47,5.47,0,0,1,2.84-.8,5.84,5.84,0,0,1,2.78.69,5.45,5.45,0,0,1,2.11,2,6.2,6.2,0,0,1,.84,3.17A.7.7,0,0,1,154.71,11Zm-8.16-4A4.54,4.54,0,0,0,145,9.88h8.42v-.2a3.89,3.89,0,0,0-.74-1.94,4,4,0,0,0-1.55-1.26,4.4,4.4,0,0,0-1.91-.43A4.12,4.12,0,0,0,146.55,7Z"/></g></g></svg>