<svg xmlns="http://www.w3.org/2000/svg" xmlns:xlink="http://www.w3.org/1999/xlink" viewBox="0 0 298.7 231.41"><defs><style>.cls-1{fill:#b2b8fa;}.cls-2{fill:#575a8f;}.cls-3{fill:#fff;}.cls-4{fill:url(#linear-gradient);}.cls-5{fill:#eceef4;}.cls-6{fill:url(#linear-gradient-2);}.cls-7{fill:#fffffe;}.cls-8{fill:#f7f8fa;}.cls-9{fill:url(#linear-gradient-3);}.cls-10{fill:#4d5068;}.cls-11{fill:#ff5722;}.cls-12{fill:#536dfe;}.cls-13{fill:#413068;opacity:0.44;}.cls-14{fill:#707278;opacity:0.22;}.cls-15{fill:#191c3c;}.cls-16{fill:#474963;}.cls-17{fill:#75778a;}.cls-18{fill:#ffcebd;}.cls-19,.cls-30{fill:#231f20;}.cls-19{opacity:0.1;}.cls-20{fill:#915c07;}.cls-21{fill:#5361f0;}.cls-22{fill:#9496a4;}.cls-23{fill:url(#linear-gradient-4);}.cls-24{fill:url(#linear-gradient-5);}.cls-25{fill:url(#linear-gradient-6);}.cls-26{fill:url(#linear-gradient-7);}.cls-27{fill:#eaeaea;}.cls-28{fill:#ff5f00;}.cls-29{fill:#d8d8d8;}.cls-30{opacity:0.3;}.cls-31{fill:url(#linear-gradient-8);}.cls-32{fill:url(#linear-gradient-9);}.cls-33{fill:url(#linear-gradient-10);}.cls-34{fill:url(#linear-gradient-11);}.cls-35{fill:#758afe;}.cls-36{fill:#fe5e31;}.cls-37{fill:#f2f2f2;}.cls-38{fill:url(#linear-gradient-12);}</style><linearGradient id="linear-gradient" x1="38.36" y1="94.97" x2="151.23" y2="94.97" gradientUnits="userSpaceOnUse"><stop offset="0" stop-color="#e92327"/><stop offset="0.09" stop-color="#eb2928"/><stop offset="0.69" stop-color="#f94f2f"/><stop offset="1" stop-color="#fe5e31"/></linearGradient><linearGradient id="linear-gradient-2" x1="38.36" y1="104.62" x2="151.23" y2="104.62" xlink:href="#linear-gradient"/><linearGradient id="linear-gradient-3" x1="66.11" y1="139.81" x2="81.2" y2="139.81" xlink:href="#linear-gradient"/><linearGradient id="linear-gradient-4" x1="164.24" y1="123.51" x2="185.62" y2="123.51" xlink:href="#linear-gradient"/><linearGradient id="linear-gradient-5" x1="178.52" y1="106.23" x2="201.52" y2="84.9" gradientUnits="userSpaceOnUse"><stop offset="0" stop-color="#ff5722"/><stop offset="0.1" stop-color="#ff7030"/><stop offset="0.26" stop-color="#fe8f40"/><stop offset="0.42" stop-color="#fea74d"/><stop offset="0.59" stop-color="#feb857"/><stop offset="0.77" stop-color="#fec25c"/><stop offset="1" stop-color="#fec55e"/></linearGradient><linearGradient id="linear-gradient-6" x1="246.11" y1="165.73" x2="258.85" y2="165.73" xlink:href="#linear-gradient-5"/><linearGradient id="linear-gradient-7" x1="180.48" y1="65.61" x2="190.4" y2="56.11" gradientUnits="userSpaceOnUse"><stop offset="0" stop-color="#fec55e"/><stop offset="1" stop-color="#ff5722"/></linearGradient><linearGradient id="linear-gradient-8" x1="173.67" y1="165.17" x2="202.92" y2="165.17" xlink:href="#linear-gradient"/><linearGradient id="linear-gradient-9" x1="260.42" y1="108.57" x2="291.17" y2="86.57" xlink:href="#linear-gradient-5"/><linearGradient id="linear-gradient-10" x1="271.06" y1="108.85" x2="291.98" y2="93.51" gradientUnits="userSpaceOnUse"><stop offset="0" stop-color="#fec55e"/><stop offset="0.69" stop-color="#ff7633"/><stop offset="1" stop-color="#ff5722"/></linearGradient><linearGradient id="linear-gradient-11" x1="265.32" y1="96.89" x2="291.65" y2="80.22" gradientUnits="userSpaceOnUse"><stop offset="0" stop-color="#fec55e"/><stop offset="0.23" stop-color="#fec25c"/><stop offset="0.41" stop-color="#feb857"/><stop offset="0.58" stop-color="#fea74d"/><stop offset="0.74" stop-color="#fe8f40"/><stop offset="0.9" stop-color="#ff7030"/><stop offset="1" stop-color="#ff5722"/></linearGradient><linearGradient id="linear-gradient-12" x1="233.51" y1="109.46" x2="239.23" y2="103.51" xlink:href="#linear-gradient-7"/></defs><title>octa_subAsset 11@</title><g id="Layer_2" data-name="Layer 2"><g id="Graphics"><g id="Layer_6" data-name="Layer 6"><path class="cls-1" d="M64.63,216c-1-8.83-2.41-15.38-8.87-21.72-3-3-7-5-9.42-8.52-2.9-4.22-3.14-10.11-7.13-13.4-4.29-3.54-11.17-2.57-15.59-6-3.15-2.42-4.31-6.47-6.57-9.68a17.8,17.8,0,0,0-17-7c6.44,1.51,11,8.36,9.71,14.63-.81,4-3.65,7.67-3.3,11.75.69,8.09,12.93,11.55,13.88,19.62.26,2.19-.41,4.39-.5,6.6-.29,6.86,5.91,13.36,13,13.66Z"/><path class="cls-2" d="M16.5,169.86a113.22,113.22,0,0,1,16.9,19.9c4.66,7,7.94,14.38,11.72,21.78a.68.68,0,0,0,1.24-.51c-5-15.88-17.24-30.3-29.84-41.19,0,0,0,0,0,0Z"/><path class="cls-2" d="M17.05,178.06a12.76,12.76,0,0,1,5.25.42c1.78.55,3,1.67,4.62,2.42.18.09.44-.1.3-.29-2-2.85-7-3.36-10.21-2.85-.17,0-.14.32,0,.3Z"/><path class="cls-2" d="M21,186.94a15.61,15.61,0,0,1,7.38-.09c2.23.53,4,1.73,5.94,2.76a.32.32,0,0,0,.4-.5c-3.3-3.44-9.44-3.72-13.76-2.32a.08.08,0,0,0,0,.15Z"/><path class="cls-2" d="M25.37,198.71c6.78-.8,11.27.51,16.39,4.91.31.26.85-.08.6-.45-3.33-4.86-11.55-7.2-17.08-4.78a.17.17,0,0,0,.09.32Z"/><path class="cls-2" d="M29.71,174.07C27,177,28,182.68,30.62,185.3c.09.1.27,0,.19-.14a10.43,10.43,0,0,1-2.08-5.62c-.06-2,.73-3.46,1.32-5.28a.2.2,0,0,0-.34-.19Z"/><path class="cls-2" d="M34.8,180.56c-1.39,3.72-1.24,8.68,1,12.08.11.17.41.07.34-.14-1.31-4.15-1.89-7.51-1-11.85a.19.19,0,0,0-.37-.09Z"/><path class="cls-2" d="M42.68,187.69a19.61,19.61,0,0,0,.18,16.25c.21.48,1,.28.82-.21-2.2-5.25-2.08-10.46-.51-15.85.08-.27-.36-.47-.49-.19Z"/><path class="cls-3" d="M42.26,91.65H147.32a3.91,3.91,0,0,1,3.91,3.91V216a0,0,0,0,1,0,0H38.36a0,0,0,0,1,0,0V95.55A3.91,3.91,0,0,1,42.26,91.65Z"/><path class="cls-4" d="M42.26,91.16H147.32a3.91,3.91,0,0,1,3.91,3.91v3.7a0,0,0,0,1,0,0H38.36a0,0,0,0,1,0,0v-3.7A3.91,3.91,0,0,1,42.26,91.16Z"/><path class="cls-3" d="M49.38,95.45a1,1,0,1,1-1-1A1,1,0,0,1,49.38,95.45Z"/><path class="cls-3" d="M53.1,95.45a1,1,0,1,1-1-1A1,1,0,0,1,53.1,95.45Z"/><path class="cls-3" d="M56.82,95.45a1,1,0,1,1-1-1A1,1,0,0,1,56.82,95.45Z"/><rect class="cls-5" x="90.72" y="149.7" width="41.09" height="10.78"/><rect class="cls-5" x="90.72" y="178.45" width="41.09" height="5.39"/><rect class="cls-3" x="99.69" y="180.25" width="27.63" height="1.8"/><rect class="cls-5" x="58.69" y="111.87" width="73.12" height="27.94"/><rect class="cls-6" x="38.36" y="97.37" width="112.87" height="14.5"/><path class="cls-7" d="M71,109.12h-9.6a.7.7,0,0,1-.7-.7h0a.71.71,0,0,1,.7-.7H71a.7.7,0,0,1,.7.7h0A.7.7,0,0,1,71,109.12Z"/><path class="cls-7" d="M87,109.12H75.37a.7.7,0,0,1-.7-.7h0a.7.7,0,0,1,.7-.7H87a.7.7,0,0,1,.69.7h0A.69.69,0,0,1,87,109.12Z"/><path class="cls-7" d="M103.08,109.12H91.42a.7.7,0,0,1-.7-.7h0a.7.7,0,0,1,.7-.7h11.66a.7.7,0,0,1,.69.7h0A.69.69,0,0,1,103.08,109.12Z"/><path class="cls-7" d="M119.13,109.12H107.47a.7.7,0,0,1-.7-.7h0a.71.71,0,0,1,.7-.7h11.66a.7.7,0,0,1,.69.7h0A.69.69,0,0,1,119.13,109.12Z"/><path class="cls-7" d="M131.12,109.12h-7.6a.7.7,0,0,1-.7-.7h0a.71.71,0,0,1,.7-.7h7.6a.7.7,0,0,1,.69.7h0A.69.69,0,0,1,131.12,109.12Z"/><rect class="cls-8" x="64.43" y="130.59" width="18.43" height="18.43"/><rect class="cls-9" x="66.11" y="132.26" width="15.09" height="15.09"/><rect class="cls-10" x="93.48" y="152.56" width="6.21" height="6.21"/><rect class="cls-5" x="60.02" y="180.7" width="8.3" height="8.3"/><rect class="cls-5" x="69.37" y="180.7" width="8.3" height="8.3"/><rect class="cls-5" x="78.72" y="180.7" width="8.3" height="8.3"/><rect class="cls-5" x="60.02" y="189.68" width="8.3" height="8.3"/><rect class="cls-5" x="69.37" y="189.68" width="8.3" height="8.3"/><rect class="cls-5" x="78.72" y="189.68" width="8.3" height="8.3"/><rect class="cls-5" x="60.02" y="198.67" width="8.3" height="8.3"/><rect class="cls-5" x="69.37" y="198.67" width="8.3" height="8.3"/><rect class="cls-5" x="78.72" y="198.67" width="8.3" height="8.3"/><path class="cls-5" d="M84.76,153.66H60.57a.54.54,0,0,1-.55-.55h0a.55.55,0,0,1,.55-.55H84.76a.55.55,0,0,1,.55.55h0A.55.55,0,0,1,84.76,153.66Z"/><path class="cls-3" d="M107.42,154.21h-4.21a.55.55,0,0,1-.55-.55h0a.55.55,0,0,1,.55-.55h4.21a.55.55,0,0,1,.55.55h0A.55.55,0,0,1,107.42,154.21Z"/><path class="cls-3" d="M114.76,157.07H103.21a.55.55,0,0,1-.55-.55h0a.55.55,0,0,1,.55-.55h11.55a.55.55,0,0,1,.55.55h0A.55.55,0,0,1,114.76,157.07Z"/><path class="cls-5" d="M131.26,164.08H93.91a.55.55,0,0,1-.55-.55h0a.55.55,0,0,1,.55-.55h37.35a.55.55,0,0,1,.55.55h0A.55.55,0,0,1,131.26,164.08Z"/><path class="cls-5" d="M104.77,166.83H93.91a.55.55,0,0,1-.55-.55h0a.55.55,0,0,1,.55-.55h10.86a.55.55,0,0,1,.55.55h0A.55.55,0,0,1,104.77,166.83Z"/><path class="cls-11" d="M98,169.91h-4a.55.55,0,0,1-.55-.55h0a.55.55,0,0,1,.55-.55h4a.55.55,0,0,1,.55.55h0A.55.55,0,0,1,98,169.91Z"/><rect class="cls-5" x="90.72" y="188.63" width="41.09" height="10.78"/><rect class="cls-10" x="93.48" y="191.49" width="6.21" height="6.21"/><path class="cls-3" d="M107.42,193.14h-4.21a.55.55,0,0,1-.55-.55h0a.55.55,0,0,1,.55-.55h4.21a.55.55,0,0,1,.55.55h0A.55.55,0,0,1,107.42,193.14Z"/><path class="cls-3" d="M114.76,196H103.21a.55.55,0,0,1-.55-.55h0a.55.55,0,0,1,.55-.55h11.55a.55.55,0,0,1,.55.55h0A.55.55,0,0,1,114.76,196Z"/><path class="cls-5" d="M131.26,203H93.91a.55.55,0,0,1-.55-.55h0a.55.55,0,0,1,.55-.55h37.35a.54.54,0,0,1,.55.55h0A.55.55,0,0,1,131.26,203Z"/><path class="cls-5" d="M104.77,205.76H93.91a.55.55,0,0,1-.55-.55h0a.55.55,0,0,1,.55-.55h10.86a.55.55,0,0,1,.55.55h0A.55.55,0,0,1,104.77,205.76Z"/><path class="cls-12" d="M98,208.84h-4a.55.55,0,0,1-.55-.55h0a.55.55,0,0,1,.55-.55h4a.55.55,0,0,1,.55.55h0A.55.55,0,0,1,98,208.84Z"/><path class="cls-5" d="M84.76,157.35H60.57a.55.55,0,0,1-.55-.55h0a.54.54,0,0,1,.55-.55H84.76a.55.55,0,0,1,.55.55h0A.55.55,0,0,1,84.76,157.35Z"/><path class="cls-5" d="M76,161.31H60.57a.55.55,0,0,1-.55-.55h0a.54.54,0,0,1,.55-.55H76a.54.54,0,0,1,.55.55h0A.55.55,0,0,1,76,161.31Z"/><path class="cls-5" d="M75.57,176H61a.94.94,0,0,1-.94-.94h0a1,1,0,0,1,.94-1H75.57a1,1,0,0,1,.94,1h0A.94.94,0,0,1,75.57,176Z"/><path class="cls-12" d="M97.31,181.14a1.25,1.25,0,1,1-1.25-1.24A1.25,1.25,0,0,1,97.31,181.14Z"/><rect class="cls-3" x="139.01" y="93.54" width="3.33" height="0.93"/><rect class="cls-3" x="139.01" y="94.99" width="3.33" height="0.93"/><rect class="cls-3" x="139.02" y="96.45" width="3.33" height="0.93"/><rect class="cls-13" x="60.67" y="101.16" width="69.8" height="3.72"/><path class="cls-14" d="M43.76,91.16h-1.5a3.92,3.92,0,0,0-3.92,3.92V216h1.5V95.08A3.93,3.93,0,0,1,43.76,91.16Z"/><path class="cls-15" d="M183.29,212.85h0a.48.48,0,0,0,.66-.18l15.43-27.49a.48.48,0,0,0-.18-.66h0a.48.48,0,0,0-.66.18L183.1,212.19A.48.48,0,0,0,183.29,212.85Z"/><rect class="cls-16" x="145.13" y="212.63" width="41.57" height="3.28" rx="1.04" transform="translate(331.72 428.63) rotate(-179.97)"/><path class="cls-15" d="M145.13,214.14a1.49,1.49,0,0,1,.37-1A1.53,1.53,0,0,0,147,214.7l38.52,0a1.5,1.5,0,0,0,1.16-.56h0v.22a1.53,1.53,0,0,1-1.53,1.53l-38.52,0a1.53,1.53,0,0,1-1.53-1.53Z"/><rect class="cls-17" x="155.9" y="213.5" width="3.02" height="1.16"/><rect class="cls-17" x="152.32" y="213.5" width="3.02" height="1.16"/><rect class="cls-17" x="177.74" y="213.51" width="3.02" height="1.16"/><rect class="cls-18" x="19.05" y="207.89" width="6.24" height="9.09" transform="translate(-190.78 228.99) rotate(-88.49)"/><path class="cls-11" d="M20,215.5l-6.45,10.83-.41,3.12A1.83,1.83,0,0,1,11.31,231l-1.88,0L10,209.35a2.2,2.2,0,0,1,2.25-2.13l1.69,0a11.21,11.21,0,0,1,5,1.35l1.22.66h0a2.48,2.48,0,0,0-2.55,2.41l0,1.27A2.48,2.48,0,0,0,20,215.5Z"/><path class="cls-10" d="M11.79,209.43l-.56,21.23a.76.76,0,0,1-.79.75l-1,0,.58-22a2.22,2.22,0,0,1,2.25-2.16l1.69,0H14A2.21,2.21,0,0,0,11.79,209.43Z"/><polygon class="cls-10" points="70.05 209.2 55.35 205.51 22.5 208.81 22.5 215.99 57.98 215.99 71.75 214.35 70.05 209.2"/><rect class="cls-18" x="62.93" y="178.26" width="6.24" height="9.09" transform="translate(41.48 -10.01) rotate(12.6)"/><path class="cls-11" d="M63.45,180.11l-9.39-8.41-3-1a1.83,1.83,0,0,1-1.2-2.13l.41-1.83,21.13,4.72a2.18,2.18,0,0,1,1.65,2.61l-.36,1.65a11.27,11.27,0,0,1-2.29,4.68l-.88,1.07h0a2.48,2.48,0,0,0-1.88-3l-1.24-.28a2.48,2.48,0,0,0-3,1.88Z"/><path class="cls-10" d="M71,173.21l-20.83-4.7a.78.78,0,0,1-.59-.93l.23-1,21.58,4.87a2.18,2.18,0,0,1,1.65,2.61l-.36,1.65a.14.14,0,0,0,0,.06A2.18,2.18,0,0,0,71,173.21Z"/><path class="cls-19" d="M70.05,209.2l1.7,5.15L58,216h-.45a7.16,7.16,0,0,1-6.78-9.88l.06-.15,4.5-.45Z"/><path class="cls-10" d="M96,195.59l-2.56.23a48,48,0,0,0-17.56,5.07l-10.27,5.25a1.13,1.13,0,0,1-1.6-1.3l6.52-23.53h-8.1l-10.15,24.8A7.16,7.16,0,0,0,59.07,216l39.17-.32Z"/><path class="cls-11" d="M136.94,200.56l-3.9,6.32a6.09,6.09,0,0,1-8,2.22l-2-1-11.65,5.16a18.11,18.11,0,0,1-6.47,1.52l-9.61,1.28s-5.25-12.8-1.08-20.91h0a32.19,32.19,0,0,0,27.79-5.75l8.14-6.32Z"/><polygon class="cls-18" points="146.62 188.97 138.17 195.15 136.94 189.64 143.02 183.91 146.62 188.97"/><path class="cls-18" d="M141,185.88c-.07-2.36,1.68-3.55,3.41-4.4a23.53,23.53,0,0,1,12.3-2.26l1,.25a8.62,8.62,0,0,1-.77,3.61c-.25.61-1.45,3-.92,4.64a.2.2,0,0,1-.18.28,4.06,4.06,0,0,0-1.34.16c-.22.37-.38.77-.57,1.16a5.71,5.71,0,0,1-.85,1.37c-1.11,1.19-3,1.18-4.61,1-2.29-.33-4.65-1-6.22-2.73A4.87,4.87,0,0,1,141,185.88Z"/><path class="cls-18" d="M139.55,192.35l2.66,15.37a1.93,1.93,0,0,0,1.64,1.58l22.92,2.49,4.87.77,4.44,1.17,3.51.11h0c0,.93-.66,2-1.6,2h-2.58l-6.17-.3-28,.69a4.68,4.68,0,0,1-4.49-3L129.17,193Z"/><path class="cls-20" d="M119.13,191.38a12.18,12.18,0,0,1,2.52-3.54,17,17,0,0,1,3.29-2.82c1.78-1.1,3.56-1.41,5.16-2.83a17.11,17.11,0,0,0,3.68-4.65c.49-.9.9-1.86,1.44-2.74a12.46,12.46,0,0,1,8-5.4,26.13,26.13,0,0,1,5.68-.88,20.26,20.26,0,0,1,6.44,1.14,10.57,10.57,0,0,1,4.13,2.16,5.08,5.08,0,0,1,1.19,5.22,5.62,5.62,0,0,1-.9,2c-1.65,2.17-5.16,2.3-7.63,2.85-1.53.33-3.14-.16-4.61.46a9.58,9.58,0,0,0-3.2,2.78,25.77,25.77,0,0,0-3.65,4.75c-.52,1-.92,2-1.37,3a17.64,17.64,0,0,1-5.91,7.7,10.34,10.34,0,0,1-10.75.61C119.41,199.23,117.66,194.87,119.13,191.38Z"/><path class="cls-11" d="M141.36,75.29a2.42,2.42,0,0,0-2.43-2.42,2.37,2.37,0,0,0-1.73.73,2.39,2.39,0,0,0-1.74-.73A2.43,2.43,0,0,0,133.71,77l3.48,3.45,3.56-3.53.14-.17A2.46,2.46,0,0,0,141.36,75.29Z"/><path class="cls-10" d="M143.05,75.79v-1.6h3.58V75l-2,4.13h-1.2l1.91-4h-1.25v.64Z"/><path class="cls-10" d="M150.42,74.19v1h-2V76a1.9,1.9,0,0,1,.5-.06,1.87,1.87,0,0,1,1.24.43,1.47,1.47,0,0,1,.52,1.17,1.57,1.57,0,0,1-.54,1.22,1.92,1.92,0,0,1-1.32.48,2.17,2.17,0,0,1-1.69-.75l.59-.81.17.16a2.33,2.33,0,0,0,.39.24,1.21,1.21,0,0,0,.57.15.78.78,0,0,0,.5-.17.58.58,0,0,0,.22-.5.63.63,0,0,0-.24-.52,1,1,0,0,0-.61-.18,1.94,1.94,0,0,0-.88.27l-.46-.49V74.19Z"/><path class="cls-10" d="M153.51,79.22a1.79,1.79,0,0,1-1.54-.7,3.68,3.68,0,0,1,0-3.74,2,2,0,0,1,3.08,0,3.68,3.68,0,0,1,0,3.74A1.79,1.79,0,0,1,153.51,79.22Zm-.73-3.77a3.12,3.12,0,0,0,0,2.4.76.76,0,0,0,.73.46.77.77,0,0,0,.73-.46,3.12,3.12,0,0,0,0-2.4.78.78,0,0,0-.73-.45A.77.77,0,0,0,152.78,75.45Z"/><path class="cls-10" d="M203.47,31v-.91h2.93v.74l-1,1.11a1.4,1.4,0,0,1,.89.49,1.35,1.35,0,0,1,.32.89,1.45,1.45,0,0,1-.51,1.18,2,2,0,0,1-1.31.43,2.88,2.88,0,0,1-1.61-.56l.44-.85a2.19,2.19,0,0,0,1.21.48.8.8,0,0,0,.53-.16.54.54,0,0,0,.21-.46.57.57,0,0,0-.24-.47,1.15,1.15,0,0,0-.66-.17,2.23,2.23,0,0,0-.64.13v-.79L205,31Z"/><path class="cls-10" d="M210.47,30.07V31h-1.89v.8a1.75,1.75,0,0,1,.48-.06,1.78,1.78,0,0,1,1.19.42,1.37,1.37,0,0,1,.5,1.13,1.52,1.52,0,0,1-.51,1.17,1.89,1.89,0,0,1-1.28.46,2.08,2.08,0,0,1-1.62-.72l.56-.78.16.15a2.61,2.61,0,0,0,.38.24,1.25,1.25,0,0,0,.55.14.75.75,0,0,0,.48-.16.56.56,0,0,0,.22-.49.58.58,0,0,0-.23-.49.94.94,0,0,0-.59-.18,1.86,1.86,0,0,0-.85.26l-.44-.48V30.07Z"/><path class="cls-10" d="M213.25,32.79V32h1v.84h.54v.92h-.54v1.14h-1V33.71h-1.92V32.9l1.7-2.83h1.17l-1.63,2.72Z"/><path class="cls-21" d="M201.32,36.83l-.46-2.45a4.64,4.64,0,1,0-1.77,2Z"/><path class="cls-10" d="M226.7,148.5c.17.95-.82,1.92-2.2,2.16s-2.63-.35-2.8-1.3.82-1.92,2.2-2.16S226.54,147.54,226.7,148.5Z"/><path class="cls-22" d="M225.19,148.22c.1.54-.45,1.07-1.22,1.21s-1.47-.19-1.56-.72.46-1.07,1.23-1.21S225.1,147.69,225.19,148.22Z"/><path class="cls-10" d="M233.11,148.5c.16.95-.83,1.92-2.21,2.16s-2.63-.35-2.79-1.3.82-1.92,2.2-2.16S232.94,147.54,233.11,148.5Z"/><path class="cls-10" d="M226.22,149.1a.5.5,0,0,1-.5-.5v-8.09a.5.5,0,0,1,1,0v8.09A.49.49,0,0,1,226.22,149.1Z"/><path class="cls-10" d="M232.63,149.1a.49.49,0,0,1-.49-.5v-8.09a.49.49,0,0,1,1,0v8.09A.49.49,0,0,1,232.63,149.1Z"/><rect class="cls-10" x="225.72" y="139.69" width="7.4" height="2.02"/><path class="cls-22" d="M231.51,148.4c.09.53-.45,1.07-1.22,1.2s-1.47-.19-1.56-.72.46-1.07,1.22-1.2S231.42,147.87,231.51,148.4Z"/><path class="cls-23" d="M184.62,130.05H165.24a1,1,0,0,1-1-1V118a1,1,0,0,1,1-1h19.38a1,1,0,0,1,1,1v11.09A1,1,0,0,1,184.62,130.05Z"/><path class="cls-3" d="M177.73,123.91l-5.6,3.24a.47.47,0,0,1-.7-.41v-6.47a.46.46,0,0,1,.7-.4l5.6,3.23a.47.47,0,0,1,0,.81l-5.6,3.24a.47.47,0,0,1-.7-.41v-6.47a.46.46,0,0,1,.7-.4l5.6,3.23A.47.47,0,0,1,177.73,123.91Z"/><path class="cls-24" d="M199.46,95.45a9.31,9.31,0,1,1-9.31-9.31A9.31,9.31,0,0,1,199.46,95.45Z"/><path class="cls-3" d="M194.55,97.36c0,2.3-1.86,4.94-4.16,4.94a4.16,4.16,0,0,1-4.16-4.16Z"/><path class="cls-11" d="M186.74,100.11a4.16,4.16,0,0,0,3.65,2.19,4.42,4.42,0,0,0,3.74-3Z"/><path class="cls-11" d="M189.34,93a1.44,1.44,0,0,0-1.45-1.44,1.43,1.43,0,0,0-1,.43,1.43,1.43,0,0,0-1-.43,1.44,1.44,0,0,0-1,2.44l2.06,2.06L189,94l.09-.1A1.5,1.5,0,0,0,189.34,93Z"/><path class="cls-11" d="M196.4,93.05A1.45,1.45,0,0,0,195,91.61a1.47,1.47,0,0,0-1,.43,1.47,1.47,0,0,0-1-.43,1.45,1.45,0,0,0-1.45,1.44,1.46,1.46,0,0,0,.41,1l2.06,2L196,94l.09-.1A1.5,1.5,0,0,0,196.4,93.05Z"/><path class="cls-25" d="M258.85,165.73a6.37,6.37,0,1,1-6.37-6.37A6.37,6.37,0,0,1,258.85,165.73Z"/><path class="cls-10" d="M251.23,165.41a.25.25,0,0,1-.24-.25.76.76,0,1,0-1.52,0,.25.25,0,0,1-.25.25.25.25,0,0,1-.25-.25,1.26,1.26,0,1,1,2.51,0A.25.25,0,0,1,251.23,165.41Z"/><path class="cls-10" d="M255.74,165.41a.25.25,0,0,1-.24-.25.76.76,0,0,0-1.52,0,.25.25,0,0,1-.5,0,1.26,1.26,0,1,1,2.51,0A.25.25,0,0,1,255.74,165.41Z"/><path class="cls-3" d="M255.33,167.38a2.85,2.85,0,0,1-5.7,0Z"/><path class="cls-11" d="M249.9,168.57a2.84,2.84,0,0,0,5.16,0Z"/><path class="cls-26" d="M188.11,65.74,185,64.13a.23.23,0,0,0-.2,0l-3.12,1.69a.2.2,0,0,1-.3-.21l.55-3.51a.22.22,0,0,0-.06-.19l-2.58-2.44a.21.21,0,0,1,.12-.36l3.5-.56a.21.21,0,0,0,.16-.11l1.53-3.2a.2.2,0,0,1,.37,0l1.62,3.16a.19.19,0,0,0,.16.11l3.51.47a.21.21,0,0,1,.13.36l-2.51,2.51a.21.21,0,0,0-.06.18l.64,3.49A.21.21,0,0,1,188.11,65.74Z"/><path class="cls-3" d="M181.49,64.55l-.16,1.06a.2.2,0,0,0,.3.21l.13-.06,7-7-1.3-.17Z"/><path class="cls-3" d="M186.62,58.47s-.07,0-.08-.08l-1-1.87-4.6,4.6.84.79a.22.22,0,0,1,.06.19l-.21,1.32Z"/><path class="cls-10" d="M184.79,54.52h0a.44.44,0,0,1-.43-.44v-1.2a.44.44,0,0,1,.43-.43h0a.45.45,0,0,1,.43.44v1.2A.44.44,0,0,1,184.79,54.52Z"/><path class="cls-10" d="M187,54.9a.39.39,0,0,1-.15,0,.44.44,0,0,1-.26-.56l.82-2.25a.44.44,0,0,1,.82.3l-.83,2.25A.41.41,0,0,1,187,54.9Z"/><path class="cls-10" d="M188.94,56a.43.43,0,0,1-.26-.09.44.44,0,0,1-.08-.61l.77-1a.43.43,0,0,1,.69.52l-.77,1A.46.46,0,0,1,188.94,56Z"/><path class="cls-10" d="M190.39,57.75a.44.44,0,0,1-.38-.22.43.43,0,0,1,.16-.59l2.08-1.19a.43.43,0,0,1,.43.75l-2.08,1.19A.42.42,0,0,1,190.39,57.75Z"/><path class="cls-10" d="M191.15,59.86a.43.43,0,0,1-.07-.86l1.18-.2a.43.43,0,0,1,.5.35.44.44,0,0,1-.35.5l-1.18.2Z"/><path class="cls-10" d="M193.51,62.53h-.08l-2.36-.42a.44.44,0,0,1-.35-.5.43.43,0,0,1,.51-.35l2.35.42a.43.43,0,0,1,.35.5A.44.44,0,0,1,193.51,62.53Z"/><path class="cls-10" d="M191.38,64.8a.46.46,0,0,1-.22-.06l-1-.59a.43.43,0,0,1-.16-.59.44.44,0,0,1,.59-.15l1,.58a.44.44,0,0,1,.15.59A.42.42,0,0,1,191.38,64.8Z"/><path class="cls-10" d="M190.46,67.77a.41.41,0,0,1-.33-.16l-1.53-1.84a.43.43,0,0,1,.05-.61.44.44,0,0,1,.61.06l1.53,1.84a.43.43,0,0,1,0,.61A.42.42,0,0,1,190.46,67.77Z"/><path class="cls-10" d="M187.38,68.17a.43.43,0,0,1-.4-.28l-.41-1.13a.43.43,0,0,1,.82-.29l.4,1.13a.43.43,0,0,1-.26.55Z"/><path class="cls-10" d="M184.75,69.82h0a.43.43,0,0,1-.43-.43l0-2.4a.43.43,0,0,1,.43-.43h0a.44.44,0,0,1,.43.44v2.39A.44.44,0,0,1,184.75,69.82Z"/><path class="cls-10" d="M182.13,68.17l-.15,0a.44.44,0,0,1-.25-.56l.42-1.14a.44.44,0,0,1,.56-.26.42.42,0,0,1,.25.55l-.42,1.15A.43.43,0,0,1,182.13,68.17Z"/><path class="cls-10" d="M179.07,67.72a.42.42,0,0,1-.28-.1.43.43,0,0,1,0-.61l1.55-1.83a.43.43,0,0,1,.66.56l-1.55,1.83A.44.44,0,0,1,179.07,67.72Z"/><path class="cls-10" d="M178,64.82a.43.43,0,0,1-.21-.81l1.14-.65a.43.43,0,1,1,.43.75l-1.14.65A.43.43,0,0,1,178,64.82Z"/><path class="cls-10" d="M176.07,62.45a.43.43,0,0,1-.07-.86l2.36-.4a.44.44,0,0,1,.14.86l-2.36.39Z"/><path class="cls-10" d="M178.44,59.81h-.07l-1.14-.21a.43.43,0,0,1-.35-.5.42.42,0,0,1,.5-.35l1.14.21a.43.43,0,0,1,.35.5A.44.44,0,0,1,178.44,59.81Z"/><path class="cls-10" d="M179.23,57.7a.43.43,0,0,1-.22-.06l-2.07-1.21a.45.45,0,0,1-.15-.6.44.44,0,0,1,.59-.15l2.07,1.22a.43.43,0,0,1,.15.59A.42.42,0,0,1,179.23,57.7Z"/><path class="cls-10" d="M180.68,56a.43.43,0,0,1-.31-.13l-.84-.88a.44.44,0,0,1,.63-.6l.84.88a.43.43,0,0,1,0,.61A.42.42,0,0,1,180.68,56Z"/><path class="cls-10" d="M182.64,54.89a.43.43,0,0,1-.41-.29l-.8-2.26a.43.43,0,0,1,.27-.55.43.43,0,0,1,.55.26l.8,2.26a.43.43,0,0,1-.27.55A.32.32,0,0,1,182.64,54.89Z"/><rect class="cls-27" x="242.78" y="21.6" width="15.91" height="22.33" rx="1.27" transform="translate(217.96 283.5) rotate(-90)"/><rect class="cls-28" x="244.87" y="23.95" width="12.05" height="17.64" transform="translate(218.12 283.66) rotate(-90)"/><rect class="cls-29" x="238.52" y="32.51" width="4.88" height="0.53" rx="0.21" transform="translate(208.19 273.72) rotate(-90)"/><path class="cls-3" d="M252.29,33.38l-3,1.76a.53.53,0,0,1-.79-.46V31.17a.52.52,0,0,1,.79-.45l3,1.75a.53.53,0,0,1,0,.91l-3,1.76a.53.53,0,0,1-.79-.46V31.17a.52.52,0,0,1,.79-.45l3,1.75A.53.53,0,0,1,252.29,33.38Z"/><path class="cls-30" d="M245.16,24.81v1.68a.66.66,0,0,0,.65.66h.72v2.59a.15.15,0,0,0,.26.1l3.3-2.69h9.21a.65.65,0,0,0,.65-.65V24.81Z"/><path class="cls-10" d="M245.8,17.33a.65.65,0,0,0-.64.65v7.66a.65.65,0,0,0,.65.66h.72v2.6a.15.15,0,0,0,.26.09l3.3-2.69h9.21a.65.65,0,0,0,.65-.65V18a.65.65,0,0,0-.65-.65Z"/><path class="cls-3" d="M254,22.81a1.11,1.11,0,0,0-.78.33l-1.42-1a1,1,0,0,0,.06-.35,1.13,1.13,0,0,0,0-.32l1.44-.94a1.08,1.08,0,0,0,.75.3,1.1,1.1,0,1,0-1.1-1.1,1.16,1.16,0,0,0,.07.37l-1.42.92a1.12,1.12,0,0,0-.79-.33,1.1,1.1,0,1,0,0,2.2,1.06,1.06,0,0,0,.76-.3l1.44,1a.88.88,0,0,0-.06.33,1.1,1.1,0,1,0,1.1-1.11Z"/><path class="cls-31" d="M202.92,155.53v12.28a2.81,2.81,0,0,1-2.81,2.81h-1.3v6.67a.31.31,0,0,1-.56.2l-7.12-6.87H176.48a2.81,2.81,0,0,1-2.81-2.81V155.53a2.81,2.81,0,0,1,2.81-2.81h23.63A2.81,2.81,0,0,1,202.92,155.53Z"/><path class="cls-3" d="M191.67,158.6H177.06a1,1,0,0,1-1-1h0a1,1,0,0,1,1-1h14.61a1,1,0,0,1,1,1h0A1,1,0,0,1,191.67,158.6Z"/><path class="cls-3" d="M191.67,163.08H177.06a1,1,0,0,1-1-1h0a1,1,0,0,1,1-1h14.61a1,1,0,0,1,1,1h0A1,1,0,0,1,191.67,163.08Z"/><path class="cls-3" d="M191.67,167.56H177.06a1,1,0,0,1-1-1h0a1,1,0,0,1,1-1h14.61a1,1,0,0,1,1,1h0A1,1,0,0,1,191.67,167.56Z"/><path class="cls-30" d="M200.11,152.72h-17.6c0,.06,0,.12,0,.18v13.22a3,3,0,0,0,3,3h1.4v1.48h4.22l1.25,1.21,2.79-2.69h7.4a2.83,2.83,0,0,0,.35-1.33V155.53A2.81,2.81,0,0,0,200.11,152.72Z"/><path class="cls-3" d="M183.53,152.9v13.22a3,3,0,0,0,3,3h1.39v7.17a.34.34,0,0,0,.61.22l7.65-7.39h9a3,3,0,0,0,3-3V152.9a3,3,0,0,0-3-3H186.55A3,3,0,0,0,183.53,152.9Z"/><rect class="cls-10" x="187.55" y="153.98" width="16.68" height="2.07" rx="1.04"/><path class="cls-10" d="M203.19,160.09h-14.6a1,1,0,0,1-1-1h0a1,1,0,0,1,1-1h14.6a1,1,0,0,1,1,1h0A1,1,0,0,1,203.19,160.09Z"/><path class="cls-10" d="M197.22,164.12h-8.63a1,1,0,0,1-1-1h0a1,1,0,0,1,1-1h8.63a1,1,0,0,1,1,1h0A1,1,0,0,1,197.22,164.12Z"/><rect class="cls-32" x="264.07" y="88.66" width="25.61" height="16.28" rx="0.73"/><path class="cls-33" d="M289.51,104.56l-12.13-8.83a.86.86,0,0,0-1,0l-12.13,8.83a.85.85,0,0,0,.7.38h23.87A.86.86,0,0,0,289.51,104.56Z"/><path class="cls-34" d="M264.24,89l12.13,8.83a.89.89,0,0,0,1,0L289.51,89a.84.84,0,0,0-.7-.38H264.94A.82.82,0,0,0,264.24,89Z"/><path class="cls-30" d="M269.45,88.66a7.92,7.92,0,0,0,15.24,0Z"/><circle class="cls-12" cx="277.07" cy="85.78" r="7.92" transform="translate(-11.68 113.14) rotate(-22.62)"/><circle class="cls-35" cx="277.07" cy="85.78" r="4.84"/><polygon class="cls-3" points="278.31 88.74 277.04 88.74 277.04 83.59 275.83 83.59 275.83 82.32 278.31 82.32 278.31 88.74"/><path class="cls-36" d="M220,1.86V10a1.87,1.87,0,0,0,1.87,1.86h.86v4.43a.21.21,0,0,0,.37.13l4.73-4.56h5.57A1.86,1.86,0,0,0,235.29,10V1.86A1.86,1.86,0,0,0,233.43,0H221.9A1.87,1.87,0,0,0,220,1.86Z"/><path class="cls-3" d="M222.9,2.53h9.52a.38.38,0,0,1,.38.38v.51a.38.38,0,0,1-.38.38H222.9a.38.38,0,0,1-.38-.38V2.92A.39.39,0,0,1,222.9,2.53Z"/><path class="cls-3" d="M232.17,6.3h-9a.64.64,0,0,1-.64-.64h0a.63.63,0,0,1,.64-.64h9a.64.64,0,0,1,.64.64h0A.64.64,0,0,1,232.17,6.3Z"/><path class="cls-3" d="M228.48,8.78h-5.32a.63.63,0,0,1-.64-.64h0a.64.64,0,0,1,.64-.64h5.32a.64.64,0,0,1,.64.64h0A.63.63,0,0,1,228.48,8.78Z"/><path class="cls-12" d="M241.05,62.65a.88.88,0,0,1,.88.88v8.85a.89.89,0,0,1-.89.89h-1v3.52a.2.2,0,0,1-.35.13l-4.46-3.65H222.76a.88.88,0,0,1-.88-.87V63.53a.88.88,0,0,1,.88-.88Z"/><path class="cls-3" d="M225.76,70.19v-4.5h1V69.3h1.92v.89Z"/><path class="cls-3" d="M233.09,69.57a2.45,2.45,0,0,1-3.37,0,2.37,2.37,0,0,1,0-3.32,2.48,2.48,0,0,1,3.37,0,2.37,2.37,0,0,1,0,3.32Zm-.34-1.65a1.45,1.45,0,0,0-.39-1,1.26,1.26,0,0,0-1-.43,1.25,1.25,0,0,0-.95.43,1.54,1.54,0,0,0,0,2,1.24,1.24,0,0,0,.95.42,1.25,1.25,0,0,0,1-.42A1.44,1.44,0,0,0,232.75,67.92Z"/><path class="cls-3" d="M234.62,70.19v-4.5h1V69.3h1.92v.89Z"/><path class="cls-3" d="M281.69,64.77l.72-3.9a7.41,7.41,0,1,1,2.83,3.25Z"/><path class="cls-11" d="M292.6,57.2a2,2,0,0,0-3.48-1.42,2,2,0,0,0-3.48,1.42,2,2,0,0,0,.57,1.41l2.9,2.89,3-3,.11-.15A2,2,0,0,0,292.6,57.2Z"/><rect class="cls-37" x="216.67" y="98.8" width="29.7" height="20.65"/><rect class="cls-12" x="218.89" y="100.78" width="25.27" height="15.76"/><polygon class="cls-10" points="222.79 106.58 218.91 112.19 218.89 116.54 228.9 116.54 222.79 106.58"/><polygon class="cls-3" points="223.41 109.5 223.76 110.08 224.38 109.19 222.79 106.58 221 109.16 221.56 110.08 221.98 109.47 222.66 110.59 223.41 109.5"/><polygon class="cls-10" points="227.54 114.37 230.5 109.97 234.57 116.54 228.88 116.54 227.54 114.37"/><circle class="cls-38" cx="236.7" cy="106.15" r="2.77"/><polygon class="cls-3" points="231.15 112.89 231.5 113.47 232.11 112.58 230.5 109.97 228.74 112.55 229.29 113.47 229.72 112.86 230.39 113.98 231.15 112.89"/><path class="cls-3" d="M276.69,28.19v6.39a.07.07,0,0,0,.06.07h1.43v2a.12.12,0,0,0,.21.08L281,34.65h4a.07.07,0,0,0,.06-.07V28.19a.06.06,0,0,0-.06-.06h-8.25A.06.06,0,0,0,276.69,28.19Z"/><rect class="cls-10" x="278.05" y="29.52" width="5.65" height="0.7" rx="0.28"/><path class="cls-10" d="M283.35,31.58h-5a.35.35,0,0,1-.35-.35h0a.35.35,0,0,1,.35-.35h5a.35.35,0,0,1,.35.35h0A.35.35,0,0,1,283.35,31.58Z"/><path class="cls-10" d="M281.33,33H278.4a.36.36,0,0,1-.35-.36h0a.35.35,0,0,1,.35-.35h2.93a.35.35,0,0,1,.35.35h0A.36.36,0,0,1,281.33,33Z"/><path class="cls-10" d="M291.3,30.44v.78h-1.6v.68a1.7,1.7,0,0,1,.41,0,1.51,1.51,0,0,1,1,.36,1.15,1.15,0,0,1,.43.95,1.31,1.31,0,0,1-.44,1,1.56,1.56,0,0,1-1.08.39,1.76,1.76,0,0,1-1.38-.61l.47-.66.14.12a2.07,2.07,0,0,0,.32.2.93.93,0,0,0,.47.13.68.68,0,0,0,.41-.14.48.48,0,0,0,.18-.41.5.5,0,0,0-.19-.43.88.88,0,0,0-.51-.14,1.51,1.51,0,0,0-.71.22l-.38-.41v-2Z"/><path class="cls-10" d="M293.89,31.12a.72.72,0,0,0-.59.26,1.26,1.26,0,0,0-.25.69,1.4,1.4,0,0,1,.8-.25,1.33,1.33,0,0,1,.95.37,1.31,1.31,0,0,1,.38,1,1.26,1.26,0,0,1-.41,1,1.49,1.49,0,0,1-1,.37,1.63,1.63,0,0,1-.75-.17,1.21,1.21,0,0,1-.49-.46,2.74,2.74,0,0,1-.35-1.44,3.22,3.22,0,0,1,.14-1,1.73,1.73,0,0,1,.38-.67,1.54,1.54,0,0,1,1.15-.49,1.61,1.61,0,0,1,.54.09,2,2,0,0,1,.4.17l.31.22-.43.64-.1-.09a1.44,1.44,0,0,0-.27-.15A.8.8,0,0,0,293.89,31.12Zm-.12,1.47a.68.68,0,0,0-.46.16.53.53,0,0,0-.18.42.58.58,0,0,0,.18.43.54.54,0,0,0,.43.19.62.62,0,0,0,.44-.17.54.54,0,0,0,.17-.42.59.59,0,0,0-.16-.43A.52.52,0,0,0,293.77,32.59Z"/><path class="cls-10" d="M295.77,31.74v-1.3h2.93v.68l-1.64,3.38h-1l1.57-3.28h-1v.52Z"/></g></g></g></svg>