<?xml version="1.0"?>
<svg xmlns="http://www.w3.org/2000/svg" xmlns:xlink="http://www.w3.org/1999/xlink" version="1.1" id="Capa_1" x="0px" y="0px" viewBox="0 0 512 512" style="enable-background:new 0 0 512 512;" xml:space="preserve" width="512px" height="512px"><g><g>
	<g>
		<path d="M488.434,252.083c-2.408-3.369-7.093-4.147-10.463-1.738s-4.148,7.094-1.738,10.463    c13.585,18.999,20.766,41.431,20.766,64.872c0,52.103-36.891,97.979-87.719,109.082c-1.995,0.436-3.726,1.666-4.793,3.407    L388.27,464.62c-0.876,1.429-2.214,1.643-2.934,1.643c-0.719,0-2.057-0.213-2.933-1.642l-16.216-26.451    c-1.067-1.741-2.798-2.972-4.793-3.407c-16.358-3.573-31.988-10.977-45.202-21.412c-3.25-2.566-7.966-2.013-10.534,1.238    c-2.567,3.25-2.013,7.967,1.238,10.534c14.139,11.165,30.723,19.273,48.143,23.561l14.577,23.776    c3.379,5.511,9.256,8.802,15.722,8.802c6.465,0,12.342-3.291,15.721-8.802l14.577-23.775c26.538-6.528,50.567-21.73,67.945-43.056    C501.908,383.138,512,354.746,512,325.681C511.999,299.091,503.85,273.642,488.434,252.083z" data-original="#000000" class="active-path" data-old_color="#F8F7F7" fill="#FBFAFA"/>
	</g>
</g><g>
	<g>
		<path d="M466.501,228.447c-16.7-13.959-36.543-23.285-57.768-27.248c0.615-5.562,0.931-11.171,0.931-16.8    c0-41.251-16.122-79.976-45.395-109.042c-29.271-29.063-68.109-44.874-109.38-44.616c-40.323,0.286-78.38,16.214-107.16,44.85    c-28.781,28.638-44.897,66.614-45.378,106.934c-0.075,6.262,0.244,12.5,0.927,18.68c-12.58,2.364-24.703,6.636-36.127,12.754    c-3.652,1.956-5.026,6.501-3.071,10.152c1.352,2.524,3.942,3.961,6.618,3.961c1.195,0,2.407-0.286,3.534-0.89    c9.945-5.326,20.485-9.065,31.417-11.162c4.961,23.551,15.4,45.797,30.621,64.692c1.697,2.107,3.453,4.16,5.254,6.168h-8.002    c-4.142,0-7.5,3.358-7.5,7.5v46.58c0,4.142,3.358,7.5,7.5,7.5h13.19v22.47c0,4.142,3.358,7.5,7.5,7.5h26.08    c4.142,0,7.5-3.358,7.5-7.5v-48.847c10.209,5.073,20.986,9.018,32.129,11.703l14.025,22.876    c-11.24,38.932-43.629,69.418-83.337,78.1c-1.994,0.437-3.725,1.667-4.792,3.406l-16.219,26.449    c-0.877,1.429-2.217,1.642-2.938,1.642s-2.061-0.213-2.936-1.639l-16.21-26.45c-1.067-1.742-2.799-2.973-4.794-3.408    c-51.454-11.236-88.342-57.685-87.711-110.444c0.359-30.283,13.398-59.575,35.776-80.364c3.035-2.819,3.209-7.565,0.39-10.6    c-2.818-3.034-7.564-3.209-10.6-0.39c-25.373,23.573-40.159,56.805-40.566,91.175c-0.351,29.373,9.578,58.115,27.959,80.934    c17.421,21.626,41.611,37.025,68.396,43.611l14.572,23.777c3.379,5.509,9.257,8.798,15.723,8.798s12.343-3.289,15.724-8.799    l14.58-23.776c21.632-5.315,41.501-16.287,57.636-31.855c13.552-13.077,23.95-28.904,30.54-46.326    c3.21,1.951,6.938,3.028,10.861,3.028c3.917,0,7.639-1.074,10.846-3.019c4.259,11.276,10.109,21.862,17.49,31.59    c1.475,1.944,3.714,2.967,5.98,2.967c1.58,0,3.172-0.497,4.528-1.526c3.3-2.503,3.945-7.208,1.441-10.508    c-8.335-10.983-14.461-23.199-18.244-36.351l14.039-22.898c9.229-2.225,18.211-5.317,26.83-9.198v16.372    c0,4.142,3.358,7.5,7.5,7.5h13.19v22.47c0,4.142,3.358,7.5,7.5,7.5h26.08c4.142,0,7.5-3.358,7.5-7.5v-76.55    c0-4.142-3.358-7.5-7.5-7.5h-2.7c1.608-1.793,3.18-3.621,4.706-5.493c15.504-19.027,26.143-41.538,31.168-65.378    c18.557,3.531,35.907,11.725,50.527,23.946c1.404,1.173,3.109,1.746,4.806,1.746c2.145,0,4.275-0.916,5.758-2.69    C470.102,235.833,469.679,231.103,466.501,228.447z M172.79,363.429h-0.001h-11.08v-22.47c0-4.142-3.358-7.5-7.5-7.5h-13.19    v-31.58h15.979c5.018,4.225,10.294,8.122,15.792,11.668V363.429z M365.679,363.429h-11.08v-22.47c0-4.142-3.358-7.5-7.5-7.5    h-13.19v-16.648c7.421-4.375,14.482-9.369,21.092-14.932h10.678V363.429z M285.731,319.855c-1.995,0.436-3.726,1.666-4.793,3.407    l-17.432,28.432c-0.007,0.011-0.014,0.023-0.021,0.034l-2.439,3.977c-1.564,2.551-4.051,2.826-5.047,2.826    c-0.997,0-3.483-0.275-5.047-2.825l-19.891-32.444c-1.067-1.741-2.798-2.972-4.793-3.407    c-63.895-13.957-109.703-71.638-108.92-137.153c0.895-74.99,62.642-136.432,137.645-136.963c0.338-0.002,0.675-0.004,1.014-0.004    c36.859,0,71.519,14.276,97.691,40.264c26.416,26.229,40.964,61.174,40.964,98.398    C394.662,249.099,348.85,306.067,285.731,319.855z" data-original="#000000" class="active-path" data-old_color="#F8F7F7" fill="#FBFAFA"/>
	</g>
</g><g>
	<g>
		<path d="M438.963,286.881h-46.771c-4.142,0-7.5,3.358-7.5,7.5v46.58c0,4.142,3.358,7.5,7.5,7.5h13.196v22.464    c0,4.142,3.358,7.499,7.5,7.499h26.075c4.142,0,7.5-3.358,7.5-7.5v-76.543C446.463,290.239,443.105,286.881,438.963,286.881z     M431.463,363.424h-11.075V340.96c0-4.142-3.358-7.5-7.5-7.5h-13.196v-31.579h31.771V363.424z" data-original="#000000" class="active-path" data-old_color="#F8F7F7" fill="#FBFAFA"/>
	</g>
</g><g>
	<g>
		<path d="M114.502,286.882H67.731c-4.142,0-7.5,3.358-7.5,7.5v46.58c0,4.141,3.358,7.499,7.5,7.499h13.197v22.464    c0,4.142,3.358,7.5,7.5,7.5h26.074c4.142,0,7.5-3.358,7.5-7.5v-76.543C122.002,290.24,118.644,286.882,114.502,286.882z     M107.002,363.424H95.927V340.96c0-4.142-3.358-7.5-7.5-7.5H75.231v-31.579h31.771V363.424z" data-original="#000000" class="active-path" data-old_color="#F8F7F7" fill="#FBFAFA"/>
	</g>
</g><g>
	<g>
		<path d="M241.085,138.507h-57.369c-4.142,0-7.5,3.358-7.5,7.5v57.134c0,4.142,3.358,7.5,7.5,7.5h17.886v29.253    c0,4.142,3.358,7.5,7.5,7.5h31.982c4.142,0,7.5-3.358,7.5-7.5v-93.887C248.585,141.865,245.227,138.507,241.085,138.507z     M233.586,232.394L233.586,232.394h-16.983v-29.253c0-4.142-3.358-7.5-7.5-7.5h-17.886v-42.134h42.369V232.394z" data-original="#000000" class="active-path" data-old_color="#F8F7F7" fill="#FBFAFA"/>
	</g>
</g><g>
	<g>
		<path d="M321.775,138.507h-57.368c-4.142,0-7.5,3.358-7.5,7.5v57.134c0,4.142,3.358,7.5,7.5,7.5h17.886v29.253    c0,4.142,3.358,7.5,7.5,7.5h31.982c4.142,0,7.5-3.358,7.5-7.5v-93.887C329.275,141.865,325.917,138.507,321.775,138.507z     M314.275,232.394h-16.982v-29.253c0-4.142-3.358-7.5-7.5-7.5h-17.886v-42.134h42.368V232.394z" data-original="#000000" class="active-path" data-old_color="#F8F7F7" fill="#FBFAFA"/>
	</g>
</g></g> </svg>
