<svg id="Layer_1" enable-background="new 0 0 512 512" height="512" viewBox="0 0 512 512" width="512" xmlns="http://www.w3.org/2000/svg"><path id="XMLID_572_" d="m41.125 40.692h429.75v132.893h-429.75z" fill="#eff5f6"/><path id="XMLID_573_" d="m41.125 387.863v113.835c0 5.687 4.605 10.302 10.302 10.302h409.147c5.697 0 10.302-4.615 10.302-10.302v-113.835z" fill="#eff5f6"/><path id="XMLID_574_" d="m446.841 40.692h24.034v132.893h-24.034z" fill="#cbe5e7"/><path id="XMLID_575_" d="m446.841 387.863v113.835c0 5.687-4.605 10.302-10.302 10.302h24.034c5.697 0 10.302-4.615 10.302-10.302v-113.835z" fill="#cbe5e7"/><path id="XMLID_576_" d="m41.125 164.922h429.75v228.731h-429.75z" fill="#8897dc"/><path id="XMLID_577_" d="m446.841 164.922h24.034v228.731h-24.034z" fill="#6d81d5"/><path id="XMLID_578_" d="m423.92 0h-372.493c-5.697 0-10.302 4.615-10.302 10.302v38.158h382.795z" fill="#64b9fc"/><path id="XMLID_579_" d="m470.875 10.302v38.158h-56.227v-48.46h45.926c5.696 0 10.301 4.615 10.301 10.302z" fill="#ec6264"/><path id="XMLID_580_" d="m470.875 10.302v38.158h-24.034v-38.158c0-5.687-4.605-10.302-10.302-10.302h24.034c5.697 0 10.302 4.615 10.302 10.302z" fill="#e64649"/><circle id="XMLID_1180_" cx="97.128" cy="446.549" fill="#ec6264" r="18.725"/><path id="XMLID_582_" d="m115.847 446.548c0 10.346-8.38 18.727-18.715 18.727-2.495 0-4.863-.483-7.035-1.379 6.84-2.782 11.668-9.496 11.668-17.347s-4.828-14.565-11.668-17.347c2.173-.897 4.541-1.379 7.035-1.379 10.335-.002 18.715 8.379 18.715 18.725z" fill="#e64649"/><circle id="XMLID_1177_" cx="94.486" cy="110.125" fill="#ec6264" r="16.083"/><path id="XMLID_584_" d="m110.565 110.124c0 8.887-7.198 16.085-16.075 16.085-2.143 0-4.177-.415-6.043-1.185 5.875-2.39 10.022-8.156 10.022-14.9s-4.147-12.51-10.022-14.9c1.866-.77 3.9-1.185 6.043-1.185 8.877 0 16.075 7.198 16.075 16.085z" fill="#e64649"/><circle id="XMLID_1174_" cx="157.929" cy="446.549" fill="#27d1b3" r="18.725"/><path id="XMLID_586_" d="m176.649 446.548c0 10.346-8.38 18.727-18.715 18.727-2.495 0-4.863-.483-7.035-1.379 6.84-2.782 11.668-9.496 11.668-17.347s-4.828-14.565-11.668-17.347c2.173-.897 4.541-1.379 7.035-1.379 10.335-.002 18.715 8.379 18.715 18.725z" fill="#20b69f"/><circle id="XMLID_1171_" cx="218.731" cy="446.549" fill="#fcb44d" r="18.725"/><path id="XMLID_588_" d="m237.451 446.548c0 10.346-8.38 18.727-18.715 18.727-2.495 0-4.863-.483-7.035-1.379 6.84-2.782 11.668-9.496 11.668-17.347s-4.828-14.565-11.668-17.347c2.173-.897 4.541-1.379 7.035-1.379 10.335-.002 18.715 8.379 18.715 18.725z" fill="#fb9927"/><path id="XMLID_589_" d="m230.941 101.768h-87.231c-4.267 0-7.726-3.459-7.726-7.726 0-4.268 3.459-7.726 7.726-7.726h87.231c4.267 0 7.726 3.459 7.726 7.726.001 4.267-3.459 7.726-7.726 7.726z" fill="#a9d3d8"/><path id="XMLID_590_" d="m314.025 133.935h-170.315c-4.267 0-7.726-3.459-7.726-7.726s3.459-7.726 7.726-7.726h170.315c4.267 0 7.726 3.459 7.726 7.726s-3.459 7.726-7.726 7.726z" fill="#a9d3d8"/><path id="XMLID_593_" d="m345.183 233.948c-15.474-15.474-40.563-15.474-56.038 0l-7.897 7.897-7.897-7.897c-15.474-15.474-40.563-15.474-56.037 0-15.474 15.474-15.474 40.563 0 56.037l54.052 54.052c5.458 5.458 14.308 5.458 19.766 0l54.052-54.052c15.473-15.474 15.473-40.563-.001-56.037z" fill="#e64649"/><g fill="#d63337"><path id="XMLID_594_" d="m356.318 268.049c-1.236 8.025-4.955 15.751-11.136 21.933l-54.054 54.053c-.268.268-.556.536-.845.773l-10.961-10.961c-15.164-15.164-15.164-39.847 0-55.022 7.356-7.345 17.122-11.394 27.516-11.394 7.665 0 14.989 2.205 21.253 6.305 6.263-4.1 13.588-6.305 21.253-6.305 2.37 0 4.698.206 6.974.618z"/><path id="XMLID_595_" d="m232.676 254.543-23.55 23.54c-2.277-5.11-3.42-10.611-3.42-16.112 0-10.147 3.873-20.284 11.61-28.021 7.335-7.335 16.843-11.198 26.455-11.569 1.37 11.445-2.328 23.395-11.095 32.162z"/><path id="XMLID_596_" d="m345.182 289.982-54.054 54.053c-5.46 5.46-14.309 5.46-19.759 0l-2.761-2.761c2.04-.67 3.946-1.803 5.563-3.42l54.043-54.053c15.473-15.473 15.473-40.558 0-56.032-1.957-1.957-4.08-3.678-6.305-5.141 8.509 1.02 16.74 4.79 23.272 11.322 15.474 15.473 15.474 40.558.001 56.032z"/></g><path id="XMLID_598_" d="m221.746 210.449c-9.158-9.158-24.006-9.158-33.164 0l-4.674 4.674-4.674-4.674c-9.158-9.158-24.006-9.158-33.164 0-9.158 9.158-9.158 24.006 0 33.164l31.989 31.989c3.23 3.23 8.468 3.23 11.698 0l31.989-31.989c9.158-9.158 9.158-24.006 0-33.164z" fill="#f17d7e"/><path id="XMLID_599_" d="m221.746 243.613-31.987 31.987c-3.235 3.235-8.468 3.235-11.703 0l-5.748-5.748c.165-.124.33-.278.484-.433l31.987-31.987c9.158-9.158 9.158-24.003 0-33.161-.227-.227-.453-.443-.69-.659 6.346-.299 12.805 1.988 17.657 6.84 9.158 9.158 9.158 24.003 0 33.161z" fill="#ec6264"/><path id="XMLID_601_" d="m365.931 289.756c-9.158-9.158-24.006-9.158-33.164 0l-4.674 4.674-4.674-4.674c-9.158-9.158-24.006-9.158-33.164 0-9.158 9.158-9.158 24.006 0 33.164l31.989 31.989c3.23 3.23 8.468 3.23 11.698 0l31.989-31.989c9.158-9.157 9.158-24.006 0-33.164z" fill="#f17d7e"/><path id="XMLID_602_" d="m365.93 322.916-31.987 31.997c-3.235 3.225-8.468 3.225-11.703 0l-5.748-5.748c.165-.134.33-.278.484-.433l31.987-31.997c9.158-9.158 9.158-24.003 0-33.161-.227-.227-.453-.443-.69-.659 6.346-.299 12.805 1.988 17.657 6.84 9.158 9.158 9.158 24.003 0 33.161z" fill="#ec6264"/></svg>