<svg height="440pt" viewBox="0 -16 440 440" width="440pt" xmlns="http://www.w3.org/2000/svg"><g fill="#263238"><path d="m60 407.710938h-16c-2.207031 0-4-1.789063-4-4 0-2.207032 1.792969-4 4-4h16c2.207031 0 4 1.792968 4 4 0 2.210937-1.792969 4-4 4zm0 0"/><path d="m196 407.710938h-120c-2.207031 0-4-1.789063-4-4 0-2.207032 1.792969-4 4-4h120c2.207031 0 4 1.792968 4 4 0 2.210937-1.792969 4-4 4zm0 0"/><path d="m396 23.710938h-16c-2.207031 0-4-1.789063-4-4 0-2.207032 1.792969-4 4-4h16c2.207031 0 4 1.792968 4 4 0 2.210937-1.792969 4-4 4zm0 0"/><path d="m364 23.710938h-120c-2.207031 0-4-1.789063-4-4 0-2.207032 1.792969-4 4-4h120c2.207031 0 4 1.792968 4 4 0 2.210937-1.792969 4-4 4zm0 0"/></g><path d="m156 51.710938-19.902344-6.632813c-10.136718-3.375-18.089844-11.324219-21.464844-21.460937l-6.632812-19.90625-6.632812 19.90625c-3.375 10.136718-11.328126 18.085937-21.464844 21.460937l-19.902344 6.632813 19.902344 6.632812c10.136718 3.375 18.089844 11.328125 21.464844 21.464844l6.632812 19.902344 6.632812-19.902344c3.375-10.136719 11.328126-18.089844 21.464844-21.464844zm0 0" fill="#ffd740"/><path d="m108 103.710938c-1.71875 0-3.246094-1.101563-3.792969-2.734376l-6.632812-19.898437c-2.964844-8.886719-10.046875-15.964844-18.941407-18.933594l-19.898437-6.632812c-1.628906-.550781-2.734375-2.078125-2.734375-3.800781 0-1.71875 1.105469-3.246094 2.734375-3.800782l19.898437-6.628906c8.894532-2.960938 15.976563-10.042969 18.941407-18.9375l6.632812-19.894531c1.089844-3.265625 6.496094-3.265625 7.585938 0l6.632812 19.894531c2.964844 8.894531 10.046875 15.976562 18.933594 18.9375l19.90625 6.628906c1.628906.554688 2.734375 2.082032 2.734375 3.800782 0 1.722656-1.105469 3.25-2.734375 3.800781l-19.898437 6.632812c-8.894532 2.96875-15.976563 10.046875-18.941407 18.933594l-6.632812 19.898437c-.546875 1.632813-2.074219 2.734376-3.792969 2.734376zm-35.351562-52 8.511718 2.832031c11.273438 3.769531 20.238282 12.738281 24 24l2.839844 8.519531 2.839844-8.511719c3.753906-11.261719 12.726562-20.230469 24-24l8.511718-2.839843-8.511718-2.832032c-11.273438-3.757812-20.238282-12.726562-24-24l-2.839844-8.519531-2.839844 8.511719c-3.753906 11.273437-12.726562 20.242187-24 24zm0 0" fill="#263238"/><path d="m416 375.710938h-392c-13.230469 0-24-10.765626-24-24v-280c0-13.230469 10.769531-24 24-24h20c2.207031 0 4 1.792968 4 4 0 2.210937-1.792969 4-4 4h-20c-8.824219 0-16 7.175781-16 16v280c0 8.824218 7.175781 16 16 16h392c8.824219 0 16-7.175782 16-16v-280c0-8.824219-7.175781-16-16-16h-244c-2.207031 0-4-1.789063-4-4 0-2.207032 1.792969-4 4-4h244c13.230469 0 24 10.769531 24 24v280c0 13.234374-10.769531 24-24 24zm0 0" fill="#263238"/><path d="m220 327.710938c-57.0625 0-108.207031-30.917969-141.070312-56.855469-35.441407-27.976563-57.167969-55.511719-58.082032-56.671875-1.136718-1.457032-1.136718-3.488282 0-4.9375.90625-1.15625 22.640625-28.695313 58.082032-56.671875 32.863281-25.941407 84.007812-56.863281 141.070312-56.863281s108.207031 30.921874 141.070312 56.855468c35.441407 27.976563 57.167969 55.511719 58.082032 56.671875 1.136718 1.457031 1.136718 3.488281 0 4.9375-.90625 1.160157-22.640625 28.695313-58.082032 56.671875-32.863281 25.945313-84.007812 56.863282-141.070312 56.863282zm-190.832031-116c13.664062 16.335937 94.695312 108 190.832031 108 96.199219 0 177.167969-91.65625 190.832031-108-13.664062-16.335938-94.695312-108-190.832031-108-96.199219 0-177.167969 91.65625-190.832031 108zm0 0" fill="#263238"/><path d="m220 327.710938c-63.960938 0-116-52.039063-116-116 0-63.957032 52.039062-116 116-116s116 52.042968 116 116c0 63.960937-52.039062 116-116 116zm0-224c-59.550781 0-108 48.449218-108 108 0 59.554687 48.449219 108 108 108s108-48.445313 108-108c0-59.550782-48.449219-108-108-108zm0 0" fill="#263238"/><path d="m220.304688 147.710938c35.34375 0 64 28.65625 64 64h-64zm0 0" fill="#40c4ff"/><path d="m284.3125 215.710938h-64c-2.207031 0-4-1.789063-4-4v-64c0-2.207032 1.792969-4 4-4 37.496094 0 68 30.503906 68 68 0 2.210937-1.792969 4-4 4zm-60-8h55.863281c-1.976562-29.894532-25.96875-53.886719-55.863281-55.863282zm0 0" fill="#263238"/><path d="m220 276.023438c-35.34375 0-64-28.65625-64-64h64zm0 0" fill="#ff5252"/><path d="m220 280.023438c-37.496094 0-68-30.503907-68-68 0-2.207032 1.792969-4 4-4h64c2.207031 0 4 1.792968 4 4v64c0 2.207031-1.792969 4-4 4zm-59.863281-64c1.976562 29.898437 25.96875 53.886718 55.863281 55.863281v-55.863281zm0 0" fill="#263238"/><path d="m412 119.710938c-2.207031 0-4-1.789063-4-4v-36h-36c-2.207031 0-4-1.789063-4-4 0-2.207032 1.792969-4 4-4h40c2.207031 0 4 1.792968 4 4v40c0 2.210937-1.792969 4-4 4zm0 0" fill="#263238"/></svg>