<svg xmlns="http://www.w3.org/2000/svg" xmlns:xlink="http://www.w3.org/1999/xlink" viewBox="0 0 288.32 162.55"><defs><style>.cls-1{fill:url(#linear-gradient);}.cls-2{fill:url(#linear-gradient-2);}.cls-3{fill:url(#linear-gradient-3);}.cls-4{opacity:0.1;}.cls-5{fill:url(#linear-gradient-4);}.cls-6{fill:url(#linear-gradient-5);}.cls-18,.cls-7{opacity:0.2;}.cls-8{fill:url(#linear-gradient-6);}.cls-9{fill:url(#linear-gradient-7);}.cls-10,.cls-29{opacity:0.3;}.cls-11{fill:url(#linear-gradient-8);}.cls-12{fill:url(#linear-gradient-9);}.cls-13{fill:#0c4da4;}.cls-14{fill:url(#linear-gradient-10);}.cls-15{fill:#ffcebd;}.cls-16{fill:#1067db;}.cls-17{fill:#fff;}.cls-18{fill:#08346e;}.cls-19{fill:#a58877;}.cls-20{fill:#915c07;}.cls-21{opacity:0.15;}.cls-22,.cls-29{fill:#802c11;}.cls-23{fill:#6c98e3;}.cls-24{fill:#4d5068;}.cls-25{fill:#ff5722;}.cls-26,.cls-28{fill:#272834;}.cls-26,.cls-27{opacity:0.5;}.cls-30{opacity:0.4;}.cls-31{fill:#564735;}</style><linearGradient id="linear-gradient" x1="21.13" y1="182.01" x2="256.25" y2="29.71" gradientUnits="userSpaceOnUse"><stop offset="0" stop-color="#dfe1fd"/><stop offset="0.45" stop-color="#ebecfe"/><stop offset="1" stop-color="#f4f5fe"/></linearGradient><linearGradient id="linear-gradient-2" x1="29.32" y1="-35.83" x2="220.86" y2="88.24" gradientTransform="matrix(1, 0, 0, -1, 0, 146.95)" gradientUnits="userSpaceOnUse"><stop offset="0" stop-color="#c1e1fd"/><stop offset="0.45" stop-color="#ebecfe"/><stop offset="0.96" stop-color="#ebecfe"/><stop offset="1" stop-color="#f4f5fe"/></linearGradient><linearGradient id="linear-gradient-3" x1="202.71" y1="3.82" x2="145.58" y2="56.46" gradientUnits="userSpaceOnUse"><stop offset="0" stop-color="#e92327"/><stop offset="0.09" stop-color="#eb2928"/><stop offset="0.69" stop-color="#f94f2f"/><stop offset="1" stop-color="#fe5e31"/></linearGradient><linearGradient id="linear-gradient-4" x1="147.69" y1="29.73" x2="202.22" y2="29.73" xlink:href="#linear-gradient-3"/><linearGradient id="linear-gradient-5" x1="161.42" y1="166.17" x2="199.29" y2="98.13" xlink:href="#linear-gradient-3"/><linearGradient id="linear-gradient-6" x1="150.46" y1="135.16" x2="205.94" y2="135.16" xlink:href="#linear-gradient-3"/><linearGradient id="linear-gradient-7" x1="-35.13" y1="-43.3" x2="2.74" y2="-111.33" gradientTransform="translate(167.22 152.85) rotate(90)" xlink:href="#linear-gradient-3"/><linearGradient id="linear-gradient-8" x1="214.26" y1="134.5" x2="268.79" y2="134.5" xlink:href="#linear-gradient-3"/><linearGradient id="linear-gradient-9" x1="-35.12" y1="590.23" x2="2.75" y2="522.19" gradientTransform="matrix(0, 1, 1, 0, -504.02, 152.85)" gradientUnits="userSpaceOnUse"><stop offset="0" stop-color="#1067db"/><stop offset="0.18" stop-color="#1e68e2"/><stop offset="0.72" stop-color="#446cf6"/><stop offset="1" stop-color="#536dfe"/></linearGradient><linearGradient id="linear-gradient-10" x1="74.16" y1="115.55" x2="148.21" y2="115.55" gradientTransform="matrix(1, 0, 0, 1, 0, 0)" xlink:href="#linear-gradient-9"/></defs><title>teamAsset 1</title><g id="Layer_2" data-name="Layer 2"><g id="Layer_1-2" data-name="Layer 1"><g id="Layer_8" data-name="Layer 8"><path class="cls-1" d="M264.81,110.33c5,8,7.44,17.87,2.38,25.42-4.35,6.49-13,9.1-17.34,15.6-2.2,3.28-3.36,7.57-6.79,9.51-2.11,1.2-4.67,1.24-7.1,1.24H38.4c-3,0-5.94.05-8.91,0-6.52-.12-15.59,1.78-21.33-2a15.58,15.58,0,0,1-5.29-6.76A31.56,31.56,0,0,1,.29,136c.72-5.27,2.76-10.25,4.44-15.3,1.75-5.27,3.11-10.66,5-15.9,11-31.32,38.19-57,63.4-77.44,13.36-10.83,29.09-22.83,47.14-22.8,17.41,0,32.07,11,49.12,12.24,14.94,1.11,30.39-4.53,44.69,0a31.55,31.55,0,0,1,14,9.13c3.68,4.11,5.91,10.53,10.73,13.74,6.73,4.47,15.55-.49,22.87,2.84,5.66,2.58,8.68,7.78,9.51,13.82a40.76,40.76,0,0,1-8.77,30.12c-3,3.5-6.58,6.44-9.93,9.58,3.08,3.23,6.28,6.41,9.11,9.83A41.36,41.36,0,0,1,264.81,110.33Z"/></g><g id="Layer_8-2" data-name="Layer 8"><path class="cls-2" d="M243.48,118.24c4.27,6.81,6.37,15.3,2,21.76-3.73,5.56-11.11,7.79-14.84,13.35-1.88,2.81-2.88,6.48-5.82,8.15-1.8,1-4,1.05-6.07,1.05H31a14.18,14.18,0,0,1-6.2-.92c-2.27-1.09-3.79-3.3-4.9-5.56A31.22,31.22,0,0,1,23.78,123c4.62-5.47,11.17-9.35,14.7-15.57C41.58,102,42,95.5,43,89.35c1.29-7.75,4.49-15.74,12-19.09,9-4,18-7.41,25-14.73,7.54-7.89,11.8-19.1,21.18-24.68,9-5.34,20.43-4.05,30.45-1s19.74,7.58,30.14,8.36c12.79,1,26-3.87,38.25,0a28.73,28.73,0,0,1,18.24,17.68c4.09,11.76.17,25.35,5,36.84,3.61,8.6,11.46,14.53,17.42,21.71A36.31,36.31,0,0,1,243.48,118.24Z"/></g><path id="path5043-4-6-5-1-0-2" class="cls-3" d="M202.22,2.13H147.69s4.47,14.5,0,19c-3.91,3.91-12.68-3.91-16.59,0s-3.92,12.68,0,16.59,12.68-3.91,16.59,0c4.47,4.47,0,19,0,19s14.5,4.47,19,0c3.91-3.91-3.91-12.69,0-16.6s12.68-3.91,16.59,0-3.91,12.69,0,16.6c4.47,4.47,19,0,19,0Z"/><g class="cls-4"><path class="cls-5" d="M147.69,2.13s.38,1.24.81,3.1h51.24V57.32c1.51-.36,2.48-.66,2.48-.66V2.13Z"/></g><path id="path5043-4-6-5-1-0-2-2" data-name="path5043-4-6-5-1-0-2" class="cls-6" d="M205.94,162.43V107.9s-14.5,4.47-19,0c-3.91-3.91,3.91-12.68,0-16.6s-12.68-3.91-16.59,0,3.91,12.69,0,16.6c-4.47,4.47-19,0-19,0s-4.47,14.5,0,19c3.91,3.91,12.69-3.91,16.6,0s3.91,12.68,0,16.59-12.69-3.91-16.6,0c-4.47,4.47,0,19,0,19Z"/><g class="cls-7"><path class="cls-8" d="M202.22,108.85v49.86H150.46c.49,2.2.95,3.72.95,3.72h54.53V107.9S204.42,108.37,202.22,108.85Z"/></g><path id="path5043-4-6-5-1-0-2-3" data-name="path5043-4-6-5-1-0-2" class="cls-9" d="M214.26,162.24h54.53s-4.47-14.49,0-19c3.91-3.91,12.68,3.92,16.59,0s3.91-12.68,0-16.59-12.68,3.91-16.59,0c-4.47-4.47,0-19,0-19s-14.5-4.47-19,0c-3.91,3.91,3.91,12.69,0,16.6s-12.68,3.91-16.59,0,3.91-12.69,0-16.6c-4.47-4.47-19,0-19,0Z"/><g class="cls-10"><path class="cls-11" d="M267.84,158.52H218V106.76c-2.2.49-3.72.95-3.72.95v54.53h54.53S268.32,160.72,267.84,158.52Z"/></g><path id="path5043-4-6-5-1-0-2-4" data-name="path5043-4-6-5-1-0-2" class="cls-12" d="M82.47,162.25H27.94s4.47-14.49,0-19c-3.91-3.92-12.68,3.91-16.6,0s-3.91-12.69,0-16.6,12.69,3.91,16.6,0c4.47-4.47,0-19,0-19s14.49-4.48,19,0c3.91,3.91-3.92,12.68,0,16.59s12.68,3.91,16.59,0-3.91-12.68,0-16.59c4.47-4.48,19,0,19,0Z"/><g class="cls-10"><path class="cls-13" d="M28.89,158.54H78.75V106.78c2.2.48,3.72,1,3.72,1v54.52H27.94S28.41,160.74,28.89,158.54Z"/></g><path id="path5043-37-6-7-7-2-9" class="cls-14" d="M74.16,143.81h54.53s-4.47-14.5,0-19c3.91-3.91,12.68,3.91,16.59,0s3.91-12.68,0-16.59-12.68,3.91-16.59,0c-4.47-4.48,0-19,0-19s-14.5-4.47-19,0c-3.91,3.91,3.91,12.68,0,16.59s-12.68,3.92-16.6,0,3.92-12.68,0-16.59c-4.47-4.47-19,0-19,0v54.53Z"/><g class="cls-7"><path class="cls-13" d="M78.49,139.47V88.2c-2.53.52-4.33,1.08-4.33,1.08v54.53h54.53s-.56-1.81-1.08-4.34Z"/></g><rect class="cls-15" x="268.51" y="146.74" width="7" height="7.23" transform="translate(-37.84 126.07) rotate(-24.45)"/><polygon class="cls-16" points="245.58 109.63 252.19 125.87 267.87 150.98 275.5 147.53 259.77 117.93 248.04 80.36 245.58 109.63"/><polygon class="cls-17" points="267.93 150.76 267.4 151 264.9 157.05 263.52 159.17 259.18 160.37 259.19 162.14 264.3 162.24 280.06 155.6 280.39 153.47 278.21 148.55 276.84 148.31 275.77 148.78 274.38 152.37 269.43 154.49 267.93 150.76"/><polygon class="cls-16" points="280.38 153.46 278.21 148.55 276.84 148.31 275.77 148.78 274.38 152.37 269.43 154.49 267.93 150.76 267.4 151 264.9 157.05 263.52 159.17 259.18 160.37 259.18 160.82 262.94 160.82 280.38 153.46"/><polygon class="cls-18" points="257.26 133.98 254.14 120.09 251.47 91.34 248.04 80.36 245.58 109.63 252.19 125.87 257.26 133.98"/><rect class="cls-15" x="243.12" y="150.35" width="7" height="7.23"/><path class="cls-16" d="M229.91,66.92,239,119.6l4,33.31h7.26s.61-31.16-1.51-35.37l1.51-36.08h0a23,23,0,0,0,.67-10.92h0A8,8,0,0,0,249,66.62l-.24-.27Z"/><polygon class="cls-17" points="242.15 152.91 241.57 152.91 236.84 157.45 229.32 160.3 229.32 162.24 251.29 162.24 252.45 160.43 252.45 155.05 251.29 154.27 250.12 154.27 247.4 156.99 242.02 156.93 242.15 152.91"/><polygon class="cls-16" points="250.12 154.27 247.4 156.99 242.02 156.93 242.15 152.91 241.57 152.91 236.84 157.45 229.45 160.25 252.45 160.25 252.45 155.05 251.29 154.27 250.12 154.27"/><rect class="cls-15" x="242.8" y="20.24" width="7.19" height="7"/><path class="cls-19" d="M242.84,22.65a9.46,9.46,0,0,0,5.78-3.92l-6.33,1.33Z"/><path class="cls-15" d="M240.92,5l-.33,3.89s-1.49,3-2.85,3.82c0,0,.26,1,1,1.1l-.05,5a2.45,2.45,0,0,0,2.45,2.47h2.36a9.46,9.46,0,0,0,9-6.56l1.84-5.68-2.66-5.57L245,3.14A4.2,4.2,0,0,0,240.92,5Z"/><path class="cls-20" d="M240.64,2c-1.51,1.79-.2,4.09,1.27,5.43a11.08,11.08,0,0,0,2.89,1.84,7.53,7.53,0,0,1,1.3.53,4,4,0,0,1,.87,1.52c.08.21.15.42.24.63.39.87,1.69,1.51,1.66,2.53a1.48,1.48,0,0,1-.68,1.06,3.85,3.85,0,0,0-1,.88,2.64,2.64,0,0,0,0,2.15,2.92,2.92,0,0,1,.12,2.17c-.35.61-1.18,1-1.64,1.5s-1.17,1-1.66,1.6c-.72.92-.87,2.21-1.57,3.06s-2.09,1.39-3,2.06a4,4,0,0,0-2,3.33c2-.71,4.59.33,6.32-1,.32-.23.58-.53.89-.78a14.16,14.16,0,0,1,2.56-1.26,6.14,6.14,0,0,0,2.16-1.82,5.69,5.69,0,0,0,2.63.09,8.15,8.15,0,0,0,3.53-1,8.18,8.18,0,0,0,2.15-2.31l.94-1.31c.29-.4.57-.8.84-1.22a11.1,11.1,0,0,0,1.91-7.65,16.88,16.88,0,0,0-3-6.38L255.28,3A6.6,6.6,0,0,0,254,1.36a5,5,0,0,0-1.65-.8A18,18,0,0,0,246,.06C244.07.16,241.9.45,240.64,2Z"/><g class="cls-21"><path class="cls-22" d="M240.33,2.5A5.82,5.82,0,0,1,243.89.29,5.41,5.41,0,0,0,240.64,2a2.7,2.7,0,0,0-.54,1A2.62,2.62,0,0,1,240.33,2.5Z"/><path class="cls-22" d="M242.51,29.39c.86-.78,2.12-1.43,2.76-2.42s.59-2.22,1.18-3.23c.41-.69,1-1.14,1.46-1.79s1.16-1.05,1.43-1.69a2.9,2.9,0,0,0-.39-2.14,2.66,2.66,0,0,1-.29-2.13,3.6,3.6,0,0,1,.84-1,1.51,1.51,0,0,0,.55-1.14c-.1-1-1.47-1.49-2-2.31-.11-.19-.21-.39-.31-.58a3.92,3.92,0,0,0-1.05-1.41,8.21,8.21,0,0,0-1.36-.36A12.06,12.06,0,0,1,242.73,8a12.69,12.69,0,0,0,2.07,1.23,7.53,7.53,0,0,1,1.3.53,4,4,0,0,1,.87,1.52c.08.21.15.42.24.63.39.87,1.69,1.51,1.66,2.53a1.48,1.48,0,0,1-.68,1.06,3.85,3.85,0,0,0-1,.88,2.64,2.64,0,0,0,0,2.15,2.92,2.92,0,0,1,.12,2.17c-.35.61-1.18,1-1.64,1.5s-1.17,1-1.66,1.6c-.72.92-.87,2.21-1.57,3.06s-2.09,1.39-3,2.06a4,4,0,0,0-2,3.33,10.48,10.48,0,0,1,3.46-.27A4.78,4.78,0,0,1,242.51,29.39Z"/></g><path class="cls-18" d="M250.92,70.54A8,8,0,0,0,249,66.62l-.24-.27-18.83.57.83,4.86h0L239,119.6l4,33.31h2.17c-.45-4.77.17-9.71.08-14.55-.15-8.32-2.44-16.42-3.81-24.63A171.17,171.17,0,0,1,239.5,85.2a49.29,49.29,0,0,0-.67-10.45c-.11-.54-.25-1.07-.41-1.6,4.69,2.12,9.24,5.35,12.83,2.82A23.58,23.58,0,0,0,250.92,70.54Z"/><path class="cls-17" d="M250.38,24s6,2.21,6.25,7.56l-7.15,24.09,2,13.75C245.23,75,235.93,65.62,228,71.55L235.64,41h0a7.84,7.84,0,0,1-1.08-6.74l.22-.75,7.82-6.3Z"/><path class="cls-20" d="M261.57,16.72a4.75,4.75,0,0,0-.78-3.11,4.4,4.4,0,0,0-1.19-.9,7.07,7.07,0,0,0-1.16-.6c-1.82-.7-3.86.1-5.54,1.09a12.18,12.18,0,0,0-2.83,2.22,7.14,7.14,0,0,0-1,1.42,1.65,1.65,0,0,0-.17,1.57A41.7,41.7,0,0,0,250.38,24c.78,1.77,2.31,3.39,4.23,3.54-1,3.34.11,6.45.64,9.43a14.4,14.4,0,0,0,1.53-2.41c.75-1.28,1.49-2.55,2.21-3.85a26.3,26.3,0,0,0,2.25-5C262.12,22.81,261.6,19.71,261.57,16.72Z"/><g class="cls-7"><path class="cls-23" d="M241.38,35.24a9.26,9.26,0,0,1-2.31-1.65,4.36,4.36,0,0,0-3.22-1l-1.07.86-.22.75A7.84,7.84,0,0,0,235.64,41l-7.41,29.51c.19.17.39.33.6.49a11.4,11.4,0,0,1,7.41-1.38,7.84,7.84,0,0,0-.18-.81,28,28,0,0,0-1.41-3.11,11.07,11.07,0,0,1,.13-9c.69-1.45,1.71-2.79,1.95-4.38.27-1.79-.5-3.55-.79-5.34a2.08,2.08,0,0,1,.56-2.11,3.42,3.42,0,0,1,1.32-.32c.44-.09.93-.35,1-.8.09-.74-1-1.06-1.28-1.74-.89-2.09,5-3.37,6.27-3.9a1,1,0,0,0,.64-.53.82.82,0,0,0-.16-.67C243.62,35.86,242.4,35.68,241.38,35.24Z"/></g><path class="cls-15" d="M233.47,35.57l-10.18-1.43a9.15,9.15,0,0,1-4.87-2.43L201.31,15.49l-2-1.31-5.83-2.33-3.2-2.48c-.92-.85-.37-1.53.51-1.44l2.49,2,1.17.49.68-.39-4-4c0-.31.66-.79,1-.78l3.59,3.4.81-.74-4.06-4.43c-.54-.76.89-1,2.2.19l2.61,3.62.77-.29L195.58,2c.21-.36,1,.28,1.36.48,1.36.77,3.33,4.79,3.33,4.79l1.36.39.78-1.26-.3-1.65L204.32,7l-.29,3.5L219.9,25.23l14.23,3.3Z"/><g class="cls-10"><path class="cls-19" d="M224.07,32.59a9.22,9.22,0,0,1-4.87-2.43L202.09,13.94l-2-1.31-5.54-2.22-.09.05L193.27,10l-2.49-2c-.88-.09-1.43.59-.51,1.44l3.2,2.48,5.83,2.33,2,1.31,17.11,16.22a9.15,9.15,0,0,0,4.87,2.43l10.18,1.43.15-1.64Z"/></g><polygon class="cls-17" points="248.74 27.24 234.18 27.85 233.47 36.58 249.48 37.77 248.74 27.24"/><rect class="cls-15" x="11.53" y="148.44" width="6.07" height="6.35" transform="translate(84.86 16.49) rotate(32.97)"/><polygon class="cls-24" points="30.73 90.82 26.86 121.33 10.91 150.49 18.08 153.02 38.16 128.91 46.37 102.43 30.73 90.82"/><path class="cls-25" d="M27.22,162.25H19.36l-12.94-5-.93-2,4.6-6.34.7.61v3l6.37,2.16,2.3-2.16,2.07,4.14,1.93,1.71,6.22,1.19a4.4,4.4,0,0,1,1.1,2.68H27.22Z"/><path class="cls-17" d="M27.22,162.25h3.56a4,4,0,0,0-.56-1.9H21l-13.33-5-.81-1.86L5.49,155.3l.93,2,12.94,5Z"/><polygon class="cls-17" points="21.03 155.67 18.96 155.03 18.8 155.54 21.36 156.34 21.03 155.67"/><polygon class="cls-17" points="22.06 157.14 19.99 156.5 19.83 157.01 23.04 158.01 22.06 157.14"/><polygon class="cls-17" points="20.32 154.25 18.3 153.62 17.84 154.05 20.66 154.92 20.32 154.25"/><rect class="cls-15" x="54.81" y="150.49" width="6.66" height="6.35"/><path class="cls-26" d="M37.6,110.51l4.68,5.12,4.09-13.2L30.73,90.82l-.81,6.42A36,36,0,0,0,37.6,110.51Z"/><path class="cls-24" d="M28.11,92.08h0a36.13,36.13,0,0,0,11.83,15l17,12.5L54,152.19h8.77c.46-6.37,4.45-18.83,6.32-26.28a27.79,27.79,0,0,0,.62-6.46,11.25,11.25,0,0,0-1.5-6.36l-2.79-4.79-7.48-8-7-7.86-.12-5.35H28.11Z"/><path class="cls-25" d="M64.64,151.82l7.89,5.45,4,1.21a2.07,2.07,0,0,1,1.46,2v1.22H53.47l-1.12-1.78v-7.23l1.12.19,1.79,2.44h3.38Z"/><path class="cls-17" d="M77.67,159.43a2,2,0,0,1,.3,1v1.22H53.47l-1.12-1.78v-2.26l1.12,1.79Z"/><polygon class="cls-17" points="65.39 154.99 65.39 154.43 68.41 154.43 69.23 154.99 65.39 154.99"/><polygon class="cls-17" points="63.96 153.23 66.68 153.23 67.49 153.79 63.96 153.79 63.96 153.23"/><polygon class="cls-17" points="66.88 156.13 66.88 155.57 70.07 155.57 70.88 156.13 66.88 156.13"/><g class="cls-27"><path class="cls-28" d="M68.22,113.09l-2.79-4.79-7.48-8-7-7.86-.07-3.1L40.38,92.81a4.43,4.43,0,0,0,.9,4.56,10.64,10.64,0,0,0,4,2.68c3.86,1.69,8,2.77,11.71,4.73s7.15,5.07,8.13,9.16a17.65,17.65,0,0,1,0,6.87c-1,6.23-2.84,12.28-4.17,18.45a57,57,0,0,0-1.52,12.93h3.35c.46-6.37,4.45-18.83,6.32-26.28a27.79,27.79,0,0,0,.62-6.46A11.25,11.25,0,0,0,68.22,113.09Z"/></g><rect class="cls-15" x="59.8" y="40.17" width="10.81" height="15.27" transform="translate(73.03 -32.67) rotate(59.31)"/><path class="cls-15" d="M84.8,41.6,83,47.28l-1.37-.2s1.2,2.88-.4,4.73L79,51,77.59,53.2a3.45,3.45,0,0,1-4.93.93l-2.15-1.55A9.08,9.08,0,0,1,67.9,40.82l4.46-8S83.6,34.72,84.8,41.6Z"/><path class="cls-26" d="M50.93,92.46l-.12-5.34H28.11v5a35.49,35.49,0,0,0,1.76,3.55C36,96.53,44.3,92.27,50.93,92.46Z"/><path class="cls-25" d="M61.86,43.5l-4.49.59c-3,.38-5.82.57-8.51,2.06A18.32,18.32,0,0,0,43,51.33a50,50,0,0,0-4,7.4L34.87,67.1,30,76.88l-4.1,8.2-1.81,3.64c6,9.79,21.17,2.09,30.36,5.5L63.7,67.35a37.06,37.06,0,0,0,2.75-14Z"/><g class="cls-10"><path class="cls-22" d="M65.49,60.07a7.75,7.75,0,0,1-6.15,5.4c-1.49.23-3.55,0-4.17,1.65s-1,3.48-2.1,5a15.4,15.4,0,0,1-2.9,2.8L46.9,77.58a1.66,1.66,0,0,0-.51.58,1.58,1.58,0,0,0,.26,1.34c.88,1.6,1.91,3.34,1.57,5.13a5.79,5.79,0,0,1-2.64,3.44,33,33,0,0,0-3.68,2.49,7.56,7.56,0,0,0-2.06,3.2c5.16-.36,10.48-1.07,14.6.46l8.81-25.56v0a.36.36,0,0,1,0-.09l.41-1.19c.2-.5.4-1,.58-1.53A41.7,41.7,0,0,0,66,58.51,10.11,10.11,0,0,0,65.49,60.07Z"/></g><polygon class="cls-25" points="59.02 55.15 61.86 70.95 50.29 70.95 42.96 55.58 59.02 55.15"/><path class="cls-29" d="M44.81,59.18,50.29,71H54L51.19,65a11.59,11.59,0,0,0-6.38-5.85Z"/><path class="cls-15" d="M51.33,71l1.9,8.7,2.7,3.29a8.8,8.8,0,0,0,.9.93l5.86,4.72,10.93,9.92,3.19,5.78.94,7.85a1.33,1.33,0,0,0,1.24,0l.42-5.27h1.13L83.12,114c.23.16,1,.22,1.14,0l-1.65-8,3.58,8c.27.17,1.08.25,1.27,0l-2.69-8.88.31-.72,4.84,5.88c.36,0,1-.67,1-1l-5.89-9.91.21-1.55,2.58-.29a2.31,2.31,0,0,0,2-2.29h0l-5.35-.31-5.27-.52-17.44-19L61,71Z"/><g class="cls-30"><path class="cls-19" d="M78.66,103.05l-3.18-5.78L64.55,87.35l-5.86-4.72a6.6,6.6,0,0,1-.9-.93l-2.7-3.29L53.45,71H51.33l1.9,8.7,2.7,3.29a8.8,8.8,0,0,0,.9.93l5.86,4.72,10.93,9.92,3.19,5.78.94,7.85a1.33,1.33,0,0,0,1.24,0l.31-3.86Z"/></g><path class="cls-31" d="M91.3,40.24a12.25,12.25,0,0,1-2.24,1.68,4.64,4.64,0,0,1-2.68.61,5.73,5.73,0,0,1-2.47-1,27.27,27.27,0,0,1-2.38-1.58,6.25,6.25,0,0,0-1.53-1,1.6,1.6,0,0,0-1.71.28,8.8,8.8,0,0,0-.59,1.09c-.53.77-1.59.88-2.44,1.24a7.94,7.94,0,0,0-1.73,1.19c-.79.65-1.6,1.29-2.36,2a8.91,8.91,0,0,0,.71-3.56,2.15,2.15,0,0,0-.58-1.69,1.63,1.63,0,0,0-1.65-.1,4.31,4.31,0,0,0-1.37,1.07,5.72,5.72,0,0,0-2,2.89,6.94,6.94,0,0,1-.21,1.29,2.83,2.83,0,0,1-.74,1.26c-.2.17-.65.48-.83.2a3.82,3.82,0,0,1-.11-.57,4.58,4.58,0,0,0-.14-.53,14.59,14.59,0,0,1-.82-6.08,13.12,13.12,0,0,1,2.16-5.5c1.5-2.16,4.08-4.72,6.68-5.47,1.86-.55,4.41.72,6,1.62A42.77,42.77,0,0,1,85,35a15.3,15.3,0,0,0,7.54,4.1A13.19,13.19,0,0,1,91.3,40.24Z"/></g></g></svg>