<svg height="472pt" viewBox="-20 0 472 472" width="472pt" xmlns="http://www.w3.org/2000/svg"><path d="m395.816406 212c0 35.347656-28.652344 64-64 64s-64-28.652344-64-64 28.652344-64 64-64 64 28.652344 64 64zm0 0" fill="#ff5252"/><g fill="#263238"><path d="m428 24h-32c-2.207031 0-4-1.792969-4-4s1.792969-4 4-4h32c2.207031 0 4 1.792969 4 4s-1.792969 4-4 4zm0 0"/><path d="m412 40c-2.207031 0-4-1.792969-4-4v-32c0-2.207031 1.792969-4 4-4s4 1.792969 4 4v32c0 2.207031-1.792969 4-4 4zm0 0"/><path d="m388 64h-32c-2.207031 0-4-1.792969-4-4s1.792969-4 4-4h32c2.207031 0 4 1.792969 4 4s-1.792969 4-4 4zm0 0"/><path d="m372 80c-2.207031 0-4-1.792969-4-4v-32c0-2.207031 1.792969-4 4-4s4 1.792969 4 4v32c0 2.207031-1.792969 4-4 4zm0 0"/><path d="m299.824219 80h-16c-2.207031 0-4-1.792969-4-4s1.792969-4 4-4h16c2.207031 0 4 1.792969 4 4s-1.792969 4-4 4zm0 0"/><path d="m267.824219 80h-120c-2.207031 0-4-1.792969-4-4s1.792969-4 4-4h120c2.207031 0 4 1.792969 4 4s-1.792969 4-4 4zm0 0"/><path d="m164 432h-16c-2.207031 0-4-1.792969-4-4s1.792969-4 4-4h16c2.207031 0 4 1.792969 4 4s-1.792969 4-4 4zm0 0"/><path d="m300 432h-120c-2.207031 0-4-1.792969-4-4s1.792969-4 4-4h120c2.207031 0 4 1.792969 4 4s-1.792969 4-4 4zm0 0"/><path d="m388 472h-8c-2.207031 0-4-1.792969-4-4v-64c0-2.207031 1.792969-4 4-4s4 1.792969 4 4v60h4c19.847656 0 36-16.152344 36-36v-28c0-2.207031 1.792969-4 4-4s4 1.792969 4 4v28c0 24.265625-19.742188 44-44 44zm0 0"/><path d="m428 432c-2.207031 0-4-1.792969-4-4 0-19.847656-16.152344-36-35.992188-36l-344.007812-.015625c-24.246094 0-43.984375-19.71875-44-43.976563 0-.007812 0-.015624 0-.015624v-.007813-271.984375c0-24.265625 19.742188-44 44-44h28c2.207031 0 4 1.792969 4 4v272c0 2.207031-1.792969 4-4 4h-28c-19.839844 0-35.992188 16.144531-36 35.992188.007812 19.839843 16.160156 35.992187 36 35.992187l344.007812.015625c14.855469 0 28.023438 7.40625 35.992188 18.726562v-262.726562c0-11.023438-8.96875-20-20-20h-316c-2.207031 0-4-1.792969-4-4s1.792969-4 4-4h316c15.441406 0 28 12.558594 28 28v288c0 2.207031-1.792969 4-4 4zm-384-392c-19.847656 0-36 16.152344-36 36v246.726562c7.96875-11.320312 21.136719-18.726562 36-18.726562h24v-264zm0 0"/><path d="m363.824219 248c-1.023438 0-2.046875-.390625-2.832031-1.167969l-64-64c-1.558594-1.558593-1.558594-4.097656 0-5.65625 1.558593-1.558593 4.097656-1.558593 5.65625 0l64 64c1.558593 1.558594 1.558593 4.097657 0 5.65625-.785157.777344-1.808594 1.167969-2.824219 1.167969zm0 0"/><path d="m299.824219 248c-1.023438 0-2.046875-.390625-2.832031-1.167969-1.558594-1.558593-1.558594-4.097656 0-5.65625l64-64c1.558593-1.558593 4.097656-1.558593 5.65625 0 1.558593 1.558594 1.558593 4.097657 0 5.65625l-64 64c-.785157.777344-1.808594 1.167969-2.824219 1.167969zm0 0"/><path d="m135.007812 336h-12c-2.207031 0-4-1.792969-4-4s1.792969-4 4-4h12c2.207032 0 4 1.792969 4 4s-1.792968 4-4 4zm0 0"/><path d="m172.335938 336h-18.664063c-2.207031 0-4-1.792969-4-4s1.792969-4 4-4h18.664063c2.207031 0 4 1.792969 4 4s-1.792969 4-4 4zm0 0"/><path d="m203.007812 336h-12c-2.207031 0-4-1.792969-4-4s1.792969-4 4-4h8v-8c0-2.207031 1.792969-4 4-4 2.207032 0 4 1.792969 4 4v12c0 2.207031-1.792968 4-4 4zm0 0"/><path d="m203.007812 304.800781c-2.207031 0-4-1.792969-4-4v-19.199219c0-2.210937 1.792969-4 4-4 2.207032 0 4 1.789063 4 4v19.199219c0 2.207031-1.792968 4-4 4zm0-38.402343c-2.207031 0-4-1.789063-4-4v-19.199219c0-2.207031 1.792969-4 4-4 2.207032 0 4 1.792969 4 4v19.199219c0 2.21875-1.792968 4-4 4zm0 0"/><path d="m203.007812 228c-2.207031 0-4-1.792969-4-4v-12c0-2.207031 1.792969-4 4-4h12c2.207032 0 4 1.792969 4 4s-1.792968 4-4 4h-8v8c0 2.207031-1.792968 4-4 4zm0 0"/><path d="m243.007812 216h-12c-2.207031 0-4-1.792969-4-4s1.792969-4 4-4h12c2.207032 0 4 1.792969 4 4s-1.792968 4-4 4zm0 0"/></g><path d="m155.816406 180h-48l24-32zm0 0" fill="#ffd740"/><path d="m155.824219 184h-48c-1.511719 0-2.894531-.855469-3.578125-2.207031-.679688-1.351563-.527344-2.976563.378906-4.183594l24-32c1.511719-2.015625 4.886719-2.015625 6.40625 0l24 32c.90625 1.207031 1.058594 2.832031.375 4.183594-.679688 1.351562-2.070312 2.207031-3.582031 2.207031zm-40-8h32l-16-21.335938zm0 0" fill="#263238"/><path d="m203.816406 180h-48l24-32zm0 0" fill="#ffd740"/><path d="m203.824219 184h-48c-1.511719 0-2.894531-.855469-3.578125-2.207031-.679688-1.351563-.527344-2.976563.378906-4.183594l24-32c1.511719-2.015625 4.886719-2.015625 6.40625 0l24 32c.90625 1.207031 1.058594 2.832031.375 4.183594-.679688 1.351562-2.070312 2.207031-3.582031 2.207031zm-40-8h32l-16-21.335938zm0 0" fill="#263238"/><path d="m267.816406 308h128v24h-128zm0 0" fill="#40c4ff"/><path d="m395.824219 336h-128c-2.207031 0-4-1.792969-4-4v-24c0-2.207031 1.792969-4 4-4h128c2.207031 0 4 1.792969 4 4v24c0 2.207031-1.792969 4-4 4zm-124-8h120v-16h-120zm0 0" fill="#263238"/></svg>