<?xml version="1.0"?>
<svg xmlns="http://www.w3.org/2000/svg" viewBox="0 0 96 96" width="512" height="512"><g id="_17.Website_Wireframe" data-name="17.Website Wireframe"><g id="_Group_" data-name="&lt;Group&gt;"><path d="M95,16V87a3,3,0,0,1-3,3H4a3,3,0,0,1-3-3V16Z" style="fill:#ebf4ff"/><path d="M95,9v7H1V9A3,3,0,0,1,4,6H92A3,3,0,0,1,95,9Z" style="fill:#acc8f1"/><path d="M92,91H4a4,4,0,0,1-4-4V9A4,4,0,0,1,4,5H92a4,4,0,0,1,4,4V26a1,1,0,0,1-2,0V9a2,2,0,0,0-2-2H4A2,2,0,0,0,2,9V87a2,2,0,0,0,2,2H92a2,2,0,0,0,2-2V31a1,1,0,0,1,2,0V87A4,4,0,0,1,92,91Z" style="fill:#283d54"/><path d="M91,17H5a1,1,0,0,1,0-2H91a1,1,0,0,1,0,2Z" style="fill:#283d54"/></g><path d="M8,12H6a1,1,0,0,1,0-2H8a1,1,0,0,1,0,2Z" style="fill:#283d54"/><path d="M15,12H13a1,1,0,0,1,0-2h2a1,1,0,0,1,0,2Z" style="fill:#283d54"/><path d="M89,12H23a1,1,0,0,1,0-2H89a1,1,0,0,1,0,2Z" style="fill:#283d54"/><g id="_Group_2" data-name="&lt;Group&gt;"><rect x="14" y="24" width="20" height="30" rx="2" ry="2" style="fill:#c5dcfa"/><rect x="14" y="60" width="20" height="26" rx="2" ry="2" style="fill:#c5dcfa"/><rect x="40" y="24" width="20" height="14" rx="2" ry="2" style="fill:#c5dcfa"/><rect x="40" y="44" width="20" height="42" rx="2" ry="2" style="fill:#c5dcfa"/><rect x="66" y="24" width="20" height="46" rx="2" ry="2" style="fill:#c5dcfa"/><rect x="65.973" y="75.929" width="20.053" height="10.142" rx="2" ry="2" transform="translate(-0.696 0.659) rotate(-0.494)" style="fill:#c5dcfa"/><rect x="64" y="74" width="20" height="10" rx="2" ry="2" style="fill:#f8fafd"/><rect x="64" y="22" width="20" height="46" rx="2" ry="2" style="fill:#f8fafd"/><rect x="38" y="22" width="20" height="14" rx="2" ry="2" style="fill:#f8fafd"/><rect x="12" y="22" width="20" height="30" rx="2" ry="2" style="fill:#f8fafd"/><rect x="38" y="42" width="20" height="42" rx="2" ry="2" style="fill:#f8fafd"/><rect x="12" y="58" width="20" height="26" rx="2" ry="2" style="fill:#f8fafd"/><path d="M32,24a2.006,2.006,0,0,0-2-2H14a2.006,2.006,0,0,0-2,2v3H32Z" style="fill:#fc9a9a"/><path d="M58,44a2.006,2.006,0,0,0-2-2H40a2.006,2.006,0,0,0-2,2v3H58Z" style="fill:#a9ebc8"/><path d="M58,24a2.006,2.006,0,0,0-2-2H40a2.006,2.006,0,0,0-2,2v3H58Z" style="fill:#c3d4ef"/><path d="M84,24a2.006,2.006,0,0,0-2-2H66a2.006,2.006,0,0,0-2,2v3H84Z" style="fill:#d3bcfb"/><path d="M84,76a2.006,2.006,0,0,0-2-2H66a2.006,2.006,0,0,0-2,2v3H84Z" style="fill:#c3d4ef"/><path d="M32,60a2.006,2.006,0,0,0-2-2H14a2.006,2.006,0,0,0-2,2v3H32Z" style="fill:#c3d4ef"/><path d="M30,53H14a3,3,0,0,1-3-3V24a3,3,0,0,1,3-3H30a3,3,0,0,1,3,3V50A3,3,0,0,1,30,53ZM14,23a1,1,0,0,0-1,1V50a1,1,0,0,0,1,1H30a1,1,0,0,0,1-1V24a1,1,0,0,0-1-1Z" style="fill:#283d54"/><path d="M56,85H40a3,3,0,0,1-3-3V44a3,3,0,0,1,3-3H56a3,3,0,0,1,3,3V82A3,3,0,0,1,56,85ZM40,43a1,1,0,0,0-1,1V82a1,1,0,0,0,1,1H56a1,1,0,0,0,1-1V44a1,1,0,0,0-1-1Z" style="fill:#283d54"/><path d="M82,69H66a3,3,0,0,1-3-3V24a3,3,0,0,1,3-3H82a3,3,0,0,1,3,3V66A3,3,0,0,1,82,69ZM66,23a1,1,0,0,0-1,1V66a1,1,0,0,0,1,1H82a1,1,0,0,0,1-1V24a1,1,0,0,0-1-1Z" style="fill:#283d54"/><path d="M56,37H40a3,3,0,0,1-3-3V24a3,3,0,0,1,3-3H56a3,3,0,0,1,3,3V34A3,3,0,0,1,56,37ZM40,23a1,1,0,0,0-1,1V34a1,1,0,0,0,1,1H56a1,1,0,0,0,1-1V24a1,1,0,0,0-1-1Z" style="fill:#283d54"/><path d="M30,85H14a3,3,0,0,1-3-3V60a3,3,0,0,1,3-3H30a3,3,0,0,1,3,3V82A3,3,0,0,1,30,85ZM14,59a1,1,0,0,0-1,1V82a1,1,0,0,0,1,1H30a1,1,0,0,0,1-1V60a1,1,0,0,0-1-1Z" style="fill:#283d54"/><path d="M82,85H66a3,3,0,0,1-3-3V76a3,3,0,0,1,3-3H82a3,3,0,0,1,3,3v6A3,3,0,0,1,82,85ZM66,75a1,1,0,0,0-1,1v6a1,1,0,0,0,1,1H82a1,1,0,0,0,1-1V76a1,1,0,0,0-1-1Z" style="fill:#283d54"/></g></g></svg>
