<svg height="512pt" viewBox="0 0 512 512" width="512pt" xmlns="http://www.w3.org/2000/svg"><path d="m490.890625 512h-469.78125c-11.65625 0-21.109375-9.453125-21.109375-21.109375v-469.78125c0-11.65625 9.453125-21.109375 21.109375-21.109375h469.78125c11.65625 0 21.109375 9.453125 21.109375 21.109375v469.78125c0 11.65625-9.453125 21.109375-21.109375 21.109375zm0 0" fill="#86919e"/><path d="m490.890625 0h-45.328125c11.65625 0 21.109375 9.453125 21.109375 21.109375v469.78125c0 11.660156-9.453125 21.109375-21.109375 21.109375h45.328125c11.660156 0 21.109375-9.453125 21.109375-21.109375v-469.78125c0-11.65625-9.453125-21.109375-21.109375-21.109375zm0 0" fill="#77818c"/><g fill="#616b78"><path d="m101.988281 116.527344h-24.898437v15.453125h24.898437c4.269531 0 7.726563-3.460938 7.726563-7.726563 0-4.269531-3.457032-7.726562-7.726563-7.726562zm0 0"/><path d="m101.988281 172.992188h-24.898437v15.453124h24.898437c4.269531 0 7.726563-3.460937 7.726563-7.726562s-3.457032-7.726562-7.726563-7.726562zm0 0"/><path d="m101.988281 229.457031h-24.898437v15.453125h24.898437c4.269531 0 7.726563-3.457031 7.726563-7.726562 0-4.265625-3.457032-7.726563-7.726563-7.726563zm0 0"/><path d="m101.988281 285.921875h-24.898437v15.453125h24.898437c4.269531 0 7.726563-3.457031 7.726563-7.726562 0-4.265626-3.457032-7.726563-7.726563-7.726563zm0 0"/><path d="m101.988281 342.390625h-24.898437v15.449219h24.898437c4.269531 0 7.726563-3.457032 7.726563-7.722656 0-4.269532-3.457032-7.726563-7.726563-7.726563zm0 0"/><path d="m101.988281 398.855469h-24.898437v15.453125h24.898437c4.269531 0 7.726563-3.460938 7.726563-7.726563s-3.457032-7.726562-7.726563-7.726562zm0 0"/><path d="m101.988281 455.320312h-24.898437v15.453126h24.898437c4.269531 0 7.726563-3.460938 7.726563-7.726563s-3.457032-7.726563-7.726563-7.726563zm0 0"/><path d="m453.46875 78.464844v25.375c0 4.265625 3.460938 7.726562 7.726562 7.726562 4.269532 0 7.726563-3.460937 7.726563-7.726562v-25.375zm0 0"/><path d="m397.003906 78.464844v25.375c0 4.265625 3.457032 7.726562 7.726563 7.726562s7.726562-3.460937 7.726562-7.726562v-25.375zm0 0"/><path d="m340.539062 78.464844v25.375c0 4.265625 3.457032 7.726562 7.726563 7.726562 4.265625 0 7.726563-3.460937 7.726563-7.726562v-25.375zm0 0"/><path d="m284.074219 78.464844v25.375c0 4.265625 3.457031 7.726562 7.722656 7.726562 4.269531 0 7.726563-3.460937 7.726563-7.726562v-25.375zm0 0"/><path d="m227.605469 78.464844v25.375c0 4.265625 3.460937 7.726562 7.726562 7.726562 4.269531 0 7.726563-3.460937 7.726563-7.726562v-25.375zm0 0"/><path d="m171.140625 78.464844v25.375c0 4.265625 3.457031 7.726562 7.726563 7.726562 4.269531 0 7.726562-3.460937 7.726562-7.726562v-25.375zm0 0"/><path d="m114.675781 78.464844v25.375c0 4.265625 3.457031 7.726562 7.726563 7.726562 4.265625 0 7.726562-3.460937 7.726562-7.726562v-25.375zm0 0"/></g><path d="m448.886719 463.046875h-294.738281c-6.796876 0-12.308594-5.511719-12.308594-12.308594v-294.734375c0-6.800781 5.511718-12.3125 12.308594-12.3125h294.738281c6.796875 0 12.308593 5.511719 12.308593 12.3125v294.734375c0 6.796875-5.511718 12.308594-12.308593 12.308594zm0 0" fill="#edeff2"/><path d="m418.238281 299.242188c-1.976562 0-3.953125-.753907-5.460937-2.265626-27.519532-27.515624-70.835938-31.671874-102.996094-9.875-3.53125 2.394532-8.335938 1.472657-10.730469-2.058593-2.394531-3.535157-1.46875-8.335938 2.0625-10.734375 38.28125-25.945313 89.839844-21.007813 122.585938 11.742187 3.019531 3.019531 3.019531 7.910157.003906 10.925781-1.507813 1.511719-3.488281 2.265626-5.464844 2.265626zm0 0" fill="#feda5f"/><path d="m292.378906 425.101562c-1.976562 0-3.953125-.753906-5.464844-2.265624-31.25-31.25-37.378906-79.609376-14.898437-117.601563 2.171875-3.671875 6.914063-4.886719 10.582031-2.714844 3.671875 2.171875 4.890625 6.910157 2.714844 10.585938-18.882812 31.914062-13.730469 72.546875 12.53125 98.804687 3.015625 3.019532 3.015625 7.910156 0 10.925782-1.511719 1.511718-3.488281 2.265624-5.464844 2.265624zm0 0" fill="#feda5f"/><path d="m304.863281 289.75c-1.980469 0-3.957031-.753906-5.464843-2.265625-3.019532-3.015625-3.015626-7.910156 0-10.925781l77.449218-77.425782c3.019532-3.015624 7.914063-3.015624 10.929688.003907 3.015625 3.015625 3.015625 7.90625-.003906 10.925781l-77.449219 77.425781c-1.507813 1.507813-3.484375 2.261719-5.460938 2.261719zm0 0" fill="#86919e"/><path d="m204.78125 389.796875c-1.980469 0-3.957031-.753906-5.464844-2.261719-3.019531-3.019531-3.015625-7.910156 0-10.929687l76.292969-76.265625c3.019531-3.019532 7.910156-3.015625 10.925781 0 3.019532 3.019531 3.015625 7.910156 0 10.925781l-76.292968 76.269531c-1.507813 1.507813-3.484376 2.261719-5.460938 2.261719zm0 0" fill="#86919e"/><path d="m174.082031 392.457031 20.09375-20.085937 20.125 20.136718-20.09375 20.085938zm0 0" fill="#86919e"/><path d="m372.90625 193.617188 20.09375-20.085938 20.125 20.132812-20.09375 20.085938zm0 0" fill="#86919e"/><path d="m0 81.382812v409.507813c0 11.65625 9.453125 21.109375 21.109375 21.109375h59.246094v-430.617188zm0 0" fill="#f4c84e"/><path d="m512 81.382812v-60.273437c0-11.65625-9.453125-21.109375-21.109375-21.109375h-469.78125c-11.65625 0-21.109375 9.453125-21.109375 21.109375v60.273437zm0 0" fill="#e6e9ed"/><path d="m490.890625 0h-45.328125c11.65625 0 21.109375 9.453125 21.109375 21.109375v60.273437h45.328125v-60.273437c0-11.65625-9.453125-21.109375-21.109375-21.109375zm0 0" fill="#ccd1d8"/><path d="m52.648438 40.433594 7.066406-7.0625c3.015625-3.019532 3.015625-7.910156 0-10.925782-3.019532-3.019531-7.910156-3.019531-10.929688 0l-7.0625 7.0625-7.0625-7.0625c-3.019531-3.019531-7.910156-3.019531-10.929687 0-3.015625 3.015626-3.015625 7.910157 0 10.925782l7.066406 7.0625-7.066406 7.066406c-3.015625 3.015625-3.015625 7.910156 0 10.925781 1.511719 1.507813 3.488281 2.261719 5.464843 2.261719 1.976563 0 3.957032-.753906 5.464844-2.261719l7.0625-7.0625 7.0625 7.0625c1.511719 1.507813 3.488282 2.261719 5.464844 2.261719s3.957031-.753906 5.464844-2.261719c3.015625-3.019531 3.015625-7.910156 0-10.925781zm0 0" fill="#ea89bf"/><path d="m40.175781 471.308594c-4.265625 0-7.726562-3.460938-7.726562-7.726563v-339.960937c0-4.265625 3.460937-7.726563 7.726562-7.726563 4.269531 0 7.726563 3.460938 7.726563 7.726563v339.960937c0 4.265625-3.457032 7.726563-7.726563 7.726563zm0 0" fill="#feda5f"/><path d="m304.933594 305.777344c-6.566406 6.566406-17.210938 6.566406-23.78125 0l-.046875-.046875c-6.570313-6.566407-6.570313-17.21875 0-23.789063 6.570312-6.5625 17.214843-6.5625 23.78125 0l.046875.046875c6.570312 6.570313 6.570312 17.222657 0 23.789063zm0 0" fill="#feda5f"/></svg>